# Inferior Vena Cava (FMA10951)
# BodyParts3D, (c) The Database Center for Life Science licensed under CC Attribution-Share Alike 2.1 Japan
# Licence: https://creativecommons.org/licenses/by-sa/2.1/jp/
# Modified from the original: see README.md in this repository.
# Units: millimetres. +X = patient left, +Y = posterior, +Z = superior.
# Origin: centroid of the heart wall.
o Inferior_Vena_Cava
v -40.3559 8.1088 -125.1646
v -40.5771 8.5158 -122.1546
v -40.3547 9.5488 -123.3645
v -40.3380 7.1068 -125.2046
v -40.4623 9.5108 -122.1145
v -40.1508 10.5298 -123.0846
v -40.7638 7.9378 -119.6746
v -40.3061 10.4768 -121.3346
v -40.6454 9.8988 -118.6046
v -40.7836 8.9048 -118.6345
v -40.6826 6.9508 -120.2046
v -40.1466 6.1318 -126.2346
v -40.1916 11.3928 -119.0546
v -40.6454 10.3468 -117.0846
v -40.4233 11.3008 -116.0546
v -40.1135 11.8368 -117.5346
v -39.9722 12.2948 -116.5145
v -40.2334 11.8638 -115.5346
v -40.9460 8.3428 -116.6546
v -40.8625 9.3398 -116.6245
v -41.0162 8.7948 -115.1345
v -40.8417 9.8108 -115.7946
v -40.9602 7.3258 -116.1946
v -41.3428 5.9958 -106.2346
v -40.2893 5.4988 -122.2545
v -41.0909 4.9818 -106.2645
v -40.4953 11.2698 -115.0546
v -40.2210 12.1008 -114.0246
v -39.8474 12.7368 -115.0045
v -40.7505 10.7298 -113.5746
v -40.4894 11.6818 -112.5346
v -41.4861 8.0398 -107.1646
v -40.9928 11.0338 -107.5546
v -40.6362 12.0158 -107.5246
v -41.2479 10.0458 -107.5946
v -39.9272 12.7058 -114.0045
v -40.9028 11.8548 -102.5246
v -40.3971 12.8468 -102.9945
v -41.2937 10.7398 -102.5646
v -40.1869 12.9748 -106.9846
v -39.6275 13.8718 -106.4546
v -39.8556 13.4758 -107.4746
v -39.7752 13.8148 -102.9546
v -41.4503 9.0208 -106.6245
v -41.5397 9.8518 -101.5946
v -41.6407 7.9248 -103.6646
v -41.5585 6.9548 -104.6946
v -41.4167 5.9298 -104.2346
v -41.3837 5.9628 -105.2346
v -41.2529 5.4728 -105.7545
v -41.1013 4.8568 -105.2746
v -41.2859 5.4398 -104.7545
v -41.1647 4.9158 -104.2645
v -41.3520 5.3728 -102.7545
v -40.7792 3.9118 -104.8046
v -40.8210 3.8618 -103.3046
v -41.1579 11.3148 -101.0446
v -40.7302 12.3108 -101.5045
v -40.2924 13.2018 -98.9746
v -40.3303 13.9708 -77.9346
v -41.7109 8.8248 -100.6345
v -41.7843 7.2748 -99.1846
v -41.6971 6.2518 -98.7146
v -41.2813 4.7818 -100.2746
v -40.9045 3.7608 -100.3046
v -42.3838 6.1358 -65.7046
v -41.8352 8.6918 -96.6345
v -42.4141 7.7958 -70.1445
v -41.6837 5.6118 -94.7346
v -41.2073 4.1028 -95.2946
v -40.7056 2.8538 -92.8346
v -41.5723 10.5748 -93.5646
v -41.5166 11.6358 -81.0246
v -40.9278 13.0188 -78.4746
v -41.6900 4.7448 -84.2645
v -41.3279 3.7418 -84.7946
v -40.8488 2.7338 -85.3346
v -41.1150 3.1778 -83.3146
v -42.0425 9.6618 -81.0946
v -41.8594 10.6178 -80.0546
v -42.3297 9.2578 -69.0946
v -41.8955 4.1088 -65.7746
v -40.5656 2.1658 -83.8546
v -41.8093 11.5748 -64.5145
v -42.1942 5.1248 -65.7346
v -42.2466 10.0968 -64.5646
v -42.2249 11.1078 -50.5246
v -39.8706 0.4998 -65.8945
v -40.3066 0.9138 -60.8845
v -40.9780 2.0588 -65.8446
v -42.7265 6.6128 -50.1746
v -42.5305 5.7238 -53.7146
v -42.3011 4.7288 -54.2445
v -41.7701 3.2168 -54.7946
v -40.9660 1.6918 -55.3546
v -42.7302 8.6318 -50.6046
v -42.4607 5.1148 -50.7346
v -42.1448 4.0528 -50.7645
v -41.5296 2.5818 -51.3146
v -40.9577 1.5508 -51.3546
v -40.6467 14.3528 -45.4046
v -39.3181 15.8188 -46.3546
v -42.5580 10.2748 -40.5446
v -42.0124 12.1778 -38.4746
v -42.3327 4.5728 -49.7445
v -42.5691 5.5868 -49.7146
v -42.1494 3.9658 -48.7645
v -42.3744 4.2258 -39.7545
v -41.9793 3.5538 -49.7846
v -41.2498 2.0228 -50.0846
v -41.7819 2.9908 -48.3046
v -40.6034 0.9978 -50.3745
v -40.9491 14.1068 -37.9046
v -39.9019 15.2798 -44.3645
v -42.6691 5.9168 -44.7046
v -42.8022 7.4078 -44.1445
v -42.7829 8.8208 -41.5946
v -41.2647 1.7398 -40.3446
v -41.7750 2.6758 -39.3046
v -40.5891 0.8218 -45.3745
v -41.5241 13.1358 -37.9446
v -42.3933 11.1798 -38.0145
v -42.8342 6.1988 -38.1846
v -42.9265 7.7228 -38.6345
v -42.6428 5.2228 -39.2246
v -41.2653 1.7278 -39.3446
v -40.9007 1.1468 -39.8645
v -40.5358 0.6448 -40.3745
v -40.5299 0.6088 -39.3745
v -41.9986 12.1428 -37.4746
v -40.9119 14.0698 -36.9046
v -41.4479 13.0968 -36.9446
v -41.6232 12.5878 -36.4646
v -41.1028 13.5618 -36.4246
v -41.8834 12.1018 -36.4746
v -41.4369 12.5608 -35.9646
v -41.2001 13.0488 -35.9446
v -41.7127 12.0748 -35.9746
v -41.1994 12.5388 -35.6946
v -40.7972 13.0108 -35.4446
v -41.2208 12.1298 -35.4746
v -40.2102 15.0688 -37.8745
v -40.2597 15.0188 -36.3745
v -40.5911 14.5178 -35.8945
v -40.9711 13.5368 -35.9246
v -40.7009 12.4978 -35.2445
v -38.7586 16.4938 -37.8246
v -37.9576 17.0738 -44.3046
v -39.2460 16.0008 -37.3346
v -40.2763 15.0018 -35.8745
v -40.0582 15.2078 -35.8645
v -40.0704 14.9738 -35.3645
v -40.3969 14.4908 -35.3945
v -42.6640 10.1928 -38.0446
v -42.8820 8.7208 -38.5946
v -42.8274 9.1658 -37.0846
v -42.6512 10.1398 -36.5446
v -42.3795 11.1438 -37.0145
v -42.9109 8.1698 -37.1145
v -42.7824 9.1288 -36.0846
v -42.8737 8.1328 -36.1145
v -42.4777 10.6138 -36.0346
v -42.1358 11.6138 -36.4945
v -42.6053 10.1198 -36.0446
v -42.3054 10.5428 -35.5346
v -42.5621 9.5998 -35.5646
v -42.7314 8.6078 -35.6046
v -42.8227 7.6118 -35.6345
v -42.0041 11.5898 -35.9945
v -41.7604 11.3868 -35.5045
v -42.9155 7.1868 -37.6546
v -42.8741 6.6318 -36.1746
v -42.6327 5.1178 -36.2246
v -42.5226 4.6818 -38.2346
v -42.4950 4.6098 -36.2445
v -42.8076 6.1108 -35.6846
v -42.8438 6.6128 -35.6746
v -42.5868 5.0978 -35.7246
v -42.1660 3.6488 -37.8945
v -42.4257 4.5888 -35.7445
v -42.2871 4.0988 -36.2545
v -42.1459 4.0318 -35.7545
v -42.0090 3.5838 -36.2746
v -41.2654 1.7268 -38.3446
v -41.7387 2.6218 -37.8046
v -41.6708 3.5448 -35.6546
v -41.4303 2.0878 -37.3246
v -40.8429 1.0558 -37.3645
v -40.7042 1.0138 -36.3645
v -40.8947 1.1108 -38.8645
v -40.5014 0.5548 -37.8745
v -41.1981 2.0408 -36.3246
v -41.1792 2.5228 -35.8146
v -40.5335 0.9878 -35.8645
v -40.7272 11.9948 -35.1646
v -40.0972 14.4638 -35.0746
v -40.1235 13.9608 -34.9846
v -40.1759 12.9608 -34.9446
v -40.2088 12.4618 -34.9646
v -40.2545 11.4608 -34.9346
v -39.6768 12.9318 -34.8745
v -39.7291 11.9328 -34.8845
v -41.8310 10.0398 -34.9246
v -42.3821 9.0788 -35.2545
v -42.4084 8.5768 -35.1946
v -41.8046 10.5438 -35.0346
v -41.8836 9.0378 -34.8346
v -41.2526 11.5248 -35.2545
v -40.7799 10.9898 -35.0045
v -40.3070 10.4608 -34.8945
v -42.4868 7.0808 -35.2545
v -42.3610 6.0698 -35.1846
v -42.1156 4.6098 -35.2346
v -42.0145 6.5388 -34.8046
v -42.0926 5.0488 -35.0646
v -41.6452 4.0318 -35.2946
v -41.6195 4.5228 -35.0446
v -41.5152 6.5128 -34.8146
v -41.5935 5.0178 -34.9346
v -40.0957 4.9378 -34.8845
v -40.6211 4.4668 -34.9346
v -41.1462 3.9998 -35.1245
v -40.6471 3.9688 -35.0045
v -41.1659 3.6248 -35.2746
v -40.8044 2.9858 -35.2946
v -40.6731 3.4728 -35.1046
v -36.6456 -0.5092 -156.4846
v -37.6529 1.7658 -148.3945
v -37.1619 0.5358 -156.9446
v -37.5075 1.5548 -156.9146
v -37.8912 8.7878 -148.2746
v -38.1973 7.7988 -148.1846
v -38.1876 8.7288 -146.1546
v -38.1853 6.3848 -150.7445
v -38.3633 3.7348 -146.3346
v -38.3524 4.8398 -149.2946
v -36.5553 12.1118 -145.0346
v -36.2092 12.1458 -146.5346
v -36.7424 11.6008 -146.0546
v -37.0669 12.0508 -142.5346
v -37.5231 10.6608 -145.0846
v -35.6903 12.5688 -147.0145
v -36.3818 11.6888 -147.5546
v -35.8875 12.6118 -146.0145
v -35.6643 13.0638 -144.9546
v -36.1685 12.9978 -143.0045
v -37.4286 10.2258 -147.1046
v -38.6571 7.6828 -144.1946
v -37.9811 9.6838 -145.1245
v -38.4487 8.6728 -144.1546
v -39.3486 7.4748 -137.1946
v -38.9181 3.8968 -135.8146
v -37.9967 11.4768 -139.0546
v -36.4937 12.9868 -141.5045
v -35.7714 13.4838 -142.4846
v -35.6195 13.9198 -140.9646
v -36.1396 13.5488 -140.4846
v -38.3276 10.0148 -141.6046
v -38.9310 9.0238 -139.1445
v -39.3986 5.9238 -135.7445
v -39.0994 4.8408 -137.2846
v -37.0154 0.6438 -145.9346
v -38.6759 10.9068 -136.0746
v -37.8953 12.3678 -136.0246
v -37.0132 12.9268 -139.0045
v -36.9448 13.7838 -134.9746
v -36.3230 13.8558 -137.9646
v -36.0896 14.5028 -135.4446
v -39.3197 8.9218 -135.6445
v -39.1513 9.8968 -135.1145
v -39.5455 7.8978 -134.6846
v -39.4711 6.9288 -135.7146
v -38.3610 12.2868 -133.0246
v -39.2169 4.9138 -135.7846
v -38.2095 2.3408 -135.3745
v -36.8244 0.4828 -131.4346
v -38.6456 12.2318 -131.0246
v -37.9526 13.2138 -131.4945
v -37.7869 13.2398 -132.4846
v -37.4808 13.7068 -131.9746
v -36.6630 14.2348 -133.9546
v -36.0684 14.9068 -132.9246
v -36.5723 14.8458 -130.4346
v -35.5594 15.0658 -134.4246
v -39.5624 6.3798 -134.2346
v -39.6850 8.8188 -132.1445
v -39.7286 7.8378 -132.6846
v -39.4679 10.2738 -131.0946
v -39.0636 11.2708 -131.5646
v -39.9915 7.7468 -129.6846
v -39.7143 6.3188 -132.2346
v -39.8782 6.7748 -130.7146
v -39.4183 4.8018 -132.2846
v -39.7432 5.7668 -130.7545
v -39.4197 5.3718 -134.2645
v -38.6372 2.6898 -130.3546
v -37.9240 1.6688 -130.8945
v -37.0094 14.5958 -129.4346
v -36.5544 15.1878 -127.9146
v -36.0414 15.5108 -128.4046
v -36.0267 15.7038 -126.8945
v -38.9778 12.1618 -128.5246
v -39.5868 10.6928 -128.5746
v -38.3950 13.1318 -128.4945
v -38.8998 12.6058 -127.0145
v -37.3092 14.1458 -130.4546
v -37.7906 14.0668 -127.4546
v -37.4221 14.5298 -126.9446
v -36.0461 15.3328 -129.9146
v -39.9713 8.7288 -129.1445
v -40.0792 7.7158 -128.6846
v -39.9901 6.7288 -129.2146
v -39.8098 9.7208 -129.1145
v -39.9131 9.6918 -128.1145
v -40.1067 8.6838 -127.6445
v -40.1989 7.6698 -127.1846
v -39.0170 2.3078 -118.8645
v -38.6907 1.6678 -115.3845
v -37.1646 14.9648 -125.4246
v -36.5413 15.4378 -125.9046
v -37.0028 14.9908 -126.4246
v -37.0556 15.1778 -124.4146
v -36.5358 15.5438 -124.9046
v -37.0501 15.2838 -123.4146
v -37.9434 14.4348 -123.4446
v -36.5306 15.6408 -123.8945
v -36.0058 16.1028 -122.8845
v -36.0216 15.8018 -125.8945
v -36.0133 15.9598 -124.3845
v -39.4445 11.6158 -126.5446
v -39.2028 12.4228 -125.0145
v -39.6666 11.5578 -124.5446
v -39.8011 11.0818 -125.0646
v -39.0283 12.9908 -123.4945
v -39.6120 12.0028 -123.0346
v -39.8176 11.5138 -123.0446
v -38.4601 13.5308 -125.4746
v -38.5868 13.5028 -124.4746
v -38.2885 13.9698 -123.9646
v -38.3257 13.5588 -126.4746
v -38.0196 14.0258 -125.9546
v -37.7300 14.4758 -124.9446
v -38.1462 13.9978 -124.9546
v -37.5799 14.5028 -125.9446
v -39.9920 10.1258 -126.0946
v -40.2246 9.1198 -125.6345
v -40.1430 10.0818 -124.5946
v -40.0553 10.5598 -124.0846
v -37.3329 0.3338 -115.4246
v -36.3545 -0.1042 -122.9446
v -39.7552 11.9578 -121.5346
v -39.5046 12.8588 -118.9945
v -39.2026 12.9478 -121.9945
v -38.3789 14.3358 -119.9446
v -38.4151 13.9418 -122.9646
v -37.5543 15.2148 -119.4146
v -40.1284 4.3138 -118.7946
v -39.6669 3.3418 -118.8246
v -37.5461 15.3738 -117.4046
v -38.1058 14.7688 -118.4246
v -38.2724 14.7258 -116.9246
v -37.5342 15.5988 -114.3546
v -35.9902 16.3998 -118.8645
v -36.4905 16.4078 -113.8645
v -35.4553 17.0528 -112.8446
v -39.6399 12.8128 -117.4945
v -39.4839 13.2528 -115.9846
v -38.9704 13.7958 -117.9646
v -39.2811 13.6898 -114.4646
v -39.4654 2.7088 -115.3446
v -40.1473 2.9828 -107.8346
v -39.4575 1.9638 -108.3745
v -38.3186 0.6318 -107.9146
v -38.6917 14.9328 -107.9146
v -39.0969 14.4428 -108.4346
v -39.1479 14.4398 -107.4346
v -38.7638 14.9018 -106.9146
v -37.6230 15.8958 -108.3845
v -36.4744 16.7148 -108.3546
v -39.5149 1.9138 -106.8745
v -38.7917 1.1588 -108.3945
v -37.3643 -0.2662 -106.9446
v -36.3989 -0.9522 -106.4646
v -36.9507 17.1788 -76.8146
v -35.9540 17.0908 -105.3346
v -34.9312 17.4998 -107.8246
v -40.2058 2.8358 -105.3446
v -40.3028 2.8508 -103.8346
v -39.5965 1.8488 -104.8745
v -38.7957 1.0828 -107.3945
v -38.7994 1.0108 -106.4046
v -38.7207 0.7848 -104.4046
v -38.3260 0.4918 -105.9146
v -38.3221 0.5658 -106.9146
v -37.3726 -0.4242 -104.4446
v -38.5114 16.0618 -72.8546
v -40.4029 2.7338 -100.3446
v -39.6878 1.7488 -101.8745
v -40.1930 1.9608 -92.8645
v -39.2926 1.1558 -100.3945
v -38.2679 0.1378 -100.9246
v -37.4007 -0.9612 -91.9546
v -36.4086 -1.1362 -102.9746
v -38.3834 -0.1702 -91.9346
v -39.4211 0.8668 -91.3945
v -39.6011 14.8988 -76.9046
v -40.2421 1.7708 -87.3645
v -35.4043 18.0258 -73.7846
v -39.8534 1.1278 -83.8845
v -39.4063 0.5518 -82.4046
v -40.2278 1.5958 -82.3645
v -37.4655 16.9098 -72.8246
v -36.4312 17.5378 -73.3046
v -38.8771 -0.4712 -67.9346
v -35.3999 18.1098 -64.7746
v -36.9407 17.3698 -62.8046
v -37.9627 16.9768 -47.8046
v -36.4064 18.0118 -45.2645
v -39.8366 0.3278 -60.8945
v -36.9487 -1.8902 -68.9746
v -37.4472 -1.8482 -58.4646
v -38.4193 -1.2892 -51.9446
v -35.9827 -2.5642 -60.9945
v -34.8679 18.7078 -43.7346
v -38.8987 -0.8822 -51.4346
v -40.6342 1.1558 -54.8645
v -39.8487 0.0978 -52.4046
v -36.4821 -2.5392 -49.9846
v -37.4548 -1.9922 -50.9746
v -37.4599 -2.0902 -45.4746
v -36.9201 17.7638 -44.7746
v -35.8898 18.3158 -43.7545
v -39.8570 -0.0612 -45.9046
v -39.8631 -0.1782 -39.9046
v -38.4254 -1.4062 -45.4446
v -37.9449 -1.7912 -43.4546
v -36.4861 -2.6162 -45.9846
v -36.9744 -2.3792 -43.9746
v -37.9504 17.2118 -37.2946
v -35.9810 18.3498 -37.7545
v -38.9068 -1.0382 -42.9346
v -38.9099 -1.0962 -39.9346
v -37.9464 -1.8192 -41.9546
v -37.4612 -2.1152 -42.9646
v -36.9778 -2.4452 -40.9746
v -36.4883 -2.6582 -42.9846
v -38.7448 16.4578 -36.8246
v -39.0137 16.0288 -35.8346
v -38.3198 16.9008 -35.8046
v -37.9671 16.8928 -35.3046
v -38.5203 15.8908 -35.2846
v -37.9515 17.1908 -35.7946
v -37.4428 17.3438 -35.7846
v -36.9274 17.6238 -36.2746
v -36.4211 17.7318 -35.7746
v -36.9556 17.0858 -35.2946
v -36.4503 17.1738 -35.2946
v -35.8936 18.2438 -36.7545
v -35.3972 18.1618 -35.7545
v -35.9452 17.2578 -35.2445
v -39.5360 15.6178 -36.3546
v -39.5442 15.4598 -35.7445
v -39.0483 15.3708 -35.3546
v -40.0897 0.0508 -38.3945
v -39.9932 -0.0072 -36.8945
v -40.4408 0.5168 -36.8745
v -40.3288 0.4898 -36.2645
v -39.8990 -0.0292 -36.3945
v -40.1863 0.4688 -35.8845
v -39.6516 -0.0592 -35.8945
v -39.3886 -0.6782 -38.4246
v -39.3876 -0.6582 -37.4146
v -38.4318 -1.5272 -37.9446
v -38.4259 -1.4162 -36.4446
v -39.0582 -0.5912 -35.9146
v -37.9504 -1.8952 -38.4646
v -38.4299 -1.4922 -36.9446
v -38.5314 -1.1192 -35.9346
v -37.9497 -1.8832 -37.4546
v -37.9458 -1.8082 -36.4546
v -37.9522 -1.6502 -35.9546
v -37.4523 -1.9462 -35.9546
v -37.4663 -2.2112 -37.9746
v -37.4982 -2.1392 -36.9646
v -36.5516 -2.6712 -37.4846
v -37.4600 -2.0922 -36.4646
v -36.9717 -2.3292 -36.4746
v -36.9628 -2.1592 -35.9646
v -37.9952 16.3558 -35.0246
v -38.0478 15.3528 -34.9246
v -36.9704 16.8038 -35.0346
v -36.9968 16.2998 -34.9146
v -36.4712 16.7748 -34.9646
v -35.4727 16.7208 -34.9146
v -39.5715 14.9408 -35.1846
v -39.5981 14.4338 -34.9546
v -39.6243 13.9318 -34.9046
v -38.5732 14.8808 -34.9646
v -38.1003 14.3518 -34.8845
v -35.6280 4.2028 -34.8745
v -40.1480 3.9398 -34.9146
v -40.2783 1.4548 -35.2746
v -40.1742 3.4408 -34.9246
v -40.2003 2.9428 -34.9746
v -40.3039 0.9648 -35.5646
v -39.8310 0.4348 -35.4446
v -39.8054 0.9238 -35.1445
v -39.6749 3.4128 -34.8845
v -39.7272 2.4148 -34.9046
v -39.7794 1.4198 -35.0246
v -39.3575 -0.0842 -35.6345
v -39.3322 0.3998 -35.1846
v -38.7287 2.3618 -34.8845
v -39.2802 1.3898 -34.9346
v -39.3063 0.8928 -35.0045
v -38.3078 0.8378 -34.9146
v -38.3598 -0.1542 -35.1245
v -38.8588 -0.1212 -35.3146
v -36.1395 -0.7792 -34.9146
v -38.3856 -0.6452 -35.3645
v -37.9156 -1.2312 -35.4346
v -37.8867 -0.6792 -35.1445
v -37.4389 -1.6892 -35.5846
v -37.4134 -1.2042 -35.1846
v -37.3875 -0.7092 -35.0346
v -36.9442 -1.8032 -35.4546
v -36.9143 -1.2332 -35.0846
v -36.1022 -1.4862 -158.0145
v -35.6534 -2.0272 -157.5346
v -35.4301 -1.5742 -151.0145
v -34.9960 -2.8442 -158.5646
v -34.5084 -3.0942 -157.0646
v -34.5183 -3.2832 -158.5746
v -33.5504 -3.9222 -158.0946
v -33.9795 -2.5552 -149.5446
v -33.1659 12.9698 -153.5045
v -34.2214 11.9358 -155.0446
v -33.1482 13.3068 -151.9945
v -32.1623 13.0108 -155.5045
v -32.1338 13.5548 -152.9846
v -31.6070 14.0528 -151.4646
v -32.6004 14.2058 -148.9546
v -35.1768 12.8128 -148.0045
v -35.2423 11.7868 -152.0446
v -34.1401 13.4868 -148.4846
v -33.0971 14.2808 -147.4546
v -32.0796 14.5888 -147.9446
v -31.5857 14.4588 -149.4446
v -32.0648 14.8718 -146.4346
v -35.3986 -0.9722 -142.9846
v -33.9449 -1.8952 -142.5145
v -35.1523 13.2808 -145.9945
v -35.1290 13.7258 -143.9746
v -34.6190 13.9938 -144.4646
v -34.6422 13.4608 -146.9846
v -34.6305 13.6838 -145.9746
v -34.6032 14.2048 -143.4546
v -34.0907 14.4298 -143.9446
v -34.1176 13.9168 -146.4646
v -34.1011 14.2308 -144.9546
v -33.5803 14.6158 -144.4446
v -34.0855 14.5288 -143.4446
v -33.5751 14.7148 -143.9346
v -33.5660 14.8888 -142.9846
v -33.0819 14.5718 -145.9446
v -33.0645 14.9038 -144.1646
v -32.0552 15.0558 -145.4246
v -31.0498 15.1318 -146.4146
v -32.0332 15.4748 -142.9046
v -32.5393 -3.7362 -153.0846
v -32.9844 -2.6752 -146.0446
v -34.0487 15.2318 -139.4146
v -33.0275 15.6098 -139.9046
v -34.0619 14.9798 -140.9246
v -32.0248 15.6348 -141.9046
v -32.5379 15.3978 -142.4146
v -33.0359 15.4498 -140.9046
v -32.0132 15.8558 -140.3945
v -32.0056 16.0008 -139.3845
v -33.5195 15.7748 -137.3945
v -35.1166 13.9618 -142.8146
v -35.1077 14.1318 -141.9546
v -35.6094 14.1118 -139.9546
v -34.5932 14.3958 -142.4446
v -35.1446 14.3818 -140.4446
v -34.5880 14.4948 -141.9446
v -34.0759 14.7128 -142.4346
v -33.5522 15.1508 -141.4246
v -34.9005 -1.0222 -136.4846
v -33.5088 15.9798 -135.8845
v -34.5515 15.1898 -137.9146
v -34.5320 15.5628 -135.4046
v -32.4897 16.3178 -135.8745
v -32.9917 16.2938 -134.8745
v -32.4960 16.1968 -136.8745
v -35.5894 14.4938 -137.9446
v -35.5718 14.8298 -135.9346
v -35.0784 14.6898 -138.9346
v -33.4342 -1.7052 -135.5045
v -32.9585 -2.1802 -140.5246
v -32.4438 -1.9142 -133.0045
v -31.9710 -2.4452 -140.0346
v -35.0369 15.4818 -133.9046
v -35.0262 15.6868 -132.3945
v -34.0108 15.9538 -134.3845
v -34.0041 16.0818 -133.4546
v -33.4889 16.3588 -132.8745
v -33.4952 16.2378 -133.8745
v -32.4746 16.6048 -133.3645
v -33.4676 16.7658 -128.8546
v -31.9530 17.0048 -130.3446
v -32.4802 16.4998 -134.3645
v -31.4708 16.6518 -134.8645
v -31.4657 16.7498 -133.8546
v -34.4899 16.3658 -128.8745
v -34.9929 16.3218 -126.8745
v -33.9677 16.7768 -126.8546
v -34.9858 16.4568 -125.3645
v -34.9792 16.5838 -123.8645
v -33.9615 16.8958 -125.3546
v -33.4419 17.2568 -122.3346
v -32.4456 17.1598 -127.3446
v -32.9444 17.1948 -125.3346
v -31.4332 17.3688 -126.3346
v -31.9316 17.4128 -124.8246
v -34.8965 -0.9452 -123.4746
v -33.4232 -1.4952 -122.4846
v -34.9598 16.9538 -118.3446
v -36.3640 -0.2862 -117.9446
v -33.9237 -1.4902 -114.4846
v -34.9345 17.4368 -109.8246
v -33.4161 17.7478 -113.8146
v -31.3998 18.0078 -113.3046
v -31.9376 -1.8082 -117.9945
v -32.4402 -1.8452 -113.4945
v -31.8985 18.0458 -112.2946
v -32.9002 18.0388 -108.7946
v -35.8851 -0.7012 -113.9646
v -35.4214 -1.4082 -106.9846
v -34.9068 -1.1422 -114.4746
v -31.8927 18.1558 -106.2946
v -31.8924 18.1618 -107.7946
v -32.7846 18.0738 -106.2946
v -33.9131 17.8178 -108.8046
v -33.9101 17.8748 -105.3046
v -34.4378 -1.7472 -107.4945
v -32.9462 -1.9472 -110.4945
v -33.4525 -2.0532 -106.4945
v -34.9284 17.5528 -105.3146
v -34.4163 17.7708 -103.8046
v -32.3943 18.1378 -104.7946
v -36.4037 -1.0432 -104.9646
v -35.4262 -1.4992 -105.4846
v -34.4422 -1.8312 -105.9945
v -33.9516 -2.0242 -104.9945
v -31.9647 -2.3262 -104.5045
v -33.4614 -2.2232 -102.5045
v -35.9189 -1.5392 -99.4846
v -35.4333 -1.6352 -102.4846
v -34.4525 -2.0262 -101.4945
v -32.9879 -2.7412 -89.5145
v -36.4349 -1.6382 -89.4746
v -35.4584 -2.1132 -88.9945
v -34.4740 -2.4372 -89.5045
v -35.4596 -2.1362 -86.9945
v -34.4755 -2.4662 -88.0045
v -34.9895 -2.7202 -71.0045
v -33.8761 18.5238 -73.7645
v -32.3602 18.7888 -71.7445
v -34.0009 -2.9642 -72.0145
v -32.5024 -3.0322 -79.0145
v -32.8560 18.8828 -58.2346
v -33.9794 18.6008 -62.2545
v -31.3657 18.6578 -82.2545
v -35.0087 -3.0862 -52.0045
v -33.5242 -3.4222 -52.0145
v -32.5251 -3.4652 -56.5145
v -35.5023 -2.9522 -49.4945
v -35.0135 -3.1782 -46.0045
v -34.5164 -3.2462 -49.5045
v -33.8518 18.9888 -43.2246
v -32.8415 19.1588 -42.2146
v -35.9973 -2.8432 -44.4945
v -33.8497 19.0288 -39.2246
v -31.8314 19.3248 -35.7046
v -36.0007 -2.9082 -41.4945
v -36.0033 -2.9572 -38.9945
v -35.0166 -3.2382 -42.5045
v -35.0197 -3.2972 -39.0045
v -34.0308 -3.5352 -39.5145
v -33.0354 -3.6482 -42.0145
v -32.5385 -3.7212 -40.0145
v -34.3560 18.9208 -36.7246
v -34.6286 18.7088 -35.7346
v -34.9225 17.6648 -35.2746
v -33.8475 19.0708 -35.7246
v -34.3949 18.1788 -35.2445
v -32.8712 18.5928 -35.0446
v -36.4925 -2.7372 -38.4846
v -36.0030 -2.9522 -37.9945
v -35.9975 -2.8472 -36.9846
v -35.3035 -2.7892 -35.9846
v -35.0199 -3.3012 -38.0045
v -34.0314 -3.5462 -38.5145
v -34.0302 -3.5232 -36.5045
v -34.1787 -3.3492 -36.0045
v -33.0381 -3.7002 -38.5145
v -33.0381 -3.7002 -36.5145
v -33.5310 -3.5512 -36.0045
v -34.9469 17.1998 -35.0746
v -34.4741 16.6678 -34.8945
v -34.4213 17.6748 -35.1145
v -33.8695 18.6508 -35.2146
v -33.8959 18.1468 -35.0746
v -31.3733 18.5118 -34.9646
v -26.0643 14.7228 -34.8645
v -30.4272 17.4578 -34.8945
v -35.4680 -2.2982 -35.4746
v -35.4425 -1.8102 -35.1245
v -34.9173 -1.3432 -34.9346
v -34.9690 -2.3282 -35.3346
v -34.9433 -1.8382 -35.0746
v -34.4954 -2.8472 -35.5546
v -34.4699 -2.3592 -35.2046
v -34.4441 -1.8662 -35.0145
v -33.9965 -2.8802 -35.3446
v -33.4195 -1.4232 -34.8945
v -33.9707 -2.3892 -35.1145
v -33.5124 -3.1962 -35.4945
v -32.4730 -2.4702 -35.0145
v -32.9981 -2.9372 -35.2046
v -30.1408 13.3698 -156.4846
v -31.1312 13.5778 -154.4746
v -30.1139 13.8828 -153.9646
v -29.1444 13.2738 -157.4846
v -29.6582 13.0228 -158.4945
v -28.6270 13.5928 -155.9746
v -29.1175 13.7868 -154.9646
v -28.6539 13.0798 -158.4945
v -28.1429 13.2758 -157.4846
v -28.1173 13.7658 -154.9646
v -31.1095 13.9918 -152.4646
v -30.5928 14.2968 -151.4546
v -29.5996 14.1408 -152.9546
v -29.1075 13.9788 -153.9646
v -28.0976 14.1408 -152.9546
v -31.0638 14.8638 -147.9346
v -30.5828 14.4888 -150.4446
v -29.5656 14.7908 -149.4346
v -30.0498 15.1058 -147.4146
v -29.5796 14.5238 -150.9446
v -29.0466 15.1398 -147.4146
v -30.0414 15.2668 -146.4146
v -28.5733 14.6178 -150.4346
v -28.5829 14.4338 -151.4446
v -28.5553 14.9608 -148.4246
v -28.0452 15.1398 -146.9146
v -27.5851 14.3658 -151.3046
v -27.5775 14.5108 -150.4346
v -31.5638 -4.2292 -154.1046
v -32.0108 -3.2052 -147.5646
v -30.0741 -4.4652 -153.6046
v -30.5128 -3.2832 -145.5646
v -28.5661 -4.3522 -152.5946
v -29.0280 -3.6122 -147.5746
v -31.0282 15.5438 -143.9046
v -30.5360 15.3828 -145.4046
v -30.0202 15.6708 -143.8945
v -29.5308 15.4548 -145.4046
v -30.0130 15.8068 -142.8945
v -29.0187 15.6728 -143.8945
v -29.0382 15.2998 -146.4146
v -28.0333 15.3688 -145.4046
v -28.0094 15.8238 -141.8845
v -29.4928 -2.9272 -142.0446
v -31.0202 15.6958 -142.8945
v -31.0123 15.8478 -141.8945
v -30.9975 16.1288 -139.8845
v -30.9912 16.2498 -138.8745
v -29.9987 16.0808 -140.8845
v -29.9888 16.2698 -139.3745
v -29.0048 15.9378 -141.8845
v -28.9976 16.0758 -140.7946
v -28.4908 16.1918 -139.3745
v -27.5051 15.8928 -140.3845
v -30.4792 -2.6422 -139.5346
v -31.4799 16.4778 -136.3645
v -30.4727 16.5888 -136.3645
v -30.4644 16.7478 -134.8546
v -29.4764 16.4938 -137.3645
v -29.4661 16.6888 -135.3546
v -28.4755 16.4848 -136.3645
v -27.9708 16.5598 -134.3546
v -27.9841 16.3058 -137.3645
v -27.4854 16.2688 -136.3645
v -30.9571 -2.2072 -134.0145
v -28.9674 -2.4552 -137.5246
v -29.4524 -2.1572 -133.0145
v -27.9739 -2.6062 -140.5246
v -31.4602 16.8548 -132.8546
v -30.4597 16.8378 -133.8546
v -30.9478 17.0788 -130.8446
v -29.9478 17.0518 -131.3446
v -29.4590 16.8238 -133.8546
v -28.9551 16.8858 -132.3446
v -28.9477 17.0268 -130.3446
v -27.9604 16.7598 -131.3446
v -29.9406 -1.9192 -127.0045
v -27.9483 -2.1172 -135.5045
v -31.4421 17.1988 -128.8346
v -30.4301 17.4028 -126.3246
v -30.4406 17.2028 -129.3346
v -29.4435 17.1208 -129.8346
v -29.4404 17.1798 -128.8346
v -29.4331 17.3188 -126.3246
v -28.9447 17.0858 -129.3346
v -28.4459 17.0478 -128.3346
v -27.9573 16.8188 -130.3446
v -27.9546 16.8698 -129.3446
v -27.4603 16.7478 -128.8446
v -27.9481 16.9928 -126.8346
v -31.9402 -1.8572 -128.0045
v -28.4332 -1.8172 -129.4945
v -27.9186 -1.5502 -126.4846
v -30.9264 17.4858 -124.8246
v -29.9270 17.4488 -124.8246
v -28.9329 17.3108 -124.8246
v -26.9603 16.7348 -123.8446
v -29.9329 -1.7702 -116.4846
v -30.8985 18.0188 -112.7946
v -28.4205 17.5328 -113.8146
v -30.9440 -1.9572 -112.9945
v -27.9590 -1.3272 -117.4746
v -30.8955 18.0758 -111.2946
v -29.9001 17.9628 -111.7946
v -28.9069 17.8048 -110.8046
v -27.9214 17.5038 -110.8046
v -27.4348 17.2348 -112.8146
v -29.9226 -1.9162 -111.9945
v -31.4485 -2.0302 -111.4945
v -30.8907 18.1678 -106.7846
v -30.3922 18.1258 -108.7946
v -31.3927 18.1428 -109.7946
v -29.8964 18.0328 -109.7946
v -28.9044 17.8538 -109.2946
v -29.8936 18.0868 -107.2946
v -28.4103 17.7268 -107.3046
v -27.9199 17.5308 -109.8046
v -31.9544 -2.1302 -109.0045
v -30.9524 -2.1182 -109.4945
v -30.8901 18.1778 -105.2846
v -31.3893 18.2068 -103.7846
v -29.8939 18.0808 -105.7946
v -30.3907 18.1548 -103.7846
v -28.4098 17.7368 -105.7946
v -28.9028 17.8848 -104.7946
v -27.9166 17.5948 -101.8046
v -27.9177 17.5728 -104.3046
v -27.4286 17.3538 -106.8146
v -30.4666 -2.4012 -101.0045
v -28.9485 -2.0962 -101.4846
v -30.4874 -2.7982 -88.5045
v -29.8821 18.3058 -92.7746
v -28.8883 18.1608 -90.7746
v -31.9909 -2.8252 -89.5145
v -28.8796 18.3268 -82.7645
v -27.4117 17.6748 -90.2946
v -29.4768 -2.6222 -89.0045
v -31.5026 -3.0612 -79.0145
v -30.3670 18.6058 -82.2545
v -29.3727 18.4718 -81.2645
v -28.3757 18.3888 -70.7545
v -27.4037 17.8268 -82.7846
v -29.4900 -2.8732 -78.0045
v -30.5017 -3.0702 -76.0145
v -28.4760 -2.6332 -76.9945
v -28.9863 -2.8172 -74.9945
v -31.5145 -3.2892 -68.0145
v -29.0020 -3.1152 -59.4945
v -27.8689 18.5058 -52.2346
v -30.0159 -3.3552 -56.5045
v -32.0375 -3.7142 -42.5145
v -30.5337 -3.6812 -39.0045
v -30.3325 19.2658 -36.7046
v -28.8435 19.0158 -36.7146
v -31.5394 -3.7652 -38.0145
v -31.3465 19.0248 -35.3546
v -30.8320 19.2878 -35.7046
v -30.3480 18.9698 -35.2645
v -29.8349 19.2068 -36.2046
v -29.8378 19.1498 -35.7146
v -28.8440 19.0058 -36.2146
v -28.3558 18.7678 -35.7246
v -28.3508 18.8628 -36.2146
v -28.3768 18.3668 -35.3146
v -29.8753 18.4338 -34.9945
v -27.3670 18.5278 -37.7246
v -27.8592 18.6898 -36.7246
v -27.8609 18.6568 -36.2246
v -27.8688 18.5068 -35.7246
v -27.8435 17.8358 -35.2545
v -32.0407 -3.7752 -36.5145
v -32.0383 -3.7302 -36.0145
v -31.5374 -3.7252 -36.0145
v -30.0310 -3.6432 -37.5045
v -31.0376 -3.7422 -36.5145
v -30.5322 -3.6532 -36.0045
v -29.5249 -3.5402 -38.5045
v -30.0312 -3.6462 -36.5045
v -29.0180 -3.4222 -37.4945
v -29.0126 -3.3182 -35.9945
v -30.0270 -3.5672 -35.9646
v -30.3747 18.4588 -34.9546
v -27.4575 16.8008 -34.8845
v -26.6404 3.7318 -34.8745
v -29.3988 -1.1332 -34.8845
v -32.5244 -3.4522 -35.5145
v -31.9996 -2.9922 -35.1445
v -31.4539 -2.1322 -34.9546
v -32.0252 -3.4802 -35.4746
v -31.0210 -3.4262 -35.4945
v -31.5003 -3.0182 -35.1546
v -29.9503 -2.1032 -34.9846
v -30.4757 -2.5742 -35.0346
v -30.0137 -3.3132 -35.4945
v -30.5015 -3.0682 -35.2146
v -29.9763 -2.5992 -35.0846
v -30.0021 -3.0922 -35.2746
v -29.4014 -3.1162 -35.4846
v -29.4508 -2.1262 -35.0746
v -28.9772 -2.6422 -35.3546
v -27.9008 -1.2122 -34.8845
v -27.6292 13.5248 -155.9746
v -27.1179 13.7278 -154.4646
v -27.1472 13.1688 -157.4846
v -26.6371 13.3478 -155.9746
v -26.1335 13.4038 -154.9746
v -26.1675 12.7538 -158.5045
v -25.6607 12.8708 -156.9945
v -25.1840 12.4128 -158.5145
v -24.6831 12.4178 -157.2545
v -24.6761 12.5508 -156.5045
v -25.1556 12.9558 -155.4945
v -24.2075 11.9398 -158.5246
v -24.1939 12.1998 -157.0145
v -24.1859 12.3518 -156.1345
v -23.7044 11.9848 -156.5246
v -26.5597 13.8688 -152.9546
v -26.5915 14.2188 -150.9446
v -25.1428 13.1998 -153.9846
v -25.6199 13.6498 -152.4646
v -24.1763 12.5348 -155.0045
v -24.6461 13.1228 -152.9846
v -24.6226 13.5718 -149.9646
v -24.1679 12.6958 -153.9945
v -23.6757 12.5328 -153.0045
v -27.5643 14.7628 -148.9246
v -27.5564 14.9148 -147.9246
v -26.5791 14.4548 -149.4346
v -26.5711 14.6068 -148.4346
v -26.5596 14.8278 -146.9246
v -25.5952 14.1218 -149.4446
v -25.5844 14.3268 -147.9346
v -24.6154 13.7088 -148.9546
v -23.6502 13.0188 -149.4846
v -23.6407 13.2008 -147.9746
v -27.5589 -4.2412 -152.5946
v -28.0144 -3.3792 -146.5546
v -26.4816 -2.7932 -145.0346
v -26.5504 -4.1042 -153.0846
v -24.9700 -2.6112 -148.0246
v -27.0460 15.0998 -145.9146
v -27.0289 15.4258 -143.4046
v -26.0640 14.7298 -146.4246
v -26.0509 14.9798 -144.4146
v -24.5956 14.0878 -145.9446
v -25.0791 14.4158 -145.4346
v -25.0699 14.5898 -143.9246
v -24.5896 14.2008 -144.9346
v -24.5784 14.4148 -142.8945
v -23.6273 13.4568 -145.5846
v -23.6213 13.5698 -144.4546
v -26.5257 15.4728 -141.5946
v -27.0036 15.9088 -138.8845
v -26.5191 15.5988 -140.3945
v -25.5420 15.1358 -140.9046
v -25.5350 15.2708 -139.4046
v -25.5513 14.9598 -142.6946
v -24.1028 14.3038 -140.4346
v -23.6119 13.7498 -142.4546
v -26.9625 -2.4152 -141.0246
v -26.9419 -2.0222 -137.5045
v -25.9410 -2.0302 -141.0045
v -24.9081 -1.4292 -140.4846
v -26.9969 16.0358 -137.3745
v -26.5011 15.9428 -136.3745
v -26.9844 16.2738 -134.3645
v -26.0170 15.6258 -137.8845
v -26.0135 15.6928 -136.8845
v -26.0096 15.7668 -135.8845
v -25.0451 15.2138 -136.4046
v -25.0421 15.1218 -137.9046
v -25.0328 15.2978 -134.8945
v -24.0689 14.5848 -135.4146
v -24.0753 14.4608 -137.9246
v -23.6069 14.1378 -136.4346
v -26.9293 -1.7822 -134.9945
v -25.9192 -1.6142 -137.4846
v -24.3739 -0.7902 -138.1846
v -26.9763 16.4288 -131.8546
v -25.6300 15.6748 -134.3845
v -26.0015 15.9218 -133.3745
v -25.9962 16.0238 -131.3745
v -25.0298 15.3568 -133.8945
v -24.0666 14.6278 -134.4146
v -24.0636 14.6848 -132.9146
v -25.0191 15.5608 -127.8845
v -25.8830 -0.9242 -129.9646
v -26.9090 -1.3942 -129.9746
v -26.9737 16.4798 -130.8546
v -27.4626 16.7048 -129.8446
v -26.4800 16.3468 -129.3546
v -26.9646 16.6518 -126.8446
v -25.9877 16.1868 -126.8645
v -24.0916 14.8318 -126.9046
v -26.8983 -1.1892 -126.4646
v -24.8453 -0.2302 -129.4346
v -26.4596 16.7338 -113.8346
v -23.5862 14.3228 -127.4246
v -24.8370 0.2028 -122.9146
v -25.8584 -0.4552 -121.9346
v -25.0115 15.7058 -114.3645
v -24.0583 14.7858 -117.9046
v -26.8831 -0.8992 -118.4546
v -25.8481 -0.2582 -115.9246
v -23.7610 14.4128 -115.4146
v -26.8803 -0.8452 -115.9546
v -26.9427 17.0708 -111.3246
v -25.9711 16.5018 -112.8446
v -25.0970 15.8788 -112.3645
v -25.9695 16.5328 -110.8446
v -24.5805 15.3868 -113.3745
v -23.6164 14.3358 -113.4146
v -24.0537 14.8748 -112.3945
v -26.9412 17.0978 -110.3246
v -26.4540 16.8408 -106.8246
v -25.5046 16.2088 -106.8446
v -24.5285 15.3678 -107.8745
v -26.9398 17.1248 -104.8146
v -27.0426 17.1848 -103.8146
v -26.4529 16.8628 -104.3246
v -26.4523 16.8748 -103.3246
v -25.9685 16.5518 -105.3346
v -25.0060 15.8098 -106.3645
v -25.4850 16.2238 -103.8446
v -24.5274 15.3878 -104.8745
v -24.0532 14.8838 -106.3945
v -24.9996 15.9318 -99.3546
v -23.6625 14.9828 -88.8745
v -25.3588 -0.4752 -95.9246
v -25.4639 16.6268 -88.3246
v -24.5035 15.8438 -88.8446
v -27.4420 -2.0112 -86.4746
v -24.0061 0.3328 -84.8845
v -24.0443 0.6488 -93.8745
v -28.4619 -2.3652 -88.4846
v -26.4069 -1.4732 -86.9546
v -26.4279 17.3398 -83.2946
v -23.9702 16.4668 -38.2946
v -26.5139 -1.7302 -79.4546
v -24.8572 -0.4572 -84.4146
v -25.3859 -0.9922 -80.4346
v -25.9132 17.6068 -52.7645
v -27.9694 -2.5202 -74.4846
v -27.4632 -2.2502 -77.4746
v -25.9071 -1.3842 -78.9446
v -26.9465 -2.1102 -72.9646
v -24.8682 -0.6682 -77.9146
v -25.9162 -1.5582 -71.9446
v -24.8768 -0.8322 -71.4146
v -27.4798 -2.7322 -53.4746
v -25.4098 -1.4492 -61.9346
v -24.1727 -0.5152 -60.4046
v -26.4445 -2.0852 -61.4546
v -25.9374 -1.9632 -52.9446
v -26.4650 -2.4752 -37.9546
v -24.3794 -0.8952 -50.9046
v -28.0026 -3.1532 -37.9846
v -26.8779 18.3078 -40.2346
v -25.4158 17.5438 -38.2545
v -27.3755 18.3658 -36.2346
v -27.3871 18.1448 -35.7445
v -26.9280 17.3508 -35.2645
v -26.3884 18.0928 -37.7445
v -27.1705 18.3528 -36.7346
v -26.8888 18.0978 -36.2445
v -26.6071 17.7878 -35.7545
v -25.9069 17.7278 -36.7545
v -25.9115 17.6408 -36.2545
v -25.9189 17.4978 -35.7645
v -26.4320 17.2628 -35.2946
v -26.4589 16.7488 -34.8945
v -25.4185 17.4928 -37.2645
v -25.9323 17.2418 -35.4746
v -25.9594 16.7258 -34.9746
v -25.3583 16.7048 -35.2846
v -25.2224 17.2328 -36.2645
v -25.4111 17.2248 -35.7645
v -24.5242 16.6788 -35.7846
v -24.4513 16.8408 -37.2846
v -24.8927 16.1798 -35.3046
v -24.0405 15.1258 -35.0946
v -23.9720 16.4318 -37.2946
v -23.9750 16.3758 -36.7946
v -23.9595 16.1488 -35.8046
v -28.5079 -3.2412 -36.4846
v -28.5027 -3.1412 -35.9846
v -27.9963 -3.0342 -36.4846
v -27.9891 -2.8952 -35.9746
v -27.4742 -2.6252 -35.9646
v -26.4579 -2.3402 -36.4546
v -26.4527 -2.2412 -35.9446
v -24.9114 -1.4912 -38.4246
v -25.4301 -1.8352 -37.4346
v -25.9462 -2.1312 -36.9446
v -25.9431 -2.0702 -36.4446
v -25.9379 -1.9702 -35.9346
v -25.4269 -1.7752 -36.7946
v -24.9323 -1.3142 -36.4146
v -25.5244 -1.7832 -36.4346
v -25.4161 -1.5682 -35.9246
v -24.9099 -1.4642 -37.4246
v -24.9068 -1.4032 -36.9146
v -24.8886 -1.0562 -35.9046
v -24.3765 -0.8402 -36.4846
v -25.9857 16.2238 -34.9146
v -25.5387 15.1988 -34.9246
v -25.4861 16.2028 -35.0846
v -24.0670 14.6188 -34.8945
v -24.1457 13.1188 -34.8546
v -26.3767 -0.7912 -34.8645
v -24.1962 2.6018 -34.8845
v -25.7988 0.6818 -34.8845
v -25.8772 -0.8132 -34.9846
v -24.2747 1.1038 -34.8945
v -25.3255 0.1598 -35.0045
v -24.8517 -0.3532 -35.3446
v -28.6322 -2.6562 -35.4646
v -28.4519 -2.1722 -35.2445
v -27.4272 -1.7292 -35.1445
v -27.5974 -2.2102 -35.4546
v -26.4352 -1.9072 -35.4346
v -26.4028 -1.2882 -34.9546
v -25.9219 -1.6652 -35.4246
v -25.9032 -1.3092 -35.0946
v -25.4030 -1.3192 -35.5546
v -23.7107 11.8648 -157.2346
v -23.6961 12.1448 -155.5145
v -23.2219 11.6388 -156.5346
v -22.7458 11.1698 -157.0446
v -22.7378 11.3218 -156.0446
v -22.2653 10.7828 -156.5646
v -22.2733 10.6308 -157.5646
v -21.8084 9.9478 -158.5946
v -21.4557 9.7378 -157.0946
v -21.7932 10.2388 -156.6046
v -21.7044 10.2158 -156.0846
v -21.3393 9.3448 -158.6145
v -21.4382 9.3238 -159.6145
v -20.7113 8.2678 -159.1445
v -20.7902 8.7018 -157.1345
v -21.3247 9.6248 -156.6046
v -21.2634 9.6758 -155.5946
v -20.9921 9.1778 -156.1145
v -20.3120 7.6768 -157.1646
v -20.6681 8.6438 -155.6345
v -20.8535 9.0618 -155.1145
v -20.2789 7.2618 -159.6846
v -20.2064 7.6008 -155.1646
v -21.9448 -2.2072 -158.6145
v -23.5063 -3.3422 -157.0546
v -23.0106 -3.4372 -159.5646
v -22.2920 0.7208 -141.5246
v -20.7286 -0.7212 -159.9646
v -20.8613 -0.6412 -158.4546
v -23.6892 12.2758 -154.6946
v -23.2095 11.8748 -155.0246
v -23.1979 12.0958 -153.5145
v -22.7119 11.8158 -152.5246
v -22.7262 11.5428 -154.5346
v -22.7191 11.6798 -153.5246
v -22.2540 11.0008 -155.0546
v -22.2842 11.1778 -154.0446
v -22.2403 11.2618 -153.0446
v -22.2182 11.6828 -149.5246
v -21.7688 10.7038 -153.0646
v -21.4965 10.1528 -154.5846
v -21.4074 10.5088 -150.5646
v -21.0027 9.5738 -153.0946
v -20.8294 9.5208 -150.0946
v -20.4707 8.5278 -152.6345
v -20.5919 8.6048 -154.6345
v -22.6920 12.1948 -149.5045
v -22.6735 12.5488 -145.9945
v -21.5341 10.9288 -148.0546
v -20.9310 9.8958 -148.0846
v -21.4120 10.8698 -146.5546
v -20.2284 7.9278 -150.1546
v -20.3385 8.3638 -148.1345
v -20.6455 1.9098 -149.3645
v -20.3114 1.1188 -155.8945
v -21.1287 1.7958 -145.3645
v -23.1448 13.1088 -144.9746
v -22.3211 12.3308 -144.0045
v -23.1354 13.2888 -142.9646
v -22.1477 11.9088 -146.5145
v -22.0481 11.8688 -145.5145
v -21.8879 11.7908 -143.5145
v -21.3211 10.8128 -145.0546
v -21.2633 10.7958 -143.0546
v -20.8195 9.7858 -145.0846
v -20.6102 9.1518 -141.6046
v -20.3816 8.1388 -141.6445
v -20.3921 3.3108 -146.8146
v -21.4187 3.4278 -134.3046
v -23.8766 -0.8542 -141.4646
v -23.1280 13.4298 -140.9646
v -23.1188 13.6048 -137.9546
v -22.2371 12.2918 -143.0045
v -22.1848 12.3198 -141.4945
v -22.3890 12.6778 -139.4846
v -21.8117 11.7518 -142.5145
v -21.7168 11.6968 -140.0145
v -21.7156 11.7188 -139.0145
v -21.2617 10.8268 -142.0446
v -21.1508 10.6288 -140.0546
v -21.3908 11.1248 -139.5346
v -21.1448 10.5938 -139.0546
v -20.9773 10.2068 -142.5746
v -20.7722 9.6428 -141.0846
v -20.7749 9.5908 -139.5946
v -20.5055 8.6108 -140.6245
v -20.5317 8.5598 -139.1245
v -20.3715 7.5858 -140.1546
v -23.4546 -0.2762 -139.9346
v -23.2277 0.5558 -135.4046
v -23.1162 13.6548 -136.4546
v -23.5893 14.1828 -134.9346
v -23.1147 13.6838 -135.4446
v -22.3206 12.6388 -138.4846
v -22.6483 13.1048 -136.9646
v -22.6434 13.1228 -135.9646
v -22.5202 13.0108 -134.4746
v -21.9195 12.0828 -137.5045
v -22.2082 12.5458 -135.9846
v -21.3692 11.0878 -138.5346
v -21.5964 11.5308 -136.5246
v -21.8538 11.9918 -135.0045
v -21.1320 10.5408 -137.5546
v -21.3366 10.9638 -135.0446
v -20.9580 9.9788 -136.0746
v -20.4619 7.5028 -137.6646
v -20.7767 9.5558 -138.5946
v -20.8138 8.8478 -132.6145
v -20.6298 5.9408 -135.7146
v -20.5541 6.9378 -135.6746
v -21.1828 4.7948 -130.7545
v -23.1128 13.7208 -134.4446
v -22.7753 13.3668 -129.9546
v -21.0695 9.7918 -130.5746
v -21.3296 6.0238 -122.7046
v -23.1474 1.3418 -129.3745
v -22.7400 13.2948 -127.9546
v -22.0883 12.2948 -128.9945
v -22.9638 13.3528 -114.9446
v -21.8285 11.7288 -127.5145
v -21.4109 10.7408 -128.5446
v -21.2916 10.1818 -127.0646
v -21.0456 9.2028 -128.0946
v -20.9340 8.1968 -128.1345
v -21.0515 7.5978 -125.1546
v -22.5521 2.9978 -120.3146
v -23.2873 1.6578 -123.8645
v -22.3061 3.8108 -115.2746
v -23.8091 0.8068 -127.3945
v -23.1099 13.7748 -126.4446
v -23.3475 13.9428 -116.9246
v -21.4632 10.6388 -125.5446
v -21.0951 9.1538 -126.5946
v -21.6288 10.3158 -116.0546
v -21.3961 8.7848 -115.6046
v -23.9266 1.1038 -121.3845
v -21.4539 6.7858 -115.6746
v -23.9384 1.3248 -113.3645
v -23.2143 2.2298 -115.8346
v -22.3539 12.3028 -114.4846
v -21.3634 9.2598 -100.5746
v -21.7641 5.1968 -112.7246
v -24.8672 0.4598 -115.9046
v -23.5558 14.2968 -112.4146
v -23.0078 13.5588 -106.4346
v -22.8730 13.2958 -113.4446
v -22.5576 12.8948 -102.4546
v -21.8628 11.2238 -113.0145
v -21.3886 6.2408 -100.1846
v -21.3566 8.1948 -113.1245
v -22.8993 2.4918 -105.3246
v -22.1216 4.1968 -112.2645
v -23.8500 14.6558 -107.8945
v -21.2606 8.2358 -100.1145
v -22.3537 3.4988 -106.2846
v -23.2905 13.9868 -103.9146
v -21.9085 4.2318 -99.2545
v -22.5290 13.4398 -89.4246
v -21.6525 10.7588 -100.0246
v -21.2307 7.1638 -98.1546
v -21.0538 5.6118 -82.6946
v -21.5565 5.2018 -98.2146
v -20.7427 6.9218 -77.6445
v -22.0865 3.6708 -97.2746
v -21.7865 11.9348 -90.4846
v -21.1673 9.8658 -89.5546
v -21.0618 8.8948 -90.5846
v -20.8589 7.6908 -85.1245
v -23.1759 1.3948 -87.8446
v -21.2478 11.0918 -79.5045
v -21.3306 4.6608 -83.7246
v -21.7569 3.8398 -88.2645
v -22.4511 14.7778 -41.8546
v -20.7413 8.8888 -76.5746
v -23.5540 0.5998 -78.8745
v -22.7360 1.8028 -83.3346
v -22.1867 2.7308 -84.2946
v -21.7037 3.6618 -83.2645
v -22.1791 2.6508 -82.2946
v -21.2001 4.1648 -69.7346
v -22.7439 1.6518 -79.8346
v -21.9225 3.0678 -80.2846
v -21.7648 12.4978 -77.9546
v -20.9724 11.9428 -48.9546
v -20.6645 10.6528 -55.5045
v -20.4093 7.3118 -60.6245
v -20.6029 5.1098 -54.6946
v -22.7627 1.2928 -70.3446
v -24.0198 0.0708 -77.3845
v -23.5911 0.3388 -71.3745
v -22.1621 2.5278 -78.8046
v -21.6426 3.5588 -78.7645
v -21.9303 13.6688 -53.8945
v -20.4263 8.7788 -59.5646
v -22.8924 0.5348 -49.3546
v -21.3248 3.1288 -54.2645
v -20.4515 9.6408 -55.5346
v -20.2606 8.5078 -52.0746
v -22.1710 1.4628 -48.3246
v -21.9637 13.9268 -46.8845
v -20.5184 11.0518 -38.4746
v -20.3574 9.4958 -51.5346
v -20.8924 3.9148 -48.7346
v -21.5689 2.5018 -50.2846
v -20.9263 3.5668 -38.7346
v -21.4529 13.2248 -41.9046
v -20.8649 12.0528 -37.9446
v -20.5706 4.5318 -38.2046
v -23.8640 -0.6132 -39.3945
v -21.7251 1.9838 -38.2946
v -21.9678 14.1478 -38.8745
v -21.3344 13.0958 -38.4046
v -22.3228 1.1038 -37.8246
v -23.4972 15.9378 -37.3146
v -22.7590 15.1718 -38.3346
v -23.1536 15.1058 -35.8346
v -22.7842 15.1388 -37.3346
v -23.3129 15.6488 -36.8246
v -22.3900 14.5998 -36.8546
v -22.4923 14.5878 -36.3546
v -23.5672 14.6028 -35.1746
v -22.8845 14.0728 -35.3745
v -22.2512 14.0578 -35.8745
v -21.9540 14.1118 -37.8745
v -22.3422 14.6148 -37.3546
v -22.1210 13.5368 -35.5045
v -21.9948 14.0788 -36.8745
v -21.6543 13.5608 -36.8945
v -22.0582 14.0648 -36.3745
v -21.6942 13.5448 -36.3945
v -21.8356 13.5348 -35.8945
v -22.1480 13.0228 -35.0846
v -21.8132 13.0158 -35.4046
v -21.5028 13.0178 -35.9046
v -21.3363 13.0608 -37.4046
v -21.3927 13.0288 -36.4046
v -21.1658 12.6558 -36.9246
v -21.3027 12.5068 -35.9246
v -21.1732 12.5158 -36.3845
v -21.5923 12.5038 -35.4246
v -20.7794 10.4768 -35.9646
v -21.7271 11.4998 -35.1646
v -21.0003 12.0078 -36.4446
v -20.5560 10.4838 -36.4945
v -20.5437 11.0178 -37.4746
v -20.8060 9.9688 -35.7246
v -20.0943 8.9928 -37.5446
v -20.2573 9.4668 -36.5346
v -20.3366 9.3698 -36.0346
v -20.7255 9.4568 -35.5346
v -20.9515 3.5338 -37.7346
v -21.4339 2.5408 -37.2746
v -21.0061 3.9848 -36.2246
v -21.3393 3.0008 -36.2545
v -21.0470 3.5038 -36.7445
v -21.3375 3.4838 -35.7445
v -21.5041 2.9928 -35.7545
v -20.6427 4.5008 -37.2046
v -20.3485 5.4858 -37.1646
v -20.5610 5.4618 -36.1746
v -20.3435 6.4338 -35.6345
v -20.1966 6.4438 -36.1345
v -20.8166 5.4578 -35.6746
v -24.3591 -0.5082 -35.8845
v -23.9175 -0.3662 -36.3845
v -23.8562 -0.4652 -36.8845
v -23.8295 0.0438 -35.8645
v -23.4701 0.1108 -36.3645
v -22.8041 0.5038 -37.8446
v -23.6348 -0.3462 -37.3745
v -23.3270 0.0798 -36.8645
v -23.2979 0.6348 -35.8446
v -22.4650 1.0758 -36.8246
v -22.2303 1.8968 -35.7946
v -21.7224 2.0348 -37.2946
v -22.1034 1.5578 -36.8146
v -22.2526 1.5478 -36.3146
v -21.8987 2.0298 -36.2946
v -21.7167 2.1448 -36.7846
v -21.5761 2.5128 -36.2746
v -21.7643 2.5058 -35.7746
v -21.4816 2.5258 -36.7746
v -24.3873 -1.0452 -37.4046
v -24.3830 -0.9642 -36.9046
v -23.5936 14.0988 -35.0546
v -23.1204 13.5738 -35.0746
v -22.6209 13.5528 -35.2046
v -22.6740 12.5398 -34.8246
v -22.1746 12.5148 -34.8645
v -22.2531 11.0168 -34.8745
v -21.3061 9.9788 -35.2846
v -21.6564 9.4878 -35.0346
v -21.9370 7.4938 -34.9046
v -21.3325 9.4758 -35.1646
v -21.4323 8.9758 -35.0446
v -20.8592 8.9528 -35.2445
v -20.8855 8.4508 -35.1746
v -20.9641 6.9508 -35.1445
v -20.3595 8.9338 -35.4746
v -20.3858 8.4318 -35.3945
v -20.4644 6.9318 -35.3546
v -22.6722 3.0198 -34.8046
v -22.0680 4.9958 -34.8945
v -22.1466 3.4948 -34.8446
v -22.1727 2.9968 -34.8745
v -21.6204 3.9818 -35.2346
v -21.6465 3.4848 -35.2946
v -21.8171 2.9908 -35.2545
v -21.4898 6.4738 -35.0546
v -21.0161 5.9588 -35.3546
v -24.3006 0.6088 -35.0546
v -24.3262 0.1198 -35.3446
v -23.8007 0.5948 -35.3845
v -23.1677 1.5608 -35.3146
v -23.2234 2.0568 -35.0746
v -22.2025 2.4278 -35.2746
v -20.0192 6.6948 -158.2046
v -19.9310 6.5858 -155.2046
v -19.7828 5.6818 -158.2346
v -19.6731 4.6408 -157.2746
v -19.6263 4.1898 -158.7846
v -19.6456 3.6738 -158.3046
v -19.7029 3.6238 -156.8046
v -19.6222 3.2238 -159.8246
v -20.3816 0.2268 -158.9246
v -20.0962 0.7468 -159.9046
v -19.8975 1.7028 -158.8745
v -19.6882 2.7098 -159.3446
v -19.7690 2.6618 -157.8446
v -20.0095 1.6558 -157.3745
v -19.9296 2.5828 -155.3446
v -20.1476 7.5278 -153.1646
v -20.0049 6.9678 -151.6846
v -19.8479 3.9918 -152.7946
v -19.7704 5.0238 -153.7545
v -19.8525 5.9938 -152.7246
v -19.8364 4.9578 -151.7545
v -19.8787 5.9428 -151.2246
v -20.2646 2.4608 -151.3446
v -20.0076 6.9158 -150.1846
v -20.1109 7.3338 -147.6746
v -19.9819 6.3608 -148.7046
v -20.0237 6.3108 -147.2046
v -19.9076 5.3918 -149.7445
v -19.9805 5.3428 -148.2445
v -20.3302 6.5828 -140.1946
v -20.0236 7.5058 -38.0946
v -20.3726 6.6688 -56.6445
v -20.1246 6.4748 -37.1345
v -20.0434 8.4728 -37.0646
v -20.0691 6.9378 -36.1145
v -20.1274 8.9598 -36.5446
v -20.0764 8.4388 -36.0646
v -20.1829 8.9448 -36.0446
v -20.1897 6.9268 -35.6145
f 1 2 3
f 4 2 1
f 5 6 3
f 3 2 5
f 2 4 7
f 5 8 6
f 8 5 9
f 5 2 9
f 2 7 10
f 4 11 7
f 2 10 9
f 4 12 11
f 9 13 8
f 14 13 9
f 15 16 14
f 17 16 15
f 18 17 15
f 10 7 19
f 10 19 20
f 19 21 20
f 20 21 22
f 19 23 21
f 9 20 14
f 9 10 20
f 7 23 19
f 7 11 23
f 11 24 23
f 14 20 22
f 14 22 15
f 25 24 11
f 25 26 24
f 15 27 18
f 28 29 18
f 18 27 28
f 28 27 30
f 31 28 30
f 21 23 32
f 21 32 22
f 15 22 27
f 22 30 27
f 33 31 30
f 34 31 33
f 30 35 33
f 31 34 36
f 30 22 35
f 34 33 37
f 37 38 34
f 37 33 39
f 40 36 34
f 41 42 40
f 40 34 38
f 43 40 38
f 22 32 44
f 44 35 22
f 35 44 45
f 32 46 44
f 32 47 46
f 47 32 23
f 48 47 49
f 33 35 45
f 23 24 47
f 26 50 24
f 47 24 49
f 26 51 50
f 24 50 49
f 50 52 49
f 50 51 52
f 49 52 48
f 51 53 52
f 52 53 48
f 53 54 48
f 26 55 51
f 53 51 55
f 56 53 55
f 54 53 56
f 57 39 45
f 45 39 33
f 58 38 37
f 58 37 57
f 37 39 57
f 43 38 58
f 59 60 43
f 43 58 59
f 44 46 61
f 46 62 61
f 46 47 62
f 44 61 45
f 47 63 62
f 48 54 47
f 47 54 63
f 54 64 63
f 54 56 64
f 65 64 56
f 62 63 66
f 61 67 45
f 61 62 67
f 67 62 68
f 62 66 68
f 63 69 66
f 65 70 64
f 69 63 64
f 70 69 64
f 71 70 65
f 57 45 72
f 45 67 72
f 57 73 58
f 57 72 73
f 74 60 58
f 60 59 58
f 69 75 66
f 69 70 75
f 76 75 70
f 70 77 76
f 76 78 75
f 78 76 77
f 72 79 73
f 79 80 73
f 74 58 73
f 72 67 79
f 79 67 81
f 78 82 75
f 77 83 78
f 79 81 80
f 67 68 81
f 80 81 84
f 80 84 73
f 73 84 74
f 75 85 66
f 85 75 82
f 84 86 87
f 84 81 86
f 87 74 84
f 86 81 87
f 88 89 90
f 91 68 66
f 66 85 91
f 91 85 92
f 85 93 92
f 82 90 94
f 85 82 93
f 82 94 93
f 90 89 95
f 81 68 96
f 81 96 87
f 91 92 97
f 92 93 97
f 93 98 97
f 98 93 94
f 99 98 94
f 90 95 94
f 99 94 95
f 100 99 95
f 60 74 101
f 60 101 102
f 96 103 87
f 87 104 74
f 87 103 104
f 91 96 68
f 98 105 97
f 106 91 97
f 97 105 106
f 105 107 106
f 107 108 106
f 98 109 105
f 109 107 105
f 99 109 98
f 109 110 111
f 109 111 107
f 110 109 99
f 99 100 110
f 100 112 110
f 101 74 113
f 114 101 113
f 102 101 114
f 106 115 91
f 91 116 96
f 91 115 116
f 103 96 117
f 117 96 116
f 106 108 115
f 110 118 111
f 108 107 111
f 111 118 119
f 119 108 111
f 110 120 118
f 104 121 74
f 74 121 113
f 104 103 122
f 115 123 116
f 116 123 124
f 117 116 124
f 115 125 123
f 125 115 108
f 118 126 119
f 126 118 127
f 128 129 127
f 118 128 127
f 130 121 104
f 131 113 121
f 132 131 121
f 121 130 132
f 133 134 132
f 130 133 132
f 130 135 133
f 133 136 137
f 135 138 133
f 138 136 133
f 137 136 139
f 140 137 139
f 141 139 136
f 141 136 138
f 142 114 113
f 143 142 113
f 131 143 113
f 144 143 131
f 134 144 131
f 134 131 132
f 145 144 134
f 134 137 145
f 133 137 134
f 140 145 137
f 146 140 139
f 139 141 146
f 147 148 114
f 142 147 114
f 149 147 142
f 143 149 142
f 150 151 143
f 144 150 143
f 152 151 150
f 150 144 152
f 144 153 152
f 145 153 144
f 122 103 154
f 117 124 155
f 117 155 103
f 103 155 154
f 154 156 157
f 154 155 156
f 122 154 158
f 154 157 158
f 155 159 156
f 156 160 157
f 159 161 156
f 162 163 158
f 158 157 162
f 157 164 162
f 157 160 164
f 156 161 160
f 165 162 164
f 164 166 165
f 164 160 166
f 160 167 166
f 160 161 167
f 161 168 167
f 104 122 130
f 122 158 130
f 158 163 130
f 130 163 135
f 169 135 163
f 163 162 169
f 165 169 162
f 165 170 169
f 135 169 138
f 170 138 169
f 170 141 138
f 155 124 159
f 124 171 159
f 124 123 171
f 123 172 171
f 171 172 159
f 123 173 172
f 174 175 173
f 123 174 173
f 159 172 161
f 172 173 176
f 161 172 168
f 172 177 168
f 172 176 177
f 178 176 173
f 173 175 178
f 108 174 125
f 174 123 125
f 174 179 175
f 175 180 178
f 175 181 180
f 181 182 180
f 108 179 174
f 179 181 175
f 181 183 182
f 179 108 119
f 119 184 185
f 179 185 181
f 179 119 185
f 183 181 185
f 182 183 186
f 126 184 119
f 184 187 185
f 184 188 187
f 188 189 187
f 183 185 187
f 184 126 190
f 126 127 190
f 127 129 190
f 129 191 190
f 188 184 190
f 190 191 188
f 187 192 183
f 189 192 187
f 183 193 186
f 183 192 193
f 192 194 193
f 146 141 195
f 152 153 196
f 196 153 197
f 153 145 140
f 153 140 197
f 197 140 198
f 198 146 199
f 198 140 146
f 195 199 146
f 200 199 195
f 198 199 201
f 199 200 202
f 201 199 202
f 165 166 203
f 166 167 204
f 203 166 204
f 204 167 205
f 167 168 205
f 206 165 203
f 206 170 165
f 204 207 203
f 205 207 204
f 141 170 208
f 195 141 208
f 208 170 206
f 195 208 209
f 209 208 206
f 206 203 209
f 209 203 210
f 210 203 207
f 209 200 195
f 200 209 210
f 205 168 211
f 168 177 211
f 212 211 177
f 176 212 177
f 178 212 176
f 213 178 180
f 213 180 182
f 205 211 214
f 207 205 214
f 211 212 214
f 214 212 215
f 212 178 215
f 178 213 215
f 213 216 217
f 213 182 216
f 207 214 218
f 218 214 219
f 214 215 219
f 213 217 215
f 215 217 219
f 218 219 220
f 220 219 221
f 219 217 221
f 217 216 222
f 217 222 221
f 207 218 210
f 221 222 223
f 182 186 216
f 216 186 224
f 216 224 222
f 225 224 186
f 186 193 225
f 224 226 222
f 222 226 223
f 226 224 225
f 227 228 229
f 229 228 230
f 231 232 233
f 232 231 234
f 230 235 236
f 230 228 235
f 237 238 239
f 240 237 241
f 238 242 243
f 237 244 238
f 245 244 237
f 246 245 237
f 246 237 240
f 247 231 233
f 232 248 233
f 247 233 249
f 233 248 250
f 233 250 249
f 247 249 241
f 239 243 247
f 241 239 247
f 239 241 237
f 243 239 238
f 248 234 251
f 232 234 248
f 234 236 251
f 235 228 252
f 253 240 241
f 246 240 254
f 246 254 255
f 256 255 254
f 257 256 254
f 249 250 258
f 250 259 258
f 250 248 259
f 241 249 258
f 236 260 251
f 236 235 260
f 260 235 261
f 262 252 228
f 253 263 264
f 265 254 240
f 253 265 240
f 264 265 253
f 266 265 264
f 265 257 254
f 266 267 265
f 267 257 265
f 266 268 267
f 248 251 259
f 259 251 269
f 259 269 270
f 251 271 269
f 271 251 272
f 258 259 270
f 258 270 263
f 264 263 273
f 241 258 253
f 263 253 258
f 251 260 272
f 261 274 260
f 261 235 252
f 274 261 252
f 252 262 275
f 262 276 275
f 277 278 273
f 279 264 273
f 278 280 279
f 278 279 273
f 279 266 264
f 280 266 279
f 280 281 266
f 282 268 281
f 282 281 283
f 266 281 268
f 282 284 268
f 272 285 271
f 269 271 286
f 271 285 287
f 269 286 270
f 271 287 286
f 288 289 270
f 270 286 288
f 286 287 290
f 289 263 270
f 273 263 289
f 285 291 287
f 287 291 292
f 291 293 294
f 272 260 285
f 274 295 260
f 260 295 285
f 291 285 295
f 252 293 295
f 293 291 295
f 274 252 295
f 275 296 252
f 297 296 275
f 297 275 276
f 298 299 300
f 300 299 301
f 302 289 303
f 277 273 289
f 277 289 302
f 302 304 277
f 305 304 302
f 304 278 277
f 278 306 280
f 307 306 278
f 278 304 307
f 306 283 281
f 306 281 280
f 298 283 306
f 307 298 306
f 308 298 307
f 308 299 298
f 282 283 309
f 283 298 309
f 309 298 300
f 286 290 310
f 290 311 310
f 290 312 311
f 313 310 314
f 310 315 314
f 310 311 315
f 314 303 313
f 312 316 311
f 315 311 316
f 287 292 290
f 286 313 288
f 286 310 313
f 289 288 303
f 288 313 303
f 292 312 290
f 291 294 292
f 294 312 292
f 317 296 297
f 318 317 297
f 297 276 318
f 319 320 321
f 322 323 319
f 324 322 325
f 321 320 299
f 319 323 320
f 323 322 326
f 326 324 327
f 322 324 326
f 301 320 328
f 299 320 301
f 329 328 323
f 328 320 323
f 329 326 327
f 323 326 329
f 303 330 302
f 330 331 305
f 330 332 331
f 332 330 333
f 334 331 335
f 331 332 335
f 335 332 336
f 302 330 305
f 331 337 305
f 338 337 331
f 334 338 331
f 334 339 338
f 340 307 304
f 304 305 340
f 341 307 340
f 337 341 340
f 305 337 340
f 342 341 343
f 341 337 343
f 337 338 343
f 339 342 343
f 339 343 338
f 325 342 339
f 341 308 307
f 344 308 341
f 342 319 344
f 342 344 341
f 322 319 342
f 325 322 342
f 321 299 308
f 321 308 344
f 319 321 344
f 303 314 345
f 314 315 345
f 315 316 346
f 315 346 345
f 333 330 345
f 316 1 346
f 316 4 1
f 345 347 333
f 345 346 347
f 333 348 332
f 333 347 348
f 346 3 347
f 3 346 1
f 332 348 336
f 347 3 348
f 303 345 330
f 312 12 316
f 312 294 12
f 12 4 316
f 12 294 293
f 12 293 25
f 276 349 318
f 276 350 349
f 351 335 336
f 351 336 8
f 352 351 13
f 351 8 13
f 353 334 335
f 353 335 351
f 351 352 353
f 352 354 353
f 353 355 334
f 354 355 353
f 355 325 339
f 334 355 339
f 354 325 355
f 325 354 356
f 324 356 327
f 325 356 324
f 348 6 336
f 348 3 6
f 6 8 336
f 11 12 25
f 293 357 25
f 252 358 357
f 293 252 357
f 358 252 296
f 359 356 360
f 361 359 360
f 362 359 361
f 359 363 356
f 359 362 364
f 327 356 363
f 364 363 359
f 363 364 365
f 13 16 352
f 352 16 366
f 16 13 14
f 366 16 17
f 17 367 366
f 18 29 17
f 354 352 368
f 368 352 366
f 367 368 366
f 369 361 367
f 368 360 354
f 361 360 368
f 361 368 367
f 360 356 354
f 26 25 357
f 357 358 370
f 358 296 317
f 370 358 317
f 370 317 318
f 29 367 17
f 29 28 36
f 36 28 31
f 367 29 369
f 29 36 369
f 357 371 26
f 371 357 370
f 372 371 370
f 372 370 318
f 373 318 349
f 374 375 376
f 377 374 376
f 378 362 374
f 377 378 374
f 362 378 364
f 364 378 379
f 42 375 369
f 369 36 42
f 375 362 361
f 375 361 369
f 375 42 376
f 362 375 374
f 55 26 371
f 380 371 372
f 381 372 318
f 318 373 381
f 382 373 349
f 349 383 382
f 41 377 376
f 43 377 41
f 379 378 384
f 379 384 385
f 386 379 385
f 42 36 40
f 43 41 40
f 42 41 376
f 55 387 388
f 387 55 371
f 388 387 389
f 387 371 380
f 389 387 380
f 381 390 372
f 390 391 380
f 372 390 380
f 389 380 391
f 392 389 391
f 391 393 392
f 373 394 390
f 381 373 390
f 390 394 391
f 394 393 391
f 373 382 394
f 382 393 394
f 393 395 392
f 382 395 393
f 378 377 396
f 396 384 378
f 60 377 43
f 55 388 56
f 388 397 56
f 65 56 397
f 71 65 397
f 397 398 399
f 397 388 398
f 398 388 389
f 398 389 392
f 400 398 392
f 395 401 392
f 400 392 401
f 401 395 402
f 403 402 395
f 397 399 71
f 400 399 398
f 404 400 401
f 401 402 404
f 77 70 71
f 77 71 399
f 400 405 399
f 405 400 404
f 406 377 60
f 396 377 406
f 407 77 399
f 399 405 407
f 385 384 408
f 83 77 407
f 407 409 83
f 407 405 409
f 405 410 409
f 405 404 410
f 83 411 78
f 90 78 411
f 83 409 411
f 409 410 411
f 411 410 88
f 88 410 404
f 384 396 412
f 384 412 413
f 384 413 408
f 90 82 78
f 404 414 88
f 404 402 414
f 415 408 413
f 88 90 411
f 412 416 413
f 413 416 415
f 416 412 396
f 416 417 418
f 416 418 415
f 60 102 406
f 396 406 417
f 396 417 416
f 89 419 95
f 88 419 89
f 419 88 414
f 420 414 402
f 420 421 414
f 422 414 421
f 421 420 423
f 415 418 424
f 417 406 102
f 414 425 419
f 425 414 422
f 426 95 419
f 100 95 426
f 426 427 100
f 427 426 419
f 427 419 425
f 428 421 423
f 429 421 428
f 100 427 112
f 429 425 422
f 422 421 429
f 430 429 428
f 417 148 431
f 431 418 417
f 418 431 432
f 148 102 114
f 148 417 102
f 120 110 112
f 112 427 120
f 120 427 433
f 120 433 434
f 433 427 425
f 433 425 435
f 435 425 429
f 435 429 430
f 436 435 430
f 437 438 430
f 438 436 430
f 431 148 439
f 432 431 440
f 440 431 439
f 128 118 120
f 120 434 128
f 433 441 434
f 434 441 442
f 441 433 435
f 441 435 436
f 443 442 441
f 443 441 436
f 443 436 444
f 445 443 444
f 438 444 436
f 446 445 444
f 439 148 147
f 447 439 147
f 147 149 447
f 149 448 447
f 449 439 447
f 447 448 449
f 450 448 451
f 450 449 448
f 439 449 452
f 450 452 449
f 452 453 454
f 439 452 454
f 453 452 450
f 440 439 454
f 453 455 454
f 453 456 455
f 453 450 456
f 456 457 455
f 458 440 454
f 458 454 455
f 459 455 460
f 455 457 460
f 149 143 461
f 143 151 461
f 461 151 462
f 149 461 448
f 448 461 462
f 462 463 448
f 463 451 448
f 129 464 191
f 464 465 191
f 188 466 189
f 191 466 188
f 191 465 466
f 466 467 189
f 466 465 467
f 189 194 192
f 467 194 189
f 434 129 128
f 467 465 468
f 467 469 194
f 467 468 469
f 468 470 469
f 434 464 129
f 471 464 434
f 472 464 471
f 465 464 472
f 468 465 472
f 471 434 442
f 473 471 442
f 472 471 473
f 474 468 472
f 475 468 474
f 470 468 475
f 476 442 443
f 443 445 476
f 476 473 442
f 473 477 472
f 474 472 477
f 475 474 478
f 479 473 476
f 477 473 479
f 480 477 479
f 474 477 480
f 481 474 480
f 478 474 481
f 480 482 481
f 483 476 445
f 479 476 483
f 484 479 483
f 480 479 484
f 483 485 484
f 484 486 480
f 486 482 480
f 484 487 486
f 487 484 485
f 487 488 486
f 488 482 486
f 450 451 489
f 489 451 490
f 491 450 489
f 456 450 491
f 491 489 492
f 489 490 492
f 457 456 491
f 493 457 491
f 493 491 492
f 460 457 493
f 460 493 494
f 494 493 492
f 462 151 152
f 495 462 152
f 495 152 496
f 152 196 496
f 496 197 497
f 496 196 197
f 201 497 197
f 198 201 197
f 463 462 495
f 495 496 498
f 496 497 498
f 451 463 498
f 463 495 498
f 497 499 498
f 497 201 499
f 499 201 202
f 451 498 490
f 490 498 499
f 492 490 499
f 200 210 202
f 499 202 210
f 500 210 220
f 218 220 210
f 220 221 501
f 221 223 501
f 193 502 225
f 194 502 193
f 501 223 503
f 223 226 503
f 503 226 504
f 226 225 504
f 225 502 504
f 194 505 502
f 505 506 507
f 505 469 506
f 505 194 469
f 220 501 508
f 501 503 508
f 503 504 508
f 508 504 509
f 509 504 510
f 504 502 510
f 505 507 502
f 502 507 510
f 506 511 512
f 506 470 511
f 506 469 470
f 220 508 513
f 508 509 513
f 513 509 514
f 509 510 514
f 514 510 515
f 510 507 515
f 507 506 512
f 507 512 515
f 516 514 515
f 515 512 517
f 512 511 518
f 512 518 517
f 513 514 516
f 515 517 516
f 500 220 513
f 513 516 519
f 511 470 475
f 511 475 518
f 475 478 520
f 475 520 518
f 518 520 517
f 478 521 520
f 478 481 521
f 516 517 522
f 517 520 522
f 520 521 522
f 521 523 524
f 481 523 521
f 523 481 482
f 516 522 525
f 525 522 524
f 524 522 521
f 523 526 524
f 526 523 482
f 526 482 488
f 516 525 519
f 519 525 527
f 525 524 527
f 524 526 527
f 227 528 228
f 529 530 528
f 529 531 532
f 530 529 532
f 532 531 533
f 534 532 533
f 532 534 535
f 536 537 538
f 539 536 540
f 538 540 536
f 540 538 541
f 541 538 542
f 535 530 532
f 242 543 243
f 543 537 544
f 537 543 545
f 542 538 545
f 538 537 545
f 542 545 546
f 547 542 546
f 548 541 542
f 547 546 549
f 544 243 543
f 228 528 262
f 550 528 530
f 550 535 551
f 535 550 530
f 244 552 242
f 244 242 238
f 553 552 245
f 246 553 245
f 543 242 552
f 245 552 244
f 553 554 552
f 555 552 556
f 555 543 552
f 556 552 554
f 557 558 554
f 554 553 557
f 545 555 559
f 543 555 545
f 559 555 556
f 560 559 556
f 560 554 558
f 560 558 561
f 560 556 554
f 562 558 557
f 561 558 563
f 563 562 564
f 563 558 562
f 546 545 559
f 546 559 565
f 565 559 560
f 565 560 561
f 566 565 561
f 566 563 564
f 566 561 563
f 546 565 549
f 549 565 567
f 565 566 567
f 568 549 567
f 567 566 569
f 262 528 550
f 570 571 535
f 551 535 571
f 572 573 574
f 575 576 577
f 577 574 573
f 578 575 577
f 578 577 573
f 579 578 573
f 580 579 573
f 573 572 580
f 569 576 575
f 255 581 553
f 553 246 255
f 582 581 255
f 256 582 255
f 257 583 256
f 584 581 582
f 582 256 585
f 256 583 585
f 557 581 584
f 553 581 557
f 586 584 582
f 586 582 585
f 562 584 587
f 557 584 562
f 587 584 586
f 574 588 587
f 587 586 574
f 586 585 574
f 574 585 572
f 564 562 587
f 564 587 588
f 576 564 588
f 576 588 577
f 588 574 577
f 576 566 564
f 569 566 576
f 262 550 276
f 589 550 551
f 590 591 592
f 580 591 590
f 593 590 594
f 580 595 579
f 595 590 593
f 580 590 595
f 257 267 583
f 583 267 596
f 596 267 597
f 267 268 597
f 585 583 598
f 598 583 596
f 598 596 591
f 596 597 591
f 592 591 597
f 572 585 598
f 572 591 580
f 598 591 572
f 276 550 589
f 599 589 551
f 600 599 551
f 601 599 602
f 282 603 284
f 603 282 604
f 592 603 605
f 592 605 590
f 606 605 603
f 603 604 606
f 606 604 607
f 608 594 605
f 594 590 605
f 605 606 608
f 608 606 607
f 609 610 611
f 607 610 609
f 593 594 612
f 612 608 609
f 612 594 608
f 608 607 609
f 593 612 613
f 614 612 609
f 597 268 284
f 597 284 592
f 592 284 603
f 309 300 615
f 604 282 309
f 604 309 615
f 615 300 616
f 300 301 616
f 607 604 615
f 607 615 610
f 617 610 615
f 350 589 599
f 276 589 350
f 616 328 618
f 301 328 616
f 618 328 329
f 618 329 619
f 329 327 619
f 620 618 619
f 615 616 617
f 617 618 620
f 617 616 618
f 621 620 619
f 610 617 622
f 622 617 623
f 623 617 620
f 623 620 621
f 624 623 625
f 622 623 624
f 625 623 621
f 599 626 350
f 626 599 627
f 619 327 363
f 619 363 628
f 619 628 621
f 629 349 350
f 626 629 350
f 627 630 626
f 628 363 365
f 631 628 365
f 621 628 631
f 621 631 632
f 625 621 632
f 633 625 632
f 634 635 627
f 635 630 627
f 636 632 637
f 633 632 636
f 629 638 349
f 626 638 629
f 639 638 640
f 630 640 626
f 638 626 640
f 630 639 640
f 641 642 643
f 364 379 365
f 365 379 631
f 631 379 386
f 644 631 386
f 644 386 645
f 632 631 644
f 637 644 645
f 637 632 644
f 643 637 645
f 642 637 643
f 638 383 349
f 383 638 639
f 630 646 639
f 647 646 630
f 647 648 646
f 386 385 649
f 649 385 650
f 386 649 645
f 645 649 650
f 643 645 651
f 641 643 651
f 383 652 395
f 382 383 395
f 403 395 652
f 653 652 383
f 639 653 383
f 654 653 639
f 646 654 639
f 654 655 653
f 648 654 646
f 648 655 654
f 648 656 655
f 656 657 655
f 645 650 651
f 403 658 402
f 658 403 659
f 652 653 403
f 653 659 403
f 659 660 658
f 655 659 653
f 655 660 659
f 657 660 655
f 656 661 657
f 662 402 658
f 658 663 662
f 660 663 658
f 657 664 660
f 664 663 660
f 661 664 657
f 665 662 663
f 664 666 663
f 666 664 661
f 650 385 408
f 666 665 663
f 666 667 665
f 667 666 661
f 650 408 668
f 668 651 650
f 651 668 669
f 661 670 667
f 670 661 671
f 415 668 408
f 669 668 672
f 667 662 665
f 668 415 673
f 672 668 673
f 674 669 672
f 420 402 662
f 673 415 424
f 662 423 420
f 667 423 662
f 423 667 675
f 670 675 667
f 673 424 672
f 670 676 675
f 671 677 670
f 428 423 675
f 428 437 430
f 437 428 678
f 675 678 428
f 679 437 678
f 675 680 678
f 680 679 678
f 676 680 675
f 424 418 432
f 672 424 681
f 672 681 682
f 437 683 438
f 683 437 679
f 676 679 680
f 432 440 424
f 684 681 424
f 684 424 440
f 682 681 684
f 682 684 685
f 672 682 685
f 446 444 438
f 445 446 686
f 687 445 686
f 683 446 438
f 688 683 679
f 446 683 688
f 686 446 688
f 688 689 686
f 679 690 688
f 676 690 679
f 690 689 688
f 691 692 690
f 676 691 690
f 458 693 440
f 458 455 459
f 694 693 458
f 458 459 694
f 460 695 459
f 694 696 693
f 694 459 697
f 695 697 459
f 684 440 693
f 684 693 696
f 685 684 696
f 685 696 698
f 699 445 687
f 483 445 699
f 485 483 699
f 700 701 485
f 699 700 485
f 701 487 485
f 488 487 701
f 687 700 699
f 702 488 701
f 689 687 686
f 689 703 687
f 703 700 687
f 703 701 700
f 689 704 703
f 690 704 689
f 704 705 703
f 705 701 703
f 701 706 702
f 706 701 705
f 692 707 690
f 707 704 690
f 707 708 704
f 708 705 704
f 708 709 705
f 709 706 705
f 710 460 494
f 695 460 710
f 710 494 711
f 711 494 492
f 697 695 712
f 695 710 712
f 712 710 711
f 696 694 713
f 694 697 713
f 713 697 714
f 697 712 714
f 714 712 711
f 492 499 711
f 713 714 698
f 698 696 713
f 698 714 711
f 715 698 711
f 499 210 716
f 717 711 499
f 717 499 716
f 210 500 716
f 500 513 519
f 526 718 719
f 488 718 526
f 702 718 488
f 527 526 719
f 527 720 519
f 720 527 719
f 718 702 721
f 720 719 722
f 719 718 721
f 719 721 722
f 721 723 724
f 723 721 702
f 720 722 725
f 725 722 724
f 722 721 724
f 723 706 726
f 723 702 706
f 720 725 727
f 725 724 728
f 724 723 726
f 724 726 728
f 519 720 727
f 729 726 706
f 709 729 706
f 727 725 728
f 727 728 730
f 730 728 731
f 728 726 731
f 731 726 729
f 500 519 727
f 732 733 734
f 735 736 732
f 737 735 732
f 732 734 738
f 737 732 738
f 739 736 735
f 735 740 739
f 740 735 737
f 741 737 738
f 535 534 570
f 540 733 539
f 742 540 541
f 733 540 742
f 734 733 742
f 743 742 541
f 734 742 744
f 744 742 743
f 738 734 745
f 745 734 744
f 746 745 744
f 745 746 741
f 741 738 745
f 547 747 548
f 548 542 547
f 747 547 549
f 748 541 548
f 748 548 747
f 743 541 748
f 749 748 747
f 749 747 750
f 751 743 748
f 751 748 749
f 751 744 743
f 749 750 752
f 752 750 753
f 751 754 755
f 755 744 751
f 746 744 755
f 754 751 749
f 756 749 752
f 754 749 756
f 757 756 752
f 758 755 754
f 758 754 759
f 760 761 570
f 762 763 760
f 764 765 762
f 765 763 762
f 766 567 569
f 767 766 768
f 769 767 768
f 768 770 771
f 769 768 771
f 757 772 773
f 773 772 769
f 773 769 771
f 773 771 774
f 568 567 767
f 767 567 766
f 568 747 549
f 750 747 568
f 750 568 753
f 753 568 767
f 769 753 767
f 752 753 772
f 772 753 769
f 752 772 757
f 761 571 570
f 600 551 571
f 761 602 571
f 763 602 761
f 760 763 761
f 765 775 763
f 766 569 776
f 770 776 777
f 776 575 777
f 776 569 575
f 777 575 578
f 777 578 778
f 779 778 579
f 778 578 579
f 770 768 776
f 768 766 776
f 770 777 780
f 781 780 778
f 780 777 778
f 781 778 779
f 782 770 780
f 782 780 783
f 783 780 781
f 771 770 782
f 784 783 781
f 774 771 782
f 774 782 783
f 774 783 785
f 784 785 783
f 571 602 600
f 763 786 602
f 775 786 763
f 595 779 579
f 787 595 593
f 593 613 787
f 779 595 787
f 788 779 787
f 788 787 789
f 789 787 613
f 781 779 790
f 779 788 790
f 788 789 791
f 790 788 791
f 792 790 791
f 792 791 793
f 784 781 790
f 794 784 790
f 794 790 792
f 795 792 793
f 602 599 600
f 796 601 602
f 796 602 786
f 797 798 786
f 798 796 786
f 775 797 786
f 799 797 775
f 614 613 612
f 800 614 609
f 800 609 611
f 613 614 801
f 801 614 800
f 800 611 802
f 789 613 801
f 803 801 800
f 802 803 800
f 791 789 804
f 804 789 801
f 804 801 803
f 793 791 804
f 803 805 804
f 805 803 806
f 807 805 806
f 793 804 805
f 793 805 807
f 796 798 808
f 809 798 797
f 611 610 810
f 810 610 622
f 624 810 622
f 802 611 810
f 811 810 624
f 803 802 812
f 812 810 811
f 812 802 810
f 806 803 813
f 813 803 812
f 813 812 814
f 812 811 814
f 815 814 811
f 806 813 816
f 816 813 814
f 816 814 817
f 815 817 814
f 807 806 818
f 818 806 816
f 818 816 819
f 819 816 817
f 819 817 820
f 821 820 817
f 796 822 601
f 822 599 601
f 808 822 796
f 798 823 808
f 823 824 808
f 624 625 825
f 811 624 825
f 825 625 633
f 826 811 825
f 815 811 826
f 826 825 633
f 826 633 827
f 815 826 827
f 821 815 827
f 821 827 828
f 815 821 817
f 627 599 822
f 634 627 822
f 822 808 634
f 808 829 634
f 824 829 808
f 827 633 830
f 827 830 831
f 828 827 831
f 634 832 635
f 829 832 634
f 824 833 829
f 830 633 636
f 830 636 834
f 835 830 834
f 831 830 835
f 831 835 836
f 831 837 838
f 829 833 839
f 635 647 630
f 635 840 647
f 832 840 635
f 829 839 832
f 841 642 641
f 842 642 841
f 843 844 834
f 844 843 842
f 842 843 642
f 845 844 842
f 845 842 846
f 846 847 845
f 636 637 843
f 843 637 642
f 834 636 843
f 835 834 844
f 836 835 844
f 836 844 845
f 837 831 836
f 837 836 848
f 848 836 845
f 848 845 847
f 849 648 647
f 840 849 647
f 850 849 840
f 839 840 832
f 839 850 840
f 841 641 851
f 851 641 651
f 851 651 852
f 846 842 841
f 846 841 853
f 853 841 851
f 854 851 852
f 853 851 854
f 855 846 853
f 855 853 856
f 856 853 854
f 856 854 857
f 855 847 846
f 856 857 858
f 859 847 855
f 855 856 858
f 849 656 648
f 850 656 849
f 850 860 656
f 839 860 850
f 833 861 839
f 861 862 860
f 839 861 860
f 863 854 852
f 857 854 863
f 857 863 864
f 656 865 661
f 860 865 656
f 862 865 860
f 852 651 669
f 864 863 866
f 867 864 866
f 861 868 862
f 865 869 661
f 852 669 674
f 863 852 870
f 865 862 869
f 674 870 852
f 866 863 870
f 871 866 870
f 872 866 871
f 873 866 872
f 874 862 868
f 874 875 862
f 862 875 869
f 871 870 674
f 876 875 874
f 877 875 876
f 869 671 661
f 875 878 869
f 877 879 875
f 879 878 875
f 869 878 671
f 880 872 871
f 878 677 671
f 674 672 685
f 677 676 670
f 878 879 881
f 677 882 676
f 878 882 677
f 878 883 882
f 881 883 878
f 881 879 883
f 884 674 685
f 871 674 884
f 880 871 885
f 882 691 676
f 882 692 691
f 882 883 692
f 886 692 883
f 698 887 685
f 884 685 888
f 888 685 887
f 887 889 888
f 890 884 888
f 890 888 891
f 891 888 889
f 871 884 885
f 885 884 890
f 885 890 892
f 891 892 890
f 892 891 893
f 889 893 891
f 892 894 885
f 892 893 894
f 889 895 893
f 895 889 896
f 897 885 898
f 898 885 894
f 898 894 899
f 899 894 900
f 900 894 893
f 900 893 895
f 895 901 900
f 896 901 895
f 902 708 707
f 902 903 708
f 903 709 708
f 886 707 692
f 886 902 707
f 904 903 902
f 905 906 886
f 906 902 886
f 906 904 902
f 883 905 886
f 907 904 906
f 879 908 883
f 908 905 883
f 909 906 905
f 909 907 906
f 908 910 905
f 905 910 909
f 911 912 909
f 887 698 715
f 715 711 717
f 889 887 715
f 913 889 715
f 913 715 717
f 896 889 913
f 896 913 717
f 914 717 716
f 896 717 914
f 914 901 896
f 716 500 915
f 500 916 915
f 731 917 918
f 729 917 731
f 917 729 709
f 903 917 709
f 730 731 918
f 727 730 919
f 919 730 918
f 918 917 920
f 917 903 920
f 916 500 727
f 921 920 904
f 904 920 903
f 919 918 922
f 920 921 922
f 920 922 918
f 916 727 919
f 923 919 924
f 924 919 922
f 916 919 923
f 921 907 925
f 904 907 921
f 924 922 926
f 926 922 921
f 925 926 921
f 907 912 925
f 909 912 907
f 923 924 927
f 927 924 928
f 924 926 928
f 928 926 925
f 912 929 925
f 923 930 916
f 930 923 927
f 929 928 925
f 911 929 912
f 930 927 931
f 929 911 931
f 929 931 928
f 928 931 927
f 915 916 932
f 932 916 930
f 740 737 933
f 737 741 933
f 934 933 741
f 935 740 933
f 935 933 936
f 936 933 934
f 937 936 934
f 938 935 939
f 939 935 936
f 939 936 937
f 940 938 939
f 940 939 941
f 941 939 942
f 942 939 943
f 944 940 941
f 945 944 941
f 942 945 941
f 946 945 942
f 946 942 943
f 945 946 947
f 746 934 741
f 758 746 755
f 937 934 948
f 948 934 746
f 948 746 758
f 948 758 949
f 950 937 948
f 951 950 948
f 951 948 949
f 943 939 937
f 950 943 937
f 943 950 952
f 951 953 950
f 953 951 954
f 946 943 952
f 955 952 950
f 955 950 953
f 955 953 956
f 954 956 953
f 957 759 754
f 756 957 754
f 756 958 957
f 958 756 757
f 758 759 949
f 949 759 959
f 959 759 957
f 959 957 960
f 960 957 958
f 960 958 961
f 949 959 962
f 962 959 960
f 962 960 963
f 961 963 960
f 951 949 962
f 964 962 963
f 954 951 962
f 954 962 964
f 954 964 965
f 966 965 964
f 967 765 764
f 968 765 967
f 967 969 968
f 970 969 967
f 970 971 969
f 972 757 773
f 774 973 773
f 972 773 973
f 961 958 757
f 972 961 757
f 974 961 972
f 975 974 972
f 974 963 961
f 963 974 976
f 977 976 974
f 975 977 974
f 977 975 978
f 976 964 963
f 976 977 979
f 977 978 979
f 980 979 978
f 964 976 966
f 981 966 976
f 979 981 976
f 981 979 982
f 968 799 775
f 968 775 765
f 968 969 799
f 973 774 983
f 983 774 785
f 984 785 784
f 985 983 785
f 985 785 984
f 975 972 973
f 975 973 983
f 983 985 986
f 986 985 987
f 987 985 984
f 988 978 975
f 988 975 983
f 988 983 986
f 980 988 986
f 986 987 989
f 978 988 980
f 980 986 989
f 989 990 980
f 991 992 799
f 971 993 969
f 969 993 991
f 969 991 799
f 971 994 993
f 984 784 794
f 984 794 995
f 995 794 795
f 795 794 792
f 995 795 996
f 997 996 795
f 998 984 995
f 987 984 998
f 995 999 998
f 996 999 995
f 1000 999 996
f 999 1000 1001
f 1002 987 998
f 1003 1001 1000
f 989 987 1002
f 999 1002 998
f 1001 1002 999
f 1001 1003 1004
f 1005 989 1002
f 1001 1005 1002
f 1004 1005 1001
f 1005 1004 1006
f 799 809 797
f 992 809 799
f 1007 809 992
f 992 991 993
f 1008 1007 992
f 993 1008 992
f 993 994 1008
f 994 1009 1008
f 793 997 795
f 997 793 1010
f 1010 793 807
f 1000 996 997
f 1000 997 1011
f 1011 997 1012
f 1010 1012 997
f 1013 1012 1010
f 1011 1003 1000
f 1003 1011 1014
f 1011 1012 1014
f 1014 1012 1013
f 1015 1004 1003
f 1014 1015 1003
f 1016 1015 1014
f 1016 1014 1017
f 1018 1007 1008
f 809 823 798
f 809 1019 823
f 1007 1019 809
f 807 818 1020
f 1020 818 1021
f 1021 818 819
f 1021 819 820
f 1022 820 1023
f 1023 820 821
f 1010 807 1020
f 1022 1021 820
f 1013 1010 1020
f 1013 1020 1022
f 1022 1020 1021
f 1013 1022 1017
f 1014 1013 1017
f 1024 1017 1022
f 1025 1016 1017
f 1019 1026 824
f 1018 1026 1019
f 1008 1027 1018
f 1019 824 823
f 1007 1018 1019
f 1023 821 828
f 1022 1023 1024
f 828 1024 1023
f 1017 1024 1028
f 1024 828 1028
f 1016 1025 1029
f 1027 1030 1018
f 1030 1031 1018
f 1032 1017 1028
f 1032 1025 1017
f 1033 1025 1032
f 824 1026 1034
f 833 824 1034
f 1026 1031 1034
f 1018 1031 1026
f 1035 1034 1031
f 1031 1030 1035
f 1028 828 831
f 1032 1036 1033
f 1037 833 1034
f 1034 1035 1037
f 1038 838 837
f 1028 831 838
f 1038 1039 838
f 1039 1028 838
f 1039 1032 1028
f 1040 1032 1039
f 1041 1040 1039
f 1042 1036 1032
f 1036 1042 1043
f 1043 1042 1044
f 1042 1032 1040
f 1040 1044 1042
f 1045 1038 837
f 848 1045 837
f 859 1045 848
f 847 859 848
f 1045 859 1046
f 1041 1039 1038
f 1045 1041 1038
f 1045 1046 1041
f 1047 1041 1046
f 1041 1047 1040
f 1048 1044 1040
f 1047 1048 1040
f 859 855 1049
f 1049 855 858
f 1050 858 857
f 1049 1046 859
f 1050 1049 858
f 1049 1050 1051
f 1052 1050 857
f 1051 1050 1052
f 1046 1049 1053
f 1053 1049 1051
f 1053 1047 1046
f 1054 1047 1053
f 1054 1053 1055
f 1055 1053 1051
f 1055 1056 1054
f 1054 1048 1047
f 1057 1048 1054
f 1056 1057 1054
f 1051 1052 1055
f 1058 1055 1052
f 1058 1056 1055
f 1059 1056 1058
f 1035 1060 1037
f 867 857 864
f 857 867 1052
f 1058 1052 1061
f 1062 1059 1058
f 1061 1062 1058
f 1037 1063 833
f 1052 867 1061
f 833 1063 861
f 1064 1060 1065
f 1063 1066 861
f 1066 868 861
f 1060 1067 1037
f 867 866 873
f 873 1068 867
f 867 1068 1061
f 1061 1069 1062
f 1063 1070 1066
f 1037 1067 1063
f 1067 1070 1063
f 1071 1067 1060
f 1071 1072 1067
f 1071 1060 1064
f 1066 874 868
f 1067 1072 1070
f 1073 1061 1068
f 873 1073 1068
f 876 1074 877
f 1066 876 874
f 1070 1075 1066
f 1066 1075 876
f 876 1075 1074
f 1076 1077 1070
f 1072 1078 1076
f 1070 1072 1076
f 1078 1072 1071
f 1069 1061 1073
f 1074 879 877
f 1077 1075 1070
f 1074 1075 1077
f 1079 1077 1076
f 1078 1079 1076
f 1078 1080 1079
f 880 873 872
f 873 880 1073
f 1077 1081 1074
f 1077 1079 1082
f 1080 1082 1079
f 1080 1083 1082
f 1074 1081 879
f 1077 1084 1081
f 1077 1082 1084
f 1084 1085 1081
f 1085 1086 1081
f 1084 1082 1085
f 1082 1087 1085
f 1081 1088 879
f 1081 1086 1088
f 1089 1073 880
f 885 1089 880
f 1090 1073 1089
f 1090 1069 1073
f 908 879 1088
f 1091 898 899
f 1092 1091 900
f 900 1091 899
f 1092 900 901
f 1092 901 1093
f 897 1089 885
f 1089 897 1094
f 1095 1094 897
f 898 1095 897
f 1091 1095 898
f 1095 1091 1096
f 1092 1096 1091
f 1092 1097 1096
f 1093 1097 1092
f 1094 1095 1098
f 1098 1095 1096
f 1097 1099 1096
f 1099 1097 1100
f 1097 1093 1101
f 1097 1101 1100
f 1101 1093 1102
f 1094 1090 1089
f 1094 1103 1090
f 1098 1103 1094
f 1096 1099 1098
f 1104 1100 1101
f 1101 1105 1104
f 1102 1105 1101
f 1105 1106 1104
f 1103 1098 1107
f 1099 1107 1098
f 1108 1107 1099
f 1100 1108 1099
f 1107 1108 1109
f 1108 1100 1104
f 1108 1104 1106
f 1108 1106 1109
f 1069 1090 1110
f 1110 1090 1103
f 1110 1103 1107
f 1110 1107 1109
f 1109 1106 1111
f 1109 1111 1112
f 1113 1069 1110
f 1113 1110 1114
f 1110 1109 1114
f 1115 1109 1112
f 910 1116 909
f 1117 911 1116
f 1116 911 909
f 1088 910 908
f 1088 1118 1116
f 910 1088 1116
f 1118 1119 1117
f 1118 1117 1116
f 1120 1119 1118
f 1088 1086 1118
f 1121 1118 1086
f 1122 1120 1121
f 1121 1120 1118
f 1123 1124 1085
f 1085 1124 1086
f 1124 1125 1086
f 1125 1126 1121
f 1086 1125 1121
f 1126 1127 1122
f 1126 1122 1121
f 1128 1125 1124
f 1129 1130 1128
f 1128 1130 1126
f 1128 1126 1125
f 1131 1130 1129
f 1130 1131 1127
f 1126 1130 1127
f 1123 1132 1124
f 1132 1133 1128
f 1124 1132 1128
f 1133 1129 1128
f 1134 1129 1135
f 1129 1134 1131
f 1093 901 914
f 1102 1093 914
f 1102 914 716
f 1105 1102 1136
f 1102 716 1136
f 1136 716 1137
f 1138 1106 1105
f 1105 1136 1138
f 1136 1137 1138
f 1111 1106 1138
f 1111 1138 1137
f 1112 1111 1137
f 1112 1137 1139
f 1139 1137 716
f 1139 716 1140
f 1140 716 915
f 1141 915 932
f 1142 915 1143
f 915 1141 1143
f 1141 1144 1143
f 1142 1143 1145
f 1143 1144 1146
f 1146 1144 1147
f 1145 1143 1146
f 1117 1148 911
f 1148 1149 931
f 931 1149 930
f 1148 931 911
f 1149 932 930
f 1119 1148 1117
f 1150 1149 1151
f 1151 1149 1148
f 1119 1151 1148
f 1150 932 1149
f 1120 1151 1119
f 1152 1150 1151
f 1141 932 1153
f 1153 932 1150
f 1152 1153 1150
f 1122 1151 1120
f 1122 1152 1151
f 1127 1154 1152
f 1127 1152 1122
f 1153 1144 1141
f 1153 1155 1144
f 1154 1155 1152
f 1152 1155 1153
f 1131 1154 1127
f 1131 1156 1154
f 1156 1147 1155
f 1155 1147 1144
f 1156 1155 1154
f 1134 1147 1156
f 1134 1156 1131
f 1157 944 945
f 1157 945 947
f 1158 947 946
f 1159 1160 1157
f 947 1159 1157
f 1158 1159 947
f 1161 1160 1159
f 1160 1161 1162
f 1162 1163 1160
f 1164 1163 1165
f 1163 1166 1165
f 1162 1166 1163
f 1166 1162 1167
f 1168 1169 1164
f 1169 1168 1170
f 1165 1168 1164
f 1168 1165 1171
f 1165 1166 1172
f 1165 1172 1171
f 1167 1172 1166
f 1172 1167 1173
f 1172 1173 1174
f 1171 1170 1168
f 1170 1171 1175
f 1172 1174 1171
f 1171 1174 1176
f 1174 1173 1177
f 1174 1177 1176
f 1178 1170 1175
f 1171 1176 1175
f 1175 1176 1179
f 1180 1181 1182
f 1180 1183 1181
f 1180 1184 1185
f 952 1158 946
f 1186 1158 952
f 1186 952 955
f 1158 1186 1187
f 1159 1158 1187
f 1188 1187 1186
f 955 1188 1186
f 956 1188 955
f 1189 1188 956
f 1187 1161 1159
f 1190 1161 1187
f 1188 1190 1187
f 1191 1190 1188
f 1191 1188 1189
f 1192 1162 1161
f 1190 1192 1161
f 1193 1192 1190
f 1191 1193 1190
f 1194 1193 1191
f 1191 1189 1194
f 1195 1194 1189
f 1195 1196 1194
f 1192 1193 1197
f 1192 1167 1162
f 1197 1167 1192
f 1193 1196 1197
f 1194 1196 1193
f 1196 1195 1198
f 1167 1197 1173
f 1197 1196 1199
f 1199 1198 1200
f 1196 1198 1199
f 1173 1197 1177
f 1199 1177 1197
f 1199 1200 1201
f 1177 1199 1202
f 1177 1202 1176
f 1179 1202 1201
f 1176 1202 1179
f 1199 1201 1202
f 1185 1183 1180
f 965 956 954
f 965 1189 956
f 965 1203 1189
f 1189 1203 1195
f 966 1203 965
f 1204 1203 966
f 1195 1205 1198
f 1198 1205 1206
f 1206 1205 1207
f 1198 1206 1200
f 1201 1200 1208
f 1200 1206 1209
f 1210 1185 1211
f 1212 1185 1210
f 1185 1212 1183
f 966 981 1204
f 980 982 979
f 1213 1204 981
f 982 1213 981
f 1214 1204 1213
f 1215 1214 1213
f 1203 1204 1216
f 1216 1195 1203
f 1217 1216 1204
f 1214 1217 1204
f 1217 1214 1218
f 1195 1216 1205
f 1205 1216 1207
f 1216 1217 1207
f 1219 1207 1217
f 1219 1218 1220
f 1219 1217 1218
f 1219 1220 1221
f 1206 1207 1221
f 1207 1219 1221
f 1206 1221 1209
f 1221 1222 1209
f 1209 1222 1223
f 1212 1224 1225
f 1181 1226 971
f 1183 1226 1181
f 990 982 980
f 1215 1213 982
f 990 1215 982
f 1227 1215 990
f 989 1227 990
f 1005 1227 989
f 1228 1227 1005
f 1214 1215 1229
f 1215 1230 1229
f 1227 1230 1215
f 1228 1231 1227
f 1227 1231 1230
f 1214 1229 1218
f 1218 1229 1232
f 1229 1230 1232
f 1232 1230 1233
f 1231 1233 1230
f 1231 1234 1233
f 1220 1232 1235
f 1218 1232 1220
f 1232 1233 1235
f 1235 1233 1236
f 1234 1237 1233
f 1236 1237 1238
f 1233 1237 1236
f 1235 1239 1220
f 1240 1239 1235
f 1220 1239 1221
f 1235 1236 1240
f 1240 1236 1241
f 1236 1238 1241
f 1221 1239 1222
f 1240 1222 1239
f 1222 1240 1242
f 1240 1241 1242
f 1242 1243 1244
f 1226 1009 994
f 1226 1245 1009
f 1183 1245 1226
f 1246 1245 1183
f 1246 1183 1212
f 971 1226 994
f 1006 1228 1005
f 1228 1006 1247
f 1248 1006 1004
f 1249 1247 1006
f 1248 1249 1006
f 1231 1228 1250
f 1228 1247 1251
f 1228 1251 1250
f 1252 1251 1247
f 1249 1252 1247
f 1253 1252 1249
f 1231 1250 1234
f 1234 1250 1254
f 1250 1251 1254
f 1251 1252 1255
f 1251 1255 1254
f 1252 1253 1255
f 1234 1254 1256
f 1256 1254 1257
f 1257 1255 1258
f 1254 1255 1257
f 1234 1256 1237
f 1237 1256 1238
f 1238 1256 1259
f 1256 1257 1259
f 1257 1258 1260
f 1257 1261 1259
f 1260 1261 1257
f 1242 1241 1243
f 1244 1243 1262
f 1263 1241 1238
f 1259 1263 1238
f 1241 1263 1243
f 1261 1263 1259
f 1263 1261 1243
f 1261 1264 1243
f 1265 1262 1266
f 1243 1264 1262
f 1224 1265 1267
f 1224 1267 1225
f 1245 1246 1009
f 1016 1268 1015
f 1248 1004 1015
f 1268 1248 1015
f 1268 1249 1248
f 1016 1269 1268
f 1268 1253 1249
f 1253 1268 1269
f 1255 1253 1258
f 1253 1269 1258
f 1264 1261 1270
f 1262 1264 1266
f 1271 1267 1265
f 1272 1246 1212
f 1225 1272 1212
f 1269 1029 1273
f 1016 1029 1269
f 1258 1269 1274
f 1269 1273 1274
f 1274 1273 1275
f 1258 1274 1260
f 1260 1274 1276
f 1274 1275 1276
f 1276 1277 1260
f 1260 1277 1261
f 1277 1276 1278
f 1277 1270 1261
f 1264 1270 1279
f 1270 1277 1279
f 1279 1280 1264
f 1271 1266 1281
f 1264 1280 1266
f 1266 1280 1281
f 1267 1282 1225
f 1225 1282 1283
f 1267 1271 1284
f 1266 1271 1265
f 1027 1008 1009
f 1246 1285 1027
f 1009 1246 1027
f 1285 1246 1272
f 1272 1283 1285
f 1283 1272 1225
f 1029 1025 1286
f 1029 1286 1273
f 1286 1287 1275
f 1275 1273 1286
f 1278 1276 1288
f 1289 1288 1290
f 1277 1278 1279
f 1279 1278 1289
f 1279 1289 1280
f 1278 1288 1289
f 1280 1289 1281
f 1289 1291 1281
f 1291 1289 1290
f 1267 1284 1282
f 1027 1285 1030
f 1292 1285 1283
f 1285 1292 1030
f 1033 1286 1025
f 1286 1033 1287
f 1290 1288 1276
f 1281 1293 1271
f 1281 1291 1293
f 1294 1292 1295
f 1295 1283 1282
f 1292 1283 1295
f 1036 1287 1033
f 1036 1275 1287
f 1276 1275 1296
f 1276 1296 1290
f 1290 1297 1291
f 1298 1271 1293
f 1271 1298 1284
f 1299 1030 1292
f 1035 1030 1299
f 1292 1294 1299
f 1275 1036 1043
f 1300 1043 1044
f 1301 1300 1044
f 1275 1043 1302
f 1043 1300 1302
f 1302 1300 1301
f 1296 1275 1302
f 1302 1301 1296
f 1296 1301 1303
f 1296 1303 1304
f 1304 1290 1296
f 1290 1304 1297
f 1305 1298 1293
f 1291 1297 1306
f 1291 1306 1293
f 1284 1295 1282
f 1284 1307 1295
f 1284 1308 1307
f 1284 1298 1308
f 1060 1299 1294
f 1299 1060 1035
f 1309 1044 1048
f 1044 1309 1301
f 1297 1310 1306
f 1310 1293 1306
f 1295 1307 1294
f 1307 1308 1311
f 1308 1298 1311
f 1057 1309 1048
f 1309 1057 1301
f 1301 1057 1312
f 1312 1303 1301
f 1305 1313 1298
f 1293 1310 1305
f 1307 1065 1294
f 1313 1311 1298
f 1313 1307 1311
f 1065 1060 1294
f 1057 1056 1312
f 1056 1059 1312
f 1314 1303 1312
f 1297 1304 1315
f 1312 1059 1314
f 1315 1304 1303
f 1310 1316 1305
f 1317 1318 1305
f 1316 1319 1305
f 1305 1319 1317
f 1305 1318 1313
f 1307 1313 1320
f 1313 1318 1320
f 1303 1314 1321
f 1297 1315 1322
f 1321 1315 1303
f 1315 1321 1322
f 1297 1322 1323
f 1297 1323 1310
f 1310 1324 1316
f 1316 1324 1319
f 1307 1325 1065
f 1069 1059 1062
f 1322 1321 1326
f 1310 1323 1324
f 1323 1322 1324
f 1318 1317 1327
f 1065 1325 1064
f 1320 1328 1307
f 1328 1320 1318
f 1318 1327 1328
f 1329 1059 1069
f 1329 1314 1059
f 1322 1330 1324
f 1330 1319 1324
f 1331 1064 1332
f 1333 1325 1307
f 1325 1332 1064
f 1333 1307 1328
f 1333 1334 1335
f 1328 1327 1333
f 1327 1334 1333
f 1327 1317 1336
f 1337 1331 1332
f 1325 1333 1332
f 1332 1333 1335
f 1332 1335 1337
f 1335 1338 1337
f 1334 1338 1335
f 1334 1327 1338
f 1321 1314 1339
f 1339 1314 1340
f 1321 1339 1326
f 1326 1339 1341
f 1339 1340 1341
f 1341 1322 1326
f 1322 1341 1330
f 1319 1330 1342
f 1317 1319 1343
f 1317 1343 1336
f 1319 1342 1343
f 1344 1345 1331
f 1346 1345 1344
f 1344 1331 1337
f 1338 1347 1337
f 1337 1347 1344
f 1348 1338 1327
f 1338 1348 1347
f 1327 1336 1348
f 1345 1071 1064
f 1071 1345 1078
f 1345 1064 1331
f 1349 1314 1329
f 1336 1347 1348
f 1078 1345 1346
f 1078 1346 1080
f 1346 1083 1080
f 1349 1340 1314
f 1330 1341 1350
f 1351 1083 1346
f 1344 1351 1346
f 1347 1336 1352
f 1082 1083 1087
f 1341 1353 1350
f 1350 1353 1354
f 1355 1351 1344
f 1083 1351 1087
f 1329 1356 1349
f 1349 1356 1340
f 1353 1341 1354
f 1340 1357 1341
f 1354 1341 1358
f 1336 1343 1359
f 1347 1355 1344
f 1347 1352 1360
f 1347 1360 1355
f 1336 1359 1352
f 1341 1357 1358
f 1352 1359 1360
f 1359 1361 1360
f 1356 1329 1362
f 1362 1340 1356
f 1357 1340 1363
f 1364 1359 1343
f 1359 1364 1361
f 1365 1087 1351
f 1366 1355 1360
f 1351 1355 1366
f 1360 1361 1366
f 1087 1123 1085
f 1087 1365 1123
f 1362 1329 1367
f 1367 1368 1362
f 1340 1362 1363
f 1362 1368 1363
f 1369 1351 1366
f 1370 1371 1069
f 1113 1370 1069
f 1113 1114 1370
f 1109 1115 1114
f 1115 1112 1372
f 1373 1371 1370
f 1374 1373 1370
f 1114 1374 1370
f 1115 1374 1114
f 1374 1115 1372
f 1374 1375 1373
f 1376 1375 1374
f 1376 1374 1372
f 1372 1377 1378
f 1069 1371 1329
f 1376 1372 1379
f 1379 1372 1378
f 1367 1371 1380
f 1329 1371 1367
f 1373 1381 1371
f 1375 1381 1373
f 1379 1378 1382
f 1367 1380 1368
f 1381 1380 1371
f 1383 1380 1381
f 1375 1383 1381
f 1380 1383 1384
f 1385 1383 1375
f 1376 1385 1375
f 1383 1385 1384
f 1384 1385 1386
f 1385 1376 1379
f 1379 1387 1385
f 1385 1387 1386
f 1387 1379 1382
f 1382 1388 1389
f 1387 1382 1389
f 1387 1389 1390
f 1391 1368 1380
f 1384 1391 1380
f 1392 1391 1384
f 1386 1392 1384
f 1391 1392 1393
f 1390 1392 1386
f 1387 1390 1386
f 1392 1394 1395
f 1392 1390 1394
f 1390 1389 1396
f 1390 1396 1394
f 1394 1396 1397
f 1396 1398 1397
f 1391 1363 1368
f 1393 1363 1391
f 1363 1393 1399
f 1392 1395 1393
f 1393 1395 1399
f 1395 1394 1399
f 1399 1397 1400
f 1399 1394 1397
f 1357 1363 1401
f 1363 1399 1401
f 1398 1402 1397
f 1358 1357 1403
f 1357 1401 1403
f 1403 1401 1404
f 1399 1400 1401
f 1401 1400 1404
f 1400 1402 1404
f 1404 1402 1405
f 1402 1400 1397
f 1402 1406 1405
f 1407 1408 1361
f 1409 1410 1411
f 1409 1412 1410
f 1410 1412 1413
f 1361 1364 1407
f 1414 1407 1364
f 1415 1414 1364
f 1407 1414 1411
f 1416 1414 1415
f 1414 1416 1409
f 1409 1411 1414
f 1417 1416 1418
f 1417 1419 1416
f 1412 1409 1419
f 1419 1409 1416
f 1420 1135 1421
f 1134 1135 1420
f 1422 1421 1135
f 1423 1421 1424
f 1420 1421 1423
f 1365 1351 1425
f 1426 1365 1425
f 1426 1427 1422
f 1427 1424 1421
f 1427 1421 1422
f 1428 1423 1424
f 1425 1351 1369
f 1429 1427 1425
f 1425 1427 1426
f 1424 1427 1429
f 1424 1430 1428
f 1431 1369 1366
f 1432 1369 1431
f 1429 1369 1432
f 1369 1429 1425
f 1433 1429 1432
f 1433 1424 1429
f 1430 1433 1434
f 1430 1424 1433
f 1435 1432 1431
f 1434 1435 1436
f 1434 1433 1432
f 1434 1432 1435
f 1437 1434 1436
f 1437 1430 1434
f 1361 1408 1366
f 1366 1408 1431
f 1407 1411 1408
f 1408 1411 1438
f 1435 1408 1438
f 1408 1435 1431
f 1411 1410 1438
f 1438 1410 1436
f 1435 1438 1436
f 1413 1437 1436
f 1413 1436 1410
f 1123 1439 1132
f 1439 1440 1133
f 1132 1439 1133
f 1440 1135 1129
f 1440 1129 1133
f 1365 1426 1439
f 1123 1365 1439
f 1426 1422 1440
f 1439 1426 1440
f 1422 1135 1440
f 1377 1372 1112
f 1377 1112 1139
f 1377 1139 1441
f 1139 1140 1441
f 1442 1441 1140
f 1378 1377 1441
f 1378 1441 1442
f 1443 1378 1442
f 1444 1442 1140
f 1382 1378 1443
f 1388 1382 1443
f 1388 1443 1442
f 1442 1445 1388
f 1445 1442 1444
f 1445 1444 1446
f 1444 1140 1446
f 1388 1445 1396
f 1389 1388 1396
f 1398 1396 1445
f 1446 1398 1445
f 1447 1398 1446
f 1447 1446 1448
f 1448 1446 1449
f 1446 1140 1449
f 1447 1448 1450
f 1450 1451 1452
f 1448 1451 1450
f 1449 1451 1448
f 1453 1449 1454
f 1447 1402 1398
f 1402 1447 1406
f 1406 1447 1450
f 1406 1450 1452
f 1453 1452 1451
f 1453 1451 1449
f 1405 1406 1455
f 1455 1406 1452
f 1455 1452 1456
f 1452 1453 1456
f 1456 1453 1457
f 1453 1454 1457
f 915 1142 1458
f 1459 915 1458
f 1449 1140 1459
f 1140 915 1459
f 1459 1458 1460
f 1460 1458 1461
f 1462 1460 1463
f 1460 1464 1463
f 1454 1449 1465
f 1465 1449 1459
f 1460 1462 1459
f 1461 1464 1460
f 1412 1419 1462
f 1462 1419 1459
f 1463 1412 1462
f 1413 1412 1463
f 1464 1413 1463
f 1459 1466 1465
f 1457 1454 1466
f 1454 1465 1466
f 1419 1417 1466
f 1459 1419 1466
f 1420 1147 1134
f 1145 1146 1467
f 1467 1146 1468
f 1147 1468 1146
f 1467 1468 1469
f 1420 1468 1147
f 1423 1468 1420
f 1467 1469 1470
f 1467 1470 1145
f 1428 1469 1423
f 1428 1470 1469
f 1468 1423 1469
f 1471 1142 1145
f 1430 1470 1428
f 1458 1142 1471
f 1470 1471 1145
f 1461 1458 1471
f 1470 1472 1471
f 1464 1437 1413
f 1464 1472 1437
f 1472 1470 1430
f 1472 1430 1437
f 1472 1464 1461
f 1471 1472 1461
f 1175 1473 1178
f 1175 1179 1474
f 1473 1175 1474
f 1473 1474 1475
f 1475 1474 1476
f 1477 1475 1476
f 1477 1476 1478
f 1478 1476 1479
f 1480 1477 1478
f 1481 1184 1482
f 1481 1185 1184
f 1211 1185 1481
f 1482 1483 1481
f 1478 1484 1480
f 1485 1484 1478
f 1484 1485 1483
f 1483 1486 1481
f 1478 1479 1485
f 1483 1485 1486
f 1485 1479 1487
f 1485 1487 1486
f 1486 1211 1481
f 1486 1487 1211
f 1474 1179 1488
f 1179 1201 1488
f 1488 1201 1489
f 1201 1208 1489
f 1487 1479 1490
f 1479 1476 1491
f 1479 1491 1490
f 1476 1474 1491
f 1474 1492 1491
f 1491 1493 1490
f 1492 1474 1488
f 1489 1492 1488
f 1491 1492 1493
f 1492 1494 1493
f 1487 1495 1211
f 1487 1490 1495
f 1489 1208 1496
f 1200 1209 1208
f 1209 1496 1208
f 1496 1209 1497
f 1496 1497 1498
f 1498 1497 1499
f 1492 1489 1494
f 1489 1496 1494
f 1493 1494 1500
f 1494 1496 1500
f 1493 1500 1490
f 1496 1498 1500
f 1500 1498 1501
f 1500 1501 1490
f 1498 1499 1501
f 1224 1495 1490
f 1224 1210 1495
f 1495 1210 1211
f 1499 1497 1223
f 1499 1223 1502
f 1209 1223 1497
f 1502 1490 1501
f 1502 1265 1490
f 1501 1499 1502
f 1224 1212 1210
f 1242 1223 1222
f 1502 1223 1244
f 1244 1223 1242
f 1490 1265 1224
f 1262 1502 1244
f 1502 1262 1265
f 1330 1350 1342
f 1354 1342 1350
f 1342 1354 1503
f 1342 1504 1343
f 1504 1342 1503
f 1343 1504 1505
f 1504 1503 1505
f 1505 1364 1343
f 1354 1358 1403
f 1354 1403 1503
f 1403 1506 1503
f 1503 1506 1507
f 1403 1404 1508
f 1403 1508 1506
f 1506 1508 1509
f 1506 1509 1507
f 1404 1405 1510
f 1404 1510 1508
f 1508 1510 1509
f 1509 1510 1456
f 1509 1456 1511
f 1509 1511 1507
f 1505 1415 1364
f 1503 1507 1505
f 1505 1507 1418
f 1505 1418 1415
f 1418 1416 1415
f 1507 1511 1418
f 1418 1511 1417
f 1510 1405 1455
f 1456 1510 1455
f 1457 1511 1456
f 1417 1511 1457
f 1466 1417 1457
