# Ascending Aorta (FMA3736)
# BodyParts3D, (c) The Database Center for Life Science licensed under CC Attribution-Share Alike 2.1 Japan
# Licence: https://creativecommons.org/licenses/by-sa/2.1/jp/
# Modified from the original: see README.md in this repository.
# Units: millimetres. +X = patient left, +Y = posterior, +Z = superior.
# Origin: centroid of the heart wall.
o Ascending_Aorta
v 8.3450 11.6548 28.3154
v 8.5682 10.9928 28.8555
v 8.2828 10.4668 28.2555
v 7.8206 12.3518 28.3354
v 7.9174 10.4268 29.9554
v 9.8420 8.1058 29.2455
v 9.4343 8.1048 29.8755
v 9.9177 6.9578 29.8354
v 9.8472 6.4208 29.2555
v 9.3017 9.2528 29.3555
v 9.0676 10.4058 28.8354
v 8.9289 9.8328 29.3755
v 9.0623 9.2848 28.7954
v 8.7802 9.2538 29.9154
v 7.0186 7.7538 27.4855
v 9.6955 5.3108 29.1255
v 8.2235 6.4078 32.0554
v 10.4792 4.1258 29.7355
v 10.3543 5.2528 29.7754
v 10.3620 1.8888 29.6554
v 8.8374 3.5728 31.9554
v 8.3696 1.3348 32.4354
v 6.2485 3.0108 35.8555
v 9.7342 0.7808 30.1854
v 9.4987 -0.8692 29.5654
v 9.5423 -0.8512 29.0055
v 9.3244 -1.7692 28.9654
v 7.5709 -4.6332 27.7455
v 7.2867 -1.4312 32.9054
v 6.4908 -3.0712 32.8454
v 8.5259 -3.0412 28.9254
v 6.3952 -4.1422 31.5154
v 7.9351 -4.1112 28.3254
v 6.8908 -5.3912 27.7154
v 7.5436 12.7668 27.7954
v 6.7673 13.6618 27.8254
v 6.7054 13.9518 27.2754
v 5.6800 14.3238 27.8454
v 4.9222 15.2058 26.1854
v 5.7051 14.8028 26.7355
v 5.9724 14.5508 27.2954
v 5.1721 15.3348 26.7555
v 4.0872 16.0428 26.2154
v 0.1456 12.9588 33.3954
v -7.9514 11.1198 17.8555
v 4.3698 9.9148 33.8555
v 3.3869 11.6878 32.7954
v 5.9435 8.7308 33.2555
v 4.6360 5.8588 37.0754
v 3.9773 8.1748 36.0354
v 2.0468 9.2228 37.1854
v 2.4855 6.8888 39.3454
v 3.9758 4.1338 39.2555
v 4.1666 2.4218 39.7555
v 4.8382 0.1838 38.5554
v 3.1207 3.5398 41.4754
v 3.4252 1.8218 41.9754
v 1.8430 5.2488 42.6554
v 2.5937 2.3478 44.2355
v 6.4147 -0.3422 35.1754
v 6.1206 1.3228 36.1654
v 5.7118 -2.5482 35.1055
v 4.9554 -0.9242 37.9554
v 4.5857 -3.1282 37.3254
v 4.1682 -2.0632 39.6055
v 3.9862 0.1498 40.7954
v 3.0128 0.6438 44.1754
v 2.9085 -3.8552 44.5854
v 3.1872 -1.0472 44.1155
v 3.7744 -3.7242 39.5454
v 2.1135 1.7148 47.0154
v 2.6298 0.0248 46.3954
v 2.7157 -1.6812 46.8954
v 5.7097 -6.5182 27.1155
v 4.8377 -7.2352 25.9654
v 3.4045 -7.6882 25.0354
v -2.7699 -5.5382 20.9654
v 4.5251 -6.2932 31.6055
v 4.6963 -4.1962 35.6055
v 3.7451 -4.7852 37.8254
v 4.4299 -5.2642 34.4454
v 3.5010 -5.8462 36.4254
v 3.0823 -6.8952 34.9454
v 3.2854 -5.3612 38.9254
v 3.2144 -5.8792 37.7854
v 1.9100 -7.1862 45.0254
v 2.2870 -7.6032 36.6055
v 2.1444 -7.5632 39.4054
v 2.0535 -2.4422 53.5954
v 4.5392 -7.4442 26.5254
v 4.1182 -7.7582 25.9454
v 2.8057 -8.4092 27.6055
v 3.1570 -8.2292 24.8054
v 2.2576 -8.1632 24.2754
v 2.8061 -8.4022 24.8054
v 2.7993 -8.5322 25.3555
v 2.4935 -7.9272 33.2254
v 1.3490 17.3158 24.0154
v 0.2230 17.2388 23.2555
v 0.2246 17.2688 24.0154
v 2.3958 16.5178 24.5454
v -0.3282 17.4248 22.8954
v -0.9236 16.7678 22.3755
v -0.9001 17.2158 23.4454
v -0.9092 17.3108 22.8855
v 2.9987 16.6828 25.1155
v 1.8534 16.2358 26.7854
v 1.8096 15.3998 28.4354
v 2.4480 16.8768 25.1255
v 1.9005 17.1358 24.5754
v 1.3305 16.9618 25.1255
v 0.2084 16.9598 25.1255
v 0.1875 16.5618 26.2254
v 0.7110 15.8448 27.8855
v -0.9201 16.8348 25.1155
v -1.1026 13.3528 33.4054
v -0.6551 11.1878 37.0854
v 0.2948 7.9058 41.6255
v -1.2908 9.7618 40.5654
v -2.4591 8.8778 45.0154
v -1.3925 7.8218 45.5454
v 0.4423 5.7848 45.4754
v -0.6786 6.3068 48.2954
v -1.9678 7.5488 49.4554
v -0.0060 5.0918 49.9354
v 0.1345 4.0928 62.2254
v -0.8742 7.0058 66.2555
v 0.5500 4.4948 66.1654
v 0.1165 4.5018 66.6055
v -0.9271 5.9978 61.1754
v -1.9370 8.1348 65.7355
v -1.9449 7.9848 66.4154
v 0.0577 3.3808 66.6554
v 1.2449 4.6248 45.3555
v 1.0146 3.9948 47.6554
v 1.2492 2.7828 49.8555
v 0.9325 1.9258 58.7954
v 1.9526 0.4838 50.3354
v 0.0950 4.0918 58.3054
v -0.5757 5.4278 57.2254
v 1.2097 1.6958 64.9554
v 1.2719 2.2138 66.0854
v 1.1471 2.7598 66.7154
v 1.3260 1.0708 66.6155
v 1.0002 -0.0432 66.8354
v 1.4931 1.0808 66.0554
v -12.5152 9.6708 66.1554
v 1.6324 -2.1132 60.8954
v 1.5351 -0.5422 64.2555
v 1.6659 -2.8132 64.7954
v 1.5894 0.4938 66.6554
v 1.7538 -0.6342 66.5554
v 1.2952 -5.1192 67.0954
v 1.6947 -3.4342 66.4554
v 1.9070 -5.2372 53.4955
v 1.8741 -4.1922 55.7754
v 1.5409 -4.5272 65.8555
v 1.0674 -6.7062 64.6554
v 1.2639 -5.7162 66.9354
v 0.7064 -5.6502 67.0954
v 0.7640 -7.3092 66.3154
v 0.9209 -6.2162 66.9154
v 0.6082 -7.5242 66.8755
v -0.5887 -8.9542 67.2254
v 0.6679 -7.8062 64.6155
v 0.2596 -8.4042 66.2754
v -14.4274 -5.4092 66.8354
v -1.1775 -9.4842 67.2154
v -2.1072 -8.9572 21.4154
v 1.1108 -8.6382 23.5354
v -0.0520 -9.4162 23.0854
v -2.3019 -9.5312 22.0754
v 2.1438 -8.7172 24.2254
v 1.6522 -9.0112 24.2154
v -0.0883 -10.1102 28.6654
v -0.6481 -10.0882 25.8555
v -1.7708 -10.1012 24.1754
v -2.9712 -11.5992 29.1654
v -4.1064 -11.8512 28.0354
v -1.8274 -11.1812 30.3054
v 0.4918 -9.7452 33.1554
v 1.0827 -9.1742 36.5454
v 1.0230 -9.2262 40.4654
v -2.4563 -12.4782 36.9855
v -1.3088 -11.9892 43.1654
v -0.7129 -11.3232 52.7254
v 0.3876 -9.6432 53.3454
v -1.4018 -12.1762 48.2054
v 0.5213 -8.7632 60.1055
v -0.0978 -9.8722 60.6255
v -0.8680 -11.3572 56.0854
v 0.0925 -8.9172 65.1355
v -1.6886 -11.6272 65.0454
v -0.4556 -9.5082 66.7954
v -0.6177 -9.5072 67.0154
v -0.7821 -10.0512 66.7754
v -1.8567 -11.6572 66.1654
v -2.4134 -11.6592 67.0554
v -2.2259 -12.1792 65.5854
v -2.5164 -12.2032 66.7054
v -1.2971 -11.7662 39.2555
v -2.4720 -12.7772 39.7754
v -2.4816 -12.9592 42.0154
v -2.5188 -13.1992 47.0454
v -2.0394 -12.8012 50.9855
v -1.7288 -12.3942 54.9254
v -2.4342 -12.9762 56.5854
v -3.0768 -13.6132 54.3154
v -2.4667 -12.6762 61.6355
v -2.4483 -12.3242 66.1355
v -2.0411 16.8528 21.6155
v -2.0312 17.0428 22.3154
v -2.0378 16.9168 23.4354
v -3.7593 16.1818 23.9654
v -2.6016 16.8618 21.7455
v -2.6180 16.5488 24.5454
v -2.6293 16.3348 21.2854
v -3.7539 16.2838 22.2854
v -4.9523 14.8248 19.7854
v -3.1759 16.6078 21.1754
v -1.9729 16.7468 24.5454
v -2.0611 16.4718 25.6654
v -4.3356 15.8878 20.5754
v -4.9178 15.4838 20.5754
v -4.9126 15.5828 24.5055
v -5.5112 14.8638 19.4955
v -6.6496 14.5508 25.0254
v -4.3433 15.7418 25.6355
v -7.8108 13.8018 28.3555
v -8.4058 13.1528 32.2654
v -5.5569 13.9938 32.2954
v -3.3063 14.1208 32.3054
v -3.4181 11.9858 37.8354
v -5.6306 12.5858 37.2954
v -5.6877 11.4968 41.1754
v -4.0309 10.9988 41.1654
v -4.6211 10.4408 43.9454
v -6.2738 11.0178 43.9654
v -4.6406 10.0678 45.6155
v -3.5740 9.0118 48.3855
v -7.9204 11.7108 41.1754
v -6.2934 10.6428 46.1954
v -5.7536 10.2388 48.4154
v -4.1106 9.4778 55.6854
v -5.7400 10.4978 56.2754
v -3.0817 8.7268 62.9454
v -5.7406 10.4878 59.0754
v -4.6522 9.8468 62.9855
v -3.5508 9.4548 65.7754
v -4.0947 9.7818 65.7854
v -5.1893 10.3028 65.7954
v -6.8463 10.7988 61.8954
v -2.5043 8.0148 66.3954
v -2.4735 8.6038 65.5654
v -3.0043 9.1788 66.3254
v -3.5642 9.1998 66.3254
v -4.6832 9.2548 66.3054
v -4.6535 9.8218 66.0854
v -5.2133 9.8458 66.2555
v -10.2428 -0.4912 16.2455
v -2.8516 -9.3162 21.3954
v -2.8300 -8.9042 20.9955
v -2.9574 -8.3322 20.8755
v -3.3884 -8.8552 20.4354
v -3.4018 -9.1102 20.8454
v -3.9894 -9.6182 21.9454
v -3.8077 -8.2682 20.3154
v -3.9497 -8.8602 20.2854
v -4.0166 -10.1372 23.0454
v -4.4770 -8.2182 19.8855
v -4.5100 -8.8482 20.2854
v -4.5239 -9.1132 20.8454
v -4.6273 -7.6442 19.7754
v -5.0355 -8.1702 19.3655
v -5.6455 -9.1062 20.8354
v -5.1313 -9.9982 22.4855
v -6.8726 -11.1132 24.1255
v -5.4376 -7.5822 19.2154
v -5.8277 -8.1232 19.1954
v -6.7280 -8.3532 19.7455
v -8.5466 -10.9412 23.6155
v -6.6830 -7.4942 18.5654
v -5.7562 -11.2172 24.6854
v -5.7990 -12.0362 66.8354
v -2.9729 -11.6312 67.0754
v -3.0025 -12.1942 67.1854
v -4.1503 -12.6882 66.9654
v -5.7904 -11.8702 26.3454
v -6.9442 -12.4792 27.4454
v -7.4786 -11.9722 25.7854
v -5.8958 -13.8822 34.1255
v -6.9790 -13.1432 29.6654
v -4.1876 -13.3992 35.8254
v -3.6178 -13.2322 36.9554
v -4.7721 -13.8492 36.8954
v -5.8767 -14.3532 36.9154
v -7.0250 -14.0202 32.9955
v -7.0548 -14.5892 35.7754
v -7.0896 -15.2522 40.2455
v -3.0576 -13.2472 40.3154
v -3.5150 -13.4342 39.1854
v -4.2182 -13.9842 40.2954
v -5.3601 -14.3642 38.5954
v -5.3743 -14.6352 40.8254
v -3.6604 -14.0442 46.4554
v -4.8108 -14.5872 43.6355
v -4.8122 -14.7422 46.4254
v -5.9709 -15.3162 46.4054
v -6.5364 -15.4012 44.1654
v -7.1159 -15.7552 46.3855
v -7.0990 -15.4332 41.9154
v -8.2496 -15.9792 44.6954
v -3.0809 -13.6912 49.2754
v -3.0807 -13.6882 50.9554
v -3.6630 -14.0942 48.1355
v -4.2458 -14.5102 50.3655
v -4.8471 -14.8572 49.7854
v -5.9750 -15.3942 48.6454
v -5.9763 -15.4182 50.3254
v -4.2431 -14.4592 53.1654
v -4.8198 -14.7592 54.8354
v -4.9060 -14.8932 50.9054
v -5.3995 -15.1172 53.1454
v -5.9721 -15.3382 54.8154
v -6.5486 -15.6342 53.1255
v -7.1216 -15.8642 49.7455
v -7.6929 -16.0612 51.9855
v -7.1175 -15.7862 54.7954
v -8.2592 -16.1622 54.2254
v -3.6567 -13.9742 55.9855
v -4.2963 -14.1372 60.4654
v -5.9596 -15.1002 58.3855
v -7.1145 -15.7292 55.9154
v -7.2123 -15.5882 58.1654
v -2.5144 -12.6662 63.8855
v -3.0552 -13.2002 63.3054
v -3.6420 -13.6932 62.7254
v -3.7165 -13.7242 63.8454
v -4.8023 -14.4252 63.8154
v -5.9536 -14.9842 63.2355
v -7.0922 -15.3032 63.7854
v -2.6388 -12.6982 65.0055
v -2.7185 -12.7142 65.5654
v -3.0456 -13.0182 65.5554
v -3.0403 -12.9172 66.1155
v -3.0311 -12.7412 66.6854
v -3.5910 -12.7202 67.0654
v -3.1188 -13.2142 64.4254
v -3.7016 -13.2622 66.6654
v -3.6365 -13.5882 64.9654
v -3.6275 -13.4172 66.0954
v -4.1799 -13.2532 67.1355
v -4.2017 -13.6692 66.6454
v -4.7975 -14.3332 64.9454
v -4.2099 -13.8252 66.0854
v -4.7390 -13.2172 66.9354
v -4.7682 -13.7742 66.8454
v -4.7890 -14.1712 66.0654
v -5.9277 -14.4902 66.6155
v -5.8871 -13.7162 66.8655
v -5.9367 -14.6632 66.0454
v -5.9492 -14.9012 64.3555
v -8.6842 -13.5682 66.8354
v -6.4465 -13.6862 66.8354
v -6.4760 -14.2492 66.9354
v -7.0353 -14.2182 66.8855
v -6.9865 -14.7722 66.6055
v -7.0856 -15.1762 64.9054
v -7.0753 -14.9802 66.0354
v -7.1205 -15.8422 48.6255
v -6.7459 12.7138 18.6454
v -7.3013 12.8198 18.7954
v -8.6731 12.6528 23.2754
v -10.1159 11.0458 23.2154
v -8.9774 12.9498 26.6454
v -8.9717 13.0598 28.1255
v -9.8876 12.0578 26.0554
v -6.6866 13.8448 31.7254
v -9.5600 12.5368 32.7954
v -10.6861 11.8648 32.7754
v -11.3035 11.3818 31.0754
v -10.1743 11.5198 39.4855
v -7.8803 12.4758 37.2854
v -11.9070 10.5708 41.1355
v -10.6737 11.8248 33.8954
v -10.7760 10.7428 47.3054
v -7.3933 11.0638 54.6155
v -8.5022 11.3128 55.1754
v -7.3896 11.1348 56.8555
v -7.9636 10.8868 48.9955
v -10.2068 10.8988 48.9955
v -9.6258 11.2818 53.4955
v -9.6190 11.4108 56.3054
v -7.9469 11.2058 59.6654
v -8.5003 11.3508 56.8655
v -8.5005 11.3458 57.9855
v -9.0591 11.3908 58.5454
v -9.0584 11.4038 57.4254
v -10.1817 11.3798 58.5454
v -10.7457 11.3208 56.2954
v -9.0631 11.3148 60.2254
v -7.4032 10.8748 65.8154
v -8.5171 11.0288 63.5754
v -8.5203 10.9678 65.8154
v -10.7501 11.2368 60.2154
v -6.8620 10.4978 66.1055
v -8.5404 10.5838 66.1754
v -9.6592 10.6448 66.1055
v -10.7718 10.8238 65.8054
v -11.6754 8.8848 23.1355
v -8.3102 11.1278 18.1754
v -9.1861 8.9678 17.0554
v -11.4959 7.2918 20.2754
v -10.1753 11.5018 24.9154
v -10.2228 12.0168 27.7355
v -8.5204 10.9658 47.3154
v -6.8916 9.9338 66.2355
v -10.2481 10.1128 66.1654
v -9.3327 6.1708 16.9955
v -9.8619 6.7778 16.4754
v -9.8191 7.5928 16.9254
v -9.5343 7.3068 16.9154
v -9.9501 5.0938 16.6055
v -10.5550 5.6778 16.8655
v -10.5404 4.5358 16.2654
v -10.7241 1.7818 16.1654
v -9.7428 -1.6552 16.6654
v -7.1537 -5.7712 18.1355
v -8.2127 -4.5712 17.5154
v -8.2417 -5.1242 17.3154
v -7.9988 -5.7082 17.5854
v -8.8012 -5.0952 17.3354
v -8.2811 -5.8752 17.5854
v -8.9328 -2.8362 17.1255
v -9.2715 -3.3662 16.7355
v -9.8018 -2.7792 16.8054
v -10.3322 -2.1972 17.0154
v -11.2614 -1.6122 17.7254
v -10.5029 -3.3342 17.6654
v -7.1829 -6.3282 18.0654
v -7.1099 -6.8952 18.1155
v -7.4454 -6.8772 18.1155
v -7.2405 -7.4292 18.6554
v -7.7415 -6.2842 17.6255
v -8.8894 -6.7782 18.6754
v -10.1328 -9.0962 21.3655
v -9.0670 -10.1682 22.4754
v -10.7344 -9.8712 22.4855
v -11.1918 -7.8942 20.6954
v -10.6569 -8.3922 20.8555
v -11.2220 -8.4722 21.2054
v -11.2608 -9.2102 21.9454
v -11.3838 -9.6312 22.4955
v -11.3293 -10.5182 23.5854
v -8.0186 -11.5722 24.8054
v -8.6048 -12.0532 25.7754
v -9.1389 -11.5392 24.6754
v -9.2010 -12.7252 27.4454
v -9.7260 -12.0382 25.7754
v -10.2250 -10.8562 23.6854
v -10.3099 -12.4762 26.8755
v -10.2560 -11.4462 24.6754
v -10.3446 -13.1372 28.5354
v -10.7951 -11.0302 24.1255
v -10.8408 -11.9012 25.7754
v -12.0050 -12.7072 27.9855
v -9.2335 -13.3452 29.1654
v -8.6956 -13.7842 30.7555
v -8.1543 -14.1602 32.4254
v -9.8319 -14.0592 31.3054
v -9.8143 -13.7232 30.1954
v -10.9549 -14.0792 31.3054
v -11.4940 -13.6622 30.1954
v -10.9726 -14.4152 32.4154
v -12.0905 -14.3392 32.4154
v -8.1682 -14.4262 33.5454
v -8.1920 -14.8802 35.7654
v -8.2023 -15.0762 36.8855
v -9.2930 -14.4792 32.9754
v -9.3069 -14.7452 34.0854
v -9.3298 -15.1822 36.3154
v -10.4336 -14.8352 34.0854
v -10.4462 -15.0752 35.1954
v -12.1068 -14.6492 33.5254
v -11.5683 -15.0782 35.1954
v -12.6970 -15.2072 36.3054
v -8.7911 -15.6082 39.6654
v -8.2348 -15.6962 41.3454
v -8.2429 -15.8502 43.0254
v -8.2562 -16.1052 55.3454
v -8.2501 -15.9892 57.0254
v -8.8108 -15.9832 58.7154
v -9.3547 -15.6582 63.7654
v -10.5127 -16.3452 57.5754
v -12.1909 -16.2552 59.2555
v -7.5947 -14.1872 66.8555
v -7.6239 -14.7442 66.7654
v -8.1542 -14.1582 66.8555
v -8.1835 -14.7182 66.8755
v -8.2074 -15.1742 66.0254
v -8.2182 -15.3802 64.8954
v -8.7432 -14.6942 67.0055
v -8.7644 -15.0972 66.5854
v -9.3346 -15.2732 66.0254
v -9.3458 -15.4872 64.8954
v -10.4216 -14.6072 67.0254
v -9.3268 -15.1242 66.5854
v -10.4751 -15.6282 64.3254
v -9.8968 -15.2962 66.0154
v -11.0087 -15.1052 66.5854
v -11.5787 -15.2782 66.0154
v -12.7196 -15.6392 63.7654
v -11.0247 -15.4102 36.8655
v -9.9295 -15.9202 40.7754
v -10.4808 -15.7362 39.0954
v -11.0552 -15.9922 40.7654
v -12.1722 -15.8972 40.2054
v -12.1797 -16.0412 41.3254
v -9.9361 -16.0462 41.8855
v -9.3812 -16.1632 44.1255
v -9.3851 -16.2372 45.2455
v -8.2575 -16.1292 47.4955
v -10.5097 -16.2872 44.1255
v -11.6317 -16.2882 43.5554
v -12.1983 -16.3962 45.2355
v -10.5179 -16.4442 46.3555
v -8.2616 -16.2072 49.7355
v -9.3915 -16.3582 47.4855
v -9.3950 -16.4262 49.1654
v -9.3969 -16.4622 51.9654
v -10.5229 -16.5402 48.5954
v -10.5260 -16.5982 50.2754
v -9.9595 -16.4932 54.2054
v -10.5263 -16.6042 51.9554
v -12.2106 -16.6312 49.7154
v -11.6510 -16.6572 51.3954
v -11.0879 -16.6162 53.6355
v -12.2117 -16.6522 53.0754
v -12.7700 -16.6002 54.1954
v -9.3911 -16.3522 55.3354
v -9.3850 -16.2362 57.0154
v -10.5210 -16.5032 55.3254
v -11.6468 -16.5762 55.3254
v -12.6196 -16.4062 57.5654
v -10.7482 11.2728 55.1754
v -11.3164 11.1358 54.5554
v -11.3137 11.1868 55.7254
v -11.9146 11.0678 57.4054
v -12.4753 10.4308 65.7954
v -13.0258 10.6308 59.6355
v -12.4899 6.7248 21.9354
v -11.9688 9.3918 25.1454
v -10.7397 11.4358 27.1554
v -12.4322 10.3328 31.0354
v -12.6333 9.8418 29.3354
v -12.5449 9.3548 27.0754
v -12.5994 8.3148 24.7954
v -13.3115 8.2738 27.0354
v -13.2406 8.7908 28.1754
v -13.9635 7.7078 28.1355
v -13.9820 7.1868 26.9955
v -13.4632 7.2188 25.3154
v -11.3665 11.3588 32.1954
v -11.4137 11.3228 33.3154
v -11.9494 10.8488 31.6155
v -12.0389 10.8138 32.7355
v -12.5654 10.3008 32.1554
v -13.1912 9.7338 33.2555
v -13.0133 9.7828 31.5754
v -13.8139 8.7228 30.9754
v -14.1151 8.6608 33.2154
v -14.3027 7.6748 29.5954
v -14.6864 7.6278 31.4955
v -11.8905 10.8858 36.0954
v -12.4739 10.4588 34.4054
v -13.3624 9.6448 36.0554
v -13.4091 9.5888 37.7355
v -13.9444 9.0758 37.1554
v -14.2843 8.6108 34.8954
v -16.7276 6.1438 44.8954
v -13.0703 9.7818 41.1055
v -12.4935 10.0838 46.1554
v -14.2326 9.0118 47.8054
v -11.9153 10.4128 48.4154
v -13.0640 9.9018 48.9554
v -12.4598 10.7268 54.0254
v -12.4554 10.8108 55.1554
v -13.6072 10.2418 54.5754
v -14.7713 9.4378 53.9855
v -14.1805 10.0058 55.6854
v -17.2623 7.4818 55.5854
v -13.5998 10.3828 56.8154
v -13.5991 10.3958 57.9354
v -14.1961 10.0658 57.3655
v -14.2748 10.0308 58.4855
v -15.3379 9.3308 57.8954
v -14.7595 9.6628 61.8354
v -13.6185 10.0268 65.7754
v -14.7685 9.4908 65.7555
v -11.9263 10.2018 66.1255
v -15.3710 8.6978 66.1454
v -11.7458 6.2028 19.6754
v -11.7618 4.5618 18.5055
v -11.0481 3.4618 16.7854
v -13.6817 2.8818 21.2455
v -13.4462 4.5318 21.8655
v -12.8570 7.2458 23.6355
v -13.8987 5.5988 24.1355
v -15.2088 2.8448 24.6055
v -14.6895 5.5618 26.3755
v -15.4176 3.3768 25.7455
v -14.9244 6.5158 29.2154
v -15.1734 5.5288 28.0554
v -17.1375 7.1038 66.2154
v -21.9077 1.7158 66.9154
v -14.9064 -3.2602 22.1454
v -14.1385 0.1028 21.1355
v -13.8353 -4.3982 20.9855
v -15.5523 0.6398 23.9654
v -15.5343 -1.0232 23.3454
v -13.2827 -4.9752 20.6055
v -12.8119 -6.6962 20.9554
v -13.7355 -6.1052 21.4855
v -13.9911 -5.5312 21.5055
v -14.7552 -4.3892 22.1055
v -14.4642 -5.5252 22.0654
v -15.3141 -5.5202 23.1854
v -15.5353 -4.3872 23.2254
v -15.6253 -3.2612 23.2654
v -12.2817 -7.2842 20.9254
v -12.3119 -7.8592 21.3555
v -12.3480 -8.5492 21.9654
v -12.3725 -9.0152 22.4154
v -12.3759 -9.5982 23.0554
v -11.8736 -10.2002 23.4554
v -12.9795 -7.2662 21.4454
v -13.1318 -7.8382 21.9955
v -12.9160 -8.6832 22.5254
v -12.9443 -9.2232 23.0654
v -13.3752 -6.7392 21.4654
v -13.4153 -7.5052 22.0055
v -13.7442 -7.8252 22.5454
v -13.4804 -8.7482 23.0754
v -14.1598 -7.2432 22.5654
v -14.2862 -7.8162 23.1055
v -14.2575 -6.0972 22.0454
v -13.9808 -6.6722 22.0254
v -14.4933 -6.6662 22.6155
v -15.1424 -6.0902 23.1654
v -15.0971 -7.2332 23.6854
v -12.4469 -10.4352 24.1454
v -12.9912 -10.1182 24.1554
v -14.0685 -9.2642 24.1854
v -14.1365 -10.5632 25.8154
v -15.2052 -9.5472 25.8154
v -14.3478 -8.3932 23.6554
v -14.8462 -8.9672 24.7555
v -14.7768 -7.8102 23.6654
v -14.8421 -8.3872 24.2154
v -15.6920 -8.3822 25.3254
v -15.6874 -8.9622 25.8755
v -15.9137 -6.0882 24.2854
v -15.7419 -6.6582 24.2654
v -15.2149 -7.8072 24.2254
v -15.9949 -7.8052 25.3454
v -16.1759 -6.6602 24.9654
v -16.0602 -8.3822 25.8855
v -15.2511 -10.4212 26.9454
v -16.0334 -9.5442 26.9754
v -11.8989 -10.6832 24.1355
v -12.4833 -11.1302 25.2355
v -12.5156 -11.7452 26.3354
v -13.0304 -10.8642 25.2455
v -13.0483 -11.2072 25.7954
v -13.6738 -12.4372 28.5554
v -13.6286 -11.5752 26.9054
v -14.7329 -11.2392 27.4754
v -15.8042 -10.2722 27.5055
v -12.6375 -14.0722 31.8655
v -13.1605 -13.3462 30.2054
v -14.2619 -12.9562 30.2154
v -14.2966 -13.6172 31.8755
v -14.7657 -11.8632 28.5754
v -14.7956 -12.4352 29.6754
v -15.3672 -12.6372 30.7854
v -15.3068 -11.4852 28.5854
v -15.3386 -12.0912 29.6854
v -15.9476 -13.0072 32.4554
v -15.8438 -11.0272 28.6055
v -15.8784 -11.6862 29.6954
v -15.9088 -12.2672 30.7954
v -12.6838 -14.4202 32.9754
v -13.7890 -14.6352 34.6454
v -13.8146 -15.1242 36.8655
v -14.3337 -14.3242 34.0954
v -15.3494 -13.7392 33.5554
v -14.9062 -14.5462 35.7654
v -15.4486 -14.1912 35.2154
v -15.9781 -13.5902 34.1155
v -16.0101 -14.2012 36.3354
v -15.4756 -14.7062 37.4454
v -14.3886 -15.3742 39.1055
v -15.4941 -15.0602 39.4254
v -16.5870 -14.5052 39.1255
v -16.5978 -14.7102 40.2455
v -13.8577 -15.9462 60.9454
v -14.3803 -15.2152 64.8954
v -15.5116 -15.3922 62.6454
v -14.9773 -15.9012 59.8254
v -16.6373 -15.4632 59.8354
v -12.6867 -15.0112 66.5854
v -13.2543 -15.1382 66.0154
v -13.8024 -14.8922 66.5854
v -15.9869 -13.7592 67.1654
v -14.8977 -14.3822 67.3154
v -14.9158 -14.7282 66.5954
v -15.4905 -14.9902 64.8954
v -16.0307 -14.3172 67.1654
v -16.0314 -14.6072 66.0354
v -12.1548 -15.5652 37.9754
v -13.2916 -15.8492 40.7654
v -13.2836 -15.6962 39.6554
v -13.8436 -15.6782 40.2154
v -14.9591 -15.5532 41.3354
v -16.0596 -15.1452 41.3454
v -13.3025 -16.0562 42.4454
v -13.8516 -15.8302 41.3254
v -14.4126 -15.8312 42.4454
v -14.4184 -15.9402 43.5654
v -14.4348 -16.2542 48.0454
v -15.5206 -15.5652 43.0154
v -15.5283 -15.7112 44.6954
v -16.0877 -15.6812 46.9354
v -16.5613 -15.1302 43.0354
v -16.6242 -15.2142 44.1454
v -13.8848 -16.4642 49.7154
v -14.9936 -16.2132 49.7254
v -14.9966 -16.2702 50.8454
v -15.5413 -15.9592 48.0454
v -16.6458 -15.6252 49.1754
v -12.7713 -16.6252 51.3954
v -13.3297 -16.5762 53.0754
v -13.8865 -16.4962 51.3954
v -13.8861 -16.4892 54.1954
v -14.9983 -16.3022 52.5254
v -16.1008 -15.9322 50.8555
v -15.5513 -16.1502 54.7654
v -13.8811 -16.3932 56.4454
v -13.8714 -16.2092 58.6954
v -16.0940 -15.8012 58.1454
v -16.6530 -15.7632 55.9054
v -15.0052 7.5668 33.7355
v -15.9277 8.7808 56.1954
v -17.1625 7.8808 60.0854
v -18.6023 6.3328 58.3454
v -15.9811 8.7438 65.7254
v -16.7205 8.2228 65.7054
v -18.8531 6.4818 65.6454
v -18.2858 6.6008 66.2555
v -15.5194 4.4448 27.4554
v -16.0577 3.8738 28.5554
v -15.9539 3.3468 27.4154
v -15.5600 6.5138 32.5754
v -15.1276 6.5688 30.3354
v -15.5387 5.4978 29.4754
v -15.9662 5.4528 31.4154
v -16.3822 4.3728 30.8154
v -16.6331 2.7628 29.0854
v -16.5580 4.8648 33.0754
v -17.3686 2.6938 32.1554
v -15.7904 6.4668 34.2555
v -17.0887 4.2728 34.7355
v -17.0100 4.7708 36.4354
v -17.0712 3.7698 33.0354
v -17.9126 3.0178 36.3755
v -17.9608 2.0978 34.0354
v -17.4902 4.6388 40.9154
v -19.2219 1.8678 42.4955
v -19.1015 5.3358 55.5154
v -21.2599 3.3728 66.7254
v -20.0331 5.3728 66.1654
v -15.9755 2.2658 26.2654
v -16.0053 -0.4772 24.4855
v -16.2068 -2.1492 24.4254
v -16.0264 0.6258 25.0854
v -16.5698 -1.0472 25.5854
v -16.6809 1.6828 27.9254
v -16.8172 0.5888 27.3254
v -17.4702 0.0038 28.9855
v -17.9345 0.5098 31.2455
v -17.5752 -1.2482 28.3755
v -18.1443 1.0228 32.9454
v -18.2378 -0.5952 31.2054
v -17.8969 -1.1152 29.5055
v -18.3679 -0.0672 32.3454
v -18.6713 -1.1722 32.3054
v -19.0482 -0.6702 34.5654
v -19.4945 -2.3292 34.5055
v -19.1947 0.8818 38.5354
v -19.6302 -0.7372 37.3655
v -22.7015 -2.7272 52.4254
v -20.4184 -1.8962 39.5654
v -21.5979 1.0208 54.2355
v -16.2335 -3.8292 24.3655
v -16.1435 -4.9552 24.3254
v -16.7626 -2.7192 25.5254
v -16.7400 -4.9632 25.4454
v -17.1462 -2.1782 26.6654
v -17.2490 -4.9752 26.5654
v -16.5713 -6.0932 25.4054
v -17.1328 -6.1032 26.5254
v -17.6234 -2.7522 27.7654
v -17.4974 -3.8612 27.1654
v -17.9396 -4.4372 28.2654
v -17.6418 -6.1152 27.6454
v -18.0743 -3.3292 28.8655
v -17.9283 -2.2152 28.9054
v -18.2887 -2.2352 30.0254
v -18.4435 -3.3482 29.9855
v -18.3525 -4.4552 29.3855
v -18.3631 -5.5772 29.3855
v -18.6142 -2.2572 31.1454
v -18.7864 -3.3702 31.1055
v -18.7304 -4.4742 30.5055
v -18.9401 -5.8842 31.0154
v -19.1798 -2.8472 32.8054
v -19.4250 -4.5162 32.7455
v -19.6507 -5.6452 33.2654
v -19.7330 -4.5392 33.8655
v -20.1819 -4.5742 35.5454
v -19.9675 -5.6682 34.3855
v -21.5831 -2.7952 67.0154
v -16.5523 -7.2352 25.9254
v -16.7265 -8.3862 27.0055
v -16.4237 -8.9632 26.9855
v -16.8577 -8.9662 27.7355
v -17.3230 -8.3942 28.1255
v -16.3312 -9.6232 27.5254
v -17.1487 -7.2432 27.0454
v -17.7842 -7.8292 28.7054
v -16.6514 -10.1312 28.6355
v -17.0505 -9.5492 28.6454
v -18.1040 -8.4122 29.8054
v -17.8840 -9.5642 30.3254
v -17.4453 -10.7282 30.8555
v -18.3755 -9.5782 31.4454
v -18.2511 -6.7032 29.3054
v -18.5694 -8.4272 30.9254
v -19.3952 -8.4622 33.1654
v -18.8167 -7.2922 30.9654
v -19.6394 -6.7672 33.2254
v -19.2275 -9.6112 33.6854
v -17.9718 -10.7402 31.9654
v -18.4547 -10.7542 33.0854
v -18.8676 -10.7712 34.2054
v -19.5879 -9.6322 34.8054
v -19.9227 -8.4932 34.8454
v -19.1972 -10.7902 35.2355
v -19.9047 -9.6542 35.9254
v -19.5447 -10.8142 36.4454
v -19.9330 -7.3512 34.3254
v -20.3906 -7.3862 36.0055
v -20.3803 -8.5282 36.5254
v -20.1031 -10.2632 37.5854
v -20.6888 -9.7312 39.2854
v -20.3742 -11.8402 67.0254
v -19.2848 -12.4602 67.0754
v -16.9660 -11.3142 30.8354
v -16.8366 -10.7212 29.7355
v -17.2741 -10.1372 29.7555
v -16.9852 -11.9132 31.9354
v -17.5377 -11.3232 31.9554
v -16.5396 -13.6002 35.2355
v -17.0502 -12.6382 33.5854
v -17.0763 -13.1372 34.9855
v -17.0895 -13.3892 35.8054
v -17.5854 -12.1462 33.6055
v -18.0556 -11.3352 33.0754
v -17.6080 -12.5782 34.7054
v -17.6279 -12.9582 35.8154
v -18.2839 -11.3432 33.6255
v -18.1404 -12.0332 34.7254
v -18.6662 -11.3602 34.7054
v -18.1681 -12.5612 36.1954
v -19.0310 -11.3822 35.8655
v -18.9225 -11.9872 36.9654
v -19.3478 -11.4042 36.9855
v -17.1099 -13.7772 37.2754
v -17.6451 -13.2852 36.9254
v -17.6902 -14.1472 40.8254
v -17.6734 -13.8262 39.1554
v -18.7310 -12.5982 38.0854
v -18.1895 -12.9692 37.4955
v -18.2014 -13.1962 38.3555
v -18.7600 -13.1512 40.2954
v -19.2615 -12.0152 38.2854
v -18.7461 -12.8852 39.1854
v -19.6007 -12.0502 39.7654
v -19.8763 -11.4552 39.2254
v -20.6379 -10.9332 41.4855
v -17.1566 -14.6692 41.9254
v -17.7118 -14.5592 43.6055
v -18.2454 -14.0362 42.5055
v -18.7777 -13.4892 41.9654
v -18.7918 -13.7582 43.6355
v -18.8245 -14.3812 49.2154
v -17.7342 -14.9862 48.0754
v -19.7303 -12.7212 43.1055
v -19.8835 -13.4892 49.2455
v -20.6538 -11.5712 43.7054
v -21.4702 -11.7632 50.4254
v -18.2905 -14.8972 50.8855
v -16.6549 -15.7992 53.6554
v -18.2969 -15.0192 53.1255
v -17.7520 -15.3252 54.7954
v -19.3815 -14.3052 53.1454
v -19.9122 -13.7282 51.4855
v -18.8425 -14.7252 54.8154
v -21.2141 -12.3962 52.0854
v -20.4550 -13.3812 53.1754
v -20.4589 -13.4552 54.2954
v -17.1981 -15.4612 57.5954
v -18.4373 -14.9412 56.4855
v -18.2871 -14.8322 59.2954
v -19.3789 -14.2562 58.7555
v -19.4161 -14.3292 56.5055
v -19.9234 -13.9412 54.8354
v -20.4615 -13.5052 55.9754
v -20.4614 -13.5032 57.6554
v -20.4584 -13.4462 58.7754
v -17.1773 -15.0642 61.5254
v -17.1581 -14.6972 63.7854
v -18.2604 -14.3222 63.2355
v -18.3197 -14.5622 61.5454
v -19.3674 -14.0372 61.0055
v -19.3598 -13.8922 62.1255
v -19.3455 -13.6192 63.8154
v -19.9125 -13.7342 60.4554
v -19.9054 -13.5992 61.5754
v -20.4367 -13.0322 62.7154
v -17.6359 -13.1102 67.1355
v -17.1284 -14.1312 66.6055
v -17.1058 -13.6992 67.1554
v -17.1415 -14.3802 65.4754
v -17.6650 -13.6662 67.0454
v -18.2238 -13.6232 66.6554
v -18.2442 -14.0142 64.9254
v -19.3149 -13.0352 66.6454
v -18.7546 -13.0472 67.0254
v -19.3284 -13.2932 65.5154
v -19.8569 -12.6742 66.6554
v -19.8440 -12.4272 66.9754
v -20.4215 -12.7412 64.4054
v -20.4098 -12.5182 65.5354
v -20.5027 3.1858 54.8755
v -22.0334 2.9138 64.9554
v -22.4603 1.8768 63.1554
v -21.3387 3.9598 66.1055
v -21.2405 3.9938 64.9855
v -21.8487 2.8408 66.7654
v -22.1316 2.8798 66.0754
v -22.9548 -2.2912 54.6754
v -23.0510 -1.7852 56.3755
v -22.8448 0.8118 62.0754
v -23.1461 0.7498 64.3154
v -23.5630 -0.3502 64.2754
v -23.8947 -2.4972 61.9554
v -23.8937 -1.4732 64.7954
v -24.1106 -3.1052 63.6155
v -21.9959 0.0328 67.0154
v -22.7273 1.7708 66.5954
v -22.7933 1.7938 66.0354
v -23.1146 0.0958 66.9154
v -23.1734 -1.0262 66.9855
v -23.7869 -2.0292 67.0154
v -23.2890 0.6978 65.9955
v -23.4941 0.1288 66.5354
v -23.8227 -0.9562 65.9354
v -23.8705 -1.5332 66.4754
v -24.0474 -2.0652 65.8954
v -24.0484 -2.0852 66.4554
v -20.3953 -2.9602 37.8454
v -20.5778 -6.2752 36.6055
v -20.9069 -5.1952 38.3254
v -20.9727 -4.1092 39.4855
v -21.3480 -5.2502 40.5654
v -23.2206 -5.0222 52.9054
v -23.0376 -3.3692 53.5154
v -23.2972 -3.3892 55.1954
v -23.3954 -4.5112 54.5954
v -23.0998 -7.2322 51.7054
v -23.4474 -6.1712 53.9855
v -23.6484 -5.6582 55.6754
v -23.4623 -3.4452 56.3154
v -23.7055 -4.5732 56.8354
v -23.5548 -4.5422 55.7154
v -23.7584 -6.2522 56.7854
v -23.5790 -7.3442 55.6255
v -23.9014 -6.3032 58.4554
v -24.1410 -4.1852 62.4554
v -24.2181 -4.8202 64.6754
v -24.2042 -3.7192 65.2754
v -24.1142 -5.8492 61.8354
v -22.9217 -6.9292 66.8454
v -23.4079 -5.5012 66.8655
v -23.4665 -6.6192 66.8254
v -23.9379 -4.9112 66.8454
v -24.0025 -6.1422 66.3154
v -24.0756 -6.4512 62.9354
v -23.7876 -7.6462 64.5754
v -24.0124 -6.3322 65.7455
v -23.9244 -6.5762 66.2954
v -24.1682 -3.2002 66.4154
v -24.1918 -4.3202 66.3755
v -20.6724 -7.4112 37.1255
v -20.9973 -8.5932 39.3254
v -21.1037 -9.7872 41.5254
v -21.0745 -6.8882 38.8254
v -21.3691 -7.4912 40.4855
v -21.6066 -8.6792 42.6854
v -21.4750 -9.8462 43.7654
v -21.8041 -6.4262 42.7654
v -21.9650 -8.1582 44.3855
v -22.3377 -9.4162 48.8254
v -21.8359 -10.5442 48.2254
v -22.8864 -8.3452 51.1055
v -22.1022 -10.6092 50.4654
v -22.6128 -9.4802 51.0654
v -22.3510 -10.6742 52.7054
v -22.9002 -8.9442 52.2054
v -22.9151 -9.5622 53.8655
v -23.4011 -7.2942 53.9454
v -23.2859 -8.4412 54.4654
v -22.5212 -10.7432 54.9454
v -22.8524 -10.2042 56.0854
v -23.4201 -8.4932 56.1454
v -23.1583 -9.6872 57.7854
v -22.6312 -10.8352 57.7455
v -22.6081 -10.8952 59.4254
v -23.6020 -8.6202 60.0654
v -23.1722 -9.7842 60.5854
v -23.7219 -7.3952 57.3054
v -23.0778 -9.9072 61.6954
v -22.5478 -10.4972 63.9955
v -23.3830 -8.7882 64.5454
v -22.5690 -10.9032 60.5454
v -22.4548 -10.9822 61.6654
v -21.9607 -11.5882 62.2054
v -23.5736 -8.6642 62.3054
v -23.8756 -7.4852 60.1055
v -23.8797 -7.5632 62.3354
v -21.4963 -11.8422 63.8755
v -20.9526 -12.1722 64.9855
v -21.7889 -11.1542 65.5854
v -23.0275 -8.9472 66.7754
v -21.4648 -11.2402 66.7054
v -22.9951 -8.3292 66.8655
v -22.1190 -10.5952 66.1654
v -23.4956 -7.1742 66.7054
v -23.6159 -7.7142 66.2555
v -21.3036 -12.4302 53.2054
v -21.6841 -11.8302 52.6654
v -21.7561 -11.8662 53.7854
v -21.3581 -12.4672 54.3254
v -20.9963 -13.0062 57.1155
v -20.9944 -12.9692 58.2355
v -22.2281 -11.3392 55.4855
v -21.3951 -12.5042 55.4454
v -21.8430 -12.0182 58.2654
v -20.9821 -12.7352 61.4454
v -21.4412 -12.1762 62.1854
v -20.9918 -12.9202 59.3555
v -21.7926 -12.0592 59.3855
v -21.5168 -12.2332 61.0654
v -22.0898 -11.5422 61.0854
v -20.9330 -11.7982 66.6654
f 1 2 3
f 4 2 1
f 4 5 2
f 6 7 8
f 9 6 8
f 10 7 6
f 11 12 13
f 12 10 13
f 12 14 10
f 6 13 10
f 14 7 10
f 15 9 16
f 6 9 15
f 11 3 2
f 2 5 11
f 11 5 12
f 11 13 3
f 14 12 5
f 3 13 15
f 13 6 15
f 7 17 8
f 18 16 19
f 20 16 18
f 19 16 9
f 9 8 19
f 19 21 18
f 20 18 21
f 21 22 20
f 8 17 19
f 19 17 21
f 17 23 21
f 21 23 22
f 20 24 25
f 20 22 24
f 26 16 20
f 20 25 26
f 27 28 26
f 26 25 27
f 15 16 26
f 24 29 25
f 25 29 27
f 26 28 15
f 29 30 27
f 29 24 22
f 31 28 27
f 31 32 33
f 31 33 28
f 27 32 31
f 30 32 27
f 28 33 34
f 4 1 35
f 4 35 36
f 3 35 1
f 37 38 36
f 35 3 37
f 35 37 36
f 37 39 40
f 37 40 41
f 38 37 41
f 42 40 39
f 42 41 40
f 42 38 41
f 39 37 3
f 43 44 42
f 43 42 39
f 39 3 45
f 36 46 4
f 36 47 46
f 44 38 42
f 38 47 36
f 3 15 45
f 4 46 5
f 46 48 5
f 14 5 48
f 14 48 7
f 7 48 17
f 48 49 17
f 46 50 48
f 46 51 50
f 48 50 49
f 51 52 50
f 23 17 49
f 23 49 53
f 53 54 23
f 23 54 55
f 50 52 49
f 49 52 53
f 53 56 54
f 56 57 54
f 52 58 53
f 58 56 53
f 57 56 59
f 22 60 29
f 61 60 22
f 60 62 29
f 61 22 23
f 60 61 63
f 63 64 60
f 62 60 64
f 61 55 63
f 23 55 61
f 63 55 65
f 63 65 64
f 55 54 66
f 65 55 66
f 54 57 66
f 57 67 66
f 66 68 65
f 66 69 68
f 65 68 70
f 59 67 57
f 59 71 67
f 71 72 67
f 67 72 69
f 66 67 69
f 72 73 69
f 68 69 73
f 74 28 34
f 74 75 28
f 75 76 28
f 28 76 77
f 15 28 77
f 78 33 32
f 34 33 78
f 62 30 29
f 62 79 30
f 62 64 79
f 79 64 80
f 79 81 30
f 32 30 81
f 79 82 81
f 79 80 82
f 81 78 32
f 83 78 81
f 81 82 83
f 65 70 64
f 64 70 80
f 84 85 80
f 70 84 80
f 70 86 84
f 85 82 80
f 82 85 87
f 85 84 88
f 70 68 86
f 73 89 68
f 74 34 78
f 90 74 78
f 75 74 90
f 91 75 90
f 91 76 75
f 91 90 92
f 93 94 76
f 91 93 76
f 94 93 95
f 95 93 96
f 96 93 91
f 96 91 92
f 77 76 94
f 90 78 97
f 90 97 92
f 83 97 78
f 83 82 87
f 98 99 100
f 98 101 99
f 99 102 100
f 101 103 102
f 99 101 102
f 102 104 100
f 102 103 105
f 103 101 45
f 106 39 101
f 43 39 106
f 43 107 108
f 106 109 43
f 43 109 107
f 110 111 109
f 110 109 101
f 101 109 106
f 110 101 98
f 109 111 107
f 98 111 110
f 98 112 111
f 112 113 111
f 111 113 107
f 113 114 107
f 108 107 114
f 100 112 98
f 104 115 100
f 115 112 100
f 39 45 101
f 108 44 43
f 108 114 44
f 47 38 44
f 116 44 114
f 51 46 47
f 47 117 51
f 117 47 44
f 51 118 52
f 51 117 119
f 51 119 118
f 119 120 118
f 118 121 122
f 120 121 118
f 121 120 123
f 123 124 125
f 126 127 128
f 128 127 129
f 130 131 127
f 130 127 126
f 132 129 127
f 132 133 129
f 52 118 58
f 134 56 58
f 118 122 58
f 58 122 134
f 134 59 56
f 135 134 122
f 123 122 121
f 134 135 59
f 135 71 59
f 135 136 71
f 122 123 135
f 123 125 135
f 135 125 136
f 137 138 139
f 136 139 138
f 125 140 136
f 124 140 125
f 139 136 140
f 139 126 137
f 141 137 126
f 128 141 126
f 130 139 140
f 126 139 130
f 142 128 143
f 142 143 144
f 143 145 144
f 141 142 146
f 142 144 146
f 128 133 143
f 128 142 141
f 133 145 143
f 128 129 133
f 147 145 133
f 71 136 138
f 71 138 72
f 72 138 73
f 73 138 89
f 138 148 89
f 137 148 138
f 149 150 148
f 137 141 148
f 141 149 148
f 146 151 149
f 151 152 149
f 151 153 152
f 149 152 150
f 152 154 150
f 152 153 154
f 151 146 144
f 144 145 151
f 141 146 149
f 145 153 151
f 86 88 84
f 89 155 68
f 68 155 86
f 89 156 155
f 89 148 156
f 148 157 156
f 157 158 156
f 156 158 155
f 155 158 86
f 148 150 157
f 150 154 157
f 154 153 157
f 153 159 157
f 158 157 159
f 147 160 153
f 160 159 153
f 159 161 158
f 162 161 159
f 162 159 160
f 162 163 161
f 160 164 163
f 162 160 163
f 158 161 165
f 161 166 165
f 153 145 147
f 147 164 160
f 163 166 161
f 167 168 147
f 169 77 170
f 169 171 172
f 169 170 171
f 170 77 94
f 173 170 94
f 94 95 173
f 170 173 174
f 173 95 96
f 173 96 174
f 96 92 175
f 175 174 96
f 174 175 176
f 170 174 171
f 171 174 176
f 171 176 177
f 176 178 179
f 177 176 179
f 175 92 180
f 92 181 180
f 175 178 176
f 180 178 175
f 181 97 182
f 97 83 182
f 87 182 83
f 183 182 87
f 181 92 97
f 180 181 184
f 88 87 85
f 87 88 183
f 181 182 185
f 86 183 88
f 186 182 183
f 187 183 86
f 186 183 187
f 188 182 186
f 86 189 187
f 86 158 189
f 189 190 187
f 191 186 187
f 158 165 189
f 165 192 189
f 187 190 191
f 193 191 190
f 166 192 165
f 164 194 163
f 166 163 194
f 192 166 194
f 192 190 189
f 164 195 194
f 190 192 193
f 192 194 196
f 193 192 196
f 147 168 164
f 168 195 164
f 196 194 195
f 196 195 168
f 197 193 196
f 198 196 168
f 197 199 193
f 196 200 197
f 201 181 185
f 201 184 181
f 201 202 184
f 203 202 201
f 201 185 203
f 185 188 204
f 188 185 182
f 186 205 188
f 206 205 186
f 186 191 206
f 191 207 206
f 205 206 208
f 206 207 208
f 207 191 209
f 191 193 209
f 199 197 210
f 197 200 210
f 211 105 103
f 105 104 102
f 45 211 103
f 211 212 105
f 212 213 105
f 105 213 104
f 214 212 215
f 213 212 214
f 216 213 214
f 215 212 211
f 215 211 217
f 217 211 45
f 215 218 214
f 219 220 217
f 217 220 215
f 220 218 215
f 104 221 115
f 115 113 112
f 115 222 113
f 213 221 104
f 213 216 221
f 221 222 115
f 216 222 221
f 45 219 217
f 220 219 223
f 223 218 220
f 223 224 218
f 219 224 223
f 218 225 214
f 219 226 224
f 218 227 225
f 224 227 218
f 225 228 214
f 214 228 216
f 229 228 225
f 228 230 216
f 227 229 225
f 230 228 229
f 231 114 113
f 116 114 232
f 222 231 113
f 114 231 232
f 222 216 231
f 117 44 116
f 117 116 233
f 234 233 116
f 234 116 232
f 234 232 231
f 233 235 236
f 236 119 117
f 233 236 117
f 236 237 119
f 120 119 237
f 235 238 236
f 237 236 238
f 120 237 239
f 240 120 239
f 235 241 238
f 242 237 238
f 239 237 242
f 124 123 120
f 240 124 120
f 239 243 240
f 239 242 243
f 130 140 124
f 124 240 244
f 244 240 243
f 243 245 244
f 124 246 130
f 124 244 246
f 245 247 244
f 131 130 246
f 244 248 246
f 249 246 248
f 248 250 249
f 250 248 251
f 248 244 247
f 247 252 248
f 248 252 251
f 127 131 132
f 253 133 132
f 254 255 132
f 131 254 132
f 255 253 132
f 254 131 246
f 254 246 249
f 255 254 249
f 253 255 256
f 255 249 256
f 257 253 256
f 257 256 250
f 250 256 249
f 133 253 257
f 251 258 250
f 250 258 257
f 258 251 259
f 259 257 258
f 15 260 45
f 261 262 169
f 261 169 172
f 77 169 263
f 262 264 263
f 169 262 263
f 264 262 265
f 262 261 265
f 265 261 266
f 77 263 267
f 264 268 267
f 263 264 267
f 264 265 268
f 266 261 172
f 266 172 269
f 270 267 268
f 271 268 272
f 268 265 272
f 272 265 266
f 77 267 273
f 270 274 273
f 267 270 273
f 274 270 271
f 270 268 271
f 271 272 275
f 272 276 275
f 276 272 266
f 266 269 276
f 276 269 277
f 77 273 278
f 274 279 278
f 273 274 278
f 274 271 279
f 279 271 275
f 275 280 279
f 281 275 276
f 276 277 281
f 278 279 282
f 282 279 280
f 172 171 177
f 269 172 177
f 177 283 269
f 167 284 168
f 284 285 168
f 285 198 168
f 200 196 198
f 200 198 286
f 286 198 285
f 287 285 284
f 287 286 285
f 288 177 179
f 283 177 288
f 277 269 283
f 289 288 179
f 290 283 288
f 290 288 289
f 178 180 291
f 178 291 179
f 292 289 179
f 180 184 293
f 294 293 184
f 295 293 294
f 180 293 291
f 291 293 295
f 291 295 296
f 297 179 291
f 296 298 291
f 299 298 296
f 292 179 297
f 203 300 202
f 202 301 184
f 300 301 202
f 301 295 294
f 184 301 294
f 301 300 302
f 302 303 301
f 295 301 303
f 303 302 304
f 303 296 295
f 299 296 303
f 304 299 303
f 204 203 185
f 203 204 305
f 203 302 300
f 306 302 203
f 203 305 306
f 306 305 307
f 307 308 306
f 302 306 304
f 306 308 309
f 309 308 310
f 309 311 304
f 306 309 304
f 299 304 311
f 309 310 312
f 313 204 188
f 205 313 188
f 205 314 313
f 305 204 315
f 204 313 315
f 315 313 316
f 315 316 317
f 315 307 305
f 307 315 317
f 307 317 318
f 307 318 308
f 318 317 319
f 314 205 208
f 313 314 316
f 314 208 320
f 316 314 320
f 208 321 320
f 316 320 322
f 320 321 323
f 320 323 322
f 322 317 316
f 323 321 324
f 323 324 325
f 317 322 319
f 322 323 319
f 318 319 326
f 319 323 325
f 319 325 327
f 325 328 329
f 208 207 330
f 207 209 330
f 330 209 331
f 208 330 321
f 330 331 321
f 321 332 324
f 325 324 328
f 324 332 333
f 324 333 328
f 333 332 334
f 193 335 209
f 209 335 336
f 337 209 336
f 209 337 331
f 336 338 337
f 337 338 339
f 339 331 337
f 321 331 332
f 331 339 332
f 332 339 340
f 332 340 341
f 334 332 341
f 342 335 193
f 199 342 193
f 343 342 199
f 210 343 199
f 342 343 344
f 343 210 345
f 344 343 345
f 210 200 346
f 345 210 346
f 200 286 346
f 287 347 286
f 335 348 336
f 342 348 335
f 344 348 342
f 345 346 349
f 349 346 286
f 347 349 286
f 348 344 350
f 350 344 351
f 344 345 351
f 345 349 351
f 349 347 352
f 352 347 287
f 348 338 336
f 350 338 348
f 351 349 353
f 349 352 353
f 339 338 354
f 338 350 354
f 350 351 355
f 354 350 355
f 351 353 355
f 284 356 287
f 356 352 287
f 353 352 357
f 357 352 356
f 354 355 358
f 355 353 358
f 284 357 356
f 358 353 359
f 359 353 357
f 360 357 284
f 354 358 361
f 358 359 361
f 339 354 362
f 340 339 362
f 362 354 361
f 167 363 284
f 363 364 284
f 364 360 284
f 364 365 360
f 365 357 360
f 365 359 357
f 340 362 341
f 363 366 364
f 366 365 364
f 359 367 361
f 367 359 365
f 367 365 366
f 341 362 368
f 362 361 368
f 368 361 369
f 361 367 369
f 310 308 370
f 308 318 370
f 370 318 326
f 371 226 219
f 45 371 219
f 372 226 371
f 372 373 226
f 374 373 372
f 375 224 226
f 375 226 373
f 224 375 227
f 227 376 229
f 227 375 376
f 373 377 375
f 230 378 216
f 231 216 378
f 379 230 229
f 376 380 229
f 380 379 229
f 381 380 376
f 231 378 382
f 231 382 383
f 382 378 230
f 379 384 230
f 382 230 384
f 384 379 385
f 234 235 233
f 235 234 241
f 231 383 234
f 383 241 234
f 383 382 241
f 241 382 386
f 384 386 382
f 387 388 389
f 390 388 387
f 390 391 392
f 390 392 388
f 392 393 388
f 389 247 245
f 389 394 247
f 394 252 247
f 388 395 389
f 389 396 394
f 395 396 389
f 396 397 394
f 388 393 395
f 393 398 395
f 395 398 396
f 398 397 396
f 393 399 398
f 398 399 397
f 400 399 393
f 397 399 401
f 252 402 251
f 403 252 394
f 252 403 402
f 397 401 394
f 394 401 403
f 401 404 403
f 401 399 405
f 251 402 406
f 259 251 406
f 406 402 407
f 402 404 407
f 403 404 402
f 407 404 408
f 408 404 409
f 45 372 371
f 372 410 374
f 411 410 372
f 45 411 372
f 411 45 412
f 411 412 410
f 412 413 410
f 414 373 374
f 377 373 414
f 377 415 375
f 375 415 376
f 241 416 238
f 241 386 416
f 238 416 242
f 242 390 243
f 416 390 242
f 416 391 390
f 386 391 416
f 243 387 245
f 243 390 387
f 245 387 389
f 417 257 259
f 257 147 133
f 406 417 259
f 407 417 406
f 417 147 257
f 418 147 417
f 418 417 407
f 408 418 407
f 409 418 408
f 419 45 260
f 412 45 419
f 420 421 422
f 421 412 422
f 419 420 422
f 412 419 422
f 423 420 419
f 419 260 423
f 424 421 420
f 424 420 423
f 424 423 425
f 425 423 260
f 425 260 426
f 260 15 427
f 77 278 428
f 429 77 428
f 428 430 429
f 431 430 428
f 432 429 430
f 433 432 430
f 15 77 427
f 77 434 427
f 429 435 434
f 434 77 429
f 432 435 429
f 436 427 434
f 435 436 434
f 260 427 437
f 436 437 427
f 437 438 260
f 437 436 439
f 435 439 436
f 440 278 441
f 428 278 440
f 440 441 442
f 441 278 282
f 441 282 443
f 441 443 442
f 431 428 444
f 444 428 440
f 442 445 444
f 442 444 440
f 430 431 433
f 431 444 433
f 433 444 445
f 443 445 442
f 432 433 445
f 280 443 282
f 446 443 280
f 280 447 446
f 275 447 280
f 447 275 281
f 448 446 447
f 432 445 449
f 450 445 443
f 443 446 450
f 445 450 449
f 451 449 450
f 451 450 446
f 452 451 446
f 448 452 446
f 448 453 452
f 453 448 454
f 277 283 290
f 455 281 277
f 455 277 290
f 456 455 290
f 457 455 456
f 458 456 290
f 281 455 457
f 457 456 459
f 459 456 458
f 281 460 447
f 460 281 457
f 461 459 458
f 448 447 460
f 457 462 460
f 462 457 459
f 463 461 458
f 464 460 462
f 464 462 465
f 462 459 465
f 461 465 459
f 465 461 466
f 454 448 460
f 460 464 454
f 458 290 289
f 467 458 289
f 468 467 292
f 467 289 292
f 469 468 292
f 470 468 469
f 467 468 471
f 468 470 471
f 458 467 463
f 471 463 467
f 471 470 472
f 473 463 471
f 473 471 472
f 472 470 474
f 466 461 463
f 473 472 475
f 472 474 475
f 469 297 476
f 469 292 297
f 297 291 298
f 477 298 478
f 476 298 477
f 476 297 298
f 469 476 479
f 479 476 480
f 480 476 477
f 481 477 478
f 477 481 480
f 470 469 479
f 479 480 482
f 482 480 483
f 483 480 481
f 470 479 474
f 474 479 482
f 484 474 482
f 484 482 485
f 482 483 485
f 484 485 486
f 299 478 298
f 487 478 299
f 481 478 487
f 488 299 311
f 489 311 309
f 312 489 309
f 319 327 326
f 329 327 325
f 329 328 490
f 490 328 333
f 333 334 491
f 334 492 491
f 491 490 333
f 492 334 341
f 341 493 492
f 492 493 494
f 494 493 495
f 496 366 363
f 496 497 366
f 497 367 366
f 497 369 367
f 498 496 363
f 498 499 496
f 499 497 496
f 368 500 501
f 368 369 500
f 500 369 497
f 493 341 501
f 341 368 501
f 363 502 498
f 502 499 498
f 500 503 504
f 500 497 503
f 503 497 499
f 502 503 499
f 493 501 505
f 501 500 505
f 500 504 505
f 506 502 363
f 503 507 504
f 507 503 502
f 506 507 502
f 493 508 495
f 508 493 505
f 505 504 509
f 509 504 507
f 508 505 509
f 507 510 509
f 510 507 506
f 508 509 511
f 511 509 510
f 495 508 512
f 512 508 511
f 483 481 513
f 483 513 485
f 487 299 488
f 487 488 514
f 481 487 515
f 487 514 515
f 516 515 514
f 513 481 515
f 517 515 516
f 517 516 518
f 488 311 489
f 519 488 489
f 519 489 520
f 312 520 489
f 521 520 312
f 522 521 312
f 514 488 519
f 514 519 516
f 520 521 523
f 524 519 523
f 519 520 523
f 516 519 524
f 516 524 518
f 524 523 525
f 525 523 526
f 310 370 522
f 522 370 527
f 370 326 527
f 312 310 522
f 528 522 529
f 528 521 522
f 522 527 529
f 529 527 530
f 523 521 526
f 521 528 526
f 528 529 531
f 531 529 532
f 529 530 532
f 526 528 531
f 527 326 327
f 530 327 329
f 527 327 530
f 530 329 533
f 532 530 534
f 530 533 534
f 531 532 535
f 532 534 536
f 534 533 537
f 535 532 536
f 536 534 538
f 534 537 538
f 538 537 539
f 533 329 540
f 329 490 540
f 540 490 541
f 490 491 541
f 541 491 492
f 533 540 542
f 540 541 542
f 541 492 494
f 542 541 494
f 533 542 537
f 543 494 544
f 543 542 494
f 539 537 543
f 537 542 543
f 381 376 415
f 385 379 380
f 392 545 393
f 392 546 545
f 393 545 400
f 546 547 545
f 545 547 400
f 400 548 399
f 548 405 399
f 401 405 404
f 405 409 404
f 405 549 409
f 550 405 548
f 549 405 550
f 410 413 551
f 552 414 374
f 377 553 415
f 414 553 377
f 415 553 554
f 414 552 553
f 553 555 554
f 552 374 410
f 553 552 556
f 552 557 558
f 552 410 557
f 555 553 556
f 556 552 558
f 555 556 559
f 558 559 556
f 560 559 558
f 561 558 562
f 415 554 381
f 563 564 380
f 563 380 381
f 563 381 565
f 566 563 565
f 564 563 566
f 381 554 565
f 565 554 567
f 566 565 567
f 568 566 567
f 569 554 555
f 554 569 567
f 568 567 569
f 570 555 559
f 569 555 570
f 569 571 568
f 570 571 569
f 570 559 572
f 571 570 573
f 573 570 572
f 380 564 385
f 564 574 385
f 574 384 385
f 564 575 574
f 566 575 564
f 566 568 575
f 576 574 575
f 576 577 574
f 576 575 568
f 578 577 576
f 579 568 571
f 576 568 579
f 578 576 579
f 578 579 580
f 581 384 574
f 581 574 577
f 577 578 581
f 384 582 386
f 384 581 582
f 581 583 582
f 578 583 581
f 578 580 583
f 386 584 391
f 386 582 584
f 582 583 585
f 584 582 585
f 391 546 392
f 391 584 546
f 586 587 546
f 584 586 546
f 586 588 587
f 584 588 586
f 585 588 584
f 583 589 585
f 585 589 588
f 589 590 588
f 583 591 589
f 546 587 547
f 587 548 547
f 547 548 400
f 548 587 592
f 587 588 592
f 592 593 548
f 593 550 548
f 588 590 592
f 592 590 594
f 593 592 594
f 595 593 594
f 550 593 595
f 596 594 590
f 594 596 595
f 595 597 550
f 598 549 550
f 597 599 550
f 550 599 598
f 600 418 409
f 600 147 418
f 600 409 549
f 549 147 600
f 549 598 147
f 601 147 598
f 598 599 601
f 412 421 413
f 602 421 424
f 424 603 602
f 425 603 424
f 425 426 604
f 425 604 603
f 603 604 605
f 603 605 606
f 421 602 413
f 551 413 602
f 606 602 603
f 410 607 557
f 551 602 606
f 410 551 607
f 607 551 608
f 551 606 608
f 606 605 609
f 558 557 562
f 562 557 607
f 558 561 560
f 561 562 610
f 607 608 562
f 562 608 610
f 608 606 609
f 610 608 611
f 608 609 611
f 559 560 572
f 560 612 572
f 560 561 613
f 614 147 601
f 615 147 614
f 426 260 438
f 438 616 426
f 605 604 617
f 426 616 617
f 616 438 618
f 617 604 426
f 619 605 617
f 617 620 619
f 617 616 620
f 609 605 619
f 438 437 439
f 438 439 621
f 439 435 621
f 435 622 621
f 622 623 621
f 618 438 621
f 621 624 618
f 618 624 625
f 623 624 621
f 625 616 618
f 626 625 624
f 625 626 627
f 625 628 616
f 616 628 629
f 628 625 627
f 622 435 432
f 622 432 630
f 449 630 432
f 449 631 630
f 631 449 451
f 451 632 631
f 632 451 452
f 452 633 632
f 633 452 453
f 634 453 635
f 634 633 453
f 630 636 622
f 637 636 631
f 631 636 630
f 637 631 632
f 637 632 638
f 632 633 638
f 639 638 633
f 639 633 634
f 636 640 622
f 636 637 641
f 637 638 642
f 638 639 643
f 642 638 643
f 622 640 623
f 640 636 641
f 641 637 642
f 641 642 644
f 642 643 645
f 624 623 646
f 647 646 623
f 640 647 623
f 646 647 648
f 647 640 641
f 641 644 647
f 647 644 648
f 644 642 645
f 626 624 646
f 646 649 626
f 626 649 627
f 649 646 648
f 644 650 648
f 650 644 645
f 454 635 453
f 634 635 651
f 652 639 634
f 651 652 634
f 653 639 652
f 652 654 653
f 643 639 653
f 653 654 655
f 645 643 656
f 656 643 653
f 653 655 657
f 648 650 649
f 650 645 658
f 658 645 656
f 658 656 659
f 659 656 653
f 659 653 657
f 659 657 660
f 661 657 655
f 627 649 662
f 649 663 662
f 650 663 649
f 658 664 650
f 650 664 663
f 663 665 666
f 663 664 665
f 664 658 659
f 659 660 664
f 664 660 665
f 660 657 661
f 660 661 667
f 655 668 669
f 670 635 454
f 670 454 464
f 465 670 464
f 651 635 670
f 670 671 651
f 465 671 670
f 465 466 672
f 651 671 673
f 651 673 652
f 672 671 465
f 672 674 671
f 674 673 671
f 672 466 675
f 654 652 673
f 654 673 674
f 672 676 674
f 676 654 674
f 675 676 672
f 677 654 676
f 655 654 668
f 668 654 677
f 678 668 677
f 668 678 669
f 473 466 463
f 679 473 475
f 680 675 466
f 680 466 473
f 679 680 473
f 675 680 681
f 682 681 680
f 675 683 676
f 683 677 676
f 681 684 675
f 684 683 675
f 684 681 685
f 682 685 681
f 686 677 683
f 687 686 683
f 687 683 684
f 685 687 684
f 685 682 688
f 677 689 678
f 677 686 689
f 690 689 686
f 687 690 686
f 690 687 691
f 691 687 685
f 691 685 688
f 474 484 475
f 475 692 679
f 484 692 475
f 680 679 682
f 692 682 679
f 692 484 693
f 693 484 486
f 693 486 694
f 682 692 695
f 693 695 692
f 682 695 696
f 695 693 697
f 693 694 697
f 682 696 688
f 698 696 695
f 697 698 695
f 699 688 696
f 699 696 698
f 700 698 697
f 701 694 702
f 697 694 701
f 703 701 702
f 700 697 701
f 701 703 704
f 705 704 703
f 706 495 512
f 706 512 707
f 706 707 708
f 706 708 709
f 709 708 710
f 511 711 712
f 510 711 511
f 711 510 506
f 711 506 713
f 713 712 711
f 712 512 511
f 707 512 712
f 707 712 713
f 167 714 363
f 714 506 363
f 506 714 715
f 713 716 707
f 716 713 715
f 713 506 715
f 707 717 708
f 715 714 718
f 718 716 715
f 716 717 707
f 716 719 717
f 719 716 718
f 486 485 513
f 513 515 720
f 720 515 517
f 513 720 486
f 721 517 518
f 486 720 694
f 694 720 722
f 720 517 722
f 721 722 517
f 694 722 702
f 723 702 722
f 723 722 721
f 702 723 724
f 703 702 724
f 703 724 725
f 725 705 703
f 721 518 726
f 518 524 726
f 726 524 525
f 723 721 727
f 721 726 727
f 727 724 723
f 724 727 728
f 727 726 728
f 728 726 729
f 726 525 729
f 729 525 730
f 731 728 729
f 731 729 732
f 729 730 732
f 725 724 731
f 724 728 731
f 733 732 730
f 725 731 734
f 731 732 735
f 735 732 733
f 526 531 535
f 525 526 535
f 525 535 730
f 730 535 736
f 730 736 737
f 736 738 737
f 739 733 730
f 739 730 737
f 740 739 737
f 535 536 741
f 536 538 741
f 741 538 742
f 742 538 539
f 736 535 741
f 743 741 742
f 742 539 744
f 736 741 743
f 736 743 738
f 738 743 745
f 745 743 742
f 745 742 744
f 737 738 746
f 746 738 745
f 746 740 737
f 744 747 745
f 539 543 748
f 748 543 544
f 748 544 749
f 544 495 749
f 539 748 744
f 748 750 747
f 748 749 750
f 747 744 748
f 750 749 709
f 751 747 750
f 544 494 495
f 495 706 749
f 706 709 749
f 709 710 750
f 752 571 573
f 579 571 752
f 580 579 752
f 591 583 580
f 589 753 590
f 591 753 589
f 590 753 596
f 595 596 597
f 753 754 596
f 591 754 753
f 754 591 755
f 756 599 597
f 596 757 597
f 596 754 757
f 756 597 757
f 756 601 599
f 756 757 601
f 757 614 601
f 758 759 757
f 757 759 614
f 613 561 610
f 610 760 613
f 613 760 761
f 610 611 760
f 760 611 762
f 763 573 764
f 764 572 612
f 573 572 764
f 612 560 613
f 612 613 765
f 612 765 764
f 764 765 766
f 763 764 766
f 765 613 761
f 765 761 767
f 765 767 766
f 767 761 768
f 761 760 762
f 767 769 766
f 767 768 770
f 573 763 752
f 763 771 752
f 752 771 580
f 769 763 766
f 771 763 769
f 771 769 772
f 773 771 772
f 772 769 774
f 773 772 775
f 769 767 774
f 767 770 774
f 772 774 776
f 772 776 775
f 777 580 771
f 777 771 773
f 778 777 773
f 755 591 779
f 591 580 779
f 757 754 758
f 780 614 759
f 758 781 759
f 781 780 759
f 782 611 609
f 611 782 762
f 619 620 783
f 783 620 784
f 609 619 785
f 609 785 782
f 783 785 619
f 785 783 786
f 783 784 786
f 762 782 787
f 782 788 787
f 787 788 789
f 785 788 782
f 785 786 788
f 761 762 768
f 762 787 768
f 770 768 790
f 790 787 789
f 790 768 787
f 789 788 791
f 792 770 790
f 790 789 793
f 789 794 793
f 794 789 791
f 790 793 795
f 793 796 795
f 774 770 776
f 770 792 776
f 790 795 792
f 776 792 797
f 792 795 797
f 798 797 796
f 797 795 796
f 799 775 776
f 776 797 800
f 773 775 778
f 775 799 778
f 800 799 776
f 801 778 799
f 799 800 802
f 580 777 778
f 580 778 803
f 778 801 803
f 615 167 147
f 629 620 616
f 620 629 784
f 784 629 804
f 629 628 804
f 628 805 804
f 627 805 628
f 786 784 806
f 784 804 806
f 806 804 807
f 804 805 807
f 786 806 808
f 806 807 809
f 810 811 807
f 807 811 809
f 788 786 808
f 788 808 791
f 791 808 812
f 806 813 808
f 808 813 812
f 812 813 814
f 809 813 806
f 813 809 814
f 814 809 815
f 812 814 816
f 791 812 817
f 794 791 817
f 794 817 818
f 793 794 818
f 812 816 817
f 817 816 818
f 819 816 820
f 816 819 818
f 816 814 820
f 820 814 821
f 793 822 796
f 793 818 822
f 822 818 823
f 818 819 823
f 823 819 824
f 819 820 824
f 820 821 824
f 824 821 825
f 796 822 826
f 822 823 826
f 827 823 824
f 823 827 826
f 825 827 824
f 825 828 827
f 798 796 826
f 797 798 800
f 798 826 829
f 798 829 830
f 827 829 826
f 830 829 831
f 827 828 829
f 829 828 831
f 832 167 615
f 805 627 662
f 662 663 666
f 665 660 667
f 661 655 669
f 810 807 805
f 662 810 805
f 810 662 666
f 833 810 666
f 810 833 811
f 833 666 665
f 665 667 833
f 833 667 834
f 661 835 667
f 667 835 834
f 834 836 837
f 834 835 836
f 835 661 669
f 669 838 835
f 835 838 836
f 833 839 811
f 811 839 815
f 839 840 815
f 839 833 834
f 834 837 839
f 839 837 840
f 811 815 809
f 838 841 842
f 836 838 842
f 837 836 842
f 837 842 843
f 840 837 843
f 843 842 844
f 844 845 846
f 814 815 821
f 821 815 847
f 847 815 840
f 840 843 847
f 843 844 848
f 848 846 849
f 848 844 846
f 825 821 847
f 847 850 825
f 847 843 850
f 843 848 850
f 850 848 849
f 851 828 825
f 850 851 825
f 850 849 851
f 849 846 852
f 846 853 854
f 846 854 852
f 852 854 855
f 852 856 857
f 856 852 855
f 856 858 859
f 856 855 858
f 858 860 859
f 831 828 851
f 851 861 831
f 831 861 862
f 861 851 849
f 849 857 861
f 857 849 852
f 863 857 859
f 857 856 859
f 859 864 863
f 859 860 864
f 864 865 863
f 866 867 167
f 838 669 678
f 841 838 678
f 689 841 678
f 690 691 868
f 841 869 870
f 869 841 689
f 869 868 845
f 869 689 690
f 868 869 690
f 868 871 872
f 871 868 691
f 688 871 691
f 870 842 841
f 869 845 870
f 845 872 853
f 872 845 868
f 844 842 870
f 845 844 870
f 853 846 845
f 873 699 698
f 873 698 700
f 874 871 688
f 699 874 688
f 875 874 699
f 873 875 699
f 876 875 873
f 876 873 700
f 872 877 878
f 877 872 871
f 874 877 871
f 877 874 879
f 879 874 875
f 880 879 875
f 876 880 875
f 853 878 854
f 872 878 853
f 878 877 881
f 881 882 883
f 877 882 881
f 882 879 884
f 882 877 879
f 884 879 880
f 854 878 881
f 854 881 855
f 881 883 855
f 883 882 885
f 882 884 886
f 882 886 885
f 858 855 883
f 858 885 860
f 883 885 858
f 885 887 860
f 887 885 886
f 701 888 700
f 889 876 888
f 888 876 700
f 888 701 704
f 890 891 705
f 705 891 704
f 880 876 889
f 891 888 704
f 892 893 894
f 884 880 889
f 893 884 889
f 888 893 889
f 894 893 888
f 894 888 891
f 895 891 890
f 886 892 896
f 893 886 884
f 892 886 893
f 892 894 897
f 891 897 894
f 895 897 891
f 886 896 887
f 896 892 897
f 898 896 897
f 895 898 897
f 860 887 864
f 887 899 864
f 887 896 899
f 896 898 899
f 899 898 900
f 864 899 865
f 899 900 865
f 705 725 901
f 902 901 734
f 890 901 903
f 903 901 902
f 901 890 705
f 904 895 890
f 904 890 903
f 905 904 903
f 902 905 903
f 906 905 902
f 907 906 902
f 904 908 895
f 905 908 904
f 909 905 906
f 908 898 895
f 908 905 909
f 900 898 908
f 900 908 910
f 908 911 910
f 906 907 912
f 746 913 914
f 913 915 914
f 907 740 912
f 740 746 912
f 912 746 914
f 916 906 912
f 914 916 912
f 906 917 909
f 917 906 916
f 914 918 916
f 911 908 909
f 919 911 909
f 917 919 909
f 920 919 917
f 916 920 917
f 921 920 916
f 750 710 922
f 923 922 924
f 914 915 918
f 918 915 923
f 923 924 925
f 926 923 925
f 916 918 927
f 927 926 928
f 918 926 927
f 926 929 928
f 929 926 925
f 923 926 918
f 921 927 928
f 929 925 930
f 927 921 916
f 931 708 932
f 708 931 710
f 932 933 931
f 922 710 924
f 710 931 924
f 931 933 934
f 924 934 935
f 931 934 924
f 934 933 936
f 937 936 933
f 935 925 924
f 938 935 939
f 936 939 935
f 936 940 939
f 935 938 925
f 935 934 936
f 938 930 925
f 940 936 937
f 941 714 167
f 714 942 718
f 718 942 719
f 943 714 941
f 943 942 714
f 708 717 932
f 932 717 944
f 944 717 719
f 942 944 719
f 945 943 941
f 945 942 943
f 946 945 941
f 944 947 932
f 944 946 947
f 946 944 942
f 946 942 945
f 867 941 167
f 948 946 949
f 949 946 941
f 933 947 937
f 950 947 946
f 932 947 933
f 867 949 941
f 867 948 949
f 950 946 948
f 950 948 951
f 951 948 867
f 951 867 952
f 937 950 953
f 947 950 937
f 951 952 866
f 866 952 867
f 951 954 950
f 953 940 937
f 953 950 954
f 734 901 725
f 734 731 735
f 735 733 907
f 735 902 734
f 907 902 735
f 733 739 740
f 740 907 733
f 745 747 913
f 747 751 913
f 746 745 913
f 751 750 922
f 915 913 751
f 923 915 751
f 923 751 922
f 779 580 955
f 956 779 955
f 956 955 957
f 956 755 779
f 781 754 755
f 758 754 781
f 615 614 780
f 781 958 780
f 959 781 755
f 958 781 959
f 755 956 959
f 959 956 958
f 780 958 960
f 780 960 615
f 961 958 956
f 960 958 961
f 799 802 801
f 957 955 803
f 955 580 803
f 803 801 962
f 803 962 963
f 957 803 964
f 957 964 965
f 966 965 964
f 803 963 964
f 964 963 967
f 966 964 967
f 968 966 967
f 967 969 968
f 832 615 970
f 960 971 615
f 956 972 961
f 960 961 971
f 971 961 972
f 956 957 972
f 971 973 615
f 973 970 615
f 973 974 970
f 974 975 970
f 975 832 970
f 972 957 965
f 976 972 965
f 971 972 976
f 965 966 976
f 971 976 977
f 971 977 973
f 976 966 978
f 976 978 977
f 977 978 979
f 977 979 973
f 979 974 973
f 966 968 978
f 968 980 978
f 978 980 979
f 979 980 981
f 975 974 979
f 975 979 981
f 798 830 982
f 830 831 983
f 830 983 984
f 800 798 982
f 800 982 802
f 985 802 982
f 982 830 984
f 985 982 984
f 985 984 986
f 801 802 985
f 985 986 987
f 801 985 987
f 962 801 988
f 988 989 962
f 990 989 988
f 801 987 988
f 988 987 990
f 987 991 992
f 987 992 990
f 990 992 993
f 962 989 963
f 963 989 994
f 963 994 967
f 994 995 967
f 989 990 996
f 989 996 994
f 994 996 995
f 996 990 993
f 996 993 995
f 995 993 997
f 993 998 997
f 997 999 995
f 1000 967 995
f 967 1000 969
f 969 1000 1001
f 969 1001 1002
f 1001 1000 1003
f 995 999 1000
f 1004 832 1005
f 1006 1004 1005
f 1007 832 975
f 1007 1005 832
f 1007 1008 1005
f 1009 1010 1011
f 1011 1012 1008
f 1010 1012 1011
f 1008 1012 1006
f 1008 1006 1005
f 980 1013 981
f 981 1013 975
f 968 969 980
f 969 1002 980
f 980 1002 1013
f 1013 1002 1014
f 1007 1013 1014
f 1013 1007 975
f 1002 1001 1014
f 1014 1008 1007
f 1014 1001 1011
f 1014 1011 1008
f 1003 1009 1001
f 1011 1001 1009
f 983 831 862
f 862 861 857
f 857 863 862
f 862 863 1015
f 1015 863 1016
f 1016 863 865
f 865 1017 1016
f 983 1018 984
f 1015 1018 983
f 862 1015 983
f 984 1018 986
f 986 1018 1019
f 1018 1015 1016
f 1018 1016 1019
f 1016 1017 1020
f 1019 1016 1020
f 1017 900 1021
f 986 1022 987
f 986 1019 1022
f 1019 1020 1022
f 1022 1020 1023
f 1023 1020 1021
f 1020 1017 1021
f 1022 991 987
f 991 1022 1023
f 1021 1024 1023
f 1021 1025 1024
f 991 1023 1026
f 1026 1023 1024
f 1024 1027 1028
f 1029 1028 1027
f 1026 1028 1030
f 1030 1028 1029
f 1030 1029 1031
f 1028 1026 1024
f 991 1032 992
f 992 1032 998
f 991 1030 1032
f 1032 1030 1033
f 1032 1033 998
f 991 1026 1030
f 1033 1030 1031
f 1031 1034 1035
f 1029 1034 1031
f 1031 1035 1036
f 1035 1037 1036
f 1037 1035 1038
f 1037 1038 1039
f 998 1033 1036
f 1033 1031 1036
f 1036 1037 1040
f 1040 1037 1041
f 1041 1037 1039
f 993 992 998
f 997 998 1042
f 997 1042 999
f 998 1036 1042
f 1042 1036 1040
f 1043 1044 1045
f 1046 1041 1039
f 1043 1041 1046
f 1047 1043 1046
f 1044 1043 1047
f 1048 1044 1047
f 1045 1049 1043
f 1000 999 1003
f 999 1042 1050
f 999 1050 1003
f 1003 1050 1051
f 1003 1051 1009
f 1042 1040 1050
f 1050 1040 1051
f 1051 1040 1049
f 1049 1040 1041
f 1043 1049 1041
f 1052 1053 1054
f 1055 1056 866
f 1057 167 832
f 1055 866 1057
f 1057 866 167
f 1048 1052 1044
f 1052 1054 1044
f 1058 1044 1054
f 1056 1058 1054
f 1058 1056 1055
f 1004 1057 832
f 1045 1044 1055
f 1044 1058 1055
f 1004 1006 1059
f 1057 1059 1060
f 1004 1059 1057
f 1060 1045 1055
f 1060 1055 1057
f 1006 1012 1059
f 1009 1051 1010
f 1010 1060 1012
f 1059 1012 1060
f 1051 1049 1010
f 1010 1049 1045
f 1045 1060 1010
f 1017 865 900
f 1021 900 910
f 910 1025 1021
f 911 1025 910
f 1025 911 1027
f 1024 1025 1027
f 919 920 1061
f 911 919 1062
f 919 1061 1062
f 1062 1061 1063
f 1061 1064 1063
f 1064 1061 920
f 1029 1062 1063
f 1029 911 1062
f 1029 1027 911
f 1034 1029 1063
f 920 921 1064
f 1065 929 1066
f 928 929 1065
f 929 930 1066
f 1063 1064 1067
f 1064 1068 1067
f 1068 1064 921
f 928 1068 921
f 1065 1068 928
f 1063 1067 1034
f 1067 1068 1038
f 1068 1069 1038
f 1069 1068 1065
f 1066 1069 1065
f 1034 1067 1035
f 1067 1038 1035
f 1039 1038 1069
f 1070 940 1071
f 939 940 1070
f 1071 940 1052
f 1066 930 1072
f 930 938 1072
f 939 1070 938
f 1066 1072 1073
f 1070 1074 1072
f 1070 1071 1074
f 1072 938 1070
f 1052 1048 1071
f 1073 1069 1066
f 1072 1074 1073
f 1071 1048 1074
f 1046 1073 1075
f 1048 1047 1075
f 1075 1047 1046
f 1073 1039 1069
f 1075 1073 1074
f 1075 1074 1048
f 1039 1073 1046
f 1076 951 866
f 1053 954 1076
f 953 954 1053
f 1076 954 951
f 953 1052 940
f 953 1053 1052
f 1053 1076 1054
f 1056 1076 866
f 1076 1056 1054
