# Aortic Arch (FMA3768)
# BodyParts3D, (c) The Database Center for Life Science licensed under CC Attribution-Share Alike 2.1 Japan
# Licence: https://creativecommons.org/licenses/by-sa/2.1/jp/
# Modified from the original: see README.md in this repository.
# Units: millimetres. +X = patient left, +Y = posterior, +Z = superior.
# Origin: centroid of the heart wall.
o Aortic_Arch
v 14.4391 55.1372 70.8855
v 14.5219 56.2150 72.0454
v 15.0953 52.1039 76.3855
v 15.1216 52.6044 78.0854
v 15.0115 51.0066 75.7854
v 14.6490 49.9434 74.6255
v 13.7897 55.2887 67.5254
v 15.0933 52.5667 79.2054
v 15.2620 51.4366 79.1654
v 15.2579 50.3547 78.0055
v 14.3096 56.0108 78.2054
v 14.4490 54.8235 79.8454
v 14.9082 53.7173 78.6854
v 14.8933 53.0987 80.3454
v 15.2337 51.3989 80.2854
v 15.1391 50.7649 82.5055
v 15.4502 48.5061 82.4254
v 14.4125 53.6258 82.0454
v 15.4754 47.9833 81.2854
v 15.3448 46.3278 80.6654
v 15.0440 49.2838 76.8454
v 14.7891 42.4129 81.0954
v 15.5125 45.6801 82.8855
v 15.1037 45.2387 80.0654
v 15.2364 48.4390 84.6654
v 15.4503 46.1656 85.1454
v 15.1310 47.2645 86.3054
v 15.3768 44.4288 86.7654
v 14.6671 51.2916 84.2054
v 14.9835 44.9514 88.4654
v 14.7253 48.3875 86.9054
v 14.4800 47.2203 88.5454
v 14.4950 45.4984 89.6055
v 15.3295 44.0273 82.2654
v 15.0673 41.1987 83.2954
v 14.1206 43.4568 78.3254
v 14.3742 39.0121 82.6554
v 15.5089 43.9396 84.5055
v 15.4982 43.9010 85.6255
v 15.4560 42.7624 86.1454
v 15.3989 42.8437 83.9054
v 15.4581 42.8014 85.0254
v 15.2812 43.2734 87.8454
v 15.3157 41.5897 87.7854
v 15.3645 41.6850 84.9955
v 15.3028 40.5083 86.6355
v 15.0241 41.5463 89.4654
v 14.7882 38.7163 90.4955
v 14.9938 43.8100 88.9855
v 14.5999 42.6506 90.6255
v 14.6216 40.3873 91.1055
v 14.3032 44.3481 90.6854
v 13.8626 42.6305 92.3054
v 13.9882 40.9306 92.5754
v 13.5175 38.5551 80.9554
v 14.3566 37.2559 84.2754
v 13.6456 35.6473 83.6554
v 14.9033 38.9060 84.8954
v 15.0165 38.2220 88.2355
v 14.8853 37.7270 86.5354
v 14.7157 36.4971 89.8555
v 14.3331 37.5601 92.1355
v 14.4123 35.8936 91.5154
v 14.6884 35.9771 88.7154
v 14.1110 38.6735 92.7355
v 13.6020 38.6610 93.8555
v 13.9377 37.5417 93.2555
v 13.8977 32.0940 88.5754
v 14.3974 34.2712 89.7754
v 14.1399 34.2064 92.0154
v 13.9342 35.2993 93.1754
v 13.8566 31.4768 90.2355
v 13.8478 31.9792 91.9354
v 13.4981 35.8437 94.3154
v 13.8668 34.1816 93.1355
v 13.4802 34.1627 94.2555
v 13.3280 31.9281 94.1754
v 13.6360 31.9511 93.0554
v 13.4812 30.8380 93.0154
v 13.5819 31.5891 87.4354
v 13.5378 30.4114 89.0754
v 13.7028 30.8851 91.3354
v 13.3460 29.2610 90.1554
v 13.2632 29.1871 92.3954
v 11.7934 63.2758 66.8454
v 11.3158 64.8655 67.2954
v 11.8406 64.1762 67.2754
v 11.3166 64.8817 67.8555
v 11.7061 64.3681 67.8354
v 11.5641 64.3364 68.9554
v 10.7684 65.1250 69.5454
v 11.7241 63.7086 70.6155
v 10.7433 64.6471 71.2054
v 10.7879 65.4968 67.8755
v 10.2315 65.4884 70.1155
v 13.3543 60.9468 67.1654
v 13.3999 60.8959 68.2754
v 13.6744 59.7799 67.6854
v 12.7108 62.6335 67.7754
v 13.3695 60.8192 70.5154
v 13.5706 59.8049 67.1255
v 13.7752 59.6963 69.9254
v 13.2665 59.2704 66.8054
v 12.6291 62.5791 69.4554
v 12.8615 62.2481 67.2054
v 12.7950 60.9789 66.8154
v 12.3563 63.3114 67.2455
v 12.3565 63.3153 67.8054
v 12.3235 62.6858 66.8655
v 11.9806 63.7539 68.9354
v 6.7877 64.0975 66.8954
v 13.5033 60.1928 72.1754
v 12.8615 61.3282 72.7754
v 13.3876 60.1597 73.2954
v 13.9439 59.0681 71.5854
v 13.9069 59.0308 72.7054
v 13.4725 58.9361 76.0554
v 12.3679 61.2757 75.0154
v 12.1159 62.4885 72.8154
v 11.1886 62.4396 75.6055
v 11.2658 63.9115 71.7455
v 11.2362 63.3471 73.4054
v 10.7465 64.2618 72.3154
v 10.6907 63.6434 74.0254
v 12.2518 60.0627 77.7754
v 11.0819 60.4025 79.4654
v 13.8056 56.4287 67.0055
v 13.7942 58.6368 67.0854
v 14.0884 57.4765 68.7254
v 14.0401 58.5611 69.8855
v 14.2929 57.4475 70.9654
v 13.6143 55.2033 66.9654
v 13.5890 59.2433 67.1055
v 13.0612 55.3537 66.7555
v 14.2427 57.9115 72.1055
v 14.4870 56.7187 73.7455
v 13.9919 55.9687 79.8855
v 13.2416 57.7095 79.3755
v 12.1315 58.2696 81.0754
v 13.0082 57.1024 81.0354
v 13.5856 54.6553 83.1954
v 12.6344 55.3226 84.3354
v 11.5281 58.2139 82.1954
v 9.9885 60.9483 80.0454
v 9.9153 59.5511 82.2455
v 10.3970 58.0392 83.8755
v 11.4053 55.8690 85.4754
v 9.7685 56.7499 86.0654
v 11.3344 54.5176 87.1155
v 13.5903 54.7454 67.3054
v 13.4046 53.6270 67.4654
v 13.3046 54.7731 66.9454
v 12.9365 52.9736 66.8855
v 13.5975 50.1160 71.2654
v 12.4570 51.4341 67.3855
v 11.3128 50.3924 66.7854
v 13.5379 52.9935 85.3855
v 13.9354 50.6262 86.9855
v 12.1830 53.5664 87.0854
v 13.0073 52.4020 87.0454
v 13.0253 51.2406 88.1255
v 13.6398 50.0871 88.0854
v 12.3391 52.2801 88.1554
v 11.8129 52.9425 88.1754
v 9.6420 54.3373 88.7854
v 13.3025 49.5050 89.1854
v 12.2453 51.2423 89.2455
v 11.7848 52.4068 88.7355
v 10.6632 52.4136 89.8454
v 11.2678 52.9950 88.7455
v 11.1336 50.6859 90.9054
v 9.5233 52.0722 90.9454
v 9.9261 49.0530 93.0854
v 12.7892 46.7358 72.8254
v 11.2904 45.7323 71.6754
v 11.0892 49.8378 66.9354
v 10.5007 49.3130 66.7654
v 9.1704 45.3380 70.0754
v 9.9707 49.9044 66.7054
v 9.9346 49.2148 66.7455
v 9.9117 48.7782 66.8954
v 9.3038 47.8840 67.2555
v 11.7809 41.6286 75.9254
v 14.1319 48.9400 88.0454
v 13.9972 47.2064 89.6654
v 13.4985 46.0526 91.3054
v 13.1154 47.7741 90.8054
v 12.5487 49.5053 90.3054
v 11.5924 48.7366 91.9554
v 12.0756 47.2510 92.4654
v 10.9525 47.2303 93.5454
v 12.3519 44.9131 93.5055
v 9.8623 47.8350 93.9454
v 10.2725 44.9580 95.3354
v 9.1823 45.5650 95.6654
v 9.5393 41.6734 73.7654
v 10.5318 39.2033 76.4855
v 13.2228 42.6320 77.1754
v 13.4085 44.3362 92.3655
v 13.4591 41.5380 93.3954
v 13.1875 42.6267 93.4254
v 12.7160 41.4910 94.5055
v 12.3288 42.6326 94.5454
v 11.3630 44.3591 94.7754
v 11.7323 41.5034 95.6255
v 10.7430 43.2327 95.8154
v 10.5649 39.8343 97.2455
v 9.5036 40.9909 97.5754
v 9.0927 43.8542 96.5654
v 8.4753 42.7791 97.3454
v 12.1887 38.7049 78.6654
v 9.6415 32.9189 79.6255
v 8.8380 38.9959 75.3555
v 11.9781 35.2719 80.8354
v 13.1088 39.7885 94.4454
v 13.4200 37.5297 94.3755
v 12.9192 35.8348 95.4354
v 12.6518 38.0914 95.5154
v 12.1118 38.6608 96.0954
v 11.7185 35.8390 97.1155
v 11.0356 38.1117 97.3555
v 9.8854 37.5728 98.4354
v 9.3978 38.9727 98.3354
v 10.5955 29.7143 82.3254
v 6.4693 25.9092 79.9354
v 10.9658 23.3166 87.1454
v 12.9711 34.1502 95.3755
v 12.8889 31.9120 95.2954
v 12.9419 30.2469 94.6754
v 11.5623 33.0245 97.5754
v 11.5937 30.7803 97.4955
v 10.3568 35.8631 98.4654
v 10.7990 33.5973 98.3855
v 9.6783 33.6213 99.3855
v 10.0851 31.9219 99.2154
v 10.6812 31.3491 98.6454
v 9.2068 35.3285 99.4254
v 9.5089 31.3718 99.7555
v 9.2660 36.4583 99.1355
v 8.5285 33.0897 100.2555
v 11.6908 24.9410 87.7654
v 11.3190 27.8811 84.5055
v 12.6930 27.6721 88.4254
v 12.8570 27.6243 89.5454
v 12.8375 28.5900 94.0554
v 12.4766 26.3859 93.4254
v 12.4385 29.6735 95.7754
v 11.2137 26.8757 97.3555
v 11.8955 26.3381 95.6554
v 10.6615 28.5474 98.5354
v 10.6224 30.2276 98.7054
v 10.1745 30.7959 99.1754
v 9.4721 29.6865 99.8454
v 9.5956 27.4428 99.6155
v 8.2341 27.4721 100.8254
v 10.2166 22.4838 85.9955
v 6.6169 14.0918 84.5754
v 12.7984 27.0080 91.2054
v 12.1202 25.4400 88.9054
v 12.3182 25.3709 90.5854
v 12.1187 24.7424 92.8054
v 11.6832 23.1224 91.6255
v 11.5952 23.7856 88.8454
v 11.3236 22.1998 90.4654
v 11.6930 24.1453 94.4654
v 11.4377 24.3765 95.5954
v 11.1968 25.2143 96.7455
v 11.7356 23.6216 93.3254
v 11.0816 23.0169 95.5454
v 11.2204 22.4878 94.4054
v 10.9371 24.1066 96.7054
v 10.4836 24.6519 97.8454
v 9.9108 25.7640 98.9955
v 9.9468 22.4378 97.7654
v 8.7065 25.7820 100.2854
v 9.4964 23.5432 98.9254
v 8.6108 23.9553 100.0554
v 8.6557 21.8858 99.4254
v 6.9087 23.5905 101.4454
v 10.3581 21.0868 87.6255
v 7.6474 14.5208 86.8354
v 10.8399 21.5828 88.7654
v 10.7577 20.3478 92.0854
v 10.4440 19.8818 89.8254
v 10.2538 19.9318 88.7054
v 6.8993 11.1178 88.9554
v 10.5829 21.3608 95.4855
v 10.3391 21.8958 96.6255
v 11.0590 21.4148 93.2455
v 10.6867 20.8338 94.3454
v 10.4816 19.7628 93.1854
v 9.9921 20.7928 96.5854
v 10.2183 20.2588 95.4454
v 10.3047 19.7328 94.3054
v 9.7720 18.0988 93.6854
v 9.6188 19.6908 96.5454
v 9.8188 19.1588 95.4054
v 8.6933 16.4148 95.3054
v 9.5905 21.2418 97.7254
v 9.4532 21.8828 98.3054
v 9.1236 20.7788 98.2654
v 9.2702 20.2308 97.6854
v 8.7591 19.6768 98.2254
v 8.6753 18.5798 97.6255
v 8.1570 20.2298 99.3655
v 7.9914 18.5758 98.7455
v 7.1148 11.5498 92.3354
v 9.7182 66.4935 67.3454
v 10.2495 65.9272 68.4454
v 9.7024 66.1929 66.8154
v 9.7124 66.3846 68.4654
v 9.7064 66.2690 69.0254
v 9.1490 66.3379 70.1454
v 9.1715 66.7668 67.2455
v 9.1765 66.8615 67.9154
v 8.6335 67.2053 67.9354
v 9.1662 66.6652 69.0354
v 8.5834 66.2493 66.8755
v 8.6128 66.8106 66.8354
v 8.6345 67.2248 67.3755
v 8.0788 67.3249 68.9754
v 8.0705 67.1673 69.6055
v 8.0878 67.4967 67.9354
v 7.4938 66.8677 66.8755
v 8.0404 66.5933 71.2754
v 7.5769 67.4269 66.8154
v 6.9905 67.9680 67.3954
v 6.9732 67.6365 69.6255
v 6.9537 67.2655 70.7355
v 5.8449 67.5156 66.8755
v 6.9862 67.8853 68.5154
v 5.8839 68.2604 67.9654
v 5.8750 68.0904 69.0754
v 5.8587 67.7805 70.1854
v 10.1984 64.9539 71.7754
v 9.6383 64.9704 72.8954
v 9.6602 64.2404 74.5554
v 8.5404 65.4289 73.4754
v 8.5012 64.6801 75.1255
v 7.4449 65.9330 73.4855
v 7.3743 64.5862 76.2455
v 6.3406 66.2712 73.4955
v 9.5465 63.2176 76.7654
v 10.0562 62.2407 77.8454
v 8.4412 63.5363 77.3354
v 8.9371 62.2952 78.9754
v 7.3079 63.3200 78.4454
v 6.2184 63.9398 77.9054
v 8.8520 60.6712 81.5254
v 8.1350 60.1022 82.8154
v 7.2154 61.5538 81.1854
v 8.2183 59.2834 83.9054
v 7.1150 59.6391 83.9154
v 5.0475 63.0051 79.5454
v 5.4868 60.6834 82.8354
v 5.9814 59.4161 84.4754
v 9.3195 58.8865 83.7054
v 8.8813 57.7227 85.5354
v 8.6545 56.9026 86.6255
v 8.5520 54.9463 88.8054
v 7.4864 56.0216 88.1155
v 7.0713 58.8051 85.0154
v 7.0018 57.4798 86.6454
v 5.8641 57.1782 87.1954
v 5.9137 58.1258 86.1055
v 5.7570 55.1345 89.3655
v 7.4107 54.2793 89.8954
v 4.6889 56.1617 88.3054
v 8.3354 50.8134 92.5854
v 8.4950 53.8589 89.8855
v 7.2695 51.8822 92.0554
v 6.0913 50.8090 93.1355
v 5.6861 53.7823 90.6454
v 8.2310 47.7507 66.6954
v 8.1440 47.1619 67.2355
v 6.9966 46.6753 67.1854
v 7.6156 47.7831 66.6854
v 7.5859 47.2160 66.8954
v 7.0562 47.8124 66.6854
v 7.0269 47.2539 66.6454
v 1.4029 46.9828 66.6554
v 5.8785 46.7489 66.7654
v 8.7724 48.4469 94.1255
v 8.7123 47.3009 94.8855
v 7.7149 49.6782 93.6654
v 8.0626 45.6078 96.1155
v 7.6528 48.4924 94.5055
v 7.5627 46.7742 95.6155
v 6.5636 49.1169 94.3254
v 6.5035 47.9700 95.1155
v 6.4459 46.8718 95.8054
v 6.9432 45.6561 96.4154
v 5.7960 45.1751 96.8655
v 4.8851 49.2030 94.3855
v 4.7650 46.9111 95.8954
v 4.8250 48.0561 95.1654
v 4.5729 43.2458 70.4554
v 7.3423 42.5681 71.7555
v 7.4132 43.9202 97.1954
v 7.2939 41.6435 98.2754
v 5.7343 43.9981 97.4855
v 6.7938 42.8057 97.8954
v 5.6448 42.2896 98.3154
v 6.0852 39.9888 99.2455
v 4.6453 44.6262 97.2054
v 8.2657 40.7667 73.7355
v 7.0307 38.5497 74.7754
v 6.6926 40.8753 72.9855
v 4.4256 40.4347 72.9354
v 4.2804 37.6637 74.7455
v 8.3242 39.8947 98.5854
v 8.7950 38.1738 98.9354
v 8.0864 35.9315 99.9154
v 7.1748 39.3717 99.2154
v 7.0631 37.2405 99.9554
v 6.9671 35.4080 100.5055
v 5.9960 38.2868 99.8954
v 5.9069 36.5872 100.4754
v 4.9363 39.4752 99.6055
v 4.8174 37.2068 100.4454
v 4.5557 42.9162 98.0854
v 4.4364 40.6405 99.1355
v 4.7581 36.0740 100.8254
v 8.0696 35.0380 77.3354
v 5.7717 34.0071 76.8555
v 6.7434 31.1396 78.4354
v 5.0960 31.8181 77.5554
v 8.0572 34.8006 100.1954
v 6.3185 33.7365 101.1255
v 7.3200 31.4381 101.1454
v 5.2583 34.9158 101.0954
v 5.6405 31.5041 101.7754
v 4.0207 32.7093 101.8354
v 3.5798 34.9988 101.2355
v 4.4621 30.4268 102.2355
v 4.4479 30.1558 77.9054
v 4.0072 32.4517 77.1155
v 8.3516 29.7149 100.7154
v 6.6127 28.6469 101.7654
v 5.5225 29.2524 102.1355
v 5.4342 27.5666 102.3154
v 4.4031 29.3007 102.4254
v 3.2249 28.2274 102.7854
v 4.9749 18.8028 80.7254
v 4.2410 26.2085 78.7355
v 7.0258 25.8254 101.5654
v 5.8472 24.7433 102.1754
v 5.2286 23.6449 102.4054
v 5.7301 22.5088 102.0554
v 4.7274 24.7848 102.6654
v 4.6101 22.5478 102.6155
v 3.0482 24.8566 103.1255
v 3.5492 23.7109 103.0354
v 7.1166 18.6098 83.0454
v 3.9098 19.8888 79.7254
v 7.8531 20.7868 99.9454
v 7.2239 18.8998 99.8755
v 6.9582 19.6928 100.4654
v 6.7827 21.1858 101.0754
v 6.1735 20.2648 101.3254
v 6.0572 18.0478 100.7154
v 5.0848 20.9008 102.1854
v 2.8135 20.3788 103.1255
v 5.2281 13.6828 82.3154
v 6.1152 12.5468 97.4154
v 6.6530 15.2828 98.6255
v 5.7980 9.8388 95.0754
v 6.0509 15.8358 99.7654
v 4.5588 11.4488 99.0554
v 3.5741 12.5628 100.7654
v 4.9367 18.0738 101.6454
v 4.8494 16.4098 101.2054
v 2.6479 15.9158 102.5654
v 3.5052 12.1678 80.0454
v 3.7179 10.4568 80.5154
v 2.7420 10.5668 78.8354
v 5.1510 9.7038 83.8555
v 6.8202 11.1968 93.4454
v 3.8898 3.3678 90.3555
v 5.2642 7.6828 93.3154
v 5.0933 10.3578 97.3254
v 4.1047 9.8098 98.4354
v 3.8167 6.4878 81.4955
v 2.8546 7.1968 78.7154
v 1.8647 9.5498 77.1155
v 4.2996 4.6628 84.8054
v 4.5469 4.5328 88.1554
v 4.6560 7.1148 94.4154
v 4.5367 8.1838 96.1355
v 3.9227 8.1768 97.2555
v 3.9361 7.0938 96.0954
v 3.0682 3.8308 93.7355
v 2.5352 4.3628 95.4354
v 1.8340 3.4428 75.2254
v 2.8480 1.5518 79.6454
v 2.7468 -0.3792 86.8655
v 3.3253 2.7968 91.4654
v 5.8738 68.0676 67.0954
v 5.8840 68.2625 67.4054
v 4.7552 68.1317 66.9454
v 4.7729 68.4696 67.4054
v 4.7546 68.1207 69.6355
v 4.7667 68.3520 68.5254
v 1.9288 67.7215 66.8555
v 4.7352 67.7497 70.7455
v 3.6413 68.2863 69.0854
v 4.1864 67.9820 70.1954
v 3.6517 68.4846 67.4054
v 3.6507 68.4651 67.9654
v 2.5072 68.0546 69.6355
v 3.6029 67.5530 71.2954
v 3.0767 68.2163 67.0354
v 1.9210 67.5731 70.7355
v 2.5241 68.3773 67.3954
v 2.5240 68.3752 67.9654
v 1.3920 68.1825 67.3954
v 1.3863 68.0736 68.5055
v 1.3728 67.8162 69.6255
v 5.8245 67.1279 71.8454
v 4.6705 66.5164 73.5055
v 4.7107 67.2826 71.8454
v 3.5761 67.0422 72.3954
v 3.5176 65.9245 74.6055
v 4.6226 65.6017 75.2854
v 2.4615 67.1815 71.8454
v 2.4329 66.6357 72.9454
v 2.3702 65.4394 75.1454
v 1.3104 66.6266 72.3855
v 1.2468 65.4128 74.5854
v 5.7120 64.9799 76.2555
v 4.5601 64.4095 77.3655
v 3.4728 65.0710 76.1255
v 3.4417 64.4768 77.1155
v 2.3361 64.7889 76.2455
v 3.3973 63.6300 78.4454
v 2.2997 64.0946 77.3354
v 2.2214 62.6013 79.5254
v 4.4264 61.8576 81.1854
v 4.8616 59.4573 84.4654
v 4.3638 60.6634 82.8254
v 3.1893 59.6609 83.9154
v 3.2970 61.7153 81.1854
v 2.1372 60.9944 81.7154
v 4.7930 58.1495 86.1055
v 3.6388 57.5334 86.6454
v 3.7110 58.9111 85.0055
v 3.5593 56.0159 88.2754
v 2.4473 56.2076 87.7154
v 2.0259 58.8701 84.4454
v 2.5260 57.7076 86.0854
v 0.8982 58.7598 83.8954
v 1.3787 57.2247 86.0654
v 1.2982 55.6897 87.6954
v 2.3913 55.1377 88.7954
v 4.6344 55.1233 89.3655
v -3.4557 50.6111 66.6155
v 0.6847 54.6863 88.3354
v 4.5977 54.4220 90.0354
v 3.9778 53.2986 90.9855
v 5.0359 52.0800 92.1454
v 3.9173 52.1441 91.9855
v 3.8062 50.0239 93.6654
v 3.4728 54.3655 89.8954
v 2.2016 51.5183 92.0354
v 2.8595 53.3688 90.6554
v 1.7719 54.0235 89.6155
v 1.7113 52.8678 90.6454
v 0.5011 51.1838 91.4654
v 1.5302 49.4113 93.4554
v 3.7285 48.5406 94.7355
v 3.6764 47.5468 95.3954
v 3.0572 46.4360 95.9855
v 2.5580 47.6155 95.1155
v 1.3200 45.4008 96.0954
v 0.2622 46.6241 94.8054
v 3.6109 46.2979 67.0055
v 1.3983 46.4073 67.1954
v 2.3695 44.0184 69.8454
v 0.7583 45.3878 68.8354
v 0.2706 46.7861 67.2054
v 2.2507 41.7519 72.0754
v 0.6604 43.5189 71.0154
v 2.4070 44.7334 96.8454
v 0.1423 44.3370 96.1754
v 1.2519 44.1011 96.8254
v 0.5517 41.4457 97.9855
v 3.4370 42.9785 97.9855
v 3.3773 41.8396 98.5354
v 2.2887 42.4756 98.0354
v 2.2290 41.3367 98.5854
v 2.1575 39.9731 73.4855
v 0.4482 39.4690 74.4054
v 0.0390 42.3652 72.4554
v 2.5673 37.0878 75.1155
v 3.7579 38.3986 100.0554
v 3.6985 37.2642 100.4754
v 3.3176 40.7015 99.0654
v 3.8174 39.5339 99.6055
v 2.6690 39.0291 99.7054
v 2.6095 37.8936 100.1654
v 2.4610 35.0596 101.1754
v 1.5804 39.6649 99.2154
v 1.4863 37.8692 99.9654
v 0.4026 38.6004 99.3154
v 4.1561 35.2914 75.9454
v 2.3885 33.6759 76.6454
v 0.7691 34.8881 76.5055
v 0.6800 33.1879 77.1055
v -1.4408 35.5374 77.3054
v 0.1944 34.6275 100.8755
v 2.9018 32.7667 101.8755
v 3.3725 31.0442 102.2654
v 1.2238 32.8605 101.7054
v 1.7238 31.6980 102.0954
v 0.0461 31.7970 101.7854
v 2.8330 31.4536 77.3254
v 1.5037 27.4986 78.0454
v 0.5321 30.3665 77.7555
v -1.1177 30.9995 78.1754
v 3.3134 29.9169 102.4955
v 2.1945 29.9740 102.5354
v 2.0469 27.1578 103.0354
v 1.1053 30.6000 102.3154
v 0.4277 28.3752 102.7455
v -0.6020 30.1355 102.1055
v 1.9453 25.2201 78.3354
v 1.8653 21.2838 78.6454
v -1.4996 23.7126 78.4554
v 3.6961 26.5150 102.8954
v 1.2519 22.6928 103.4855
v -0.2497 26.1538 103.0854
v -0.4560 22.2178 103.5954
v -0.7203 27.8775 102.6454
v 2.5899 16.1108 79.0354
v 1.6515 19.6128 78.5954
v 0.0617 21.3918 78.2754
v 1.7527 21.5458 103.4454
v 0.5161 19.3568 103.6654
v 0.6336 21.5988 103.6055
v -0.1314 17.7068 103.6854
v 0.9879 17.6548 103.4855
v -0.5148 21.0948 103.6754
v -1.1917 18.8828 103.7555
v 0.2714 14.6868 77.0654
v -0.7306 16.9768 77.2954
v 0.9464 16.8638 78.0055
v -0.0842 18.6058 77.8954
v -1.7039 19.8138 77.8755
v 2.0782 17.0518 103.0554
v 0.9001 15.9808 103.3254
v -0.1900 16.5888 103.6355
v -0.3069 14.3578 103.4054
v -1.3090 16.6448 103.7154
v -1.3676 15.5268 103.6654
v 1.8309 12.3328 77.8454
v 0.6603 11.4038 76.0554
v -0.3452 13.6278 76.1954
v -0.9896 12.0358 74.5254
v -0.8463 14.7688 76.3954
v 2.8336 10.0568 100.1255
v 1.8742 13.1598 102.2854
v 1.7563 10.3958 101.2555
v 0.7834 13.7548 102.9754
v 0.6962 12.0898 102.5554
v 0.0493 10.4498 102.2555
v -0.3944 12.6888 103.1055
v -1.0122 11.6038 102.9654
v -1.6590 9.9668 102.5854
v -1.2405 7.8418 66.4054
v -0.1552 6.5478 67.4855
v -0.7090 6.6848 66.6055
v 0.3753 5.9668 70.8254
v -0.9032 8.2478 70.3454
v -0.3119 8.1578 72.0254
v 0.6024 5.8678 71.9454
v -1.3099 9.3518 71.5055
v -0.9310 10.3938 73.2154
v 1.1696 6.3208 74.2054
v 0.3088 8.6278 73.7254
v 2.7373 8.2188 98.9354
v 2.1437 6.0078 97.7355
v 0.4174 6.7698 100.0055
v 0.3357 5.2108 98.8254
v -0.7698 5.5248 99.8454
v 1.0620 8.3658 100.6155
v -0.0112 9.2958 101.7754
v -0.5684 9.3668 102.0354
v -0.6838 7.1668 100.9254
v -0.6262 8.2658 101.5254
v -1.7169 8.8618 102.1654
v -1.2149 7.7368 101.4754
v -2.4207 6.1358 100.9054
v 1.6930 0.9218 67.2854
v 1.3305 2.7848 67.3555
v 1.4971 2.0338 67.8855
v 1.2932 2.0738 67.0454
v 0.7637 2.6728 66.7455
v -0.2082 5.5378 66.5454
v 0.9350 3.7838 66.8254
v 1.0703 3.7578 67.3855
v 1.1156 3.6178 71.3054
v 0.5632 4.9248 66.8655
v 0.6656 4.8998 67.4254
v 0.0784 6.0718 66.9054
v -0.1790 6.0948 66.6155
v -2.8575 -2.1972 66.9955
v 1.6175 0.1498 73.4254
v 1.3058 2.3128 94.8054
v 1.8045 1.1258 92.5254
v -0.5464 -0.9172 93.0055
v 0.1759 2.1618 95.9154
v 1.3862 3.8468 96.4554
v 0.2679 3.3228 97.0754
v -0.8739 3.5388 98.2054
v -0.9673 1.7568 96.4654
v -1.0239 0.6758 95.3054
v -2.5638 3.4058 98.9254
v 1.6104 -2.5782 67.1654
v 1.8226 -0.7872 67.7854
v 1.7024 -3.5832 67.6954
v 1.2056 0.4008 66.8555
v 1.4232 -3.2242 73.8655
v 1.9894 -2.2892 78.3855
v 2.5663 -1.3152 81.7854
v 2.0238 -2.9682 81.7254
v 1.7888 -3.4382 79.4654
v 2.1828 -2.3602 83.9955
v 1.8712 -2.5372 85.6654
v 1.5573 -3.5912 84.1754
v 1.2269 -3.6242 85.6255
v 1.5981 -2.5622 86.7854
v 2.2842 -0.4262 88.8855
v 1.5159 -0.4522 90.7854
v 1.0743 -2.1052 89.0454
v 0.5175 -2.0232 90.1654
v 0.5849 -0.7382 91.8954
v 0.4571 -3.1772 88.4454
v -0.6185 -2.2912 91.2754
v -0.6845 -3.5522 89.5454
v -1.7371 -2.2282 92.3954
v -1.8296 -3.9932 90.0954
v 0.9706 -4.0822 66.9955
v 0.8520 -6.3462 67.0354
v 1.2967 -5.8052 67.6155
v 0.8766 -6.9632 69.2555
v 0.8232 -6.8952 67.3954
v 0.3023 -6.8542 67.0154
v 0.8366 -6.0552 75.4554
v 0.4504 -6.7322 79.3555
v 0.1650 -8.7502 69.7555
v 1.4048 -4.5792 80.5454
v 1.0587 -5.1602 81.6454
v 1.5376 -3.9682 82.8154
v 1.0937 -4.6602 83.3454
v 0.8294 -4.6862 84.4654
v 0.3178 -5.8342 83.3054
v 0.6459 -4.1742 86.1654
v 0.4232 -6.2482 81.6055
v -0.2617 -5.7692 84.9855
v -0.5095 -6.8192 83.2654
v -0.7457 -4.7192 87.7754
v -0.8360 -7.8642 81.5554
v -0.5903 -8.3602 79.2954
v -1.3998 -6.4962 85.5254
v -3.0989 -6.8052 86.7555
v 0.5851 -8.0102 67.5354
v 0.1988 -8.5312 66.9554
v 0.3460 -8.5582 67.5154
v -0.8988 -10.7352 67.4354
v -0.2479 -9.6872 68.5954
v -6.4488 -6.5002 67.0055
v -1.6482 -11.2362 66.8054
v -2.2078 -11.2092 66.8755
v -0.7980 -10.3172 71.3755
v -1.4927 -11.3632 70.2154
v -1.7230 -11.4092 71.8954
v -1.3112 -10.4082 74.7355
v -2.1607 -10.3102 78.1055
v -2.8026 -11.4902 75.8154
v -2.2167 -11.4622 74.1355
v -2.1276 -9.6782 79.8054
v -2.0890 -8.9422 81.5154
v -1.4771 -7.9712 82.6654
v -2.6104 -8.1872 83.7754
v -1.8316 -11.8082 67.3954
v -2.2320 -11.7672 66.8354
v -2.2523 -12.0592 70.7555
v -2.8302 -12.3812 71.8655
v 0.7820 67.2473 70.7254
v 0.7806 67.2207 66.8454
v 0.8107 67.7948 66.8154
v 0.2502 67.8044 67.3755
v 0.2389 67.5886 69.0454
v 0.2213 67.2525 70.1554
v -0.3676 66.7199 66.8354
v -0.3375 67.2943 66.7954
v -0.7808 67.2455 68.4754
v -0.2398 66.5586 71.2555
v -0.9064 67.2912 67.3555
v -0.9195 66.8939 69.5854
v -0.9333 66.6290 70.2854
v -1.5158 66.2195 66.8154
v -2.1339 65.1300 66.7954
v -1.1833 66.7647 66.7754
v -0.9569 66.1801 71.2455
v -1.4863 66.7825 66.7154
v -1.4744 67.0100 67.3454
v -1.4824 66.8574 68.4654
v -1.4981 66.5563 69.5754
v -1.5222 66.0979 70.6754
v -2.0558 66.6200 67.3254
v -2.0752 66.2486 66.8154
v -2.1050 65.6817 70.6654
v -2.6475 66.0337 68.4254
v -2.6642 65.7151 66.9054
v -3.1835 65.7287 67.2954
v -2.6651 65.6976 69.5354
v -2.6919 65.1868 70.6454
v -3.2527 65.1892 66.7754
v 0.1807 66.4776 71.8154
v 0.1493 65.8794 72.9154
v 0.1157 65.2376 74.0154
v -0.3948 66.2011 71.8054
v -0.9896 65.5557 72.3354
v -1.0241 64.8964 73.4354
v -1.5374 65.8076 71.2254
v -1.5853 64.8925 72.7654
v -2.1386 65.0399 71.7555
v -2.7273 64.5114 71.7355
v -5.0776 62.4802 66.7254
v -5.7543 60.2719 66.6754
v -3.8708 64.0997 66.7555
v -1.0049 64.2387 74.5354
v 0.0623 64.2181 75.6554
v -1.0992 63.4643 75.6255
v -1.6069 64.4802 73.4254
v -1.6452 63.7510 74.5154
v -2.1318 62.5767 75.5954
v -2.1742 64.3595 72.8354
v -2.1937 63.9886 73.4054
v -2.7237 63.8269 72.8354
v -2.6239 63.2218 73.9354
v -3.6826 62.7558 72.7954
v -3.3437 60.3585 76.6355
v 1.1752 64.0459 76.7854
v 1.1377 63.3300 77.8755
v 0.0038 63.1024 77.3054
v -0.0583 61.9169 78.9454
v -1.1397 62.6914 76.7254
v -1.7705 61.3593 77.7654
v -0.7074 60.2366 80.5654
v -2.5307 57.5572 81.5854
v 1.0116 60.9241 81.1554
v -3.4053 54.5008 83.7254
v -1.4881 56.0437 84.8855
v -0.3113 57.0896 84.9354
v 0.1565 55.3115 87.3054
v -1.0369 53.9498 87.6355
v -2.1547 53.7768 86.5055
v 0.6240 53.5288 89.4254
v -1.8143 52.5789 88.1454
v -3.2916 52.1544 86.4454
v -3.0211 50.9603 88.0854
v -4.0058 53.4110 83.6854
v -4.3925 50.5498 85.8254
v -0.6032 51.5202 90.3454
v -0.6746 50.1572 91.4754
v -1.1121 52.5139 88.9454
v -1.8312 51.4194 89.2254
v -1.7899 50.2843 90.3054
v -1.3688 47.6166 67.2254
v -0.8056 47.6587 66.8154
v -1.8655 48.8428 66.6454
v -2.4877 48.8731 66.7154
v -2.3288 48.2845 67.2555
v -2.4990 47.4595 68.9054
v -3.4851 50.0514 66.6155
v -3.5223 49.3413 67.2854
v -4.1088 48.8546 69.6654
v -2.5881 48.0169 91.3454
v -1.3838 47.3300 93.1355
v -3.0334 49.2203 89.7054
v -3.6461 46.9789 90.7455
v -3.6869 49.2937 88.5854
v -2.6250 45.1373 93.4855
v -0.2365 47.8128 93.6554
v -0.9061 45.7408 94.6355
v -0.9699 44.5241 71.0454
v -0.2879 45.8763 68.8555
v -1.6416 42.4104 73.6854
v -2.6217 45.1170 72.1854
v -3.6501 46.9021 71.6854
v -3.4649 44.1651 74.3954
v -3.9590 42.4308 76.5754
v -4.5843 45.8861 75.0154
v -5.0229 44.7095 77.2154
v -1.0965 43.8577 95.6854
v -0.5063 42.6655 96.7854
v -2.7237 43.4215 94.5454
v -1.6453 42.3398 96.1954
v -1.8925 37.6236 98.5854
v -3.4492 40.6171 95.5654
v -3.8497 43.0946 93.4154
v -3.8632 45.2610 91.8054
v -2.3222 40.1285 75.9354
v -3.9687 39.5694 78.1554
v -3.1418 37.2835 78.0754
v -4.7996 41.2752 78.7754
v -3.0097 37.7137 97.6854
v -4.6524 40.7389 93.8855
v -4.7078 37.4254 96.0154
v -1.4480 35.4000 99.8755
v -3.1290 35.4373 98.7455
v -4.2435 35.5799 97.6355
v -0.4100 33.7993 77.3054
v -2.7092 32.7434 78.8454
v -3.4512 31.0739 79.5454
v -4.5712 35.5982 80.2555
v -1.0425 32.4348 101.2254
v -2.7911 31.1812 100.8454
v -4.5736 29.2809 100.3954
v -5.1008 29.9250 99.6754
v -1.2649 28.1909 78.4554
v -3.0325 26.5744 79.1754
v -4.5958 28.8585 80.4054
v -1.6905 30.7740 101.5354
v -1.8090 28.5123 102.1754
v -2.9270 28.5883 101.6854
v -3.0158 26.8939 102.1155
v -4.1335 26.9752 101.4654
v -5.3100 25.9330 100.9254
v -2.6774 22.6468 78.5954
v -4.1526 26.6108 79.8054
v -3.7094 24.3621 79.2455
v -2.0749 23.4392 103.1854
v -1.8977 26.8191 102.5754
v -3.1340 24.6380 102.5954
v -4.2222 25.2814 101.8755
v -1.6165 21.4818 78.2254
v -3.3534 20.4518 78.1554
v -3.7969 22.6938 78.9354
v -5.0157 23.8481 79.8454
v -4.9747 21.6288 79.0554
v -4.5596 18.8438 77.8054
v -1.6335 21.1578 103.5654
v -3.3699 20.1368 103.2555
v -4.3995 21.8998 102.5354
v -5.1353 18.5638 102.7154
v -4.0761 17.3668 103.2654
v -1.8490 17.0458 77.0055
v -3.4982 17.6888 77.1355
v -2.4947 15.4288 76.0454
v -3.6132 15.4948 75.8454
v -5.2274 16.8058 76.7954
v -1.9856 14.4388 103.5854
v -2.4864 15.5868 103.6255
v -2.3691 17.8258 103.6454
v -3.1043 14.5008 103.5055
v -4.1935 15.1258 103.3154
v -5.3117 15.1968 102.9554
v -3.7832 12.2508 72.5654
v -2.6655 12.1698 73.1854
v -3.3549 11.6818 72.1355
v -4.3695 11.7678 71.5754
v -5.4564 12.4358 72.1654
v -2.0215 13.7528 75.1055
v -3.1149 14.2988 75.0354
v -4.8068 14.1278 74.4654
v -5.9010 14.6558 75.0454
v -1.5136 12.7398 103.3154
v -2.1896 10.5468 102.8454
v -3.2212 12.2708 103.2555
v -3.2795 11.1588 103.0354
v -3.3376 10.0488 102.7455
v -4.2814 13.4498 103.2355
v -4.3981 11.2208 102.9154
v -4.4563 10.1098 102.6754
v -4.3398 12.3338 103.1055
v -5.3704 14.0778 102.9454
v -4.8698 12.9258 103.0454
v -4.9282 11.8108 102.8954
v -5.5457 10.7318 102.5654
v -2.8112 9.3898 67.0154
v -1.7210 8.7828 68.6754
v -3.3885 9.0778 66.3954
v -3.9184 9.6698 66.2954
v -3.8998 10.0248 67.0354
v -3.8737 10.5228 69.2954
v -17.8445 0.8438 66.6954
v -4.4780 9.6978 66.3555
v -4.9981 10.4768 67.0454
v -6.0799 11.2438 69.3154
v -5.5674 10.3188 66.2555
v -1.8795 9.4208 70.3855
v -2.1914 10.5108 71.7555
v -2.2191 9.9818 70.8755
v -2.7768 10.0448 69.9154
v -2.8791 10.5748 70.9754
v -2.8361 8.9138 102.3655
v -2.9140 7.4268 101.7054
v -3.9840 8.4188 102.1754
v -4.0995 6.2148 101.1654
v -3.5932 5.1728 100.4955
v -4.0434 7.2858 101.6954
v -5.0737 9.0348 102.2555
v -4.5723 7.8968 101.9254
v -4.6301 6.7948 101.4354
v -5.2471 5.7258 100.8254
v -5.6620 8.5138 101.9654
v -5.7488 6.8568 101.3254
v -5.6039 9.6218 102.3054
v -6.3657 5.7898 100.6654
v -2.6428 1.8988 97.5854
v -2.4973 4.6758 99.9254
v -3.6791 3.5318 99.3254
v -3.7403 2.3648 98.3755
v -3.8202 0.8408 96.9855
v -2.7344 0.1508 95.8454
v -4.8310 2.9608 99.0055
v -4.7663 4.1958 99.9054
v -4.8872 1.8888 98.1355
v -5.8825 4.3068 99.9054
v -6.5379 2.5038 98.5754
v -3.4634 -3.0562 92.4454
v -2.7896 -0.9022 94.6854
v -5.1288 -2.7202 93.4955
v -4.6336 -3.9752 91.7654
v -5.7689 -4.2312 91.7555
v -3.8807 -0.3142 95.8254
v -5.5838 -0.6982 95.8054
v -3.0266 -5.4242 88.9154
v -3.5369 -4.4582 90.6355
v -4.1914 -6.2432 88.3555
v -4.6791 -4.8442 90.6155
v -5.4034 -7.9612 86.0254
v -6.4008 -5.5842 90.0254
v -6.4805 -7.1052 87.7355
v -6.8496 -3.4422 92.9054
v -6.9430 -5.2252 90.6055
v -2.6967 -9.8342 80.3555
v -3.2994 -10.6312 79.2054
v -3.9193 -11.7552 76.9254
v -3.7922 -9.3302 82.6155
v -4.4077 -10.3692 80.8954
v -4.4594 -11.3562 78.6255
v -5.5980 -11.6732 78.6055
v -5.0639 -12.1862 76.9054
v -6.6793 -10.8982 80.7455
v -6.6470 -10.2822 82.0154
v -7.2801 -11.6572 79.1654
v -4.2999 -8.3132 84.8954
v -5.4699 -9.2282 83.7355
v -6.5679 -8.7722 84.8755
v -7.0978 -8.1792 86.0154
v -2.4009 -12.3582 67.9354
v -2.8462 -12.6882 67.3655
v -5.1222 -13.2982 66.8054
v -3.4146 -12.8282 66.8454
v -3.8737 -13.3832 67.3354
v -3.4301 -13.1232 67.9054
v -4.8990 -13.8902 67.3154
v -4.0075 -13.4372 68.4554
v -3.4232 -12.9922 70.1554
v -4.5724 -13.5122 70.6954
v -3.9772 -12.8592 72.9654
v -5.7007 -13.6342 72.3755
v -5.7262 -14.1202 68.9955
v -6.2850 -14.0792 70.6754
v -7.9655 -14.0322 72.3555
v -6.8687 -14.5112 67.8555
v -7.4266 -14.4532 69.5354
v -4.5224 -12.5582 75.2154
v -5.1100 -13.0672 74.0754
v -5.6633 -12.9192 75.2054
v -6.7868 -12.9502 75.7555
v -6.8221 -13.6232 73.4955
v -6.7419 -12.0932 78.0254
v -3.6359 65.1526 68.3954
v -3.5058 65.1262 68.9554
v -4.2663 64.6641 67.2555
v -3.1233 65.0670 70.0754
v -3.6421 64.5335 70.0554
v -3.2895 64.4881 70.8254
v -4.4305 64.1242 66.8954
v -4.1373 64.6182 68.3755
v -4.0072 64.5918 68.9354
v -4.2874 63.4265 70.5754
v -4.2997 64.0269 69.4754
v -4.4596 63.5697 66.7455
v -4.6638 64.1047 67.7954
v -4.4327 64.0827 68.9154
v -5.0132 63.7088 67.2254
v -4.8525 63.5148 68.8954
v -5.3178 62.9982 68.3154
v -5.0484 63.0381 66.7754
v -5.3667 62.4009 69.4154
v -5.6261 62.7189 67.1854
v -5.6665 61.9472 66.7954
v -6.0125 61.9525 67.1554
v -6.1225 61.3584 68.2654
v -5.6957 61.3904 66.7054
v -6.2140 60.7830 68.8054
v -5.3497 61.2200 71.0554
v -6.4470 60.8540 67.1255
v -6.5647 60.2799 67.6654
v -3.3248 63.8975 71.7154
v -4.1361 60.4588 74.9554
v -6.5191 56.3838 66.6454
v -6.3724 59.1817 66.6754
v -6.3140 60.2975 66.7854
v -6.8069 59.1713 67.6255
v -6.7241 59.7472 67.0854
v -6.9004 58.6352 67.0454
v -6.9385 57.4963 67.5654
v -6.9447 57.5162 67.0055
v -6.8660 56.3712 67.5254
v -5.3742 55.3996 77.0254
v -5.7933 53.7592 76.4054
v -4.4866 52.3489 66.6255
v -6.0476 54.6760 66.6255
v -5.0755 51.8158 66.6954
v -6.1078 53.5279 66.8655
v -5.6141 52.2446 67.3855
v -6.0483 52.9058 69.0854
v -6.3800 54.1032 67.4454
v -6.4345 54.5688 70.2654
v -6.7893 55.8262 66.9454
v -5.9722 52.6865 75.2455
v -5.6930 50.4880 73.4855
v -5.8616 49.7796 77.9454
v -4.6841 52.3449 83.0854
v -4.2683 50.6483 66.7654
v -4.8766 51.2408 66.7854
v -4.5450 51.2343 66.4754
v -4.9170 49.4044 71.2054
v -4.5535 47.6447 72.8254
v -5.3587 48.1692 75.0854
v -5.6281 47.5444 77.3054
v -5.9463 46.3223 80.6255
v -5.9422 47.4042 81.7854
v -5.7293 46.1152 86.2254
v -4.7915 46.5325 88.9454
v -5.3390 46.0360 87.9054
v -4.4731 45.3321 90.6854
v -5.6548 43.5235 79.9754
v -6.0193 42.9232 81.6355
v -7.0531 35.4902 92.5854
v -6.8800 38.7926 88.6754
v -6.5124 41.7103 84.9554
v -4.6504 43.6203 91.7455
v -5.3729 43.7169 90.0654
v -5.6156 38.4169 81.4754
v -6.4038 37.2587 83.6754
v -7.0820 37.6982 88.1754
v -5.8042 37.9961 93.7954
v -6.1966 35.0248 83.0354
v -5.6566 31.1112 81.7854
v -7.0418 31.1055 84.0154
v -7.1252 35.5362 85.8555
v -7.6882 33.8251 87.4754
v -7.6450 31.6390 85.7154
v -7.7051 33.6694 91.9554
v -8.2882 32.0767 90.2154
v -6.8659 31.7868 96.3755
v -8.3524 29.6809 94.6155
v -6.0591 31.1252 98.0354
v -6.7924 26.6661 82.1854
v -8.1629 25.0178 83.2154
v -8.3643 29.9556 86.7854
v -9.3463 28.1098 92.8855
v -5.8781 29.3946 99.0954
v -9.7041 21.7858 97.7054
v -5.9939 25.5421 81.0254
v -6.9149 24.4495 81.5454
v -9.8404 25.1211 86.0454
v -9.8116 25.2527 95.0254
v -7.5134 22.7138 99.9855
v -7.9086 19.5148 79.6954
v -8.7653 21.1828 81.4254
v -10.6064 21.2098 83.4154
v -8.7677 19.4158 99.8655
v -7.9540 18.2998 100.9454
v -8.8969 21.7168 98.8254
v -10.1275 19.6438 98.1854
v -5.5171 21.9818 101.8555
v -6.8413 18.1238 101.8154
v -6.8851 17.2868 77.6454
v -8.1189 15.1538 76.2954
v -9.7141 16.8278 78.9654
v -6.7990 18.9308 78.6654
v -11.2967 17.9518 81.3154
v -10.5087 17.3038 98.6654
v -9.2884 16.0598 100.3054
v -6.9885 15.3138 102.1355
v -6.5177 13.5938 102.4554
v -8.0766 15.9598 101.3354
v -7.1766 11.7258 70.4554
v -7.6983 12.4738 72.1554
v -9.0099 12.5188 72.7154
v -8.8720 11.4878 69.8954
v -6.5148 13.6498 73.8855
v -8.7459 13.8938 75.0055
v -11.6577 11.8538 73.2555
v -12.1973 12.2618 74.9454
v -11.1311 11.1978 70.4254
v -6.0172 12.4388 102.6255
v -7.1937 11.3988 102.0354
v -6.6639 10.8038 102.2054
v -6.7221 9.6928 101.9654
v -8.2236 13.1548 101.5055
v -7.1352 12.5148 102.1355
v -7.2521 10.2848 101.8555
v -8.3407 10.9208 101.3755
v -8.2822 12.0368 101.4754
v -9.3704 12.6808 100.7254
v -10.4287 13.8958 99.6754
v -9.4291 11.5618 100.7054
v -9.4875 10.4458 100.6055
v -8.3729 9.8048 101.2154
v -10.5170 12.2118 99.8054
v -10.0170 11.0478 100.2555
v -7.2194 10.9088 67.0554
v -7.2082 11.1228 68.1854
v -8.3397 10.9408 67.0554
v -8.3501 10.7428 66.4955
v -11.1631 10.5868 66.9955
v -9.6622 7.1148 99.8354
v -7.9853 6.9978 100.6554
v -8.4864 8.1418 100.7954
v -10.6925 8.8628 99.5454
v -10.0755 9.9318 100.1454
v -11.1927 10.0218 99.2555
v -6.7803 8.5838 101.6554
v -6.8383 7.4768 101.2754
v -7.3103 9.1748 101.6055
v -7.3684 8.0658 101.2854
v -7.4840 5.8588 100.3755
v -8.6310 5.3818 99.6854
v -9.5459 9.3318 100.4454
v -9.6041 8.2218 100.1754
v -10.7507 7.7518 99.2854
v -6.6235 0.8698 97.2854
v -6.9837 4.7018 99.9154
v -7.0399 3.6298 99.2555
v -8.1583 3.6978 98.9754
v -8.1008 4.7948 99.6055
v -8.2157 2.6028 98.2754
v -8.8321 1.5448 97.3454
v -8.6886 4.2818 99.1055
v -9.3339 2.6738 97.9154
v -9.7778 4.9078 98.9054
v -10.4232 3.2978 97.7654
v -10.4806 2.2008 97.1055
v -10.8377 6.0918 98.7455
v -6.7655 -1.8392 94.7054
v -7.9410 -2.8602 93.5554
v -7.8844 -1.7812 94.7054
v -9.0314 -2.2592 94.0554
v -8.9462 -0.6332 95.5754
v -10.6237 -0.5282 95.1055
v -10.6855 -1.7092 94.0854
v -10.7658 -3.2402 92.5954
v -11.8556 -2.6272 92.7654
v -7.8243 -0.6332 95.8054
v -8.8892 0.4548 96.5055
v -10.0075 0.5248 96.1654
v -11.6559 1.1848 95.8354
v -8.1095 -6.0762 89.4554
v -8.7284 -7.1802 87.7254
v -9.1867 -5.2212 90.5954
v -9.8081 -6.3742 88.8755
v -10.4583 -8.0772 85.9855
v -10.3010 -5.0752 90.6055
v -12.0909 -7.1152 87.1654
v -8.5568 -3.9072 92.3254
v -15.2213 -13.3272 66.7154
v -14.7205 -14.4762 66.7054
v -7.8009 -10.8922 80.8755
v -8.9498 -11.4062 79.7355
v -9.4811 -10.8392 80.8755
v -11.7143 -10.6332 80.7254
v -10.5531 -9.8862 82.5854
v -10.0673 -11.3212 79.7355
v -7.6887 -8.7492 85.0254
v -7.7438 -9.8012 83.0654
v -9.3579 -8.4882 85.4354
v -9.4061 -9.4082 83.7254
v -11.0480 -8.6252 84.8655
v -12.7781 -9.5252 82.5954
v -9.1310 -14.8642 67.2754
v -9.1273 -14.7922 66.7254
v -11.3761 -14.8862 67.2754
v -10.2403 -14.6212 69.5254
v -9.0971 -14.2162 71.7854
v -11.8993 -14.1632 71.2254
v -10.2025 -13.8992 72.9154
v -11.9177 -14.5152 69.5254
v -7.9026 -13.4262 74.6155
v -7.9135 -13.0402 75.7555
v -7.9506 -13.7482 73.4855
v -9.6068 -13.2382 75.1854
v -9.0827 -13.9412 72.9154
v -9.0660 -13.6212 74.0454
v -9.5733 -12.5982 76.8855
v -10.6899 -12.4952 76.8855
v -10.7343 -13.3432 74.6155
v -7.8682 -12.1742 78.0254
v -9.5356 -11.8792 78.5954
v -11.7660 -11.6222 78.5954
v -9.9068 27.1158 90.0454
v -13.4367 17.9658 84.1155
v -12.8062 20.4618 92.0454
v -12.3630 19.8038 94.1355
v -11.1885 20.8058 95.8354
v -13.0727 16.9668 82.3954
v -12.6012 15.2588 80.0055
v -10.9671 14.3268 77.2654
v -13.5868 15.2688 81.2154
v -15.1792 13.6508 81.7154
v -15.2080 15.7768 85.1554
v -16.5182 12.0188 82.2154
v -14.2208 18.3918 89.1654
v -13.4653 15.9138 94.6854
v -11.6770 17.4228 96.9855
v -14.7914 14.3598 92.9554
v -14.0762 13.1228 95.1554
v -14.3750 16.6198 91.9054
v -11.6214 15.1388 98.0254
v -13.3759 11.1798 73.7854
v -13.2623 13.3478 78.3454
v -14.4862 11.4028 76.5954
v -15.2893 12.0528 79.4154
v -14.3799 13.4308 80.0254
v -14.6510 13.1918 94.0354
v -14.6757 12.0528 94.5554
v -14.1563 11.4258 95.6554
v -11.3103 12.2798 99.0554
v -11.1342 11.1388 99.3154
v -12.0024 11.2148 98.4554
v -12.7547 12.4148 97.3755
v -13.0523 10.7478 97.3154
v -13.6550 9.1178 96.6954
v -12.8990 9.5768 66.3555
v -14.0093 9.7988 67.5654
v -16.8888 8.3758 66.9554
v -13.9812 10.3348 71.5154
v -15.1358 9.7128 71.4855
v -15.1215 9.9858 73.1754
v -15.1192 10.4988 75.4354
v -14.1321 8.0408 96.0954
v -14.8669 9.2398 95.0154
v -15.3472 7.6028 94.3954
v -14.9522 6.4408 94.9154
v -11.8389 8.3968 98.5354
v -11.8588 7.2828 98.3154
v -12.5138 6.2228 97.5055
v -12.4266 7.8868 97.9254
v -12.6563 9.0258 97.8154
v -13.5433 7.9858 96.7854
v -13.6737 4.6528 95.9754
v -14.0190 6.3528 96.0354
v -13.2459 2.9568 95.6954
v -13.8910 1.3528 94.3655
v -12.7448 1.8138 95.5055
v -14.4715 3.6128 94.8154
v -14.8055 5.3098 94.9354
v -15.3708 3.1378 93.6754
v -12.0384 3.9678 97.0754
v -11.5697 2.8278 96.8555
v -12.2764 0.0488 94.6954
v -11.7762 -1.1122 94.0954
v -13.4755 -1.4242 92.8855
v -12.8595 -0.3742 94.0454
v -12.8023 0.7188 94.8254
v -13.0020 -3.0942 91.7754
v -13.9484 0.2568 93.6854
v -14.6687 -2.4262 91.2455
v -15.0369 0.8958 93.0954
v -15.1230 -0.7482 92.0654
v -15.7960 -2.8842 89.9754
v -19.7869 -4.1072 66.7154
v -11.4568 -5.7202 89.4554
v -11.9688 -4.7862 90.4554
v -13.1792 -6.4742 87.7455
v -13.0607 -4.2132 90.6255
v -14.0166 -5.7272 88.3254
v -14.7919 -5.1332 88.5854
v -15.2942 -4.0132 89.4054
v -14.3007 -6.4652 87.1854
v -14.8268 -5.8002 87.7654
v -15.4069 -6.1652 86.8855
v -11.9123 -3.7092 91.6754
v -13.9451 -10.3842 80.3154
v -15.5583 -9.0532 82.0454
v -15.6169 -10.1712 79.7654
v -14.5399 -11.0302 78.6155
v -12.6812 -7.6762 86.0254
v -13.2857 -8.5062 84.3054
v -14.3572 -7.5422 85.4654
v -14.9425 -8.0072 84.3254
v -16.0215 -7.1872 84.9454
v -14.1647 -14.5732 67.2754
v -14.7200 -14.4662 67.2854
v -15.2525 -13.9222 66.7355
v -14.7097 -14.2692 68.4054
v -15.8283 -14.2062 67.2854
v -16.9290 -13.7992 66.7054
v -12.9792 -13.3622 73.4855
v -13.0257 -14.2492 70.0954
v -14.4148 -13.5482 71.7954
v -16.3413 -13.2892 70.6854
v -16.9137 -13.5072 68.9955
v -12.9266 -12.3592 76.3254
v -15.1932 -12.7902 73.5055
v -14.6102 -12.3712 75.2054
v -16.2067 -10.7212 78.0654
v -15.7244 -12.2232 74.6454
v -15.7201 15.2038 86.2555
v -15.4512 15.6528 89.0754
v -15.5391 14.4768 90.7154
v -17.7630 10.3438 83.8354
v -17.3928 11.3868 85.5554
v -17.5640 10.7958 86.6554
v -16.4405 13.5008 87.8755
v -15.9947 13.9798 89.5754
v -15.9211 13.3758 90.6754
v -15.3869 13.8698 91.8154
v -17.3258 10.7408 88.3354
v -16.5890 11.1688 90.5954
v -15.1472 13.2568 92.9154
v -15.4300 9.8688 93.9154
v -15.7452 11.0458 92.8354
v -15.9031 12.2148 91.7555
v -18.6336 7.1948 67.4654
v -16.2892 9.1118 72.5854
v -15.7839 10.4748 77.1155
v -16.5398 9.4328 75.9554
v -17.0673 9.9028 79.3354
v -18.9081 6.8898 71.9454
v -17.8242 8.3388 77.0454
v -19.8343 5.6918 76.9454
v -18.4247 8.2528 80.3954
v -20.0953 4.9768 80.2854
v -18.2782 9.2098 84.9154
v -18.3969 8.6168 86.0154
v -18.5188 7.4628 87.0954
v -19.1816 5.8548 85.9154
v -16.3407 10.5558 91.6954
v -17.1346 8.9548 90.5154
v -16.7988 8.3368 91.6155
v -17.3592 7.8448 90.4754
v -17.5084 9.0128 89.3954
v -17.9752 6.7948 89.3154
v -17.3433 6.1428 90.9754
v -18.6380 5.1868 88.1355
v -16.1771 8.8258 92.7555
v -15.5847 8.7558 93.8755
v -16.0269 7.6768 93.2754
v -16.1030 6.5598 93.2355
v -16.6836 7.1898 92.1355
v -18.6406 7.0618 66.6454
v -19.8097 6.1628 66.8755
v -19.8474 5.4418 66.6255
v -17.9921 2.2918 89.7254
v -17.4312 4.4658 90.9154
v -18.3084 3.4488 89.2054
v -17.9593 5.0928 89.8154
v -18.8264 3.5158 88.0454
v -18.8849 2.3988 87.9754
v -19.1754 4.1328 86.9855
v -19.3039 3.0188 86.9454
v -19.3625 1.9008 86.9054
v -16.5088 4.9218 92.5254
v -16.9956 2.7408 91.4254
v -16.1536 0.9948 91.9354
v -16.7684 6.0738 92.0954
v -16.7303 -0.0562 90.7654
v -17.2589 -1.1112 89.6055
v -16.2643 -1.1162 90.7254
v -16.6817 -2.2622 89.5654
v -17.0825 1.0828 90.8054
v -18.3870 0.1088 88.5254
v -17.4427 -2.1942 88.7555
v -18.3515 -1.5552 87.9054
v -18.8344 1.2728 88.0055
v -19.3280 0.2168 86.8454
v -18.9470 -2.0462 86.7654
v -18.3479 -2.6572 87.3054
v -19.7779 -0.8422 85.6854
v -20.0866 0.8788 85.0954
v -22.9382 -0.0132 66.7254
v -16.5036 -5.6822 86.6454
v -17.0898 -6.1642 85.5055
v -17.0549 -5.4982 86.3354
v -17.6134 -5.4502 85.8154
v -18.1435 -4.8622 85.8354
v -18.1717 -5.4002 85.2254
v -18.1999 -5.9372 84.5754
v -18.7911 -4.2572 85.5654
v -18.1152 -4.3212 86.3755
v -18.7018 -4.8102 85.1854
v -18.7300 -5.3492 84.5854
v -18.7581 -5.8852 83.9054
v -18.2490 -6.8752 83.2355
v -19.3182 -3.1082 85.6055
v -20.0998 -2.4682 84.5055
v -19.2010 -4.2162 85.0055
v -19.2598 -4.7542 84.4354
v -19.2878 -5.2872 83.8454
v -19.2333 -5.8382 83.2654
v -19.8982 -4.1402 83.8855
v -18.8397 -7.4422 81.5354
v -20.4568 -6.1852 80.4554
v -15.9132 -5.1212 87.7854
v -16.4115 -3.9252 88.5454
v -16.4399 -4.4662 88.0254
v -16.4681 -5.0062 87.4354
v -16.9415 -3.3352 88.5154
v -16.9700 -3.8782 88.0454
v -16.9984 -4.4202 87.5254
v -17.0267 -4.9592 86.9454
v -17.7422 -3.8102 87.2654
v -17.5568 -4.3712 86.9754
v -17.5852 -4.9122 86.4254
v -18.6449 -3.7252 86.1854
v -18.4413 -10.5432 75.8254
v -17.3716 -11.5412 74.6654
v -18.3918 -9.5992 78.0954
v -19.4967 -9.2752 76.9855
v -20.6244 -9.3832 74.3855
v -16.7020 -9.4682 80.3454
v -17.7780 -8.5912 80.9354
v -19.4272 -7.9482 79.7054
v -16.0580 -7.8852 83.7654
v -17.1495 -7.3022 83.7854
v -17.1850 -7.9802 82.6355
v -17.4623 -13.2722 66.7555
v -17.0766 -13.8122 67.3054
v -18.0322 -13.4422 67.3154
v -18.6387 -13.1502 66.7654
v -18.5884 -13.1722 67.3154
v -19.6684 -12.5512 67.3354
v -16.3241 -12.9612 71.8154
v -17.4486 -13.0102 70.1355
v -17.4319 -12.6912 71.2654
v -18.0192 -13.1932 68.4454
v -17.9599 -12.0632 72.4054
v -19.0966 -12.3432 69.5954
v -18.5346 -12.3242 70.7154
v -19.0391 -11.2462 72.9955
v -20.1743 -11.4982 69.9855
v -20.6982 -10.7922 70.7654
v -20.1960 -11.9142 68.4855
v -16.8445 -12.1872 73.5254
v -20.9490 4.9118 67.3855
v -22.2171 3.0418 67.3154
v -21.6534 3.8468 66.7854
v -21.6726 2.7288 66.6854
v -21.7413 3.2908 66.7654
v -22.5933 2.1358 68.9654
v -21.5294 2.3668 76.8254
v -21.1371 2.2418 79.8054
v -20.6917 2.1268 82.4254
v -19.7610 3.6618 85.2854
v -19.7507 2.5208 85.8054
v -22.2318 2.7608 66.7455
v -22.2969 1.6378 66.7054
v -22.3201 1.0778 66.7154
v -22.6777 2.1988 67.2854
v -22.8798 1.1018 66.8655
v -23.1054 1.0608 68.3655
v -23.1471 1.1018 67.2455
v -23.4925 0.1148 67.2154
v -23.5566 -1.1092 66.8855
v -23.7323 -4.4612 66.7054
v -23.9230 -1.6602 67.1554
v -22.9687 0.9948 70.0454
v -23.5965 -0.6152 68.8655
v -23.2818 -0.1292 70.5654
v -23.7785 -1.7462 69.3954
v -21.9119 0.0848 78.4254
v -23.5718 -1.8162 71.0754
v -21.4527 -0.0172 80.6654
v -22.0008 -1.6122 78.9254
v -21.2455 -1.7492 81.7254
v -20.4860 -1.3062 83.9855
v -20.5220 1.5178 83.5254
v -20.8830 -0.6862 82.8855
v -20.6047 -2.4022 83.3855
v -23.2609 -6.1702 66.7154
v -23.7911 -5.5842 66.7854
v -24.0532 -2.7752 67.1155
v -24.0186 -2.8162 68.2355
v -24.0972 -3.8942 67.0754
v -24.0510 -3.9352 68.1954
v -24.0145 -5.5802 67.0154
v -23.8514 -5.6472 68.6954
v -23.5013 -2.9802 72.1554
v -23.8468 -2.8832 69.9154
v -23.7841 -4.0282 70.4354
v -23.3650 -5.2302 72.0754
v -23.7892 -5.1292 69.8354
v -23.3691 -6.3112 70.9154
v -21.8507 -2.7602 79.4454
v -22.8570 -4.2332 74.9154
v -21.5997 -4.9962 78.8154
v -22.6816 -5.9042 74.2954
v -20.9909 -5.0872 80.4955
v -19.9635 -5.2192 82.7254
v -21.3344 -3.9482 80.5254
v -21.1642 -2.8752 81.6854
v -20.4644 -4.0722 82.7654
v -22.3180 -9.5882 66.7154
v -21.2578 -10.7662 66.7154
v -21.9805 -10.1722 66.8555
v -22.1782 -10.1812 67.4154
v -22.7895 -7.8792 66.7154
v -22.9665 -8.9992 66.8954
v -22.6811 -9.0722 68.5754
v -23.0539 -8.4332 66.9154
v -23.3570 -8.0032 66.9354
v -23.1655 -8.4472 67.4754
v -23.6462 -6.7212 66.9754
v -23.9126 -6.1462 66.9955
v -23.7332 -6.7362 67.5354
v -23.3897 -7.8752 67.4955
v -23.0092 -7.9732 69.7355
v -21.7655 -9.7492 70.4955
v -22.4188 -8.0822 71.9754
v -21.4274 -8.2322 74.7754
v -23.4313 -6.8302 69.7754
v -20.6700 -8.3312 76.4554
v -21.8769 -7.1072 75.3755
v -20.7456 -7.2642 78.1754
v -20.7347 -11.4882 66.8154
v -20.7475 -11.7322 67.3655
v -21.2885 -11.3512 66.8154
v -21.2618 -10.8422 68.8954
v -21.8481 -10.7392 66.8354
f 1 2 3
f 2 4 3
f 5 1 3
f 6 7 5
f 4 8 9
f 4 9 10
f 5 3 10
f 11 12 13
f 13 8 4
f 13 14 8
f 4 10 3
f 8 15 9
f 16 17 15
f 13 12 14
f 14 12 18
f 14 15 8
f 14 18 16
f 15 14 16
f 9 19 10
f 10 20 21
f 5 21 6
f 10 21 5
f 6 21 22
f 17 23 19
f 19 23 20
f 15 17 9
f 10 19 20
f 9 17 19
f 20 24 21
f 21 24 22
f 25 26 17
f 17 26 23
f 26 27 28
f 16 29 25
f 16 25 17
f 25 27 26
f 27 30 28
f 29 31 25
f 31 27 25
f 31 32 27
f 27 32 30
f 32 33 30
f 23 34 20
f 24 20 34
f 24 34 22
f 34 35 22
f 36 22 37
f 26 38 23
f 28 39 26
f 23 38 34
f 38 26 39
f 39 28 40
f 34 38 41
f 38 42 41
f 38 39 42
f 39 40 42
f 28 43 40
f 43 44 40
f 34 41 35
f 41 45 35
f 41 42 45
f 42 40 45
f 40 46 45
f 40 44 46
f 43 28 30
f 43 47 44
f 44 47 48
f 30 49 43
f 47 43 49
f 49 50 47
f 50 51 47
f 30 33 49
f 33 52 49
f 52 50 49
f 52 53 50
f 51 50 54
f 37 22 35
f 36 37 55
f 37 56 57
f 35 45 58
f 45 46 58
f 44 59 46
f 44 48 59
f 46 59 60
f 58 37 35
f 37 58 56
f 46 60 58
f 60 56 58
f 48 61 59
f 47 51 48
f 51 62 48
f 61 48 63
f 48 62 63
f 59 64 60
f 65 51 54
f 65 54 66
f 51 65 62
f 66 67 65
f 65 67 62
f 56 60 68
f 60 64 68
f 59 61 64
f 63 69 61
f 61 69 64
f 63 70 69
f 64 69 68
f 63 62 71
f 70 63 71
f 72 68 69
f 69 70 73
f 69 73 72
f 62 67 71
f 67 74 71
f 71 75 70
f 71 76 75
f 71 74 76
f 76 77 75
f 75 78 70
f 75 77 78
f 70 78 73
f 77 79 78
f 80 56 68
f 72 81 68
f 73 82 72
f 73 79 82
f 72 83 81
f 72 82 83
f 79 84 82
f 82 84 83
f 73 78 79
f 85 86 87
f 86 88 89
f 87 86 89
f 88 90 89
f 90 91 92
f 91 93 92
f 86 94 88
f 88 94 91
f 91 95 93
f 90 88 91
f 96 97 98
f 99 100 97
f 96 98 101
f 97 102 98
f 97 100 102
f 103 96 101
f 99 104 100
f 105 96 106
f 97 96 105
f 99 97 105
f 103 106 96
f 107 108 99
f 109 85 107
f 105 109 107
f 107 99 105
f 108 104 99
f 108 110 104
f 110 92 104
f 105 106 109
f 111 106 103
f 85 87 107
f 87 89 108
f 107 87 108
f 89 90 110
f 108 89 110
f 110 90 92
f 106 85 109
f 85 106 111
f 112 113 114
f 100 112 115
f 112 116 115
f 112 114 116
f 114 117 116
f 114 118 117
f 104 113 100
f 113 112 100
f 113 118 114
f 104 92 119
f 104 119 113
f 113 119 118
f 119 120 118
f 92 121 119
f 119 122 120
f 121 123 122
f 122 119 121
f 122 124 120
f 121 92 93
f 123 121 93
f 124 122 123
f 118 125 117
f 120 125 118
f 125 120 126
f 127 103 128
f 128 129 127
f 129 130 131
f 127 129 1
f 1 129 131
f 7 132 127
f 127 1 7
f 133 103 101
f 101 98 133
f 98 128 133
f 130 128 98
f 102 130 98
f 128 103 133
f 128 130 129
f 103 127 134
f 134 127 132
f 103 134 111
f 135 116 136
f 2 135 136
f 116 11 136
f 136 11 13
f 131 2 1
f 136 13 4
f 136 4 2
f 102 100 115
f 102 115 130
f 117 11 116
f 115 131 130
f 115 135 131
f 115 116 135
f 2 131 135
f 11 137 12
f 138 137 11
f 125 138 117
f 138 11 117
f 125 139 138
f 140 141 137
f 138 139 140
f 140 137 138
f 140 142 141
f 139 143 140
f 142 140 143
f 126 139 125
f 126 143 139
f 144 145 126
f 145 143 126
f 146 143 145
f 143 147 142
f 147 143 146
f 148 149 147
f 150 132 7
f 151 150 7
f 132 152 134
f 132 150 152
f 153 134 152
f 152 150 153
f 151 153 150
f 7 154 151
f 154 153 151
f 153 154 155
f 156 134 153
f 155 156 153
f 5 7 1
f 18 12 137
f 141 157 18
f 157 29 18
f 18 29 16
f 141 18 137
f 157 158 29
f 158 31 29
f 142 157 141
f 159 160 157
f 157 160 158
f 160 161 158
f 158 161 162
f 142 159 157
f 142 147 159
f 163 161 160
f 147 149 159
f 159 163 160
f 163 159 164
f 149 164 159
f 148 165 149
f 161 166 162
f 161 163 167
f 167 166 161
f 163 164 168
f 163 168 167
f 168 169 167
f 170 164 149
f 168 164 170
f 170 169 168
f 169 171 167
f 165 170 149
f 170 165 169
f 172 171 169
f 171 172 173
f 169 165 172
f 155 174 175
f 156 155 176
f 176 155 175
f 177 175 178
f 111 134 156
f 156 177 111
f 156 176 177
f 177 176 175
f 179 111 177
f 177 180 179
f 180 177 181
f 181 177 182
f 182 177 178
f 22 7 6
f 7 22 154
f 22 36 154
f 154 174 155
f 36 174 154
f 174 183 175
f 158 162 184
f 31 158 184
f 184 32 31
f 184 185 32
f 32 185 33
f 33 185 186
f 186 52 33
f 185 187 186
f 184 162 166
f 166 185 184
f 185 166 187
f 166 188 187
f 167 188 166
f 189 190 187
f 190 186 187
f 171 188 167
f 171 189 188
f 189 187 188
f 191 190 189
f 190 192 186
f 191 192 190
f 171 173 189
f 189 173 191
f 191 173 193
f 193 194 191
f 194 193 195
f 175 183 196
f 197 196 183
f 178 175 196
f 198 174 36
f 183 174 198
f 52 186 199
f 199 53 52
f 54 50 53
f 53 200 54
f 199 192 201
f 201 53 199
f 200 53 201
f 186 192 199
f 201 202 200
f 203 192 204
f 201 192 203
f 203 202 201
f 203 205 202
f 203 204 206
f 206 205 203
f 205 206 207
f 191 204 192
f 204 191 194
f 204 194 206
f 207 206 208
f 206 209 208
f 209 210 208
f 55 198 36
f 211 183 198
f 197 183 211
f 211 212 197
f 197 213 196
f 57 55 37
f 55 57 214
f 198 55 211
f 55 214 211
f 211 214 212
f 54 215 66
f 67 66 216
f 216 217 74
f 216 74 67
f 200 215 54
f 66 215 218
f 218 216 66
f 216 218 217
f 202 215 200
f 218 215 219
f 218 220 217
f 219 202 205
f 215 202 219
f 207 221 219
f 219 220 218
f 219 205 207
f 219 221 220
f 221 207 222
f 207 208 223
f 223 222 207
f 224 212 214
f 212 224 225
f 57 56 226
f 217 227 74
f 76 74 227
f 227 228 76
f 76 228 77
f 228 229 77
f 217 230 227
f 230 231 227
f 227 231 228
f 217 220 230
f 221 232 220
f 220 232 233
f 230 220 233
f 232 234 233
f 234 235 233
f 236 230 233
f 233 235 236
f 232 221 222
f 232 237 234
f 234 238 235
f 222 239 232
f 232 239 237
f 234 240 238
f 241 56 80
f 56 241 226
f 214 57 242
f 226 242 57
f 242 224 214
f 68 81 80
f 81 243 80
f 80 243 241
f 243 81 83
f 243 83 244
f 77 229 79
f 79 229 245
f 79 245 84
f 245 246 84
f 228 247 229
f 229 247 245
f 247 248 249
f 245 249 246
f 245 247 249
f 247 228 231
f 247 231 248
f 231 250 248
f 230 236 231
f 231 236 251
f 250 231 251
f 251 236 252
f 251 252 253
f 250 251 253
f 254 250 253
f 235 252 236
f 252 235 238
f 253 255 254
f 238 253 252
f 242 226 256
f 257 242 256
f 83 258 244
f 83 84 258
f 243 259 241
f 243 244 259
f 260 244 258
f 244 260 259
f 258 261 260
f 260 261 262
f 259 263 241
f 260 263 259
f 241 263 226
f 260 264 263
f 246 258 84
f 249 265 246
f 249 266 265
f 258 246 261
f 249 267 266
f 246 265 261
f 261 265 268
f 266 269 265
f 262 261 268
f 265 269 270
f 268 265 270
f 266 271 269
f 249 248 267
f 272 267 248
f 267 271 266
f 267 272 271
f 250 273 248
f 250 254 273
f 273 272 248
f 272 274 271
f 254 275 273
f 272 276 274
f 273 276 272
f 254 255 275
f 273 277 276
f 275 277 273
f 276 277 278
f 275 279 277
f 280 256 226
f 280 281 256
f 256 281 257
f 260 262 264
f 282 263 264
f 282 280 226
f 282 226 263
f 262 283 264
f 284 264 283
f 282 285 280
f 282 264 284
f 282 284 285
f 280 285 281
f 286 281 285
f 270 269 287
f 269 288 287
f 289 262 268
f 268 270 289
f 270 290 289
f 270 287 290
f 289 290 291
f 262 289 283
f 289 291 283
f 288 292 287
f 293 290 287
f 287 292 293
f 290 294 291
f 290 293 294
f 291 294 295
f 291 295 283
f 292 296 293
f 293 297 294
f 293 296 297
f 296 298 297
f 294 297 295
f 271 288 269
f 271 274 288
f 274 299 288
f 288 299 292
f 300 274 276
f 276 278 300
f 300 301 299
f 274 300 299
f 299 302 292
f 292 302 296
f 278 301 300
f 301 302 299
f 303 302 301
f 302 304 296
f 302 303 304
f 296 304 298
f 278 305 301
f 301 305 303
f 303 306 304
f 286 285 284
f 284 283 286
f 286 283 307
f 295 307 283
f 297 298 295
f 295 298 307
f 86 308 94
f 94 308 309
f 91 94 309
f 95 91 309
f 310 308 86
f 86 85 310
f 310 85 111
f 309 308 311
f 312 309 311
f 95 309 312
f 312 313 95
f 314 315 308
f 316 317 315
f 308 310 314
f 314 310 318
f 311 308 315
f 317 311 315
f 317 312 311
f 313 312 317
f 318 310 111
f 314 319 320
f 315 314 320
f 320 316 315
f 321 317 316
f 319 314 318
f 322 317 321
f 322 313 317
f 320 323 316
f 320 319 324
f 321 316 323
f 324 319 318
f 313 322 325
f 324 318 111
f 320 326 327
f 320 327 323
f 328 322 321
f 326 320 324
f 322 329 325
f 330 324 111
f 327 331 323
f 323 331 321
f 331 328 321
f 329 322 328
f 324 330 326
f 327 332 331
f 327 326 330
f 331 333 328
f 333 334 328
f 328 334 329
f 335 93 95
f 123 93 335
f 335 336 123
f 335 95 313
f 336 335 313
f 337 336 338
f 339 337 338
f 336 313 325
f 338 325 340
f 338 336 325
f 340 325 329
f 340 339 338
f 340 341 339
f 342 341 340
f 124 123 336
f 337 120 124
f 337 124 336
f 343 120 337
f 343 344 120
f 126 120 344
f 343 337 339
f 345 344 343
f 345 343 339
f 345 346 344
f 341 345 339
f 347 346 345
f 347 345 341
f 341 348 347
f 344 144 126
f 344 346 144
f 145 144 349
f 346 349 144
f 350 145 349
f 349 346 347
f 350 349 351
f 351 349 347
f 352 350 353
f 347 348 354
f 351 347 354
f 350 351 355
f 355 353 350
f 356 353 355
f 355 351 354
f 357 146 145
f 350 357 145
f 352 357 350
f 358 357 352
f 148 147 146
f 358 146 357
f 358 148 146
f 358 359 148
f 359 165 148
f 165 359 360
f 359 361 360
f 358 352 362
f 359 358 363
f 363 358 362
f 352 353 362
f 361 359 363
f 361 363 364
f 353 356 362
f 365 362 356
f 362 365 363
f 363 365 364
f 361 366 367
f 364 366 361
f 364 368 366
f 172 369 173
f 165 360 370
f 165 370 172
f 360 361 367
f 367 370 360
f 370 369 172
f 369 370 371
f 372 369 371
f 371 370 367
f 367 366 373
f 367 373 371
f 179 180 374
f 374 181 182
f 374 180 181
f 374 182 375
f 375 182 178
f 375 178 376
f 179 374 377
f 374 378 377
f 375 378 374
f 379 179 377
f 377 380 379
f 377 378 380
f 376 378 375
f 376 380 378
f 379 381 179
f 380 381 379
f 381 380 382
f 382 380 376
f 383 173 369
f 193 173 383
f 193 384 195
f 369 385 383
f 384 193 383
f 195 384 386
f 384 383 387
f 388 384 387
f 388 386 384
f 369 372 385
f 385 387 383
f 389 387 385
f 387 389 390
f 391 388 390
f 388 387 390
f 392 388 391
f 386 388 392
f 389 385 372
f 392 391 393
f 389 394 390
f 391 390 395
f 393 391 395
f 394 389 372
f 390 394 396
f 396 395 390
f 397 382 376
f 178 398 376
f 398 178 196
f 397 376 398
f 194 195 209
f 209 206 194
f 209 195 386
f 399 209 386
f 386 392 399
f 393 399 392
f 208 210 400
f 210 209 399
f 401 402 399
f 210 399 402
f 400 210 402
f 402 403 400
f 404 400 403
f 399 393 401
f 402 401 403
f 401 393 405
f 406 196 213
f 407 406 213
f 406 398 196
f 406 408 398
f 408 406 407
f 398 408 397
f 409 397 408
f 408 410 409
f 407 410 408
f 208 400 411
f 223 208 411
f 223 412 222
f 239 222 412
f 223 411 412
f 239 412 413
f 411 400 414
f 412 411 414
f 412 414 415
f 413 415 416
f 413 412 415
f 417 415 414
f 414 400 404
f 417 414 404
f 415 417 418
f 403 419 404
f 417 404 419
f 419 420 417
f 418 417 420
f 403 421 422
f 422 419 403
f 423 418 420
f 213 197 424
f 197 212 424
f 213 424 407
f 407 425 410
f 407 424 425
f 424 426 425
f 425 426 427
f 240 234 237
f 413 237 239
f 413 428 237
f 428 429 240
f 237 428 240
f 413 416 428
f 416 429 428
f 240 429 430
f 415 418 416
f 418 431 416
f 429 416 431
f 423 431 418
f 432 430 429
f 433 432 429
f 429 431 433
f 434 433 431
f 435 432 433
f 436 427 426
f 437 425 427
f 427 436 437
f 426 212 225
f 424 212 426
f 240 438 238
f 238 438 253
f 438 240 430
f 438 255 253
f 438 439 255
f 438 430 439
f 440 430 432
f 439 430 440
f 440 441 439
f 442 441 440
f 432 435 440
f 435 442 440
f 441 442 443
f 224 444 225
f 225 445 426
f 426 445 436
f 275 255 446
f 279 275 446
f 255 439 446
f 439 441 446
f 446 441 447
f 279 446 447
f 447 448 279
f 448 449 279
f 450 447 441
f 450 448 447
f 451 449 448
f 452 453 450
f 448 450 453
f 451 448 453
f 444 224 454
f 444 455 225
f 445 225 455
f 257 454 242
f 454 224 242
f 278 277 456
f 278 456 305
f 456 457 305
f 303 305 306
f 305 457 306
f 456 458 457
f 277 459 456
f 459 277 279
f 456 459 458
f 459 279 449
f 459 460 458
f 461 458 460
f 462 459 449
f 460 459 462
f 451 462 449
f 463 462 451
f 257 464 454
f 454 464 444
f 304 465 298
f 304 466 465
f 306 466 304
f 465 467 298
f 306 457 468
f 306 468 466
f 457 458 461
f 468 457 461
f 466 468 469
f 468 470 469
f 471 461 460
f 471 472 461
f 471 460 462
f 461 472 468
f 470 468 472
f 473 472 471
f 471 462 473
f 444 464 474
f 474 464 475
f 476 474 475
f 477 257 281
f 257 477 464
f 464 477 475
f 281 286 477
f 298 467 478
f 478 307 298
f 478 479 307
f 478 480 479
f 478 467 480
f 466 469 465
f 465 481 467
f 469 481 465
f 469 482 481
f 477 483 475
f 484 485 475
f 475 483 484
f 477 286 486
f 477 486 483
f 286 307 487
f 487 486 286
f 480 467 488
f 481 489 467
f 467 489 488
f 481 490 489
f 489 491 488
f 490 491 489
f 491 492 488
f 490 481 482
f 491 493 492
f 494 484 483
f 494 483 495
f 483 486 495
f 479 487 307
f 479 496 487
f 479 480 497
f 488 497 480
f 492 497 488
f 327 498 499
f 499 332 327
f 332 333 331
f 498 327 330
f 498 500 501
f 499 498 501
f 501 332 499
f 500 498 330
f 334 333 502
f 501 503 332
f 332 503 333
f 503 502 333
f 504 500 330
f 502 505 334
f 504 330 111
f 506 502 503
f 507 505 502
f 501 500 508
f 508 509 501
f 501 509 503
f 509 506 503
f 506 507 502
f 510 511 507
f 507 511 505
f 500 512 508
f 512 500 504
f 507 506 510
f 510 513 511
f 508 512 514
f 514 515 508
f 508 515 509
f 509 515 506
f 515 510 506
f 514 512 516
f 516 515 514
f 516 512 504
f 515 517 510
f 517 518 510
f 518 513 510
f 329 334 519
f 329 519 340
f 340 519 342
f 520 342 519
f 519 334 505
f 505 521 519
f 521 520 519
f 511 521 505
f 511 522 521
f 520 521 522
f 523 520 522
f 520 523 524
f 513 525 511
f 511 525 522
f 525 526 522
f 522 526 523
f 527 523 526
f 525 528 526
f 528 529 526
f 526 529 527
f 530 341 342
f 342 520 524
f 524 530 342
f 524 531 530
f 524 532 531
f 531 532 533
f 524 523 532
f 532 523 527
f 534 532 527
f 532 534 533
f 530 348 341
f 348 531 354
f 531 348 530
f 531 533 535
f 535 354 531
f 534 536 533
f 536 535 533
f 536 537 535
f 355 354 538
f 539 356 355
f 540 355 538
f 540 539 355
f 540 541 539
f 535 538 354
f 535 542 538
f 542 540 538
f 541 540 542
f 537 542 535
f 543 541 542
f 537 543 542
f 539 365 356
f 539 544 365
f 544 364 365
f 368 364 544
f 545 544 546
f 545 368 544
f 547 368 545
f 546 539 541
f 546 544 539
f 548 547 545
f 541 549 546
f 549 550 546
f 550 545 546
f 548 545 550
f 549 541 543
f 551 552 549
f 551 549 543
f 552 550 549
f 550 552 548
f 552 553 548
f 553 554 548
f 366 368 555
f 368 547 555
f 556 111 179
f 553 557 554
f 373 366 558
f 373 558 559
f 371 373 560
f 560 372 371
f 366 555 558
f 373 559 560
f 559 561 560
f 562 560 561
f 563 558 555
f 559 558 563
f 564 562 561
f 563 555 547
f 565 559 563
f 559 565 561
f 548 554 547
f 547 554 563
f 563 554 566
f 566 565 563
f 565 564 561
f 567 565 566
f 567 564 565
f 557 566 554
f 568 564 567
f 560 562 372
f 562 564 569
f 381 556 179
f 405 393 395
f 394 570 396
f 562 394 372
f 562 570 394
f 571 396 570
f 396 571 395
f 571 572 395
f 405 395 572
f 569 570 562
f 570 569 573
f 571 570 573
f 573 572 571
f 573 574 572
f 564 568 569
f 573 569 575
f 573 575 574
f 576 381 382
f 576 382 397
f 577 381 576
f 577 576 397
f 578 577 397
f 579 577 578
f 580 381 577
f 581 397 409
f 397 581 578
f 578 582 579
f 581 582 578
f 583 405 572
f 574 583 572
f 574 575 584
f 585 574 584
f 584 586 585
f 403 401 421
f 405 421 401
f 421 587 588
f 588 422 421
f 405 583 587
f 587 421 405
f 583 589 587
f 588 587 589
f 589 590 588
f 583 574 585
f 589 583 585
f 585 586 589
f 586 590 589
f 410 591 409
f 591 581 409
f 592 581 591
f 581 592 593
f 591 410 594
f 594 592 591
f 595 420 419
f 420 595 596
f 596 423 420
f 422 597 598
f 419 422 598
f 598 595 419
f 422 588 597
f 597 599 598
f 595 598 599
f 599 600 595
f 600 596 595
f 423 596 434
f 590 597 588
f 601 596 600
f 434 596 601
f 597 602 599
f 602 603 599
f 603 600 599
f 586 602 590
f 602 597 590
f 603 601 600
f 602 604 603
f 425 605 410
f 594 410 605
f 594 605 606
f 607 592 594
f 607 594 606
f 606 608 607
f 607 609 592
f 601 603 610
f 434 431 423
f 434 611 433
f 611 612 433
f 601 611 434
f 610 613 601
f 613 611 601
f 613 614 611
f 610 615 613
f 437 436 616
f 605 425 437
f 606 605 437
f 616 606 437
f 617 616 436
f 618 616 617
f 608 606 616
f 618 608 616
f 608 618 619
f 433 612 435
f 443 442 620
f 612 620 435
f 620 442 435
f 620 612 621
f 621 443 620
f 611 614 612
f 614 621 612
f 621 622 443
f 621 614 623
f 623 624 621
f 615 623 614
f 614 613 615
f 625 623 615
f 623 625 624
f 626 436 445
f 436 626 617
f 455 627 445
f 626 445 627
f 617 626 628
f 443 629 441
f 629 450 441
f 450 629 452
f 629 443 622
f 622 452 629
f 453 452 630
f 621 624 622
f 622 630 452
f 622 624 631
f 631 632 622
f 632 630 622
f 624 633 631
f 455 634 635
f 455 444 634
f 627 455 635
f 626 627 636
f 636 627 635
f 628 626 636
f 453 463 451
f 637 638 463
f 630 637 453
f 463 453 637
f 639 638 637
f 639 637 630
f 638 640 641
f 630 632 639
f 632 642 639
f 642 638 639
f 642 643 638
f 643 640 638
f 644 645 646
f 647 646 645
f 647 645 648
f 646 635 634
f 646 634 644
f 647 635 646
f 636 635 647
f 463 649 462
f 462 649 473
f 650 473 649
f 641 463 638
f 641 649 463
f 641 650 649
f 651 650 641
f 651 652 650
f 640 651 641
f 653 640 643
f 653 651 640
f 653 654 651
f 654 652 651
f 655 644 634
f 644 655 656
f 656 657 644
f 656 658 657
f 645 644 659
f 644 657 659
f 476 655 474
f 474 634 444
f 634 474 655
f 482 469 660
f 661 470 472
f 469 470 660
f 470 661 662
f 660 470 662
f 473 661 472
f 473 663 661
f 663 473 650
f 664 661 663
f 664 662 661
f 652 663 650
f 665 662 664
f 666 663 652
f 666 664 663
f 667 665 664
f 667 664 666
f 668 665 667
f 669 670 671
f 672 670 673
f 670 669 673
f 672 674 675
f 673 674 672
f 676 677 674
f 673 676 674
f 656 655 485
f 678 679 485
f 679 656 485
f 678 675 679
f 677 656 679
f 675 674 679
f 656 677 658
f 679 674 677
f 476 475 485
f 485 484 678
f 476 485 655
f 482 660 680
f 482 680 490
f 491 490 681
f 493 491 681
f 490 680 681
f 680 682 681
f 683 681 682
f 684 683 682
f 685 660 662
f 685 680 660
f 680 685 682
f 686 662 665
f 685 662 686
f 665 687 686
f 688 682 685
f 689 686 687
f 689 685 686
f 688 685 689
f 682 688 684
f 668 687 665
f 668 690 687
f 689 687 690
f 689 690 691
f 688 689 691
f 688 691 692
f 692 684 688
f 693 694 695
f 696 694 693
f 697 698 699
f 694 697 699
f 699 700 694
f 700 701 694
f 701 695 694
f 694 696 697
f 700 702 703
f 701 700 703
f 702 699 698
f 702 700 699
f 670 672 703
f 670 703 704
f 704 702 698
f 704 698 705
f 703 702 704
f 671 704 705
f 670 704 671
f 671 705 698
f 671 698 706
f 697 706 698
f 695 701 707
f 494 707 701
f 701 675 494
f 701 672 675
f 678 494 675
f 672 701 703
f 494 678 484
f 707 494 495
f 493 708 492
f 492 708 709
f 710 708 711
f 493 681 712
f 493 712 708
f 712 681 683
f 712 711 708
f 712 683 713
f 713 711 712
f 683 714 713
f 711 713 715
f 711 715 716
f 683 684 714
f 715 713 714
f 714 684 717
f 718 719 720
f 695 707 693
f 721 696 693
f 707 719 693
f 693 718 721
f 719 718 693
f 697 696 721
f 706 697 721
f 707 722 719
f 720 719 722
f 723 722 707
f 495 723 707
f 486 723 495
f 723 486 724
f 725 726 724
f 724 726 723
f 727 724 487
f 486 487 724
f 727 487 496
f 496 728 727
f 727 725 724
f 727 728 729
f 730 728 731
f 479 497 732
f 479 732 496
f 496 731 728
f 497 733 732
f 732 731 496
f 732 734 731
f 732 733 734
f 733 735 734
f 735 733 736
f 734 737 731
f 735 737 734
f 738 735 736
f 738 739 735
f 497 492 709
f 709 733 497
f 736 733 709
f 709 708 736
f 736 708 710
f 711 716 710
f 736 710 738
f 716 740 710
f 738 741 739
f 738 740 741
f 738 710 740
f 742 721 718
f 720 742 718
f 743 742 720
f 720 722 744
f 722 745 744
f 744 743 720
f 746 743 744
f 743 746 747
f 706 721 742
f 706 742 743
f 747 706 743
f 745 722 748
f 722 723 748
f 748 749 750
f 725 751 726
f 726 748 723
f 751 748 726
f 748 751 749
f 752 749 751
f 729 753 727
f 753 751 725
f 753 725 727
f 730 729 728
f 729 754 753
f 729 755 754
f 729 730 755
f 753 752 751
f 756 754 755
f 753 754 752
f 730 757 755
f 758 749 752
f 754 758 752
f 754 756 758
f 755 759 756
f 755 757 759
f 756 759 760
f 756 760 758
f 761 759 757
f 762 763 758
f 761 764 759
f 731 757 730
f 757 731 737
f 737 735 739
f 737 739 761
f 757 737 761
f 739 741 761
f 761 765 764
f 746 744 766
f 766 744 745
f 766 747 746
f 745 750 766
f 747 766 767
f 766 768 767
f 766 750 768
f 767 768 769
f 770 769 768
f 747 767 771
f 767 769 772
f 767 772 773
f 773 771 767
f 745 748 750
f 750 770 768
f 774 770 750
f 770 775 769
f 770 774 775
f 774 776 775
f 750 749 774
f 749 777 774
f 778 779 777
f 779 780 777
f 777 776 774
f 758 763 749
f 763 777 749
f 762 781 763
f 781 778 763
f 781 762 782
f 763 778 777
f 762 758 760
f 760 759 764
f 783 760 764
f 762 760 783
f 783 764 784
f 782 762 783
f 783 784 782
f 772 769 785
f 785 769 775
f 786 773 785
f 785 773 772
f 776 787 775
f 787 776 788
f 776 777 780
f 517 515 516
f 513 518 789
f 504 790 791
f 504 791 516
f 516 792 517
f 792 793 517
f 793 794 518
f 793 518 517
f 789 518 794
f 504 111 790
f 790 111 795
f 791 792 516
f 790 792 791
f 790 796 792
f 792 797 793
f 796 790 795
f 794 798 789
f 796 799 792
f 799 797 792
f 797 800 793
f 800 794 793
f 800 801 794
f 794 801 798
f 802 795 803
f 795 799 796
f 795 804 799
f 804 795 802
f 801 805 798
f 804 806 807
f 804 807 799
f 799 807 797
f 807 808 797
f 809 800 808
f 808 800 797
f 801 800 809
f 810 801 809
f 804 802 806
f 810 805 801
f 811 807 806
f 808 807 811
f 811 806 802
f 811 802 812
f 813 810 809
f 812 802 803
f 814 808 811
f 809 808 814
f 811 812 815
f 815 812 803
f 816 814 811
f 814 817 809
f 817 818 813
f 817 813 809
f 815 803 819
f 789 528 513
f 513 528 525
f 789 820 528
f 789 798 820
f 820 821 528
f 528 821 529
f 821 822 529
f 798 823 820
f 820 823 821
f 823 824 821
f 805 823 798
f 805 824 823
f 824 825 821
f 825 822 821
f 826 805 810
f 827 824 826
f 826 824 805
f 827 825 824
f 813 828 826
f 813 826 810
f 828 827 826
f 818 829 828
f 818 828 813
f 529 534 527
f 803 795 111
f 830 111 831
f 832 803 111
f 832 111 830
f 819 803 832
f 825 833 822
f 834 822 833
f 833 835 834
f 827 836 825
f 825 836 833
f 836 837 833
f 837 835 833
f 837 838 835
f 828 839 827
f 836 827 839
f 839 840 836
f 841 840 839
f 837 836 840
f 840 842 837
f 842 838 837
f 829 839 828
f 829 841 839
f 841 842 840
f 843 842 841
f 844 842 843
f 838 842 844
f 534 529 845
f 845 536 534
f 846 536 845
f 846 537 536
f 529 834 845
f 847 846 845
f 847 845 834
f 822 834 529
f 847 848 846
f 846 848 537
f 835 847 834
f 835 849 847
f 849 848 847
f 849 835 838
f 838 850 849
f 848 849 850
f 850 851 848
f 844 850 838
f 844 852 850
f 852 851 850
f 537 853 543
f 848 853 537
f 848 851 853
f 844 854 852
f 853 551 543
f 851 852 855
f 854 855 852
f 856 552 551
f 856 857 552
f 857 553 552
f 853 851 551
f 851 856 551
f 851 855 856
f 855 857 856
f 855 858 857
f 855 859 858
f 831 111 556
f 858 860 557
f 858 557 857
f 858 859 861
f 861 859 862
f 863 861 862
f 855 854 859
f 854 862 859
f 864 862 854
f 863 862 865
f 860 566 557
f 860 567 566
f 568 567 860
f 553 857 557
f 866 568 860
f 866 867 568
f 868 866 860
f 858 868 860
f 869 870 866
f 866 870 867
f 858 861 868
f 868 861 869
f 869 861 863
f 868 869 866
f 580 871 872
f 580 872 381
f 873 556 381
f 872 874 873
f 872 873 381
f 875 874 871
f 871 874 872
f 876 875 871
f 556 873 877
f 878 877 874
f 874 877 873
f 878 874 875
f 878 876 879
f 876 878 875
f 870 880 867
f 880 881 867
f 882 869 863
f 870 869 882
f 870 882 880
f 882 883 880
f 884 882 863
f 883 882 884
f 880 883 885
f 568 886 569
f 568 867 886
f 569 886 575
f 867 881 886
f 881 887 886
f 886 887 575
f 880 885 881
f 577 579 580
f 888 889 579
f 871 580 889
f 889 580 579
f 876 871 889
f 876 889 888
f 888 579 582
f 581 593 582
f 888 582 593
f 890 888 593
f 876 888 891
f 888 890 891
f 891 892 876
f 892 891 893
f 890 893 891
f 893 894 895
f 893 895 892
f 895 894 896
f 575 887 584
f 887 897 584
f 897 898 584
f 899 897 887
f 899 900 897
f 897 900 898
f 898 900 901
f 885 887 881
f 887 885 899
f 899 902 900
f 903 885 904
f 885 903 899
f 903 902 899
f 584 898 586
f 586 898 901
f 593 592 890
f 592 905 890
f 890 905 893
f 893 905 894
f 894 905 906
f 907 906 905
f 894 906 908
f 900 909 901
f 910 911 902
f 602 586 604
f 586 901 604
f 604 901 912
f 902 909 900
f 909 913 901
f 902 911 909
f 911 914 909
f 909 914 913
f 609 607 915
f 608 915 607
f 609 905 592
f 916 609 915
f 907 905 609
f 907 609 916
f 916 917 918
f 603 604 610
f 610 604 912
f 610 912 919
f 912 920 919
f 901 913 912
f 913 920 912
f 913 921 920
f 922 913 914
f 913 922 921
f 619 915 608
f 619 916 915
f 619 618 923
f 916 619 917
f 619 924 917
f 925 917 924
f 625 633 624
f 610 919 615
f 625 926 927
f 625 927 633
f 615 919 926
f 615 926 625
f 919 920 926
f 926 928 927
f 926 920 928
f 928 929 927
f 930 929 928
f 920 921 928
f 930 928 921
f 921 931 930
f 618 617 923
f 923 617 628
f 923 628 924
f 924 628 932
f 619 923 924
f 933 924 934
f 934 924 932
f 925 924 933
f 935 632 631
f 927 936 633
f 936 631 633
f 631 936 935
f 936 927 929
f 937 935 936
f 929 937 936
f 929 938 937
f 929 930 938
f 939 628 636
f 939 636 648
f 932 628 939
f 932 939 940
f 940 939 648
f 934 932 941
f 941 932 940
f 934 941 942
f 941 940 943
f 943 940 944
f 942 933 934
f 943 942 941
f 935 945 632
f 945 642 632
f 945 643 642
f 946 643 945
f 945 935 946
f 935 937 946
f 937 938 947
f 946 947 948
f 949 946 948
f 947 946 937
f 636 647 648
f 648 645 950
f 950 951 940
f 648 950 940
f 951 950 952
f 944 940 951
f 953 951 952
f 954 951 953
f 944 951 954
f 654 955 652
f 956 654 653
f 956 955 654
f 946 957 643
f 957 653 643
f 957 956 653
f 956 958 955
f 949 957 946
f 949 956 957
f 949 959 956
f 959 958 956
f 960 949 948
f 959 949 960
f 961 962 963
f 961 963 964
f 965 961 964
f 950 645 659
f 657 658 966
f 966 658 962
f 658 677 962
f 966 659 657
f 967 966 962
f 950 659 952
f 966 967 952
f 659 966 952
f 952 967 953
f 961 967 962
f 953 967 968
f 968 967 961
f 968 961 965
f 969 953 968
f 652 970 666
f 970 667 666
f 971 668 667
f 955 970 652
f 970 971 667
f 958 972 955
f 972 970 955
f 973 971 970
f 973 974 971
f 972 973 970
f 959 975 958
f 975 972 958
f 972 976 973
f 976 977 973
f 977 974 973
f 975 978 972
f 978 976 972
f 959 979 975
f 979 980 975
f 980 981 978
f 980 978 975
f 981 976 978
f 979 959 960
f 981 982 976
f 982 977 976
f 669 983 984
f 669 985 983
f 706 669 671
f 985 669 706
f 983 986 987
f 987 988 983
f 986 983 985
f 986 985 989
f 989 985 706
f 986 990 991
f 987 986 991
f 990 986 989
f 987 991 988
f 991 992 988
f 991 990 993
f 993 990 989
f 993 992 991
f 676 673 994
f 673 984 994
f 984 673 669
f 962 677 995
f 963 962 995
f 995 677 676
f 995 676 996
f 996 994 997
f 676 994 996
f 984 983 997
f 994 984 997
f 996 997 998
f 963 995 998
f 995 996 998
f 997 988 998
f 997 983 988
f 988 964 998
f 964 963 998
f 964 988 992
f 971 999 668
f 999 690 668
f 974 999 971
f 690 999 1000
f 691 1000 692
f 1000 691 690
f 1001 1000 999
f 1000 1002 692
f 692 1002 1003
f 977 1001 974
f 1001 999 974
f 1004 1000 1001
f 1002 1000 1004
f 977 1005 1001
f 1005 1006 1001
f 1006 1004 1001
f 1006 1007 1004
f 1007 1002 1004
f 1007 1008 1002
f 1009 1006 1005
f 1006 1009 1010
f 1010 1007 1006
f 1010 1008 1007
f 1011 977 982
f 1011 1005 977
f 1011 1009 1005
f 1010 1012 1008
f 714 717 1013
f 714 1013 715
f 684 1014 717
f 1015 717 1014
f 717 1015 1016
f 1013 1016 1017
f 1013 717 1016
f 1013 1017 1018
f 1019 1016 1015
f 1020 1019 1015
f 1016 1021 1017
f 1021 1016 1019
f 1022 1019 1020
f 1022 1023 1019
f 1021 1019 1023
f 1014 684 692
f 1003 1014 692
f 1003 1015 1014
f 1003 1008 1020
f 1008 1003 1002
f 1020 1015 1003
f 1020 1008 1022
f 740 1024 741
f 1025 740 716
f 1018 1025 716
f 740 1025 1024
f 1025 1026 1024
f 1024 1026 1027
f 1027 1026 1028
f 716 715 1018
f 1013 1018 715
f 1018 1029 1025
f 1017 1029 1018
f 1029 1026 1025
f 1029 1030 1026
f 1029 1017 1030
f 1021 1030 1017
f 706 747 771
f 1031 761 741
f 1032 1031 741
f 761 1031 765
f 765 1031 1033
f 1031 1032 1033
f 1032 1034 1033
f 765 1033 1035
f 1033 1034 1036
f 1033 1037 1035
f 1037 1033 1036
f 741 1024 1032
f 1027 1032 1024
f 1032 1027 1034
f 1034 1027 1028
f 1034 1028 1036
f 1028 1026 1038
f 1028 1038 1039
f 1028 1039 1036
f 781 1040 1041
f 781 782 1040
f 778 781 1041
f 778 1041 1042
f 1040 1043 1044
f 1040 782 1043
f 1040 1044 1041
f 1042 1041 1045
f 1041 1044 1045
f 1045 1046 1047
f 1045 1044 1046
f 1046 1044 1048
f 1048 1044 1049
f 1050 1046 1048
f 764 765 784
f 765 1035 1051
f 765 1051 784
f 782 784 1043
f 1043 784 1051
f 1051 1052 1043
f 1044 1043 1052
f 1051 1035 1052
f 1052 1049 1044
f 1035 1053 1052
f 1049 1052 1053
f 1035 1037 1054
f 1055 785 775
f 786 785 1056
f 785 1055 1056
f 773 786 1057
f 1056 1058 786
f 786 1058 1057
f 1058 1056 1059
f 1059 1056 1060
f 1058 1059 1057
f 771 773 1057
f 1057 1059 1061
f 1061 1059 1062
f 775 787 1055
f 1056 1055 1060
f 1060 1055 1063
f 1055 787 1063
f 788 1063 787
f 1063 788 1064
f 788 1065 1064
f 1059 1060 1062
f 1060 1063 1062
f 1065 1066 1064
f 1062 1063 1064
f 1062 1064 1067
f 1061 1062 1067
f 1064 1066 1068
f 1064 1068 1067
f 1068 1066 1069
f 1061 1067 1070
f 1070 1067 1071
f 1071 1067 1068
f 776 780 788
f 780 1065 788
f 1065 780 779
f 779 778 1042
f 1065 779 1072
f 779 1042 1072
f 1065 1072 1073
f 1066 1065 1073
f 1072 1047 1074
f 1072 1074 1073
f 1075 1074 1047
f 1066 1073 1076
f 1076 1073 1074
f 1047 1077 1075
f 1076 1074 1075
f 1069 1066 1076
f 1072 1042 1047
f 1045 1047 1042
f 1047 1046 1077
f 1050 1077 1046
f 811 815 816
f 1078 814 816
f 1079 814 1078
f 817 814 1079
f 816 815 819
f 1080 1078 816
f 1079 1081 817
f 1081 818 817
f 816 819 1080
f 1082 1081 1079
f 1081 1083 818
f 1082 1083 1081
f 1080 819 1084
f 1084 819 832
f 1080 1085 1078
f 1078 1086 1079
f 1085 1086 1078
f 1086 1082 1079
f 1087 1083 1082
f 1086 1088 1082
f 1087 1082 1088
f 1089 832 830
f 1080 1090 1085
f 1085 1091 1086
f 1090 1091 1085
f 1091 1088 1086
f 1084 832 1089
f 1080 1084 1092
f 1090 1080 1092
f 1093 1091 1090
f 1092 1084 1089
f 1092 1094 1090
f 1090 1094 1093
f 1088 1091 1093
f 1092 1089 1095
f 1093 1087 1088
f 1095 1089 830
f 1093 1096 1087
f 1097 1094 1092
f 1095 1097 1092
f 1096 1093 1094
f 1097 1095 830
f 1097 830 1098
f 1099 1100 1094
f 1100 1096 1094
f 1098 830 1101
f 1100 1102 1096
f 1102 1103 1096
f 1103 1087 1096
f 1097 1099 1094
f 1098 1099 1097
f 1101 1099 1098
f 1099 1101 1104
f 1100 1099 1104
f 1100 1105 1102
f 1083 829 818
f 1106 841 829
f 1106 829 1083
f 1107 844 843
f 1106 1083 1087
f 843 841 1106
f 843 1106 1087
f 1107 843 1103
f 1103 843 1087
f 1107 1103 864
f 1102 864 1103
f 1108 1109 831
f 1101 830 831
f 1104 1101 1110
f 1110 1101 831
f 1110 831 1109
f 1100 1104 1105
f 1111 1102 1105
f 1112 1104 1110
f 1109 1112 1110
f 1104 1112 1105
f 1105 1112 1111
f 1113 1112 1109
f 1112 1113 1111
f 1111 1113 1114
f 1115 1113 1109
f 1113 1115 1114
f 1108 1115 1109
f 1114 1115 1116
f 1102 1117 864
f 1102 1111 1118
f 1117 1102 1118
f 1118 1111 1114
f 1107 854 844
f 1107 864 854
f 831 556 1119
f 1108 831 1120
f 1120 831 1119
f 1120 1119 1121
f 1121 1122 1120
f 1123 1124 1122
f 1122 1124 1125
f 1125 1124 1126
f 1127 1108 1120
f 1122 1127 1120
f 1127 1122 1125
f 1127 1115 1108
f 1115 1127 1116
f 1116 1127 1126
f 1116 1126 1114
f 1125 1126 1127
f 1128 1118 1126
f 1126 1124 1129
f 1126 1129 1128
f 1118 1114 1126
f 1118 1128 1130
f 1131 865 864
f 1131 864 1117
f 862 864 865
f 892 879 876
f 1132 1133 1134
f 1132 1134 556
f 556 1134 1119
f 1132 556 877
f 1132 877 878
f 1132 878 879
f 1133 1122 1121
f 1133 1121 1134
f 1134 1121 1119
f 1133 1123 1122
f 1133 1132 879
f 1133 879 1123
f 1123 879 1135
f 1123 1135 1124
f 879 892 1136
f 879 1136 1135
f 1137 1136 895
f 1124 1135 1129
f 1129 1135 1137
f 1135 1136 1137
f 1129 1138 1130
f 1129 1137 1138
f 1138 1139 1130
f 1128 1129 1130
f 1140 1130 1139
f 1141 1117 1140
f 1118 1130 1140
f 1118 1140 1117
f 884 865 1142
f 884 863 865
f 1131 1142 865
f 1142 1131 1143
f 1131 1117 1141
f 884 1142 883
f 883 1142 1144
f 892 895 1136
f 896 894 908
f 895 896 1137
f 1138 1137 896
f 1139 1138 1145
f 1138 896 1145
f 1146 1139 1145
f 1141 1143 1131
f 1147 1143 1141
f 1141 1148 1147
f 1140 1139 1149
f 1140 1148 1141
f 904 883 1144
f 885 883 904
f 1144 1150 904
f 1142 1143 1151
f 1144 1142 1151
f 1144 1151 1150
f 1151 1143 1147
f 902 903 910
f 904 1150 903
f 908 906 1152
f 896 908 1145
f 1145 908 1152
f 1146 1152 1153
f 1145 1152 1146
f 1139 1146 1149
f 1140 1149 1148
f 1149 1154 1148
f 1153 1149 1146
f 910 903 1150
f 1155 910 1150
f 1155 1150 1151
f 1151 1147 1155
f 918 906 907
f 918 907 916
f 1152 906 918
f 1152 918 1156
f 1153 1152 1156
f 1157 1156 918
f 1156 1157 1158
f 1153 1159 1149
f 1156 1159 1153
f 1149 1159 1154
f 1154 1159 1160
f 1161 1159 1156
f 1159 1161 1160
f 1148 1162 1147
f 1148 1154 1162
f 1154 1163 1162
f 1154 1160 1163
f 1164 911 910
f 910 1155 1164
f 1165 1155 1147
f 1164 1155 1165
f 914 911 1166
f 1166 922 914
f 1157 925 1167
f 1157 918 917
f 925 1157 917
f 1158 1157 1167
f 1158 1167 1168
f 1156 1158 1161
f 1160 1161 1169
f 1161 1158 1169
f 1160 1169 1163
f 1162 1165 1147
f 1162 1163 1170
f 1165 1162 1170
f 931 921 922
f 1166 1171 922
f 922 1171 931
f 1166 911 1164
f 1172 1166 1164
f 1166 1172 1171
f 925 933 1173
f 942 1173 933
f 925 1173 1167
f 1167 1173 1174
f 1174 1168 1167
f 1158 1168 1169
f 1169 1168 1175
f 1164 1165 1176
f 931 1171 1177
f 1176 1172 1164
f 930 931 938
f 1178 942 943
f 942 1179 1174
f 942 1174 1173
f 942 1178 1179
f 1174 1179 1168
f 1179 1180 1168
f 1175 1168 1180
f 1177 1181 1182
f 1183 1181 1177
f 1183 1177 1171
f 1184 1183 1172
f 1184 1181 1183
f 931 1185 938
f 947 938 1185
f 1185 1186 947
f 1186 948 947
f 1182 1185 931
f 1186 1185 1182
f 931 1177 1182
f 1187 944 954
f 1188 1187 954
f 954 969 1188
f 1187 1189 1190
f 1188 1189 1187
f 1190 1178 943
f 944 1190 943
f 944 1187 1190
f 1189 1178 1190
f 1189 1191 1178
f 1192 1193 1181
f 1194 960 948
f 948 1186 1194
f 1195 960 1194
f 1196 1194 1186
f 1182 1196 1186
f 1193 1182 1181
f 1196 1182 1193
f 1197 965 964
f 1197 1198 965
f 992 1197 964
f 1197 1199 1198
f 1200 1199 1197
f 969 968 1201
f 968 965 1201
f 954 953 969
f 965 1198 1201
f 1201 1198 1199
f 969 1201 1188
f 1202 1188 1201
f 1201 1199 1202
f 1202 1199 1203
f 1202 1203 1204
f 1202 1204 1188
f 1205 1203 1199
f 1195 979 960
f 979 1206 980
f 1206 981 980
f 1206 982 981
f 1195 1206 979
f 1206 1207 1208
f 1206 1208 982
f 1208 1209 982
f 1194 1210 1195
f 1210 1211 1195
f 1211 1206 1195
f 1211 1207 1206
f 1207 1212 1208
f 1210 1194 1196
f 1207 1213 1212
f 1210 1214 1211
f 1214 1207 1211
f 1214 1213 1207
f 1215 1210 1196
f 1210 1215 1214
f 1196 1193 1216
f 1215 1196 1216
f 1215 1217 1214
f 1217 1218 1213
f 1214 1217 1213
f 1213 1218 1219
f 1220 1217 1215
f 1220 1221 1217
f 1221 1218 1217
f 992 993 1222
f 1222 1223 992
f 1223 1222 1224
f 1225 1222 993
f 1224 1200 1223
f 1200 1197 1223
f 1225 1224 1222
f 1224 1226 1200
f 1225 1226 1224
f 1223 1197 992
f 1227 1228 1229
f 1230 1231 1232
f 1209 1233 1011
f 1209 1011 982
f 1233 1009 1011
f 1234 1009 1233
f 1009 1234 1010
f 1010 1234 1012
f 1212 1235 1209
f 1212 1209 1208
f 1209 1235 1233
f 1235 1236 1233
f 1228 1234 1236
f 1236 1234 1233
f 1219 1235 1212
f 1219 1229 1235
f 1229 1236 1235
f 1229 1228 1236
f 1237 1234 1228
f 1219 1212 1213
f 1228 1238 1237
f 1219 1239 1229
f 1240 1229 1239
f 1218 1239 1219
f 1230 1240 1239
f 1227 1229 1240
f 1221 1231 1218
f 1231 1239 1218
f 1239 1231 1230
f 1230 1241 1240
f 1241 1227 1240
f 1021 1023 1242
f 1022 1243 1244
f 1022 1244 1023
f 1245 1243 1246
f 1243 1245 1244
f 1023 1247 1242
f 1244 1247 1023
f 1245 1247 1244
f 1247 1248 1242
f 1246 1249 1245
f 1238 1249 1246
f 1245 1250 1247
f 1251 1249 1238
f 1249 1250 1245
f 1250 1248 1247
f 1227 1238 1228
f 1227 1251 1238
f 1252 1250 1249
f 1250 1253 1248
f 1252 1253 1250
f 1254 1251 1227
f 1252 1249 1251
f 1022 1012 1243
f 1008 1012 1022
f 1012 1237 1243
f 1234 1237 1012
f 1237 1246 1243
f 1238 1246 1237
f 1026 1030 1255
f 1026 1255 1038
f 1256 1038 1255
f 1257 1256 1255
f 1258 1256 1257
f 1257 1259 1258
f 1259 1260 1258
f 1258 1260 1261
f 1258 1261 1262
f 1262 1261 1263
f 1242 1030 1021
f 1030 1264 1255
f 1242 1264 1030
f 1257 1255 1264
f 1242 1248 1265
f 1264 1265 1259
f 1265 1264 1242
f 1259 1257 1264
f 1265 1266 1259
f 1259 1266 1260
f 1248 1266 1265
f 1253 1266 1248
f 1253 1267 1266
f 1267 1260 1266
f 1039 1268 1036
f 1036 1268 1037
f 1268 1269 1037
f 1037 1269 1054
f 1270 1268 1039
f 1269 1268 1271
f 1270 1271 1268
f 1272 1269 1271
f 1271 1270 1273
f 1274 1272 1271
f 1275 1038 1256
f 1258 1275 1256
f 1275 1039 1038
f 1258 1262 1275
f 1275 1270 1039
f 1273 1270 1275
f 1273 1275 1262
f 1276 771 1057
f 1276 1057 1277
f 1048 1278 1050
f 1050 1278 1279
f 1278 1280 1279
f 1281 1280 1282
f 1283 1280 1281
f 1053 1054 1284
f 1035 1054 1053
f 1049 1053 1285
f 1054 1286 1284
f 1049 1278 1048
f 1049 1285 1278
f 1285 1053 1284
f 1280 1278 1285
f 1287 1285 1284
f 1287 1280 1285
f 1287 1284 1286
f 1282 1280 1287
f 1288 1287 1286
f 1287 1288 1282
f 1282 1289 1281
f 1288 1286 1272
f 1054 1269 1286
f 1272 1286 1269
f 1061 1070 1290
f 1057 1061 1291
f 1291 1061 1290
f 1277 1057 1291
f 1277 1291 1292
f 1291 1290 1292
f 1068 1069 1071
f 1070 1071 1290
f 1293 1071 1294
f 1071 1069 1294
f 1290 1071 1293
f 1293 1294 1295
f 1290 1293 1292
f 1295 1294 1296
f 1293 1295 1297
f 1297 1292 1293
f 1076 1075 1298
f 1298 1075 1299
f 1069 1076 1300
f 1076 1298 1300
f 1301 1298 1299
f 1069 1300 1302
f 1302 1300 1303
f 1303 1300 1298
f 1069 1302 1294
f 1303 1298 1301
f 1302 1303 1296
f 1294 1302 1296
f 1304 1305 1301
f 1296 1303 1306
f 1303 1301 1306
f 1306 1301 1305
f 1077 1050 1307
f 1075 1307 1299
f 1077 1307 1075
f 1307 1050 1279
f 1308 1307 1279
f 1304 1301 1299
f 1307 1304 1299
f 1283 1308 1279
f 1283 1279 1280
f 1308 1304 1307
f 1305 1304 1308
f 1281 1309 1283
f 1309 1308 1283
f 1309 1305 1308
f 1163 1169 1310
f 1169 1175 1310
f 1163 1310 1170
f 1176 1165 1170
f 1175 1180 1311
f 1175 1311 1310
f 1312 1170 1310
f 1170 1313 1176
f 1312 1313 1170
f 1176 1313 1314
f 1171 1172 1183
f 1172 1176 1314
f 1172 1314 1184
f 1191 1179 1178
f 1179 1191 1180
f 1191 1315 1180
f 1191 1316 1315
f 1189 1316 1191
f 1189 1317 1316
f 1316 1318 1315
f 1319 1315 1318
f 1180 1315 1311
f 1311 1315 1319
f 1320 1310 1311
f 1320 1311 1321
f 1321 1311 1319
f 1310 1322 1312
f 1314 1313 1323
f 1314 1323 1324
f 1313 1325 1323
f 1323 1326 1324
f 1313 1312 1327
f 1325 1313 1327
f 1192 1216 1193
f 1192 1184 1324
f 1184 1192 1181
f 1216 1192 1328
f 1184 1314 1324
f 1328 1192 1324
f 1188 1204 1317
f 1203 1329 1204
f 1204 1330 1317
f 1204 1331 1330
f 1204 1329 1331
f 1331 1332 1330
f 1189 1188 1317
f 1316 1317 1330
f 1330 1333 1316
f 1333 1319 1318
f 1330 1332 1333
f 1326 1323 1334
f 1335 1326 1334
f 1336 1326 1335
f 1220 1216 1337
f 1215 1216 1220
f 1338 1221 1220
f 1216 1328 1337
f 1338 1337 1339
f 1220 1337 1338
f 1326 1340 1328
f 1328 1340 1337
f 1337 1340 1339
f 1328 1324 1326
f 1340 1341 1339
f 1336 1340 1326
f 1341 1340 1336
f 1341 1336 1342
f 993 989 1343
f 1343 1225 993
f 1226 1225 1343
f 1343 1344 1226
f 1226 1344 1205
f 1343 1345 1344
f 1200 1205 1199
f 1226 1205 1200
f 1203 1205 1346
f 1344 1346 1205
f 1344 1347 1346
f 1346 1329 1203
f 1346 1348 1329
f 1349 1331 1329
f 1348 1349 1329
f 1350 1351 1352
f 1353 1350 1352
f 1354 1241 1230
f 1241 1254 1227
f 1232 1354 1230
f 1354 1355 1241
f 1355 1356 1254
f 1241 1355 1254
f 1338 1339 1232
f 1221 1338 1232
f 1356 1355 1357
f 1339 1358 1232
f 1232 1358 1354
f 1358 1357 1354
f 1357 1355 1354
f 1358 1359 1357
f 1359 1356 1357
f 1341 1342 1358
f 1339 1341 1358
f 1358 1342 1359
f 1360 1356 1361
f 1359 1342 1350
f 1361 1359 1350
f 1359 1361 1356
f 1342 1351 1350
f 1350 1353 1361
f 1221 1232 1231
f 1362 1363 1364
f 1365 1360 1366
f 1365 1363 1362
f 1366 1361 1353
f 1367 1363 1365
f 1368 1251 1254
f 1368 1252 1251
f 1368 1369 1252
f 1369 1253 1252
f 1356 1368 1254
f 1369 1267 1253
f 1364 1267 1369
f 1362 1369 1368
f 1362 1364 1369
f 1356 1360 1368
f 1360 1362 1368
f 1361 1366 1360
f 1360 1365 1362
f 771 989 706
f 1260 1267 1370
f 1371 1261 1260
f 1371 1263 1261
f 1370 1371 1260
f 1372 1371 1373
f 1373 1371 1370
f 1372 1263 1371
f 1374 1373 1370
f 1372 1375 1263
f 1364 1363 1374
f 1363 1376 1374
f 1374 1376 1373
f 1376 1372 1373
f 1377 1375 1372
f 1363 1378 1376
f 1376 1379 1372
f 1379 1377 1372
f 1378 1363 1367
f 1379 1376 1378
f 1379 1380 1377
f 1364 1374 1267
f 1374 1370 1267
f 1381 989 771
f 1273 1382 1271
f 1382 1274 1271
f 1273 1383 1382
f 1274 1382 1384
f 1383 1385 1386
f 1383 1386 1382
f 1386 1384 1382
f 1386 1385 1387
f 1388 1387 1385
f 1386 1389 1384
f 1386 1387 1390
f 1390 1389 1386
f 1390 1391 1389
f 1263 1392 1262
f 1262 1392 1273
f 1392 1383 1273
f 1375 1392 1263
f 1385 1383 1392
f 1392 1375 1385
f 1388 1385 1375
f 1377 1388 1375
f 1381 771 1276
f 1393 1309 1281
f 1289 1393 1281
f 1289 1394 1393
f 1393 1395 1396
f 1394 1395 1393
f 1289 1282 1288
f 1397 1288 1272
f 1397 1398 1288
f 1289 1288 1398
f 1399 1397 1389
f 1399 1398 1397
f 1398 1399 1400
f 1394 1289 1398
f 1399 1401 1400
f 1401 1399 1389
f 1391 1401 1389
f 1394 1398 1400
f 1274 1397 1272
f 1274 1384 1397
f 1384 1389 1397
f 1277 1292 1402
f 1403 1404 1277
f 1403 1277 1402
f 1403 1402 1405
f 1404 1276 1277
f 1403 1406 1404
f 1406 1403 1405
f 1407 1276 1404
f 1407 1404 1406
f 1295 1296 1408
f 1402 1292 1297
f 1409 1297 1295
f 1402 1297 1409
f 1409 1295 1410
f 1405 1402 1409
f 1410 1405 1409
f 1410 1411 1405
f 1405 1412 1406
f 1405 1411 1412
f 1413 1306 1305
f 1408 1296 1306
f 1408 1306 1413
f 1410 1295 1408
f 1414 1410 1408
f 1415 1408 1413
f 1415 1414 1408
f 1415 1413 1396
f 1396 1416 1415
f 1414 1415 1417
f 1413 1305 1309
f 1396 1413 1309
f 1393 1396 1309
f 1310 1320 1418
f 1327 1312 1322
f 1310 1418 1322
f 1419 1327 1322
f 1322 1418 1419
f 1327 1419 1420
f 1318 1316 1333
f 1332 1319 1333
f 1319 1332 1321
f 1418 1320 1421
f 1422 1418 1421
f 1320 1321 1421
f 1423 1424 1422
f 1419 1424 1425
f 1419 1418 1424
f 1419 1425 1420
f 1420 1425 1426
f 1427 1420 1426
f 1428 1426 1425
f 1429 1426 1428
f 1428 1425 1424
f 1422 1424 1418
f 1428 1424 1423
f 1420 1427 1327
f 1334 1325 1430
f 1334 1323 1325
f 1431 1335 1432
f 1336 1335 1431
f 1325 1327 1427
f 1430 1325 1427
f 1334 1430 1432
f 1335 1334 1432
f 1427 1426 1433
f 1430 1427 1433
f 1426 1429 1433
f 1430 1433 1432
f 1344 1345 1347
f 1347 1345 1434
f 1346 1347 1348
f 1348 1347 1435
f 1435 1347 1434
f 1349 1436 1331
f 1331 1436 1332
f 1348 1437 1349
f 1435 1437 1348
f 1436 1349 1437
f 1437 1438 1436
f 1439 1437 1435
f 1440 1437 1439
f 1438 1437 1440
f 1441 1440 1439
f 1332 1436 1438
f 1321 1332 1438
f 1321 1442 1421
f 1321 1438 1442
f 1442 1438 1440
f 1421 1442 1443
f 1422 1421 1444
f 1422 1444 1423
f 1423 1444 1445
f 1428 1423 1445
f 1421 1443 1444
f 1443 1445 1444
f 1428 1445 1446
f 1445 1447 1446
f 1448 1429 1449
f 1448 1449 1450
f 1449 1451 1450
f 1428 1452 1429
f 1428 1446 1452
f 1429 1452 1449
f 1449 1452 1451
f 1451 1452 1453
f 1453 1452 1446
f 1451 1453 1454
f 1446 1447 1455
f 1446 1455 1453
f 1431 1351 1336
f 1336 1351 1342
f 1431 1432 1456
f 1431 1457 1351
f 1351 1457 1352
f 1457 1458 1352
f 1433 1448 1432
f 1432 1448 1456
f 1431 1456 1457
f 1456 1458 1457
f 1458 1459 1352
f 1433 1429 1448
f 1448 1450 1456
f 1456 1450 1460
f 1456 1460 1458
f 1450 1451 1460
f 1458 1460 1459
f 1451 1454 1460
f 1461 1345 1343
f 1345 1461 1434
f 1461 1462 1434
f 1462 1439 1434
f 1461 1343 1463
f 1463 1343 989
f 1434 1439 1435
f 1464 1465 1466
f 1467 1454 1453
f 1454 1467 1465
f 1466 1467 1468
f 1467 1466 1465
f 1453 1455 1467
f 1468 1467 1455
f 1469 1466 1468
f 1469 1464 1466
f 1447 1470 1455
f 1455 1470 1468
f 1470 1471 1468
f 1471 1472 1469
f 1468 1471 1469
f 1366 1353 1473
f 1367 1366 1473
f 1366 1367 1365
f 1353 1352 1459
f 1473 1353 1459
f 1367 1473 1474
f 1367 1474 1475
f 1476 1459 1460
f 1473 1459 1476
f 1476 1465 1473
f 1473 1465 1474
f 1460 1454 1476
f 1476 1454 1465
f 1464 1474 1465
f 1477 1478 1479
f 1478 1480 1479
f 1480 1380 1479
f 1481 1482 1477
f 1482 1478 1477
f 1478 1483 1480
f 1481 1474 1464
f 1482 1481 1464
f 1484 1478 1482
f 1483 1478 1484
f 1485 1464 1469
f 1485 1482 1464
f 1486 1482 1485
f 1484 1482 1486
f 1486 1487 1484
f 1488 1484 1487
f 1488 1483 1484
f 1487 1486 1489
f 1469 1472 1485
f 1472 1486 1485
f 1490 1486 1472
f 1490 1489 1486
f 1475 1378 1367
f 1475 1379 1378
f 1477 1379 1475
f 1477 1479 1379
f 1479 1380 1379
f 1474 1481 1475
f 1475 1481 1477
f 1491 989 1381
f 1391 1492 1493
f 1492 1494 1493
f 1495 1493 1494
f 1496 1497 1495
f 1497 1498 1495
f 1499 1496 1500
f 1499 1501 1496
f 1501 1497 1496
f 1501 1502 1497
f 1502 1503 1498
f 1502 1498 1497
f 1503 1504 1498
f 1505 1487 1506
f 1507 1499 1505
f 1501 1507 1508
f 1501 1499 1507
f 1509 1502 1508
f 1503 1502 1509
f 1508 1502 1501
f 1510 1503 1509
f 1503 1510 1504
f 1506 1487 1489
f 1505 1506 1511
f 1505 1511 1507
f 1508 1507 1511
f 1511 1509 1508
f 1512 1510 1513
f 1380 1388 1377
f 1387 1514 1390
f 1388 1514 1387
f 1514 1391 1390
f 1380 1515 1388
f 1515 1516 1388
f 1516 1514 1388
f 1516 1517 1514
f 1514 1492 1391
f 1514 1517 1492
f 1480 1518 1380
f 1518 1515 1380
f 1518 1519 1515
f 1519 1520 1516
f 1519 1516 1515
f 1520 1521 1517
f 1520 1517 1516
f 1494 1492 1521
f 1521 1492 1517
f 1483 1518 1480
f 1522 1519 1518
f 1522 1523 1520
f 1522 1520 1519
f 1523 1521 1520
f 1523 1524 1521
f 1524 1494 1521
f 1524 1495 1494
f 1522 1483 1488
f 1518 1483 1522
f 1522 1500 1523
f 1500 1496 1524
f 1500 1524 1523
f 1496 1495 1524
f 1525 1488 1505
f 1522 1488 1525
f 1525 1500 1522
f 1525 1499 1500
f 1505 1488 1487
f 1505 1499 1525
f 1416 1526 1527
f 1416 1528 1526
f 1529 1526 1528
f 1530 1526 1529
f 1394 1531 1395
f 1396 1395 1416
f 1532 1531 1394
f 1531 1416 1395
f 1532 1528 1531
f 1528 1416 1531
f 1533 1532 1512
f 1533 1528 1532
f 1528 1533 1529
f 1513 1533 1512
f 1401 1534 1400
f 1534 1394 1400
f 1493 1401 1391
f 1493 1535 1401
f 1401 1535 1534
f 1534 1536 1394
f 1534 1535 1536
f 1394 1536 1532
f 1498 1535 1493
f 1495 1498 1493
f 1498 1504 1535
f 1536 1535 1504
f 1512 1536 1504
f 1536 1512 1532
f 1510 1512 1504
f 1407 1537 1276
f 1537 1538 1539
f 1538 1537 1407
f 1406 1538 1407
f 1540 1276 1537
f 1540 1537 1539
f 1540 1541 1542
f 1541 1540 1539
f 1414 1543 1410
f 1410 1543 1411
f 1538 1406 1412
f 1411 1544 1412
f 1543 1545 1411
f 1539 1538 1546
f 1546 1538 1412
f 1547 1545 1543
f 1544 1411 1545
f 1412 1544 1546
f 1546 1544 1548
f 1544 1549 1548
f 1545 1547 1549
f 1545 1549 1544
f 1546 1541 1539
f 1547 1550 1549
f 1546 1548 1542
f 1542 1541 1546
f 1549 1550 1548
f 1551 1550 1552
f 1548 1550 1551
f 1548 1551 1553
f 1553 1542 1548
f 1417 1415 1416
f 1417 1554 1414
f 1417 1527 1554
f 1416 1527 1417
f 1554 1543 1414
f 1554 1547 1543
f 1554 1527 1547
f 1527 1526 1550
f 1550 1547 1527
f 1526 1530 1550
f 1530 1552 1550
f 1462 1461 1463
f 1462 1555 1441
f 1555 1556 1441
f 1462 1463 1557
f 1555 1462 1557
f 1556 1555 1557
f 1557 1463 1558
f 1558 1559 1557
f 1557 1559 1556
f 1439 1462 1441
f 1556 1560 1441
f 1441 1560 1561
f 1440 1441 1442
f 1442 1441 1443
f 1443 1441 1561
f 1443 1562 1445
f 1561 1562 1443
f 1447 1563 1564
f 1470 1447 1564
f 1564 1565 1470
f 1447 1445 1562
f 1447 1562 1563
f 1470 1565 1471
f 1471 1565 1472
f 1463 989 1558
f 1566 1559 1558
f 1566 1556 1559
f 1566 1558 1567
f 1567 1558 989
f 989 1568 1567
f 1491 1568 989
f 1556 1566 1569
f 1560 1556 1569
f 1569 1567 1570
f 1569 1566 1567
f 1567 1568 1570
f 1570 1568 1491
f 1571 1560 1569
f 1572 1569 1570
f 1569 1572 1571
f 1573 1572 1570
f 1573 1570 1491
f 1573 1571 1572
f 1573 1491 1574
f 1574 1491 1575
f 1574 1576 1573
f 1571 1577 1560
f 1577 1571 1578
f 1561 1560 1577
f 1571 1573 1578
f 1578 1579 1577
f 1577 1579 1561
f 1580 1579 1578
f 1561 1579 1581
f 1580 1582 1579
f 1579 1582 1581
f 1573 1576 1578
f 1561 1581 1562
f 1583 1563 1562
f 1581 1583 1562
f 1581 1584 1583
f 1583 1584 1585
f 1490 1472 1565
f 1586 1506 1489
f 1563 1587 1564
f 1564 1587 1565
f 1587 1490 1565
f 1588 1490 1587
f 1490 1588 1586
f 1490 1586 1489
f 1589 1588 1585
f 1588 1589 1586
f 1563 1583 1587
f 1583 1588 1587
f 1583 1585 1588
f 1575 1491 1381
f 1590 1575 1381
f 1591 1575 1590
f 1575 1576 1574
f 1592 1576 1575
f 1592 1593 1576
f 1593 1592 1594
f 1593 1594 1595
f 1594 1592 1575
f 1596 1594 1575
f 1591 1596 1575
f 1594 1596 1595
f 1595 1596 1597
f 1598 1582 1599
f 1582 1598 1581
f 1600 1598 1599
f 1600 1601 1598
f 1602 1601 1600
f 1601 1602 1603
f 1578 1576 1580
f 1576 1593 1580
f 1580 1593 1599
f 1580 1599 1582
f 1593 1595 1599
f 1599 1595 1600
f 1595 1602 1600
f 1597 1602 1595
f 1604 1605 1606
f 1607 1606 1605
f 1581 1598 1584
f 1584 1605 1604
f 1584 1598 1605
f 1598 1601 1605
f 1603 1607 1601
f 1607 1605 1601
f 1608 1513 1609
f 1604 1610 1611
f 1604 1606 1610
f 1606 1608 1610
f 1606 1513 1608
f 1585 1604 1611
f 1585 1584 1604
f 1506 1586 1589
f 1511 1506 1589
f 1608 1609 1612
f 1509 1511 1609
f 1609 1511 1612
f 1609 1510 1509
f 1510 1609 1513
f 1611 1612 1589
f 1589 1612 1511
f 1610 1612 1611
f 1610 1608 1612
f 1585 1611 1589
f 1613 1381 1614
f 1615 1613 1614
f 1615 1616 1613
f 1617 1381 1613
f 1616 1618 1613
f 1619 1618 1616
f 1590 1381 1617
f 1620 1621 1617
f 1620 1622 1621
f 1618 1620 1617
f 1613 1618 1617
f 1620 1618 1622
f 1622 1618 1619
f 1623 1624 1590
f 1623 1625 1624
f 1621 1623 1590
f 1623 1621 1625
f 1625 1621 1626
f 1617 1621 1590
f 1622 1626 1621
f 1626 1622 1627
f 1624 1596 1591
f 1590 1624 1591
f 1596 1624 1597
f 1597 1624 1625
f 1619 1628 1627
f 1619 1616 1628
f 1629 1628 1630
f 1628 1629 1627
f 1603 1627 1629
f 1627 1622 1619
f 1625 1631 1597
f 1597 1631 1602
f 1602 1631 1603
f 1625 1626 1631
f 1627 1603 1631
f 1631 1626 1627
f 1530 1529 1632
f 1628 1552 1530
f 1630 1632 1633
f 1633 1632 1634
f 1628 1530 1630
f 1632 1630 1530
f 1606 1607 1633
f 1607 1629 1633
f 1633 1629 1630
f 1603 1629 1607
f 1634 1513 1606
f 1634 1533 1513
f 1634 1529 1533
f 1529 1634 1632
f 1633 1634 1606
f 1614 1381 1276
f 1540 1635 1614
f 1540 1614 1276
f 1540 1636 1635
f 1542 1636 1540
f 1637 1614 1635
f 1636 1638 1637
f 1636 1637 1635
f 1639 1614 1637
f 1639 1637 1638
f 1639 1615 1614
f 1639 1616 1615
f 1638 1616 1639
f 1553 1551 1638
f 1552 1638 1551
f 1553 1636 1542
f 1636 1553 1638
f 1638 1552 1628
f 1616 1638 1628
