# Coronary Sinus (FMA4706)
# BodyParts3D, (c) The Database Center for Life Science licensed under CC Attribution-Share Alike 2.1 Japan
# Licence: https://creativecommons.org/licenses/by-sa/2.1/jp/
# Modified from the original: see README.md in this repository.
# Units: millimetres. +X = patient left, +Y = posterior, +Z = superior.
# Origin: centroid of the heart wall.
o Coronary_Sinus
v -20.7054 12.9378 -13.1546
v -20.7663 12.6718 -14.0646
v -20.9984 12.3628 -13.4846
v -21.0375 12.3338 -12.5846
v -21.2456 11.7648 -13.2046
v -21.0678 11.4868 -14.1145
v -21.3062 10.8778 -13.5346
v -21.4607 11.1548 -12.6245
v -21.0625 9.9748 -13.8645
v -21.4620 9.9648 -12.9646
v -21.2941 11.7368 -12.3046
v -21.5616 10.2588 -12.6445
v -21.6289 10.5428 -12.0446
v -21.5818 9.6498 -12.3745
v -20.8076 11.7948 -14.7046
v -21.0757 10.8868 -14.1345
v -20.8649 12.0888 -14.4246
v -20.6502 10.4528 -14.7445
v -21.0463 12.0758 -13.7946
v -21.2120 9.3618 -13.2846
v -21.4518 9.3528 -12.6846
v -20.8948 9.0548 -13.5946
v -20.6935 8.4338 -13.3146
v -21.0848 8.7438 -13.0045
v -21.4488 11.1128 -11.4246
v -21.6509 9.9428 -12.0646
v -21.5972 10.5198 -11.4446
v -21.6193 9.9208 -11.4646
v -21.4791 10.8038 -11.1345
v -21.4392 10.4908 -10.8446
v -21.1534 11.3758 -10.8146
v -21.2462 10.7698 -10.5346
v -21.4612 9.8908 -10.8645
v -21.1611 10.1548 -10.2545
v -20.9072 10.4308 -9.9446
v -21.0735 12.0038 -11.6946
v -20.8695 12.0008 -11.0946
v -20.8127 11.3378 -10.2146
v -21.5471 9.3268 -11.7846
v -21.4119 9.0408 -12.3945
v -21.3023 8.7138 -11.8046
v -21.3276 8.9928 -11.1445
v -21.0546 8.4698 -11.2146
v -20.9980 8.4288 -12.7146
v -21.1162 8.4138 -12.1145
v -20.9253 8.6518 -10.6046
v -21.0139 9.2458 -10.2746
v -20.6209 11.0128 -9.8246
v -18.2633 13.5888 -18.2346
v -17.8489 12.9878 -18.8546
v -19.7461 12.7028 -16.4646
v -18.5389 12.0918 -17.9846
v -19.0737 12.0988 -17.3845
v -18.6127 14.1758 -17.3146
v -17.2847 14.1688 -19.1145
v -19.2395 14.4428 -15.2046
v -18.3092 14.9978 -16.0846
v -18.9784 14.4538 -16.1046
v -19.2369 14.4918 -14.6046
v -18.6151 14.8918 -14.8845
v -20.3802 12.6938 -15.2645
v -20.1624 12.1028 -15.8845
v -19.8639 13.8578 -14.9246
v -19.6896 13.8688 -15.5246
v -20.1476 13.2818 -15.2445
v -19.4650 13.5888 -16.4346
v -19.5563 14.1308 -15.2146
v -19.3551 14.1628 -15.8146
v -19.7728 12.1038 -16.4846
v -19.1012 14.1698 -16.4146
v -18.7152 14.4608 -16.7046
v -17.7212 14.7518 -17.9346
v -20.6418 11.1958 -15.0246
v -19.8937 11.4988 -16.2146
v -19.1384 11.4908 -17.1046
v -19.4765 10.2658 -15.9546
v -20.0965 8.4238 -13.9146
v -18.8911 9.6268 -15.7445
v -17.9848 9.7218 -16.2645
v -17.7326 8.8028 -14.7946
v -18.9326 14.5668 -13.7046
v -18.3152 14.8818 -13.9846
v -18.6301 14.6058 -13.3945
v -20.4827 12.9788 -14.6546
v -20.4827 13.2478 -13.7445
v -20.4656 13.2148 -12.8446
v -19.8687 13.9018 -13.4246
v -19.9920 13.8328 -14.0246
v -19.8761 13.7588 -12.8246
v -20.2008 13.2968 -12.2445
v -19.5511 14.2298 -14.0145
v -19.6569 14.1358 -14.6145
v -19.5596 14.0668 -13.1145
v -19.5700 13.8678 -12.5246
v -18.9443 14.3418 -12.9746
v -18.9700 13.8538 -11.9246
v -18.3378 14.4518 -12.8046
v -20.8711 8.4328 -13.0145
v -20.5698 8.1168 -13.0246
v -20.7190 8.1138 -12.7246
v -19.8778 7.9958 -13.6345
v -20.1883 7.8038 -13.0346
v -19.6026 7.5148 -13.0446
v -20.1987 7.6048 -12.4446
v -19.6122 7.3298 -12.4546
v -18.9920 7.7008 -13.6345
v -18.7099 7.3508 -13.0546
v -20.7561 12.5988 -11.9746
v -20.2344 12.6548 -11.0646
v -19.6021 13.2558 -11.3446
v -19.6484 12.3718 -10.1746
v -18.9998 13.2838 -11.0446
v -18.3538 14.1458 -12.2146
v -18.3728 13.7838 -11.6245
v -18.3959 13.3428 -11.0145
v -18.7487 12.3428 -9.8745
v -20.5714 11.9568 -10.4945
v -20.5888 11.6248 -10.1746
v -20.2699 11.9778 -10.1946
v -20.7750 8.0708 -12.4246
v -20.7783 8.0078 -11.8346
v -20.1969 7.6378 -11.2445
v -20.7725 8.1198 -11.2246
v -20.6847 8.3388 -10.6145
v -20.7059 8.6298 -10.3046
v -20.2015 7.5508 -11.8446
v -20.1843 7.8788 -10.6345
v -20.1738 8.0788 -10.3246
v -19.6108 7.3588 -11.2545
v -19.8931 7.7038 -10.6345
v -19.8833 7.8898 -10.3346
v -19.3037 7.4858 -10.6445
v -19.3212 7.6568 -10.3346
v -18.9978 7.5908 -10.3446
v -18.4108 7.3268 -10.8645
v -19.3187 7.1998 -11.8546
v -19.0185 7.1958 -12.4546
v -19.0172 7.2198 -11.2545
v -18.7217 7.1268 -11.8546
v -20.6049 11.3178 -9.9746
v -20.9245 9.8318 -9.9646
v -20.3534 10.3848 -9.4446
v -20.3248 11.6018 -9.9046
v -20.3058 11.2928 -9.6946
v -19.9906 11.5748 -9.6445
v -20.3847 9.7868 -9.4846
v -20.0044 11.8848 -9.8945
v -20.0066 11.2698 -9.4846
v -20.0225 10.9658 -9.3645
v -19.7390 10.6428 -9.1546
v -19.7705 10.0418 -9.1145
v -19.6752 11.8608 -9.6846
v -19.7073 11.2488 -9.3346
v -19.3919 11.5338 -9.3645
v -19.1243 10.9078 -9.0546
v -19.1559 10.3048 -8.9546
v -19.8018 9.4458 -9.2246
v -19.1873 9.7068 -8.9846
v -18.7769 11.8038 -9.4246
v -18.8089 11.1938 -9.1046
v -18.5252 10.8748 -9.0045
v -18.4934 11.4828 -9.2445
v -17.9575 10.2438 -8.9945
v -18.5568 10.2718 -8.9146
v -18.5882 9.6738 -8.9446
v -20.4158 9.1938 -9.6646
v -20.1474 8.5828 -9.8146
v -19.8634 8.2698 -9.8845
v -19.5334 8.8348 -9.3446
v -19.5792 7.9608 -10.0446
v -19.5640 8.2498 -9.7445
v -19.2184 9.1118 -9.1445
v -18.9863 7.8088 -10.0346
v -18.9651 8.2138 -9.6145
v -18.9344 8.7998 -9.2346
v -18.3961 7.6068 -10.3046
v -18.3659 8.1828 -9.6445
v -18.6193 9.0788 -9.0946
v -13.7877 14.4118 -22.7046
v -17.1820 13.5758 -19.4846
v -15.3812 13.5438 -21.2846
v -16.0130 12.9538 -20.6646
v -17.3974 15.1988 -17.5746
v -13.5677 15.5908 -22.3645
v -14.0503 16.0118 -20.8446
v -16.7781 15.5518 -17.5646
v -13.7322 16.3478 -19.9346
v -16.7731 15.6468 -16.6646
v -16.6449 12.3608 -19.9246
v -17.9063 11.4678 -18.3046
v -16.0769 11.7338 -20.0646
v -16.7094 11.1298 -19.0145
v -17.9533 10.3238 -17.1445
v -15.5096 11.0958 -19.8346
v -18.0050 15.0678 -16.6846
v -17.9985 15.1938 -15.1746
v -17.3844 15.4478 -16.3645
v -17.3884 15.3698 -16.9746
v -16.7744 15.6208 -16.0646
v -17.0848 15.4318 -15.1646
v -16.1666 15.7538 -16.3546
v -16.1726 15.6398 -15.7545
v -17.0972 15.1948 -14.3346
v -15.8815 15.4628 -15.2445
v -17.0589 10.1938 -17.4546
v -17.4032 9.3558 -15.6846
v -16.4847 9.6858 -16.2645
v -17.1076 9.2648 -15.3845
v -16.1799 9.4508 -14.7746
v -18.0298 14.5958 -13.0145
v -17.7022 15.1138 -14.2746
v -17.4180 14.8048 -13.3845
v -16.8295 14.5708 -13.0946
v -17.4343 14.4938 -12.7946
v -16.5064 15.0028 -13.9846
v -18.0431 14.3418 -12.5045
v -17.4536 14.1268 -12.2146
v -16.5569 14.0388 -12.5145
v -18.3916 7.6928 -13.6345
v -17.7833 7.8348 -13.6345
v -17.8018 7.4808 -13.0446
v -16.8280 8.8658 -14.2746
v -17.1765 7.9498 -13.3446
v -17.1933 7.6278 -12.7046
v -16.8186 7.9098 -12.7246
v -16.2099 9.1968 -13.8845
v -16.2779 8.4818 -12.7046
v -16.3976 8.1668 -12.1145
v -17.7623 13.9688 -11.9146
v -17.7850 13.5358 -11.3346
v -17.8111 13.0378 -10.7445
v -18.1508 12.2878 -9.8745
v -17.4762 13.6938 -11.6245
v -17.4968 13.3008 -11.1646
v -16.8888 13.4388 -11.6345
v -16.9297 12.6588 -10.8446
v -17.5620 12.0568 -9.8745
v -16.9783 11.7308 -10.0045
v -16.3295 12.6468 -11.3845
v -15.9645 13.8788 -12.7946
v -16.6471 11.1088 -9.9146
v -15.9981 12.0278 -11.3845
v -16.2691 10.7988 -10.2246
v -15.7966 11.3508 -11.4046
v -16.1958 10.4948 -10.2346
v -16.0174 10.4958 -10.5346
v -16.1781 9.8038 -10.2545
v -16.4354 9.5968 -9.9646
v -16.2820 9.2988 -10.2746
v -17.8100 7.3248 -11.2445
v -18.4171 7.2068 -11.2545
v -17.7986 7.5428 -10.6445
v -17.7891 7.7238 -10.3346
v -17.5076 7.3638 -12.1445
v -17.1985 7.5288 -11.5446
v -17.1898 7.6948 -10.9346
v -16.8838 7.8018 -11.2346
v -17.1816 7.8528 -10.6245
v -17.1664 8.1408 -10.2346
v -16.8885 7.7118 -12.1345
v -16.6432 8.1378 -10.9146
v -16.9706 7.8548 -10.9246
v -16.8682 8.0988 -10.6145
v -16.8550 8.3518 -10.3146
v -16.4362 8.1478 -11.5145
v -16.5579 8.4228 -10.6046
v -16.3935 8.4248 -10.9046
v -16.5568 8.7128 -10.2946
v -16.2374 8.6708 -10.8945
v -16.1765 8.4448 -11.8046
v -16.2806 8.4298 -11.2046
v -15.9626 9.3028 -10.8745
v -18.4183 7.1828 -12.4546
v -18.1183 7.1748 -11.8546
v -18.1777 11.7738 -9.4446
v -17.9259 10.8458 -9.0846
v -18.0118 11.4598 -9.3046
v -17.9889 9.6448 -9.0145
v -17.5943 11.4418 -9.4246
v -17.3579 10.2188 -9.2046
v -17.3247 10.8528 -9.3246
v -17.3893 9.6208 -9.2346
v -17.0105 11.1168 -9.6046
v -16.8434 10.8078 -9.6245
v -16.7581 10.2008 -9.5846
v -16.4421 10.4968 -9.9246
v -16.3899 10.1948 -9.9446
v -18.3352 8.7688 -9.2545
v -18.0200 9.0508 -9.1746
v -17.4665 8.1488 -9.9945
v -17.7357 8.7438 -9.4146
v -17.4204 9.0268 -9.4046
v -17.1513 8.4308 -9.9446
v -16.8050 9.3058 -9.6946
v -13.7900 13.8118 -22.7246
v -12.9808 13.4888 -23.2946
v -13.0128 12.8788 -22.9945
v -14.5286 12.6158 -21.8046
v -12.2507 14.9838 -24.1746
v -12.8114 16.7218 -21.4346
v -13.0068 16.1728 -22.6345
v -14.7968 13.2308 -21.7846
v -15.4447 12.3338 -20.9546
v -14.1840 12.2998 -21.8745
v -13.1818 12.2678 -22.4746
v -14.2777 11.6718 -21.2946
v -13.7012 11.2088 -21.0145
v -14.6321 10.6418 -19.5346
v -13.7336 16.3218 -19.0346
v -13.1330 16.3168 -18.7346
v -12.5199 10.8198 -20.1245
v -15.5737 9.8708 -15.9546
v -13.4534 15.9358 -17.5446
v -13.1647 15.7128 -17.2545
v -15.6105 14.9008 -14.2846
v -12.8602 14.4328 -16.0946
v -13.1622 15.0598 -16.3745
v -15.5744 9.8578 -14.7545
v -14.6492 10.3148 -15.9446
v -14.7739 10.5778 -14.7346
v -14.0455 10.8708 -15.6245
v -14.4870 13.5438 -14.0246
v -15.8346 12.6408 -11.9646
v -14.2274 12.6318 -14.1145
v -15.1601 12.0318 -12.7445
v -14.3221 12.0338 -14.0846
v -13.5954 13.2268 -14.8945
v -15.5715 9.9138 -13.5546
v -15.2541 10.2368 -14.1445
v -15.8604 9.3708 -12.9746
v -15.4009 10.2578 -13.2445
v -15.4909 10.2418 -12.6445
v -15.0939 10.5628 -13.8346
v -15.2437 10.8398 -12.9246
v -15.4023 11.1278 -12.3146
v -14.9226 11.1438 -13.5145
v -14.9730 11.4368 -13.2046
v -14.6360 11.1498 -14.1145
v -13.9492 11.4458 -15.0045
v -16.0334 8.7588 -12.3945
v -15.8637 9.0398 -12.0846
v -15.8563 9.8978 -10.8546
v -16.1713 8.4548 -12.1046
v -16.0017 8.7358 -11.7946
v -15.7976 9.3148 -11.4746
v -10.3816 19.1528 -25.8346
v -10.3277 18.2558 -26.0746
v -12.5860 15.2898 -23.8246
v -12.2868 16.4768 -23.8246
v -11.0540 15.8628 -25.2946
v -12.0491 14.0698 -24.1345
v -10.4039 16.8018 -25.9146
v -10.7858 15.2468 -25.2846
v -11.6039 17.9528 -24.0746
v -12.4267 16.7638 -23.2146
v -11.5566 18.2298 -23.4646
v -12.3840 17.0408 -22.6046
v -11.5342 18.2068 -22.8645
v -12.0980 17.2938 -21.6946
v -10.0036 20.9028 -24.8645
v -10.9296 18.2348 -21.6646
v -12.9528 15.5898 -23.2545
v -12.3970 13.1648 -23.5145
v -12.7290 12.5618 -22.9446
v -12.3743 11.9258 -22.4846
v -11.8412 12.3058 -23.0746
v -11.7973 13.1438 -23.7946
v -11.2140 12.8088 -23.7046
v -11.1495 14.0388 -24.5946
v -10.9307 12.4828 -23.3945
v -13.3720 11.7578 -21.8945
v -11.8848 11.4728 -21.9046
v -12.7814 11.5628 -21.8945
v -11.2657 11.8228 -22.4846
v -11.5874 17.1478 -20.5045
v -10.6855 17.1608 -20.1946
v -12.5090 16.7588 -20.2146
v -12.8198 16.5618 -19.6245
v -11.9057 16.8058 -19.9146
v -11.3171 16.5728 -19.4346
v -12.2271 16.4068 -19.0246
v -12.5003 11.1938 -21.3146
v -11.5956 11.2588 -21.3046
v -11.6056 11.0688 -20.4146
v -10.9874 11.4008 -21.3046
v -12.2189 10.8298 -19.5246
v -11.2872 11.4128 -21.6046
v -11.9561 15.8448 -18.1445
v -11.9565 15.0278 -17.2746
v -10.4468 15.9838 -19.0346
v -9.9081 14.9728 -18.7746
v -11.4610 14.4018 -17.2946
v -9.3147 14.6558 -19.1846
v -10.9875 11.3988 -19.4945
v -10.9925 11.3028 -20.1046
v -10.3900 12.0068 -19.1746
v -12.7520 12.6158 -15.8546
v -9.9622 13.7658 -18.5546
v -9.0765 21.2168 -26.6546
v -9.0334 20.0248 -27.0145
v -9.6491 19.7398 -26.5346
v -9.0805 19.1248 -26.9846
v -8.3708 21.2018 -27.2846
v -8.6690 22.0968 -26.6245
v -8.3397 21.7958 -27.1345
v -8.1180 20.2948 -27.4945
v -8.4651 19.4038 -27.2946
v -8.8281 18.2088 -26.9546
v -7.5818 19.0608 -27.4046
v -8.5761 17.2848 -26.7046
v -9.4328 21.7628 -24.5346
v -9.2274 22.0548 -25.4246
v -8.8276 22.6528 -25.1046
v -9.2429 21.7588 -23.9346
v -7.9867 22.7999 -23.5946
v -7.9494 23.5106 -24.4746
v -8.4498 22.9646 -25.9945
v -9.1866 21.8028 -26.0346
v -7.8603 23.8239 -25.6646
v -7.6069 24.0899 -25.0546
v -10.0229 20.6238 -25.4846
v -9.9338 20.0408 -26.1145
v -10.3836 19.7428 -25.5145
v -9.4848 21.2178 -26.0546
v -9.7293 21.2098 -25.4546
v -9.7592 17.6388 -26.4446
v -9.1914 17.0098 -26.5045
v -10.4383 16.1468 -25.7445
v -9.8546 15.8198 -25.8745
v -10.2182 14.6128 -25.1946
v -9.8227 16.4278 -26.1145
v -9.5823 15.2818 -25.6646
v -9.6351 14.2758 -25.0246
v -9.2232 16.4018 -26.2645
v -8.9556 15.7758 -25.9746
v -9.0046 14.8418 -25.3745
v -10.8638 13.7598 -24.5246
v -10.2665 13.6918 -24.5746
v -9.7083 13.6608 -24.5246
v -9.0573 13.8348 -24.5145
v -10.5789 19.1948 -22.5246
v -10.0051 18.6798 -21.4846
v -8.3838 20.9548 -22.4646
v -10.5985 13.0888 -24.0446
v -10.3391 12.3068 -23.0646
v -10.3167 12.7348 -23.6546
v -9.7086 12.8718 -23.6445
v -9.7363 12.3438 -22.7645
v -9.0837 13.3328 -23.9346
v -9.1039 12.9468 -23.3446
v -8.4531 13.9008 -24.2146
v -8.4735 13.5108 -23.6245
v -8.8116 12.7918 -22.4446
v -9.7194 12.0658 -21.8745
v -10.3623 11.8638 -22.1846
v -8.1760 19.1878 -21.5446
v -9.7845 17.1568 -20.1946
v -7.6402 17.9478 -21.2746
v -8.9193 16.4698 -20.0646
v -9.4260 12.5318 -20.0546
v -9.9186 12.5818 -19.1546
v -10.0542 12.0108 -19.7946
v -9.5061 12.3018 -20.3645
v -8.8161 12.7048 -21.8546
v -9.4441 12.1878 -21.2746
v -8.8086 12.8488 -20.9446
v -8.8224 13.1668 -20.3346
v -9.1699 13.1648 -19.7346
v -8.1065 13.4818 -21.8246
v -8.2048 13.7558 -20.9146
v -8.8607 14.0488 -19.7046
v -8.4149 14.0468 -20.3046
v -10.3715 11.6878 -21.5846
v -10.3763 11.5958 -20.6946
v -10.0638 11.8268 -20.3845
v -8.3512 15.8448 -20.2346
v -8.8059 14.6468 -19.6846
v -9.8503 13.1688 -18.8346
v -6.7197 24.9860 -26.2246
v -6.8811 24.4150 -26.8446
v -7.6860 23.8358 -26.2645
v -6.4003 24.4079 -27.3645
v -7.3621 23.2527 -27.2645
v -5.6417 25.8512 -26.7946
v -7.7350 23.2588 -26.8845
v -7.0776 22.9493 -27.6145
v -7.7397 21.7798 -27.5546
v -6.8089 22.3438 -27.8945
v -6.4623 23.2261 -27.8546
v -7.1293 21.4568 -27.8446
v -6.5563 21.4318 -27.9746
v -5.8784 22.9037 -28.1046
v -5.9255 22.0038 -28.0946
v -4.9323 23.7597 -28.2146
v -5.4850 24.6764 -27.8146
v -7.7710 21.1828 -27.6245
v -7.5407 19.8448 -27.6046
v -7.1872 20.8578 -27.8146
v -6.6196 20.2248 -27.7545
v -5.9571 21.4018 -28.0145
v -6.0206 20.1908 -27.6646
v -7.6455 17.8448 -26.9346
v -6.9987 18.7238 -27.2346
v -7.0466 17.8078 -26.7746
v -7.3654 24.3985 -25.6445
v -4.7607 27.0331 -24.9446
v -4.8033 26.6241 -24.3645
v -8.3085 16.6598 -26.4146
v -6.7747 16.8618 -25.9046
v -8.0572 15.7218 -25.7645
v -8.4102 14.7178 -25.0846
v -7.7741 15.3908 -25.3346
v -8.1156 14.6078 -24.7846
v -7.1598 15.6488 -25.0346
v -7.5079 14.7388 -24.2545
v -4.6622 19.4638 -26.1145
v -6.4712 23.0561 -22.9846
v -7.2134 20.3588 -22.1046
v -6.0301 20.0088 -22.4746
v -5.9079 22.3408 -22.7146
v -5.3518 21.4868 -22.7545
v -7.4388 14.4008 -23.2946
v -6.8762 15.3278 -23.8546
v -7.2090 14.7098 -22.6746
v -4.7211 19.1458 -25.5246
v -4.8029 19.1078 -24.3246
v -8.1733 13.5058 -23.0246
v -8.3318 13.2148 -22.4346
v -7.8364 13.7998 -22.7146
v -7.7629 14.1278 -23.6046
v -7.6761 14.3498 -21.4945
v -6.4087 18.5168 -22.1946
v -5.7458 19.7008 -22.6746
v -8.0600 14.6388 -20.5846
v -6.1408 17.8958 -22.5646
v -4.1885 26.4069 -27.6646
v -3.5313 27.5638 -27.3546
v -1.9854 28.3999 -27.7946
v -4.2236 25.8169 -27.9346
v -4.5701 24.9388 -28.0946
v -3.6710 24.8981 -28.2746
v -2.3473 27.2271 -28.0946
v -1.4326 27.4828 -28.1846
v -4.9794 22.8601 -28.2046
v -5.3580 21.3678 -27.9546
v -4.0177 24.0146 -28.2746
v -3.4186 23.9817 -28.2346
v -3.1349 23.6619 -28.1145
v -3.8132 22.1838 -27.7946
v -5.4087 20.4018 -27.5846
v -4.8077 20.4048 -27.2746
v -4.8441 19.7088 -26.7046
v -2.5682 23.0121 -27.5746
v -1.3230 23.8428 -27.1546
v -1.2735 30.6528 -24.5145
v -0.6578 30.8025 -23.9046
v -4.2086 26.5719 -23.7645
v -3.9719 20.2758 -24.5846
v -4.2929 19.7028 -24.9046
v -3.3438 20.8848 -25.7545
v -3.3636 20.8648 -25.1546
v -3.1087 21.4318 -24.5346
v -3.9168 25.9394 -23.3046
v -3.9801 24.7307 -23.0246
v -3.7434 23.5160 -23.0246
v -3.1750 22.8972 -23.3745
v -4.1368 21.7418 -23.2746
v -4.3417 20.5638 -23.6746
v -3.7293 21.1428 -23.9446
v -5.4145 20.2898 -22.8346
v -5.4370 19.0988 -23.1245
v -2.2146 29.7579 -26.3446
v -1.7141 29.8590 -26.9446
v -0.9889 30.2180 -27.2346
v -1.3743 30.4312 -26.6245
v -0.4089 29.8191 -27.7545
v -0.4400 29.2265 -27.9546
v 0.5839 31.5661 -27.1846
v -0.1716 28.6162 -28.0946
v -0.8334 27.4514 -28.1846
v -2.4412 25.4346 -28.2645
v -2.4885 24.5313 -28.1546
v -0.8965 26.2487 -28.0746
v -2.2050 24.2095 -27.9746
v -0.3296 25.6002 -27.5746
v -0.9524 23.7936 -26.5546
v -0.6237 31.4532 -25.9846
v 0.3038 31.9546 -26.5646
v -1.7505 30.4195 -25.7246
v -0.9362 31.2223 -25.0946
v -0.3197 31.8351 -25.3745
v 0.0017 31.9222 -24.4646
v 2.2354 27.2083 -25.8246
v -1.6941 28.2247 -23.2146
v 0.2131 30.2238 -23.0646
v -1.4263 27.6034 -23.0446
v -1.4735 26.7035 -23.0246
v -1.8591 25.0768 -23.2046
v -0.6365 25.4763 -23.5746
v -1.9416 23.5036 -23.8645
v 0.9170 26.4580 -24.0546
v 1.9634 29.2276 -22.9945
v 1.2527 32.6954 -26.5346
v 0.9492 32.8052 -25.9346
v 1.8308 32.4302 -27.1445
v 2.3970 31.7707 -27.5946
v 0.8365 30.6553 -27.7445
v 0.8691 31.2776 -27.4945
v 2.1995 33.7342 -25.9046
v 0.8054 30.0614 -27.9146
v 1.4046 30.0301 -27.9146
v 0.7113 28.2649 -27.9746
v 3.8949 31.6897 -27.5246
v 2.0507 30.8935 -27.7846
v 0.6796 27.6616 -27.8645
v 3.1694 29.3107 -27.1746
v 2.1666 27.3743 -26.4246
v 1.3346 33.2496 -25.3146
v 2.8329 34.3556 -25.2746
v 2.2086 33.9076 -24.6946
v 0.6391 32.6200 -24.7445
v 0.5592 32.0369 -23.8645
v 1.5694 33.1742 -24.1245
v 2.8032 33.7876 -23.4945
v 1.8857 26.8949 -24.9346
v 1.2735 31.9785 -23.2645
v 6.8330 36.1630 -22.3146
v 0.4967 29.9034 -22.9346
v 0.7805 29.5857 -22.8645
v 1.8903 27.8337 -23.7046
v 3.1779 29.4741 -23.2645
v 3.4042 33.7924 -26.7545
v 2.7996 33.7192 -26.5045
v 2.4280 32.3623 -27.3745
v 3.4330 34.3415 -26.1746
v 4.6186 34.0353 -26.9246
v 3.9574 32.8826 -27.3546
v 4.6523 34.6783 -26.4646
v 5.1788 35.4709 -25.8346
v 3.3115 32.0221 -27.5646
v 4.1786 31.3708 -27.4346
v 4.2414 32.5693 -27.4146
v 5.4077 31.8959 -27.0946
v 2.1950 27.9159 -27.0045
v 4.0827 29.5420 -26.5646
v 3.1382 34.4477 -24.0746
v 4.4234 35.4686 -24.6345
v 4.6969 35.5292 -25.2346
v 3.9814 28.9077 -25.4646
v 3.0210 28.3156 -24.2846
v 4.3884 29.6431 -23.9346
v 4.0539 28.9931 -24.8645
v 2.7192 27.7519 -24.9046
v 5.9284 36.0996 -23.1145
v 5.5402 34.4234 -22.2146
v 2.3881 31.5998 -22.6946
v 5.0998 31.7528 -22.5446
v 3.6018 31.8302 -22.5145
v 5.7767 33.2049 -22.1046
v 5.3535 30.8614 -23.2246
v 5.9663 35.1504 -26.4446
v 6.5262 36.0406 -25.8146
v 7.1237 35.9772 -26.0346
v 6.1504 34.6027 -26.7645
v 5.2019 33.7003 -27.0946
v 6.1010 33.6606 -27.0246
v 7.3615 34.7829 -26.6245
v 8.5593 34.7104 -26.3446
v 6.6685 33.0239 -26.8546
v 4.8247 32.2355 -27.3346
v 6.6368 32.4187 -26.6946
v 10.3392 34.2792 -25.2746
v 6.5830 31.3935 -25.9746
v 8.2127 33.8281 -26.3845
v 5.3188 35.9320 -23.7146
v 7.1830 37.1092 -23.3745
v 6.6695 36.8415 -24.2846
v 6.8653 36.7795 -24.8845
v 8.1087 37.5753 -24.2545
v 6.8056 31.1510 -25.0846
v 6.7319 31.1234 -24.1846
v 5.9562 30.8968 -23.5946
v 8.3134 35.7502 -21.3246
v 7.1162 35.8338 -21.9246
v 7.2593 32.8320 -22.2545
v 6.0607 32.8914 -22.1546
v 8.4343 32.3244 -23.5346
v 8.0226 35.9334 -26.1345
v 8.9213 35.8840 -26.0646
v 9.2052 35.5692 -26.0846
v 10.3712 34.8888 -25.5646
v 9.9658 38.6193 -23.3146
v 10.2606 38.5122 -23.9146
v 8.1144 37.6854 -23.6546
v 8.7057 37.5040 -24.8546
v 7.4585 36.6334 -25.4945
v 8.9829 37.0602 -25.4046
v 9.9359 38.0483 -24.5346
v 8.7404 32.4336 -24.4346
v 9.3496 38.3257 -22.7246
v 10.2587 38.4754 -21.5145
v 9.6313 37.9688 -21.5346
v 9.6057 37.4800 -21.1546
v 9.8890 37.1531 -20.8246
v 8.2508 34.5557 -21.4546
v 8.5207 33.9731 -21.6746
v 10.0944 35.3406 -20.8745
v 9.6996 33.5390 -22.2946
v 7.5256 32.1822 -22.9446
v 10.7712 36.7891 -20.3346
v 10.8265 37.8451 -24.8246
v 11.1904 39.0571 -23.2946
v 11.4762 38.7769 -23.9046
v 12.3702 38.6395 -24.0746
v 11.7097 37.5006 -24.8945
v 13.0083 39.3511 -23.2846
v 9.5668 36.7366 -25.6245
v 9.8508 36.4245 -25.7246
v 10.4341 36.0905 -25.6445
v 10.7803 36.9634 -25.3346
v 10.4028 35.4919 -25.6646
v 11.9624 36.5898 -25.0145
v 11.6786 36.9078 -25.0946
v 10.3230 33.9707 -25.0246
v 12.1546 34.5265 -23.4546
v 11.5318 34.1066 -22.8645
v 12.2301 35.9669 -24.7946
v 10.6280 38.9835 -22.7046
v 11.5037 39.3014 -21.4846
v 10.2361 38.0448 -21.0546
v 11.5056 39.3386 -22.6846
v 12.3726 39.7508 -21.4746
v 12.4210 39.6096 -22.6746
v 11.8012 39.2461 -20.8845
v 12.7345 39.8583 -22.0646
v 12.8004 35.3835 -20.7246
v 13.9219 39.5869 -19.1046
v 11.6383 36.1378 -20.2046
v 10.9930 35.2904 -20.7946
v 12.2219 35.8096 -20.2846
v 13.2533 38.2940 -24.1145
v 14.2131 39.4102 -23.0846
v 12.9074 37.4247 -24.5246
v 13.8210 37.6618 -24.0746
v 14.1515 38.2361 -23.8046
v 14.4819 38.8071 -23.4346
v 14.7189 37.5979 -23.5946
v 12.5134 35.6397 -24.4646
v 13.7896 37.0630 -24.0946
v 15.5679 36.6008 -22.4746
v 15.8588 36.4191 -21.8845
v 14.3881 37.0182 -23.7146
v 13.3437 40.0188 -22.0546
v 13.3497 40.1335 -21.4546
v 13.3303 39.7636 -22.6646
v 14.2589 40.2840 -21.7445
v 13.9599 40.3126 -21.4446
v 14.8780 40.6329 -20.8346
v 14.7560 35.7334 -21.9046
v 13.0762 34.9148 -22.2346
v 14.3095 35.5177 -21.3146
v 12.4642 34.7018 -21.9446
v 14.0071 35.4808 -21.0145
v 14.2634 40.3710 -19.9446
v 13.6736 40.2621 -20.8446
v 15.4899 40.8451 -19.6245
v 12.9448 38.1398 -19.2346
v 13.1973 37.2242 -19.2246
v 15.6694 38.5374 -17.4945
v 15.7324 39.7400 -17.6046
v 13.4634 36.5700 -19.4746
v 14.6339 35.9759 -20.0646
v 14.0410 36.1267 -19.7946
v 15.6324 37.8313 -23.0346
v 14.5436 39.9851 -22.3546
v 15.4261 39.6285 -22.5446
v 15.7800 40.6477 -21.1345
v 16.0554 40.1708 -21.8046
v 16.3243 39.5700 -22.2246
v 17.1255 40.1022 -21.4446
v 15.9941 39.0016 -22.6646
v 15.3644 38.4507 -23.1546
v 17.0652 38.6252 -22.1046
v 18.0731 38.5459 -21.3446
v 15.6007 37.2267 -22.8945
v 15.8507 36.2645 -21.5446
v 15.7954 40.9427 -19.9246
v 16.0968 40.9609 -20.2246
v 16.1790 40.9581 -18.7146
v 16.7095 41.1882 -19.3146
v 16.4045 41.0998 -19.0145
v 17.0060 41.1138 -19.9146
v 14.7095 37.4193 -18.4746
v 15.2341 35.9632 -20.3945
v 14.9771 36.7921 -18.8645
v 14.9519 36.3124 -19.4846
v 16.1022 36.2214 -20.6846
v 16.4869 36.9406 -18.2545
v 17.0781 36.7559 -18.5646
v 17.4672 36.7293 -20.0646
v 17.6779 36.7361 -19.1646
v 16.6616 40.2739 -17.0646
v 19.1186 41.2989 -15.6746
v 16.8355 37.8599 -17.0646
v 17.8208 39.4639 -21.4346
v 16.9838 40.6894 -20.8346
v 17.8669 40.3433 -20.8645
v 18.1509 40.0306 -20.9446
v 18.7185 39.3954 -20.8146
v 17.7263 37.6601 -21.2846
v 17.0137 41.2591 -18.7046
v 17.3148 41.2737 -19.3046
v 17.6057 41.0918 -19.9146
v 17.6214 41.3915 -18.7046
v 18.4957 40.8763 -19.9146
v 17.9167 41.2938 -19.3046
v 19.1155 41.2392 -19.0045
v 19.1325 41.5634 -18.0946
v 18.7648 40.2794 -20.3745
v 19.8515 38.0854 -19.4346
v 18.6555 38.1932 -20.7246
v 18.9086 37.2919 -19.4446
v 19.1998 37.1163 -17.9446
v 19.6002 39.0242 -20.1145
v 17.6211 41.3846 -18.1046
v 18.8242 41.4134 -16.2946
v 19.7000 40.9269 -14.5045
v 19.1370 41.6501 -17.4846
v 20.0421 41.7238 -15.9846
v 17.7486 38.0851 -16.2746
v 18.1292 38.9392 -15.4846
v 18.5022 37.7397 -16.1245
v 19.2151 37.4079 -16.3046
v 19.6689 39.1063 -13.9746
v 20.7339 37.7264 -14.3246
v 19.9922 40.7708 -19.0746
v 19.9462 39.8933 -19.7046
v 21.1427 39.7942 -18.6646
v 20.8745 40.4092 -18.6546
v 20.4815 38.6438 -19.1546
v 20.3424 41.7208 -16.8845
v 20.0437 41.7541 -16.5846
v 20.6458 41.7777 -16.2846
v 20.6308 41.4921 -17.4945
v 21.2394 41.6398 -16.5846
v 20.6057 41.0128 -18.3246
v 21.2182 41.2361 -17.4945
v 21.2581 40.6709 -18.1145
v 22.4290 41.4111 -15.9945
v 22.4155 41.1530 -16.4446
v 20.4124 37.3240 -16.4346
v 20.4152 37.3785 -17.2645
v 21.3393 37.8136 -17.3146
v 20.9451 41.7576 -15.0846
v 20.0230 41.3592 -14.7946
v 21.5377 41.6002 -13.8845
v 21.5478 41.7928 -15.3745
v 21.8472 41.7738 -14.4746
v 19.6150 39.7096 -13.9546
v 21.1949 40.7910 -12.8645
v 21.8143 41.1450 -12.6946
v 19.8731 38.4992 -14.1145
v 21.9454 37.9143 -12.5145
v 22.2252 37.5218 -13.1245
v 21.4618 40.1513 -12.1646
v 21.3344 39.5566 -12.1546
v 21.9970 38.8992 -11.5446
v 22.0200 38.3092 -11.8945
v 21.8036 40.3316 -17.8346
v 21.7251 39.4439 -18.1145
v 22.5585 40.5608 -16.9246
v 22.9525 39.9342 -16.7846
v 22.9211 39.3363 -16.8346
v 24.0691 38.3114 -15.0246
v 22.4436 41.6885 -15.0846
v 22.4468 41.7507 -14.1746
v 22.1410 41.6472 -13.5846
v 23.0414 41.6315 -14.4846
v 23.0276 41.3681 -15.3945
v 23.6303 41.4036 -14.4846
v 23.6162 41.1345 -15.0946
v 23.9325 41.4371 -13.8845
v 23.0136 41.1011 -15.8546
v 23.9855 40.4336 -15.4246
v 25.0497 40.6257 -13.9146
v 24.2194 41.1793 -14.1946
v 24.0243 37.4579 -13.7246
v 22.2191 41.3325 -12.6946
v 23.0427 41.6551 -13.2746
v 23.0317 41.4460 -12.3845
v 23.3425 41.6452 -13.5746
v 24.2342 41.4627 -12.3845
v 23.8540 39.9404 -9.7146
v 24.1983 40.7767 -10.3046
v 24.1692 40.2223 -9.6546
v 22.5178 37.3727 -13.7246
v 23.5804 37.5851 -10.7146
v 24.0190 37.3569 -10.4246
v 24.0089 37.1634 -12.5346
v 23.5530 39.3564 -9.7545
v 23.4918 38.7606 -9.8146
v 23.8381 39.6359 -9.5746
v 23.7910 38.7374 -9.6046
v 23.7579 38.1059 -9.7946
v 23.7447 37.8536 -10.0446
v 25.3443 39.7159 -14.1245
v 25.0762 40.3323 -14.1546
v 26.9952 38.6594 -12.1746
v 27.0079 39.2592 -12.1546
v 24.8259 41.2877 -11.4846
v 24.8261 41.2921 -12.6846
v 25.1243 41.2497 -11.7846
v 25.7105 40.9714 -12.0946
v 26.0104 40.9618 -11.1946
v 25.6999 40.7678 -12.7046
v 26.1994 40.2233 -12.7246
v 26.3709 39.9140 -12.7346
v 26.5898 40.5526 -11.5145
v 24.8959 36.8910 -11.0446
v 25.1962 36.8904 -11.3446
v 26.7418 37.7210 -11.9046
v 26.1182 37.2853 -11.9246
v 25.8043 37.0285 -11.6345
v 26.1117 37.1625 -11.6245
v 25.7152 41.0606 -10.8945
v 24.1534 39.9208 -9.6046
v 24.1221 39.3241 -9.6846
v 24.0440 37.8331 -9.9046
v 24.8004 40.8024 -9.9945
v 25.3998 40.7745 -10.0946
v 25.3062 38.9893 -10.4846
v 24.8082 40.9511 -10.2946
v 25.4113 40.9932 -10.2946
v 26.0089 40.9322 -10.5946
v 25.9996 40.7550 -10.4346
v 26.3034 40.8198 -11.2046
v 26.3051 40.8514 -10.8945
v 26.6148 40.4388 -10.9146
v 24.0266 37.5008 -10.1245
v 24.6127 37.2197 -10.4146
v 25.2439 36.9079 -11.0346
v 25.5126 37.1948 -11.0446
v 27.1389 39.5663 -11.8446
v 27.0200 39.8486 -11.8346
v 26.8110 40.1598 -11.8246
v 26.8758 40.2769 -11.5145
v 27.1563 39.8980 -11.5346
v 27.1881 38.6389 -11.8745
v 27.1366 39.5217 -11.5446
v 26.7601 38.0702 -12.1646
v 26.4376 37.6485 -11.6145
v 26.8224 40.4384 -11.2146
f 1 2 3
f 3 4 1
f 5 6 7
f 5 7 8
f 9 10 7
f 4 5 11
f 5 8 11
f 7 12 8
f 7 10 12
f 8 12 13
f 10 14 12
f 15 16 6
f 17 15 6
f 16 18 9
f 17 19 2
f 17 6 19
f 2 19 3
f 19 5 3
f 6 5 19
f 7 6 16
f 9 7 16
f 3 5 4
f 10 9 20
f 20 21 10
f 10 21 14
f 9 18 22
f 20 9 22
f 22 23 24
f 22 24 20
f 20 24 21
f 8 13 25
f 13 12 26
f 25 13 27
f 13 26 27
f 26 28 27
f 29 27 30
f 30 27 28
f 8 25 11
f 26 12 14
f 27 29 25
f 29 31 25
f 31 29 32
f 29 30 32
f 30 28 33
f 30 34 32
f 30 33 34
f 35 32 34
f 11 36 4
f 25 36 11
f 31 37 36
f 36 25 31
f 38 31 32
f 35 38 32
f 26 39 28
f 26 14 39
f 21 40 14
f 21 24 40
f 14 40 39
f 40 41 39
f 39 42 28
f 41 43 42
f 39 41 42
f 28 42 33
f 24 44 40
f 40 45 41
f 40 44 45
f 45 43 41
f 43 46 42
f 46 47 42
f 33 47 34
f 33 42 47
f 38 35 48
f 49 50 51
f 50 52 53
f 51 50 53
f 54 55 49
f 56 57 58
f 59 60 56
f 56 60 57
f 61 51 62
f 15 61 62
f 63 64 65
f 51 61 66
f 66 61 65
f 67 68 64
f 67 64 63
f 53 69 51
f 66 64 68
f 66 65 64
f 67 56 68
f 54 49 66
f 49 51 66
f 54 66 70
f 54 70 71
f 58 71 70
f 58 70 68
f 70 66 68
f 56 58 68
f 72 54 71
f 57 71 58
f 15 62 73
f 73 74 18
f 51 69 62
f 69 74 62
f 74 73 62
f 69 53 74
f 53 75 74
f 75 76 74
f 75 53 52
f 77 76 78
f 78 79 80
f 81 60 59
f 82 60 81
f 82 81 83
f 61 17 84
f 2 84 17
f 2 85 84
f 1 85 2
f 1 4 86
f 84 63 65
f 84 65 61
f 85 63 84
f 87 88 85
f 86 89 87
f 87 85 86
f 85 1 86
f 90 89 86
f 88 63 85
f 87 91 88
f 92 56 67
f 92 63 88
f 92 67 63
f 88 91 92
f 87 93 91
f 87 89 93
f 89 94 93
f 56 92 59
f 92 91 59
f 81 59 91
f 81 91 93
f 95 81 93
f 93 94 95
f 94 96 95
f 83 81 95
f 83 95 97
f 15 17 61
f 73 16 15
f 18 16 73
f 76 18 74
f 23 98 24
f 44 24 98
f 76 22 18
f 76 77 22
f 77 23 22
f 23 99 98
f 100 98 99
f 44 98 100
f 77 101 23
f 101 102 23
f 23 102 99
f 100 99 102
f 103 102 101
f 102 103 104
f 105 104 103
f 77 78 101
f 106 103 101
f 107 103 106
f 78 106 101
f 4 108 86
f 4 36 108
f 37 109 108
f 36 37 108
f 86 108 90
f 108 109 90
f 89 90 94
f 110 90 109
f 110 94 90
f 111 110 109
f 110 96 94
f 110 111 112
f 110 112 96
f 95 113 97
f 95 96 113
f 113 96 114
f 96 112 114
f 115 112 116
f 114 112 115
f 109 37 117
f 37 31 117
f 117 31 118
f 38 118 31
f 109 117 119
f 120 121 45
f 44 120 45
f 45 121 43
f 121 122 123
f 43 121 123
f 124 43 123
f 46 43 124
f 47 46 125
f 100 120 44
f 121 120 104
f 104 126 121
f 126 122 121
f 127 123 122
f 124 123 127
f 125 46 124
f 120 100 104
f 100 102 104
f 125 124 128
f 124 127 128
f 122 126 129
f 129 130 122
f 130 127 122
f 128 127 131
f 131 127 130
f 132 130 129
f 133 131 130
f 133 130 132
f 134 133 132
f 135 134 132
f 126 136 129
f 104 105 126
f 105 136 126
f 103 137 105
f 137 136 105
f 136 138 129
f 107 137 103
f 139 136 137
f 139 138 136
f 132 129 138
f 138 135 132
f 112 111 116
f 118 38 140
f 140 38 48
f 141 35 34
f 48 35 142
f 142 35 141
f 119 118 143
f 119 117 118
f 140 143 118
f 143 140 144
f 145 143 144
f 144 140 48
f 142 144 48
f 146 142 141
f 111 119 147
f 111 109 119
f 119 143 147
f 147 143 145
f 148 145 144
f 148 144 149
f 149 144 142
f 149 142 150
f 142 146 151
f 152 111 147
f 152 147 145
f 145 148 153
f 150 153 149
f 153 148 149
f 150 142 151
f 116 111 152
f 152 145 154
f 155 154 153
f 154 145 153
f 153 150 155
f 156 150 151
f 151 157 158
f 159 116 152
f 159 154 160
f 159 152 154
f 154 155 160
f 161 155 156
f 155 150 156
f 156 151 158
f 160 155 161
f 162 159 160
f 162 160 161
f 163 161 164
f 161 156 164
f 164 156 165
f 156 158 165
f 47 141 34
f 166 141 47
f 47 125 166
f 166 146 141
f 125 128 167
f 125 167 166
f 146 166 157
f 151 146 157
f 167 128 168
f 128 131 168
f 157 166 169
f 166 167 169
f 170 168 131
f 167 171 169
f 168 171 167
f 170 171 168
f 158 157 172
f 157 169 172
f 170 133 173
f 170 131 133
f 170 173 171
f 134 173 133
f 171 173 174
f 175 169 174
f 174 169 171
f 172 169 175
f 176 173 134
f 135 176 134
f 173 177 174
f 176 177 173
f 172 178 158
f 178 172 175
f 55 179 180
f 179 181 180
f 181 182 180
f 183 184 72
f 184 183 185
f 185 183 186
f 187 186 188
f 187 185 186
f 55 54 72
f 49 180 50
f 72 184 55
f 180 182 50
f 52 50 189
f 55 180 49
f 189 50 182
f 184 179 55
f 52 190 75
f 190 76 75
f 190 52 189
f 191 190 189
f 191 192 190
f 76 190 192
f 193 76 192
f 191 194 192
f 72 71 195
f 71 57 195
f 196 57 60
f 195 183 72
f 197 195 57
f 57 196 197
f 198 183 195
f 195 197 198
f 186 198 188
f 186 183 198
f 188 198 197
f 188 197 199
f 199 197 196
f 199 196 200
f 201 188 199
f 201 199 202
f 202 199 200
f 203 202 200
f 204 202 203
f 193 78 76
f 205 79 193
f 206 79 205
f 207 206 205
f 78 193 79
f 80 79 206
f 206 207 208
f 208 207 209
f 196 60 82
f 82 83 210
f 196 211 200
f 211 196 82
f 82 203 211
f 203 82 212
f 212 82 210
f 200 211 203
f 213 212 214
f 213 215 212
f 212 215 203
f 215 204 203
f 83 97 210
f 210 97 216
f 210 214 212
f 214 210 216
f 213 214 217
f 217 218 213
f 106 78 219
f 219 107 106
f 220 221 219
f 219 221 107
f 208 80 206
f 80 219 78
f 219 80 220
f 80 208 222
f 223 221 220
f 222 223 220
f 222 220 80
f 221 223 224
f 208 209 222
f 225 223 222
f 224 223 225
f 209 226 222
f 225 222 226
f 227 225 226
f 228 225 227
f 216 97 113
f 113 229 216
f 113 114 229
f 217 214 216
f 229 217 216
f 230 229 114
f 231 230 115
f 115 230 114
f 231 115 232
f 229 233 217
f 233 229 230
f 234 233 230
f 234 230 231
f 235 233 234
f 234 236 235
f 231 236 234
f 237 236 231
f 218 217 233
f 218 233 235
f 236 237 238
f 235 236 239
f 239 236 238
f 240 218 235
f 240 235 239
f 239 238 241
f 239 241 242
f 242 243 244
f 242 241 243
f 243 245 246
f 245 247 246
f 247 248 249
f 250 135 251
f 250 252 135
f 252 176 135
f 252 253 176
f 254 221 224
f 254 255 250
f 256 255 257
f 255 256 250
f 256 258 252
f 256 252 250
f 253 258 259
f 258 253 252
f 224 260 254
f 224 225 260
f 260 257 255
f 254 260 255
f 261 262 257
f 257 262 256
f 263 262 261
f 262 263 258
f 256 262 258
f 263 259 258
f 263 264 259
f 260 265 257
f 265 261 257
f 266 261 267
f 261 266 263
f 268 266 269
f 268 264 266
f 266 264 263
f 225 228 260
f 265 228 270
f 260 228 265
f 271 265 270
f 271 261 265
f 267 271 269
f 267 261 271
f 267 269 266
f 272 268 269
f 273 137 107
f 273 139 137
f 251 138 139
f 251 135 138
f 274 139 273
f 274 251 139
f 107 221 273
f 221 254 273
f 254 274 273
f 250 251 274
f 254 250 274
f 232 115 116
f 231 232 237
f 116 275 232
f 275 116 159
f 159 162 275
f 276 161 163
f 275 237 232
f 277 275 162
f 277 237 275
f 277 162 161
f 276 277 161
f 163 164 278
f 164 165 278
f 279 237 277
f 277 276 279
f 278 280 163
f 276 281 279
f 281 276 280
f 276 163 280
f 280 278 282
f 238 237 279
f 238 279 283
f 283 279 281
f 284 283 281
f 280 282 285
f 280 284 281
f 238 283 241
f 241 284 286
f 284 285 286
f 284 241 283
f 280 285 284
f 241 286 243
f 287 286 285
f 243 286 245
f 247 245 287
f 247 287 248
f 287 245 286
f 248 287 285
f 288 175 177
f 174 177 175
f 289 178 288
f 178 175 288
f 165 158 178
f 178 289 278
f 178 278 165
f 290 177 253
f 253 177 176
f 290 291 177
f 291 289 288
f 291 288 177
f 291 292 289
f 289 292 282
f 289 282 278
f 291 293 292
f 259 293 290
f 290 293 291
f 259 290 253
f 292 294 282
f 264 293 259
f 294 292 293
f 294 285 282
f 293 264 268
f 294 249 248
f 268 249 294
f 293 268 294
f 248 285 294
f 179 295 181
f 296 297 298
f 295 299 296
f 300 185 187
f 184 185 301
f 301 185 300
f 181 302 182
f 182 303 189
f 302 298 303
f 303 182 302
f 302 181 295
f 296 302 295
f 298 302 296
f 297 304 298
f 297 305 304
f 191 189 303
f 306 194 191
f 306 191 303
f 304 303 298
f 304 306 303
f 307 194 306
f 194 307 308
f 187 188 309
f 310 309 201
f 192 194 193
f 194 205 193
f 205 194 308
f 308 207 205
f 311 207 308
f 311 312 207
f 309 188 201
f 310 201 202
f 310 202 204
f 313 310 204
f 314 204 315
f 314 313 204
f 240 316 317
f 318 209 312
f 319 318 312
f 319 320 318
f 321 320 319
f 312 209 207
f 315 204 215
f 213 315 215
f 213 218 315
f 315 240 317
f 315 317 314
f 315 218 240
f 322 240 323
f 322 323 324
f 324 325 326
f 240 322 316
f 324 327 322
f 316 322 327
f 328 318 329
f 226 318 328
f 330 226 328
f 331 330 328
f 331 332 330
f 329 333 328
f 333 331 328
f 331 334 332
f 334 335 332
f 318 320 329
f 336 331 333
f 325 337 326
f 337 334 336
f 336 334 331
f 337 325 335
f 337 335 334
f 338 320 339
f 338 333 320
f 333 329 320
f 337 336 338
f 336 333 338
f 339 320 321
f 338 339 326
f 337 338 326
f 209 318 226
f 340 226 330
f 226 340 227
f 340 330 341
f 323 240 239
f 323 242 325
f 323 239 242
f 325 324 323
f 335 244 246
f 335 246 342
f 246 244 243
f 246 247 342
f 247 249 272
f 247 272 342
f 325 242 244
f 325 244 335
f 227 340 343
f 227 343 228
f 340 344 343
f 343 344 270
f 228 343 270
f 344 269 270
f 345 269 344
f 269 271 270
f 345 272 269
f 268 272 249
f 341 330 332
f 340 341 344
f 332 335 345
f 332 345 341
f 341 345 344
f 335 342 345
f 345 342 272
f 346 347 348
f 349 346 348
f 299 348 347
f 347 350 299
f 351 299 350
f 347 352 350
f 351 350 353
f 354 355 356
f 356 355 357
f 355 354 349
f 356 357 358
f 357 359 358
f 356 360 354
f 358 360 356
f 361 358 359
f 301 362 184
f 179 184 362
f 348 299 179
f 362 348 179
f 355 349 301
f 301 349 362
f 357 355 301
f 362 349 348
f 179 299 295
f 363 297 296
f 351 296 299
f 363 296 351
f 364 305 297
f 365 305 364
f 364 297 363
f 366 365 364
f 367 364 363
f 364 367 366
f 367 363 351
f 368 366 367
f 369 367 351
f 370 366 368
f 305 365 371
f 372 373 365
f 365 366 374
f 374 372 365
f 375 376 361
f 359 375 361
f 357 301 300
f 377 187 378
f 378 187 309
f 359 357 300
f 300 377 359
f 300 187 377
f 377 378 379
f 375 359 377
f 375 377 379
f 375 379 376
f 376 379 380
f 380 379 381
f 371 304 305
f 371 306 304
f 307 306 371
f 371 365 373
f 307 371 373
f 307 373 382
f 382 308 307
f 308 382 311
f 382 383 311
f 382 373 372
f 372 383 382
f 384 311 383
f 385 384 383
f 384 386 311
f 372 374 387
f 387 383 372
f 378 309 310
f 313 381 310
f 388 313 314
f 314 317 388
f 379 378 381
f 381 378 310
f 381 313 388
f 381 388 380
f 388 317 389
f 390 388 389
f 390 389 391
f 391 392 393
f 388 390 380
f 386 312 311
f 312 394 319
f 394 321 319
f 386 394 312
f 386 384 395
f 394 396 321
f 396 339 321
f 389 317 316
f 392 389 316
f 392 391 389
f 339 397 326
f 397 327 326
f 392 316 327
f 327 397 398
f 398 392 327
f 393 392 398
f 324 326 327
f 399 400 401
f 402 401 400
f 399 403 400
f 404 405 399
f 406 400 403
f 406 407 400
f 399 405 403
f 407 402 400
f 407 408 402
f 409 408 407
f 409 410 408
f 411 412 360
f 413 412 411
f 414 415 416
f 414 416 411
f 417 418 412
f 413 419 417
f 413 417 412
f 411 416 413
f 418 417 404
f 419 413 420
f 413 416 420
f 421 422 423
f 423 422 346
f 360 421 354
f 354 421 423
f 399 401 422
f 422 401 346
f 422 424 399
f 425 418 424
f 421 425 424
f 424 422 421
f 360 412 425
f 425 421 360
f 418 399 424
f 412 418 425
f 404 399 418
f 423 346 349
f 354 423 349
f 346 401 347
f 426 347 402
f 402 347 401
f 426 402 408
f 408 427 426
f 410 427 408
f 350 352 428
f 353 350 428
f 353 428 429
f 430 353 429
f 426 352 347
f 426 431 352
f 431 428 352
f 429 428 431
f 427 431 426
f 429 432 430
f 430 432 433
f 434 431 427
f 429 431 434
f 434 435 429
f 432 429 435
f 436 433 432
f 427 410 434
f 432 435 436
f 369 351 353
f 369 353 430
f 437 369 430
f 430 438 437
f 433 439 438
f 433 438 430
f 440 433 436
f 440 439 433
f 441 415 414
f 441 414 358
f 360 358 411
f 358 414 411
f 442 415 441
f 415 442 443
f 361 441 358
f 441 361 442
f 437 367 369
f 437 368 367
f 444 368 437
f 366 370 374
f 368 444 370
f 370 445 374
f 444 437 438
f 370 444 446
f 446 445 370
f 444 438 439
f 444 439 446
f 439 447 446
f 446 447 445
f 445 447 448
f 439 449 447
f 440 449 439
f 450 447 449
f 447 450 448
f 440 451 449
f 450 449 452
f 449 451 452
f 453 450 452
f 450 453 448
f 454 448 453
f 445 455 374
f 445 448 455
f 456 442 457
f 442 361 376
f 457 376 380
f 442 376 457
f 458 457 459
f 456 457 458
f 448 454 455
f 460 461 462
f 460 462 463
f 454 464 465
f 465 466 463
f 460 466 467
f 460 463 466
f 468 460 467
f 461 460 468
f 464 454 453
f 466 464 469
f 464 466 465
f 466 470 467
f 471 468 472
f 468 467 472
f 385 383 387
f 385 395 384
f 455 387 374
f 387 455 385
f 473 385 455
f 474 395 385
f 473 474 385
f 474 475 395
f 454 473 455
f 454 474 473
f 463 462 475
f 454 465 474
f 465 463 475
f 474 465 475
f 457 380 390
f 459 457 390
f 390 391 459
f 476 459 391
f 393 398 477
f 393 476 391
f 398 471 477
f 398 397 478
f 397 339 478
f 339 396 461
f 462 461 396
f 339 461 478
f 398 478 471
f 478 461 468
f 478 468 471
f 394 386 395
f 475 462 394
f 395 475 394
f 462 396 394
f 479 480 481
f 482 483 480
f 484 480 479
f 405 404 485
f 485 404 417
f 417 481 485
f 405 486 487
f 485 483 405
f 482 486 483
f 486 488 487
f 483 486 405
f 480 483 485
f 481 480 485
f 489 486 482
f 487 488 490
f 488 491 490
f 486 489 488
f 489 492 488
f 488 493 491
f 494 492 489
f 495 489 482
f 493 488 492
f 487 496 403
f 405 487 403
f 403 496 406
f 406 497 407
f 487 490 496
f 490 498 496
f 498 406 496
f 406 498 497
f 491 498 490
f 498 499 497
f 409 497 499
f 499 498 491
f 493 500 491
f 500 499 491
f 501 499 500
f 497 409 407
f 502 410 409
f 503 409 499
f 409 503 502
f 504 502 503
f 499 501 503
f 501 504 503
f 420 505 419
f 505 479 481
f 420 416 506
f 506 416 507
f 419 505 481
f 417 419 481
f 416 415 507
f 502 508 410
f 504 508 502
f 504 509 510
f 508 434 410
f 434 508 435
f 510 436 435
f 436 510 511
f 511 440 436
f 510 435 508
f 512 511 510
f 512 513 511
f 510 508 504
f 512 514 513
f 512 510 509
f 514 515 513
f 514 512 509
f 509 516 514
f 440 511 451
f 513 451 511
f 415 443 517
f 518 517 443
f 443 456 518
f 518 458 519
f 518 520 517
f 518 521 520
f 519 521 518
f 515 451 513
f 522 523 524
f 523 522 515
f 514 523 515
f 525 523 516
f 516 523 514
f 525 526 524
f 523 525 524
f 452 527 453
f 528 453 527
f 527 529 528
f 529 469 528
f 515 530 451
f 451 530 452
f 530 529 527
f 452 530 527
f 522 524 529
f 531 469 524
f 524 469 529
f 515 522 530
f 530 522 529
f 456 443 442
f 458 518 456
f 532 458 476
f 533 519 458
f 532 533 458
f 476 458 459
f 393 477 476
f 534 476 477
f 531 526 534
f 476 534 532
f 532 534 535
f 453 528 464
f 464 528 469
f 469 470 466
f 472 477 471
f 477 472 534
f 472 467 470
f 534 470 531
f 470 469 531
f 534 472 470
f 526 531 524
f 536 537 538
f 538 539 536
f 482 484 537
f 482 480 484
f 482 536 495
f 540 541 494
f 536 539 495
f 482 537 536
f 540 495 539
f 540 539 542
f 542 541 540
f 543 541 542
f 494 544 492
f 544 493 492
f 489 495 494
f 494 495 540
f 493 545 500
f 544 545 493
f 541 546 494
f 494 546 544
f 544 547 545
f 547 548 545
f 546 547 544
f 548 549 545
f 545 501 500
f 550 501 545
f 550 504 501
f 550 551 504
f 551 509 504
f 549 550 545
f 552 509 551
f 551 550 549
f 549 553 551
f 552 551 553
f 554 552 553
f 506 507 555
f 556 555 507
f 505 420 506
f 507 415 557
f 558 526 559
f 516 560 525
f 560 559 525
f 558 559 561
f 559 560 561
f 558 561 562
f 509 552 516
f 526 525 559
f 556 507 557
f 557 415 517
f 557 517 563
f 564 563 517
f 517 520 564
f 564 520 565
f 520 521 565
f 565 521 566
f 567 568 566
f 566 568 569
f 521 519 570
f 519 533 570
f 570 533 568
f 533 571 568
f 566 521 567
f 567 521 570
f 571 526 558
f 570 568 567
f 569 568 558
f 558 568 571
f 571 533 535
f 535 526 571
f 534 526 535
f 532 535 533
f 572 484 479
f 573 484 572
f 573 574 537
f 537 484 573
f 573 572 575
f 574 573 575
f 538 576 577
f 538 574 576
f 576 574 578
f 539 538 542
f 537 574 538
f 542 538 577
f 577 543 542
f 577 579 543
f 579 580 543
f 543 581 541
f 541 581 546
f 581 547 546
f 581 582 547
f 582 548 547
f 581 583 582
f 584 582 583
f 584 548 582
f 543 580 581
f 580 583 581
f 583 585 584
f 553 584 585
f 585 554 553
f 548 553 549
f 584 553 548
f 554 586 552
f 587 588 575
f 575 589 587
f 587 590 591
f 589 590 587
f 572 479 589
f 505 589 479
f 590 589 505
f 506 590 505
f 575 572 589
f 555 590 506
f 590 555 592
f 516 586 593
f 593 561 560
f 516 552 586
f 560 516 593
f 558 562 569
f 594 595 557
f 557 563 594
f 596 594 563
f 596 563 564
f 597 564 565
f 596 564 597
f 565 598 597
f 565 566 598
f 566 599 598
f 600 601 599
f 600 599 566
f 562 601 600
f 598 599 602
f 600 569 562
f 600 566 569
f 574 575 588
f 578 574 588
f 603 578 588
f 603 588 604
f 578 603 605
f 606 607 608
f 578 605 608
f 603 604 609
f 610 579 577
f 607 577 576
f 610 577 607
f 608 576 578
f 610 611 579
f 611 612 579
f 608 607 576
f 611 613 612
f 614 611 610
f 614 613 611
f 607 614 610
f 579 612 580
f 612 583 580
f 615 585 583
f 615 583 612
f 615 616 585
f 554 585 616
f 617 586 554
f 618 619 609
f 620 619 618
f 621 620 618
f 588 587 604
f 587 591 604
f 592 591 590
f 591 618 604
f 622 621 592
f 591 621 618
f 591 592 621
f 622 623 621
f 623 622 624
f 604 618 609
f 555 556 592
f 593 586 617
f 561 593 625
f 625 562 561
f 601 562 625
f 626 622 556
f 556 622 592
f 624 622 626
f 624 626 627
f 594 596 628
f 626 556 557
f 628 595 594
f 595 626 557
f 628 596 597
f 629 628 597
f 629 597 602
f 630 602 599
f 597 598 602
f 630 631 602
f 601 630 599
f 632 605 633
f 632 634 605
f 632 633 635
f 634 632 636
f 637 634 636
f 632 635 638
f 636 632 638
f 635 639 638
f 606 614 607
f 608 605 634
f 633 603 609
f 608 634 606
f 605 603 633
f 606 634 640
f 606 640 614
f 640 613 614
f 637 640 634
f 641 612 613
f 640 637 642
f 640 642 613
f 612 641 615
f 643 616 615
f 644 645 617
f 615 641 643
f 616 645 644
f 644 554 616
f 644 617 554
f 619 635 609
f 621 623 620
f 646 620 623
f 620 647 619
f 623 624 646
f 633 609 635
f 620 646 647
f 619 648 635
f 647 648 619
f 639 635 648
f 645 649 617
f 650 651 630
f 649 652 653
f 652 651 650
f 653 652 650
f 593 617 649
f 625 593 649
f 653 650 625
f 650 601 625
f 650 630 601
f 653 625 649
f 646 624 654
f 654 624 627
f 655 626 656
f 626 595 656
f 656 595 628
f 656 628 629
f 627 626 655
f 657 629 602
f 658 656 629
f 659 656 658
f 659 658 657
f 658 629 657
f 657 602 631
f 651 631 630
f 631 651 660
f 661 662 663
f 661 663 664
f 665 642 637
f 665 666 642
f 636 665 637
f 638 661 636
f 636 661 664
f 664 665 636
f 638 662 661
f 664 666 665
f 664 667 666
f 667 668 666
f 668 669 666
f 670 641 613
f 642 670 613
f 666 670 642
f 643 641 670
f 670 666 669
f 670 669 643
f 669 671 643
f 672 673 616
f 674 671 669
f 671 616 643
f 616 673 645
f 647 646 675
f 676 647 675
f 662 638 639
f 647 677 648
f 676 677 647
f 639 648 678
f 662 639 678
f 678 648 677
f 677 679 678
f 649 673 680
f 649 680 681
f 649 645 673
f 652 682 651
f 649 681 652
f 652 681 682
f 675 646 654
f 675 654 676
f 683 684 655
f 655 656 659
f 655 659 683
f 627 655 684
f 660 657 631
f 685 657 660
f 685 660 682
f 657 686 659
f 685 686 657
f 687 682 681
f 682 660 651
f 688 667 664
f 688 689 667
f 689 690 667
f 674 669 668
f 668 667 690
f 668 691 674
f 671 672 616
f 692 693 679
f 694 692 679
f 695 679 693
f 696 662 678
f 663 662 696
f 688 664 663
f 679 677 694
f 677 676 694
f 696 678 695
f 695 678 679
f 688 663 697
f 697 663 696
f 697 696 695
f 695 698 697
f 691 671 674
f 691 672 671
f 681 680 699
f 680 673 699
f 700 694 676
f 700 692 694
f 701 700 676
f 676 654 701
f 701 654 702
f 702 654 627
f 702 627 703
f 703 627 704
f 683 704 684
f 704 627 684
f 705 683 659
f 705 659 706
f 706 659 686
f 706 686 685
f 707 705 706
f 708 685 709
f 699 687 681
f 682 709 685
f 687 709 682
f 687 708 709
f 683 705 710
f 704 683 710
f 698 695 693
f 711 697 698
f 693 692 712
f 711 698 713
f 713 698 693
f 714 711 713
f 713 693 712
f 714 715 711
f 713 712 716
f 697 717 688
f 688 717 689
f 718 690 689
f 718 689 717
f 719 690 718
f 668 690 719
f 720 718 717
f 719 721 668
f 697 711 717
f 720 719 718
f 717 711 720
f 720 711 715
f 721 719 722
f 720 723 719
f 720 715 723
f 724 673 672
f 668 721 691
f 724 725 673
f 673 725 699
f 699 726 687
f 726 699 725
f 727 672 691
f 727 691 721
f 728 692 700
f 692 728 712
f 729 728 700
f 701 729 700
f 730 701 702
f 731 712 728
f 729 732 728
f 731 728 732
f 731 733 712
f 729 701 734
f 712 733 716
f 735 731 732
f 685 708 706
f 726 708 687
f 708 736 706
f 730 703 704
f 730 702 703
f 730 704 737
f 701 730 737
f 710 705 707
f 738 710 707
f 738 739 740
f 738 707 739
f 739 707 706
f 736 739 706
f 713 716 714
f 741 715 714
f 716 742 714
f 741 743 715
f 714 742 741
f 744 743 741
f 745 744 741
f 742 746 741
f 747 744 745
f 743 723 715
f 723 722 719
f 722 723 743
f 727 721 722
f 748 672 727
f 748 724 672
f 743 749 722
f 743 744 749
f 749 727 722
f 724 750 751
f 749 752 727
f 752 748 727
f 749 744 747
f 752 749 747
f 724 751 725
f 753 733 735
f 754 753 735
f 755 733 753
f 755 753 756
f 753 754 757
f 756 753 757
f 756 757 758
f 733 731 735
f 755 716 733
f 716 755 742
f 748 750 724
f 759 725 751
f 725 759 760
f 761 760 759
f 762 708 726
f 762 736 708
f 726 725 760
f 762 726 760
f 762 763 736
f 760 763 762
f 754 735 732
f 729 764 732
f 734 764 729
f 757 754 765
f 765 754 732
f 765 732 764
f 765 758 757
f 766 758 765
f 765 764 766
f 767 737 704
f 704 710 767
f 734 701 737
f 768 767 710
f 769 767 768
f 737 767 770
f 768 710 738
f 740 739 736
f 771 738 740
f 738 771 768
f 763 772 736
f 740 736 773
f 770 767 769
f 752 747 774
f 755 756 775
f 742 755 775
f 776 742 775
f 777 775 756
f 777 756 758
f 778 776 775
f 779 776 778
f 778 775 777
f 779 778 780
f 741 746 745
f 742 776 746
f 776 781 746
f 745 782 747
f 746 781 745
f 747 782 774
f 781 782 745
f 776 779 781
f 782 783 774
f 782 781 783
f 784 785 774
f 783 784 774
f 752 785 748
f 785 752 774
f 750 748 785
f 759 751 786
f 758 766 787
f 788 777 758
f 788 758 787
f 764 789 766
f 790 788 787
f 791 790 787
f 766 791 787
f 792 777 788
f 790 792 788
f 766 789 791
f 761 763 760
f 768 771 793
f 773 771 740
f 794 763 761
f 794 772 763
f 736 772 773
f 771 795 793
f 795 771 773
f 796 773 772
f 796 795 773
f 797 759 786
f 759 797 761
f 797 794 761
f 798 795 796
f 772 794 796
f 799 796 794
f 796 799 798
f 800 797 786
f 801 794 797
f 801 799 794
f 734 737 802
f 802 737 770
f 803 764 734
f 734 802 803
f 769 768 793
f 793 804 769
f 804 793 795
f 798 804 795
f 780 805 779
f 778 806 780
f 806 807 780
f 780 808 805
f 808 809 805
f 779 805 781
f 781 805 783
f 810 750 785
f 784 810 785
f 783 805 784
f 805 809 784
f 806 777 792
f 778 777 806
f 811 812 790
f 791 811 790
f 789 811 791
f 806 792 813
f 790 812 792
f 814 812 811
f 806 815 807
f 813 815 806
f 792 812 813
f 807 808 780
f 812 816 813
f 816 812 814
f 815 813 817
f 817 813 816
f 818 816 814
f 807 815 819
f 807 819 808
f 817 816 818
f 809 808 819
f 810 820 750
f 821 820 810
f 820 822 751
f 821 810 784
f 823 800 822
f 824 821 784
f 786 751 800
f 820 751 750
f 800 801 797
f 751 822 800
f 825 811 789
f 789 826 825
f 814 811 825
f 803 826 789
f 789 764 803
f 827 803 802
f 828 814 825
f 818 814 828
f 829 825 826
f 828 825 829
f 830 769 804
f 770 769 831
f 831 769 830
f 804 832 830
f 833 832 799
f 823 833 799
f 832 804 798
f 801 823 799
f 799 832 798
f 800 823 801
f 826 803 829
f 831 834 770
f 835 832 833
f 834 831 830
f 836 815 817
f 819 815 836
f 809 819 837
f 824 809 837
f 837 819 836
f 824 837 838
f 836 839 837
f 837 839 838
f 824 784 809
f 821 824 840
f 840 820 821
f 841 828 842
f 828 829 842
f 843 841 842
f 844 841 845
f 845 841 843
f 841 818 828
f 844 818 841
f 846 836 817
f 818 844 817
f 844 846 817
f 846 839 836
f 844 847 846
f 839 846 848
f 846 847 848
f 847 844 845
f 847 849 850
f 848 847 850
f 845 849 847
f 851 833 823
f 852 823 822
f 851 823 852
f 820 853 822
f 843 842 829
f 843 829 854
f 854 829 855
f 854 855 856
f 843 854 857
f 857 845 843
f 856 858 854
f 854 858 857
f 802 770 859
f 770 834 859
f 860 827 802
f 829 803 855
f 803 827 855
f 855 827 861
f 827 860 861
f 855 861 856
f 835 830 832
f 830 835 862
f 851 835 833
f 834 830 862
f 835 863 862
f 864 835 851
f 865 802 859
f 860 802 865
f 865 859 866
f 859 834 867
f 866 859 867
f 834 862 867
f 867 862 868
f 839 848 869
f 838 839 869
f 870 824 838
f 840 824 870
f 869 870 838
f 848 850 871
f 848 871 869
f 869 872 870
f 869 871 872
f 873 870 872
f 840 870 873
f 822 853 852
f 840 874 820
f 874 853 820
f 875 857 858
f 875 849 845
f 875 845 857
f 875 858 876
f 858 877 876
f 878 875 876
f 878 879 875
f 880 879 878
f 880 881 879
f 882 880 878
f 871 850 883
f 883 850 849
f 875 879 849
f 879 883 849
f 883 884 871
f 884 883 881
f 881 883 879
f 881 885 884
f 886 885 881
f 880 886 881
f 852 853 851
f 887 851 853
f 874 887 853
f 858 856 877
f 856 861 888
f 856 888 877
f 876 877 889
f 890 877 888
f 878 876 891
f 891 876 889
f 877 890 889
f 891 889 892
f 892 889 890
f 882 878 891
f 860 865 893
f 860 894 861
f 861 894 888
f 893 895 860
f 888 894 890
f 868 862 863
f 863 835 864
f 896 864 851
f 864 897 863
f 887 896 851
f 868 863 897
f 898 897 864
f 899 896 887
f 899 864 896
f 865 866 900
f 866 867 901
f 900 866 901
f 894 860 895
f 902 893 865
f 900 902 865
f 900 901 902
f 901 903 902
f 867 904 901
f 867 868 904
f 868 897 905
f 868 905 904
f 903 901 904
f 886 880 882
f 873 872 906
f 872 871 884
f 884 906 872
f 884 885 907
f 906 884 907
f 908 840 873
f 908 873 906
f 908 906 909
f 908 874 840
f 910 892 890
f 886 882 911
f 911 882 891
f 911 891 892
f 911 892 912
f 912 892 910
f 913 911 912
f 913 886 911
f 912 914 913
f 915 885 886
f 915 916 885
f 907 885 916
f 907 917 906
f 917 909 906
f 915 886 913
f 907 916 917
f 918 915 913
f 899 919 864
f 920 899 887
f 920 919 899
f 921 922 874
f 922 887 874
f 922 923 887
f 923 920 887
f 923 922 924
f 925 914 912
f 910 925 912
f 895 893 926
f 893 902 926
f 926 902 927
f 903 928 927
f 903 927 902
f 894 895 929
f 930 927 931
f 928 931 927
f 930 929 895
f 926 930 895
f 927 930 926
f 890 894 932
f 894 929 932
f 933 932 929
f 910 890 933
f 933 890 932
f 930 933 929
f 910 933 925
f 914 925 934
f 934 925 933
f 935 934 933
f 935 933 930
f 935 930 931
f 936 913 914
f 936 914 937
f 935 938 937
f 935 937 934
f 934 937 914
f 935 931 938
f 939 897 898
f 905 897 939
f 904 905 928
f 905 939 928
f 904 928 903
f 928 939 940
f 939 898 940
f 919 898 864
f 919 940 898
f 931 928 940
f 940 919 941
f 941 919 920
f 931 940 942
f 941 942 940
f 920 923 941
f 923 924 941
f 941 924 942
f 917 943 909
f 917 916 944
f 943 917 944
f 945 916 915
f 944 916 945
f 915 918 946
f 915 946 945
f 945 946 947
f 945 947 944
f 944 947 943
f 948 909 943
f 908 909 948
f 948 943 949
f 908 950 874
f 950 921 874
f 949 942 948
f 942 951 948
f 921 951 924
f 921 924 922
f 948 950 908
f 921 950 948
f 951 921 948
f 913 936 918
f 937 918 936
f 952 946 918
f 946 931 949
f 942 949 931
f 938 952 918
f 937 938 918
f 931 946 938
f 947 946 949
f 946 952 938
f 949 943 947
f 924 951 942
