# Superior Vena Cava (FMA4720)
# BodyParts3D, (c) The Database Center for Life Science licensed under CC Attribution-Share Alike 2.1 Japan
# Licence: https://creativecommons.org/licenses/by-sa/2.1/jp/
# Modified from the original: see README.md in this repository.
# Units: millimetres. +X = patient left, +Y = posterior, +Z = superior.
# Origin: centroid of the heart wall.
o Superior_Vena_Cava
v -40.8007 4.4358 83.7555
v -40.8710 5.4358 83.7555
v -40.9492 4.9358 83.2555
v -40.8125 3.4358 81.9054
v -41.3789 5.4358 78.2555
v -41.0820 5.9358 82.2555
v -40.3125 4.4358 84.3454
v -39.8125 5.4358 84.4554
v -40.4840 4.9358 84.2555
v -40.2851 2.4358 83.7555
v -40.5664 2.9358 83.2555
v -40.0351 1.4358 83.2555
v -40.5429 2.4358 81.7555
v -39.8125 2.4358 84.2754
v -39.3125 2.9358 84.4354
v -39.8125 1.9358 84.1055
v -39.9023 1.4358 83.7555
v -40.3125 6.4358 84.3354
v -40.8320 6.4358 83.7555
v -40.9492 6.4358 83.2555
v -40.8867 7.4358 82.7555
v -41.1601 6.9358 80.7555
v -40.3125 7.9358 84.1055
v -40.5742 7.9358 83.7555
v -40.2617 8.9358 83.7555
v -40.8085 7.4358 83.2555
v -40.5820 8.4358 83.2555
v -39.8125 7.9358 84.3954
v -39.8323 8.9358 84.2555
v -40.2226 9.4358 83.2555
v -40.5429 9.4358 81.2555
v -39.8125 9.9718 83.7555
v -40.1132 9.9358 82.7555
v -39.4492 10.9358 83.2555
v -39.9335 10.9358 80.7555
v -40.4179 1.4358 74.7555
v -39.8789 0.9358 82.2555
v -41.3242 3.9358 75.2555
v -40.8320 2.4358 75.7555
v -40.9023 8.4358 80.7555
v -41.4492 6.4358 77.7555
v -41.4882 7.9358 75.7555
v -41.1210 9.4358 76.2555
v -40.4648 10.4358 78.7555
v -39.7929 11.9358 77.7555
v -42.0507 5.9358 67.7555
v -41.3867 8.9358 74.7555
v -41.9023 7.9358 70.2555
v -40.8789 10.4358 75.2555
v -40.0820 11.9358 75.7555
v -40.9804 11.4358 70.2555
v -39.0429 -0.5642 74.7555
v -40.8476 1.4358 52.2555
v -42.0742 6.9358 68.2555
v -41.7929 8.9358 69.7555
v -41.3710 10.4358 70.2555
v -42.3789 5.4358 57.7555
v -42.1992 7.9358 65.2555
v -42.7851 7.4358 53.2555
v -41.9726 9.4358 65.2555
v -40.0820 0.4358 52.2555
v -38.3125 -1.3262 74.7555
v -41.4492 2.4358 52.7555
v -42.7304 8.9358 52.7555
v -42.0429 10.9358 57.7555
v -41.1210 12.9358 58.7555
v -39.5351 13.9358 69.2555
v -40.7382 13.9358 55.7555
v -39.2148 14.9358 63.7555
v -42.4414 4.9358 52.7555
v -41.9414 3.4358 52.2555
v -42.7460 6.4358 52.2555
v -42.4804 10.4358 52.2555
v -42.1835 11.4358 52.2555
v -41.7539 12.4358 52.7555
v -41.2070 13.4358 53.2555
v -40.4257 0.9358 51.2555
v -39.8125 0.2488 51.2555
v -39.8632 0.4358 50.7555
v -40.3125 0.9358 50.7654
v -40.0351 0.9358 50.2555
v -42.5820 5.4358 50.7555
v -42.3125 4.3878 51.2555
v -42.4960 5.4358 50.2555
v -42.3125 4.8058 50.2555
v -42.1367 4.9358 49.7555
v -41.8945 3.4358 51.2555
v -42.0664 3.9358 50.7555
v -42.2851 4.4358 50.7555
v -42.1445 4.4358 50.2555
v -41.8125 3.9358 50.2054
v -41.8125 4.4358 49.8154
v -41.8125 4.9358 49.4254
v -41.6289 2.9358 51.2555
v -41.8085 3.4358 50.7555
v -41.1835 2.4358 50.7555
v -41.4892 3.4358 50.2555
v -41.3125 3.9358 49.8755
v -40.8125 4.4358 49.5854
v -40.8125 1.5338 51.2555
v -40.3125 1.3488 50.2555
v -40.8125 2.4358 50.1754
v -40.8125 2.9358 49.9654
v -40.3125 3.4358 49.6554
v -40.6289 1.4358 50.7555
v -39.8344 1.4358 49.7555
v -42.8007 8.4358 51.7555
v -42.8125 7.1858 51.2555
v -42.7304 6.4358 50.7555
v -42.6992 9.4358 51.2555
v -42.7148 8.9358 50.7555
v -42.7695 7.9358 50.7555
v -42.6289 6.9358 50.2555
v -42.5507 8.9358 50.2555
v -42.2596 5.4358 49.7555
v -42.2946 6.9358 49.7555
v -42.4882 10.4358 51.2555
v -42.1601 11.4358 51.2555
v -42.5585 9.9358 50.7555
v -42.2617 10.9358 50.7555
v -42.4960 9.4358 50.2555
v -42.3125 10.2828 50.2555
v -42.3125 9.4358 50.0254
v -41.9882 11.9358 51.7555
v -41.8125 12.2018 51.2555
v -42.0585 11.4358 50.7555
v -42.0429 10.9358 50.2555
v -41.8125 10.4358 49.7355
v -41.5039 12.9358 51.7555
v -40.7382 13.9358 50.7555
v -41.3125 12.1368 50.2555
v -40.8125 11.9358 49.8655
v -40.9257 13.9358 51.7555
v -40.1367 14.9358 53.2555
v -40.1679 14.9358 51.2555
v -40.4335 14.4358 50.7555
v -40.4414 13.9358 50.2555
v -40.1500 14.4358 50.2555
v -39.2428 15.9358 52.2555
v -39.2036 15.9358 51.2555
v -40.0585 14.9358 50.7555
v -39.7563 14.9358 50.2555
v -39.8125 13.4358 49.7054
v -39.8125 14.4358 49.9354
v -39.8125 4.9358 49.5454
v -39.8125 1.9358 49.6255
v -37.3125 -0.0642 49.6055
v -41.8125 9.9358 49.6255
v -41.3125 10.4358 49.5654
v -39.8125 11.4358 49.5754
v -36.8125 -2.6852 82.7555
v -35.8125 -3.3342 82.7555
v -36.1907 -3.0642 83.2555
v -39.3125 0.4358 83.8454
v -39.3125 1.1518 84.2555
v -39.5273 0.4358 83.2555
v -39.0664 -0.0642 83.7555
v -39.3125 -0.0452 82.2555
v -38.8125 -0.0642 84.0754
v -38.8125 0.4358 84.3154
v -38.8125 0.9358 84.3954
v -38.7226 -0.5642 83.7555
v -38.8710 -0.5642 83.2555
v -38.5351 -1.0642 82.2555
v -38.4726 -1.0642 83.2555
v -38.3125 -0.5642 84.2854
v -38.3125 -0.0642 84.4054
v -38.3125 0.9358 84.4554
v -38.3554 -1.0642 83.7555
v -38.0195 -1.5642 83.2555
v -37.8125 -1.6312 83.7555
v -38.0664 -1.5642 82.7555
v -37.8125 -0.0642 84.4654
v -37.5031 -2.0642 83.2555
v -36.7272 -2.5642 83.7555
v -36.8125 -2.6462 83.2555
v -37.3125 -2.2792 82.7555
v -36.3125 -2.5642 84.0854
v -36.3125 -2.0642 84.3555
v -35.3125 -2.0642 84.4354
v -31.3125 -2.0642 84.4654
v -37.3125 2.9358 84.4754
v -35.9599 -3.0642 83.7555
v -39.3125 1.9358 84.3855
v -38.8125 1.9358 84.4454
v -38.8125 9.4358 84.4554
v -39.3125 9.4358 84.3954
v -39.3125 10.4358 84.1055
v -39.2773 10.9358 83.7555
v -39.6679 10.9358 82.2555
v -39.0976 11.4358 83.2555
v -39.0664 11.9358 81.7555
v -37.8125 11.4358 84.4554
v -38.8125 11.0148 84.2555
v -38.8125 11.5678 83.7555
v -38.6835 11.9358 83.2555
v -38.4675 11.4358 84.2555
v -38.3125 11.9358 84.0055
v -38.3125 12.4708 82.7555
v -37.8125 11.9358 84.3755
v -37.8125 12.5728 83.7555
v -36.3125 12.9358 84.4254
v -37.6057 12.9358 83.2555
v -36.8750 12.9358 84.2555
v -35.8125 12.9358 84.4654
v -37.3125 13.4548 82.2555
v -36.8125 13.3458 83.7555
v -36.8125 13.5258 83.2555
v -36.0541 13.4358 84.2555
v -36.3125 13.6268 83.7555
v -36.3125 13.9358 82.8454
v -36.3125 14.7048 79.7555
v -35.3125 14.0958 83.7555
v -35.3125 15.0488 80.2555
v -36.8062 -2.5642 74.7555
v -35.3125 -3.5992 82.7555
v -38.9414 12.9358 78.2555
v -38.3125 13.1118 80.2555
v -37.3125 14.0798 79.7555
v -36.8125 15.0568 76.7555
v -35.8125 15.2828 78.2555
v -36.3125 -2.8492 73.7555
v -39.3007 12.9358 76.2555
v -38.3125 13.9358 76.4254
v -39.4492 13.4358 72.7555
v -37.8125 14.9358 73.4554
v -35.8125 16.1578 73.7555
v -36.8125 15.6188 73.7555
v -35.3125 -3.1462 66.2555
v -37.3125 16.0018 69.2555
v -36.3125 16.5408 69.7555
v -35.8125 16.4788 71.7555
v -34.8125 17.1188 70.2555
v -36.8125 -2.2322 52.2555
v -38.3125 15.2518 68.7555
v -36.8125 16.4628 68.2555
v -37.3125 16.4478 65.2555
v -35.8125 16.9358 68.7254
v -38.3125 15.8148 63.7555
v -38.3125 16.0018 61.7555
v -37.3125 16.6978 62.7555
v -36.3125 17.0798 65.2555
v -35.8125 17.9708 57.2555
v -34.8125 17.8688 63.7555
v -37.8125 -1.6232 52.7555
v -39.6210 15.4358 54.2555
v -37.8125 17.0798 53.7555
v -36.8125 17.5328 56.2555
v -36.8125 17.7828 52.2555
v -38.8125 -0.7712 51.7555
v -38.3125 -1.1382 51.2555
v -38.1997 -1.0642 50.7555
v -37.8125 -1.5762 51.7555
v -37.8125 -1.3732 50.7555
v -37.8125 -1.0642 50.2254
v -37.8125 -0.5642 49.8454
v -37.3125 -1.8262 51.2555
v -37.7312 -1.5642 51.2555
v -37.3125 -1.6772 50.7555
v -37.3125 -1.3832 50.2555
v -37.3125 -1.0642 49.9454
v -36.3125 -2.3422 51.2555
v -35.8125 -2.7172 52.2555
v -35.3125 -2.7952 51.2555
v -39.3125 14.5558 49.7555
v -38.3125 16.6658 50.7555
v -37.8125 16.4358 49.9254
v -37.3125 16.4218 49.7555
v -38.3125 16.7908 51.7555
v -37.8125 17.1428 51.2555
v -37.8125 16.7758 50.2555
v -37.3125 17.0648 50.2555
v -34.8125 17.4358 49.7154
v -37.8125 17.0488 50.7555
v -35.3125 18.4478 51.2555
v -37.3125 17.3228 50.7555
v -35.3125 18.4788 52.7555
v -35.3125 18.3148 50.7555
v -35.8125 17.6808 50.2555
v -37.3125 -0.5642 49.6954
v -34.8125 -1.0642 49.5654
v -35.8125 15.4358 49.5454
v -39.3125 13.9358 49.6255
v -37.3125 15.9358 49.6155
v -34.8125 16.9358 49.5954
v -35.3125 -3.5602 83.2555
v -35.3125 -3.0642 84.1355
v -34.9590 -3.5642 83.7555
v -34.8125 -3.7792 83.2555
v -33.8125 -3.9592 83.7555
v -34.3125 -4.0132 82.2555
v -35.3125 -2.5642 84.3655
v -34.3125 -3.0642 84.3354
v -33.8125 -3.5642 84.1754
v -33.8125 -4.1152 83.2555
v -33.3125 -3.0642 84.3855
v -34.3125 -3.9512 80.2555
v -33.3125 -4.3022 82.2555
v -32.3125 -4.4592 81.7555
v -32.8125 -3.5642 84.2854
v -32.8125 -4.1702 83.7555
v -32.8125 -4.3342 83.2555
v -31.8125 -4.2792 83.7555
v -32.3125 -4.4672 82.7555
v -31.8125 -4.0642 83.9955
v -31.8125 -4.4352 83.2555
v -33.8125 13.4358 84.4654
v -35.3125 13.4358 84.4254
v -34.8125 13.9548 84.2555
v -34.8465 14.4358 83.2555
v -34.1625 14.4358 83.7555
v -33.8125 15.0958 81.7555
v -33.8125 14.6978 83.2555
v -33.3125 13.9358 84.4154
v -33.3125 14.4358 83.9754
v -33.3125 14.5958 83.7555
v -31.3125 13.9358 84.4654
v -32.3125 14.4358 84.2854
v -32.8125 14.6428 83.7555
v -32.8125 14.8148 83.2555
v -32.8125 15.0958 82.2555
v -31.8125 14.6818 83.7555
v -31.3125 14.4358 84.2455
v -31.8125 14.8458 83.2555
v -33.8125 -3.6462 66.7555
v -34.3125 15.6818 78.7555
v -34.8125 16.4478 74.2555
v -33.8125 15.5728 79.7555
v -33.8125 16.6038 74.7555
v -33.3125 15.8618 78.7555
v -32.8125 15.5798 80.2555
v -31.8125 15.9478 78.7555
v -31.8125 15.4868 80.7555
v -31.8125 -4.1622 74.2555
v -33.8125 16.9788 72.7555
v -32.3125 17.0878 73.2555
v -31.3125 16.9938 73.7555
v -34.8125 16.7908 72.2555
v -33.8125 17.2368 71.2555
v -33.8125 17.5328 69.2555
v -32.8125 17.3848 71.2555
v -31.8125 17.4358 71.3254
v -30.8125 17.3228 71.7555
v -31.8125 17.8228 68.7555
v -34.8125 17.3298 68.7555
v -35.3125 17.3378 67.2555
v -34.3125 17.6188 67.7555
v -32.8125 17.8298 68.2555
v -34.3125 -3.2562 52.2555
v -32.8125 -3.6152 56.2555
v -33.8125 18.3848 60.7555
v -33.3125 18.2288 64.2555
v -32.3125 18.3538 64.2555
v -33.3125 19.0178 52.7555
v -31.8125 19.2678 50.7555
v -32.3125 -3.6072 52.2555
v -31.3125 -3.6462 52.2555
v -34.3125 -3.1702 51.2555
v -34.8125 -2.8492 50.7555
v -33.8125 -3.3182 51.2555
v -33.8125 -3.2402 50.7555
v -33.8125 -3.0642 50.2254
v -33.3125 -3.4742 52.2555
v -32.8125 -3.5212 51.2555
v -32.8125 -3.3422 50.2555
v -32.8125 -3.0562 49.7555
v -31.8125 -3.6152 51.2555
v -32.3125 -3.0992 49.7555
v -31.8125 -3.4122 50.2555
v -34.8125 -2.0642 49.8755
v -34.8125 -2.5592 50.2555
v -33.3125 -2.5642 49.5554
v -34.3125 18.8538 51.7555
v -34.3125 18.7828 50.2555
v -34.8125 18.3708 50.2555
v -34.3482 18.4358 49.7555
v -33.3125 19.1118 50.7555
v -33.8125 19.0178 50.2555
v -33.8125 18.7828 49.7555
v -33.3125 19.1038 50.2555
v -33.3125 18.8768 49.7555
v -31.8125 19.2518 50.2555
v -31.8125 18.9358 49.6854
v -32.3125 -2.5642 49.4955
v -32.8125 -2.0642 49.5055
v -28.8125 -0.5642 49.5354
v -31.8125 17.9358 49.4354
v -33.8125 18.4358 49.4554
v -32.3125 18.4358 49.3954
v -30.8125 -3.5642 84.3154
v -30.8125 -4.4352 83.2555
v -31.3125 -4.5292 82.2555
v -30.8125 -4.0642 83.9754
v -30.3125 -3.0642 84.4054
v -30.3125 -4.2242 83.7555
v -30.3125 -4.4672 82.2555
v -29.5625 -3.5642 84.2555
v -29.3125 -4.2322 83.2555
v -28.8125 -3.0642 84.3655
v -29.3317 -4.0642 83.7555
v -29.3125 -4.2952 82.2555
v -28.8125 -3.5642 84.1554
v -28.3125 -3.7792 83.7555
v -28.8125 -4.1152 83.2555
v -28.3125 -4.0292 82.2555
v -27.8125 -3.0642 84.2754
v -27.8125 -3.7632 83.2555
v -27.7321 -3.5642 83.7555
v -27.3125 -3.6312 82.2555
v -27.8125 -3.8022 80.7555
v -27.8125 -2.0642 84.4354
v -27.3125 -0.5642 84.4754
v -28.8125 12.9358 84.4654
v -24.8124 10.9358 84.4554
v -27.8125 12.9358 84.4154
v -30.8125 14.5878 83.7555
v -30.8125 15.0568 82.2555
v -30.8125 14.2018 84.2555
v -30.8125 14.4358 83.9855
v -29.9855 14.4358 83.7555
v -30.3125 14.7048 83.2555
v -29.8125 14.0118 84.2555
v -28.8125 14.5258 82.7555
v -29.8125 14.9358 82.1454
v -28.8125 14.1428 83.7555
v -28.8125 13.4358 84.4054
v -28.8125 13.9358 84.0154
v -28.3125 13.4358 84.3354
v -28.1875 13.9358 83.7555
v -28.3125 14.2048 83.2555
v -27.8125 14.1898 82.7555
v -27.8125 13.4358 84.1854
v -26.8125 13.5958 83.2555
v -30.8125 -4.2952 77.2555
v -29.3125 -4.0922 77.2555
v -30.8125 15.5488 80.2555
v -28.8125 15.0488 80.7555
v -27.8125 14.6038 81.2555
v -30.2291 -4.0642 73.7555
v -27.8125 -3.2402 68.7555
v -29.8125 16.9078 73.2555
v -27.8125 16.0178 74.7555
v -28.8125 16.6658 73.2555
v -27.8125 16.4358 72.6055
v -29.3125 17.0798 71.7555
v -27.8125 16.7518 70.7555
v -30.8125 17.5648 70.2555
v -29.3125 17.5408 68.7555
v -30.8125 18.1738 65.7555
v -29.8125 17.8458 67.2555
v -29.8125 18.0408 65.7555
v -28.8125 17.6738 66.7555
v -28.3125 17.8228 64.2555
v -27.3125 17.0408 67.2555
v -30.3125 18.4318 62.7555
v -31.3125 18.5798 61.7555
v -29.3125 18.2128 63.2555
v -29.3125 18.3538 61.7555
v -30.3125 18.5958 60.7555
v -28.3125 18.0328 62.2555
v -27.2265 17.4358 63.7555
v -28.3125 -3.2172 53.7555
v -27.8125 18.0178 60.2555
v -27.3125 17.7288 61.2555
v -29.3125 -3.4122 51.7555
v -30.3125 19.0568 53.7555
v -28.8125 18.6978 55.2555
v -27.7644 18.4358 54.2555
v -26.6988 17.9358 54.7555
v -30.3125 -3.5522 51.2555
v -30.8125 -3.5372 50.7555
v -31.3125 -3.0642 49.7555
v -30.8125 -3.3812 50.2555
v -30.3125 -3.0642 49.9354
v -30.3125 -3.3182 50.2555
v -29.8125 -3.3962 50.7555
v -28.8125 -3.2482 51.2555
v -29.4687 -3.0642 50.2555
v -28.3125 -3.1462 51.7555
v -28.8125 -3.1152 50.7555
v -26.3125 -1.8102 50.2555
v -30.3125 -2.5642 49.6055
v -29.8125 -2.5922 49.7555
v -26.3125 -2.3812 53.2555
v -26.7421 -2.5642 52.2555
v -27.3125 -2.6932 51.2555
v -29.8125 19.1578 50.2555
v -28.8125 18.8928 50.2555
v -28.3125 18.7598 51.7555
v -29.3125 18.8768 49.7555
v -27.8125 18.5798 51.2555
v -28.3125 18.6818 50.2555
v -27.8125 18.3688 50.2555
v -28.3125 18.4358 49.6554
v -27.9227 17.9358 49.7555
v -26.8125 -0.5642 49.5354
v -23.3125 2.9358 49.4955
v -28.3125 16.9358 49.5654
v -27.8125 17.4358 49.6355
v -26.8125 16.4358 49.5654
v -29.3125 18.4358 49.4254
v -29.8125 17.9358 49.4554
v -26.8125 -3.1312 83.7555
v -26.8125 -3.3022 83.2555
v -25.8124 -2.6772 83.2555
v -25.8124 -2.4812 83.7555
v -26.8125 -2.0642 84.3855
v -26.8333 -2.5642 84.2555
v -24.3124 -0.0642 84.4554
v -25.8124 -2.0642 84.1654
v -22.8125 3.9358 84.4754
v -24.3124 -0.5642 84.3454
v -25.8124 -2.7872 82.2555
v -25.2723 -2.0642 83.7555
v -25.3124 -2.3022 83.2555
v -25.3124 -2.3882 82.7555
v -25.3124 -2.4352 81.7555
v -24.4749 -1.5642 83.2555
v -24.3124 -1.5132 82.7555
v -24.3124 -1.5992 81.7555
v -24.3124 -1.2242 83.7555
v -23.9593 -1.0642 83.2555
v -23.6206 -0.0642 84.2555
v -23.8125 -0.7512 83.7555
v -23.4882 -0.5642 83.2555
v -23.8125 -1.0002 82.7555
v -23.7773 -1.0642 81.7555
v -27.3125 12.9358 84.3454
v -22.3125 6.9358 84.4754
v -24.8124 11.4358 84.3954
v -25.8124 12.4358 84.2254
v -26.3125 13.1118 83.7555
v -24.3124 11.3788 84.2555
v -25.1513 12.4358 83.7555
v -25.8124 13.0728 83.2555
v -23.3125 9.4358 84.4554
v -24.8124 12.7368 82.2555
v -23.8125 10.4358 84.4154
v -23.8125 10.9478 84.2555
v -23.8125 11.3688 83.7555
v -23.8125 11.9078 82.2555
v -24.3124 12.6818 80.7555
v -26.9875 13.4358 83.7555
v -26.8125 13.9158 82.2555
v -26.3125 13.9238 81.2555
v -25.8124 13.4358 82.0354
v -25.3124 13.3298 81.2555
v -25.8124 -2.7872 81.2555
v -26.3125 -2.4352 65.2555
v -24.3124 -1.6152 80.7555
v -23.1210 11.4358 81.2555
v -23.0585 11.9358 78.2555
v -26.3125 15.0958 75.7555
v -25.3124 14.1578 77.2555
v -24.3124 -0.9272 68.7555
v -22.9257 -0.0642 80.7555
v -26.8125 16.0328 72.2555
v -25.8124 15.2438 73.2555
v -24.8124 14.0798 75.7555
v -24.3124 13.4358 76.9654
v -23.6523 12.9358 76.2555
v -26.2232 15.9358 70.7555
v -24.8124 14.8298 71.2555
v -23.8125 14.0048 70.2555
v -22.8125 11.8878 76.7555
v -26.3125 16.8228 64.7555
v -24.8958 15.9358 63.7555
v -23.3632 14.4358 63.2555
v -26.8125 -2.7242 63.7555
v -25.7159 -2.0642 63.7555
v -26.3125 17.0568 62.7555
v -25.3124 16.6898 59.7555
v -24.3124 15.9158 59.2555
v -22.8125 0.8638 68.2555
v -23.3164 -0.0642 52.7555
v -26.3125 17.3458 59.7555
v -25.7820 17.4358 54.7555
v -25.3124 -1.7712 53.2555
v -24.3124 16.4358 53.8755
v -26.8125 18.0878 53.2555
v -25.8124 -1.0642 49.8354
v -26.8125 -2.3182 50.7555
v -25.7946 -2.0642 52.2555
v -26.3125 -2.2482 51.2555
v -25.8124 -1.8422 50.7555
v -25.8203 -1.5642 50.2555
v -25.1538 -1.0642 50.2555
v -24.8124 -1.3652 51.7555
v -25.1874 -1.5642 51.2555
v -25.3124 -1.5132 50.7555
v -24.8124 -1.2952 51.2555
v -24.0625 -0.0642 50.2555
v -24.8124 0.1968 49.7555
v -24.4423 -1.0642 51.7555
v -24.3124 -0.8812 51.2555
v -24.7245 -1.0642 50.7555
v -23.8482 0.9358 49.7555
v -23.8845 -0.5642 51.7555
v -23.8125 -0.4092 51.2555
v -24.1526 -0.5642 50.7555
v -22.8125 1.1958 50.2555
v -24.9187 16.4358 50.2555
v -25.5513 16.9358 50.2555
v -25.3124 17.1038 50.7555
v -26.3125 16.9358 49.8454
v -24.8124 16.7438 50.7555
v -24.8847 16.9358 51.2555
v -24.3124 16.4788 51.2555
v -24.3124 15.4358 49.9855
v -24.3124 16.5408 52.2555
v -25.8124 17.5798 52.7555
v -23.8125 15.7978 50.7555
v -23.8125 15.9868 51.2555
v -23.3125 14.9358 50.3755
v -22.8125 13.9358 50.0454
v -22.8125 12.9358 49.6355
v -26.8125 18.0958 51.2555
v -26.8125 17.6738 50.2555
v -25.8124 17.5488 51.2555
v -26.3125 17.7128 50.7555
v -26.3125 17.4128 50.2555
v -25.8194 17.4358 50.7555
v -22.8125 12.4358 49.5454
v -23.3125 -0.2092 83.7555
v -23.0664 -0.0642 83.2555
v -23.3125 -0.4912 82.2555
v -22.3125 1.4358 84.3954
v -22.6367 0.4358 82.7555
v -22.5820 0.4358 81.7555
v -22.4492 0.9358 83.7555
v -22.3125 1.0238 83.2555
v -22.2773 0.9358 82.2555
v -22.2460 0.9358 81.2555
v -21.8125 2.9358 84.5154
v -22.1523 1.4358 83.7555
v -21.8125 2.2428 84.2555
v -21.8125 3.9358 84.4754
v -21.6367 2.4358 83.7555
v -21.7695 1.9358 82.7555
v -21.7226 1.9358 81.7555
v -21.5585 2.9358 84.2555
v -21.5027 3.4358 84.2555
v -21.3125 3.8338 84.2555
v -21.3125 4.4358 84.5254
v -21.3320 3.4358 83.7555
v -21.3945 2.9358 83.2555
v -21.5195 2.4358 82.2555
v -21.1445 3.9358 83.2555
v -21.1914 3.4358 82.2555
v -21.1835 4.4358 84.2555
v -20.9804 4.4358 82.2555
v -22.3125 7.9358 84.4354
v -21.8125 6.9358 84.4554
v -21.8125 7.4358 84.3655
v -22.3125 8.9358 84.2754
v -21.5351 7.9358 83.7555
v -21.9648 8.9358 83.7555
v -21.4101 7.9358 83.2555
v -22.0742 9.4358 83.2555
v -21.3125 6.4358 84.4754
v -21.5015 6.9358 84.2555
v -21.3789 7.4358 83.7555
v -21.1992 6.4358 84.2555
v -21.1835 7.4358 82.7555
v -21.1132 5.9358 84.2555
v -20.9960 5.4358 83.2555
v -21.0507 6.4358 83.2555
v -20.9648 6.4358 82.2555
v -20.9179 5.4358 82.2555
v -21.0976 7.4358 81.7555
v -21.5820 8.9358 81.7555
v -20.8398 6.4358 79.2555
v -22.8125 9.4358 84.3655
v -23.3125 10.8608 83.7555
v -23.0117 10.9358 82.7555
v -22.8125 9.9358 84.1355
v -22.5117 10.4358 82.2555
v -22.3125 9.4358 83.8555
v -22.5585 9.9358 83.7555
v -22.7382 10.4358 83.2555
v -22.2695 10.4358 80.7555
v -21.4960 2.4358 81.2555
v -21.7070 1.9358 80.7555
v -21.1601 3.4358 79.2555
v -21.6992 2.9358 65.2555
v -20.9414 4.4358 80.2555
v -21.1679 8.4358 78.7555
v -20.7773 7.4358 63.2555
v -21.9023 10.4358 77.2555
v -21.1054 4.9358 66.2555
v -22.5585 12.4358 69.7555
v -21.7070 11.4358 64.7555
v -21.1054 11.9358 54.7555
v -21.0898 8.9358 67.2555
v -21.2382 2.9358 52.2555
v -20.6289 4.4358 52.2555
v -21.8476 13.4358 54.7555
v -20.6835 6.4358 61.2555
v -20.2148 6.4358 52.2555
v -20.2148 8.9358 52.2555
v -20.4960 10.4358 52.2555
v -22.4804 14.4358 54.2555
v -22.1132 1.4358 52.7555
v -23.2070 15.4358 52.7555
v -23.3789 -0.0642 51.7555
v -22.8125 0.6238 51.2555
v -22.6601 0.9358 50.7555
v -22.8125 0.5088 52.2555
v -23.3125 1.4358 49.8354
v -22.3125 1.9358 49.9955
v -22.8125 2.4358 49.6155
v -22.1958 2.4358 49.7555
v -22.1367 1.4358 51.2555
v -21.8125 1.9768 50.7555
v -22.0323 1.9358 50.2555
v -21.5976 2.4358 50.2555
v -21.8317 2.9358 49.7555
v -21.3476 2.9358 50.2555
v -21.7929 1.9358 51.2555
v -21.2617 2.9358 50.7555
v -21.3125 3.4358 50.2054
v -21.7548 4.4358 49.7555
v -21.3782 5.9358 49.7555
v -21.1210 3.4358 50.7555
v -20.4570 5.4358 50.7555
v -20.8125 5.4358 50.1355
v -20.9046 6.4358 49.7555
v -20.2460 6.4358 50.2555
v -20.3125 6.9358 49.7054
v -20.8125 6.9358 49.5454
v -20.1445 6.9358 50.7555
v -20.1757 8.4358 50.2555
v -20.1679 6.9358 50.2555
v -20.2773 8.4358 49.7555
v -20.8125 9.4358 49.9554
v -20.3125 9.0478 50.2555
v -21.8125 11.9358 49.8354
v -22.3125 12.4358 49.6355
v -21.8125 12.4358 49.9454
v -22.3125 10.9358 49.5654
v -22.3125 12.8438 49.7555
v -21.8125 12.9358 50.2054
v -21.3164 12.4358 50.7555
v -21.5429 12.9358 50.7555
v -21.2226 12.4358 51.2555
v -21.5273 12.4358 50.2555
v -20.9587 10.4358 50.2555
v -21.7022 10.4358 49.7555
v -21.1914 12.4358 52.2555
v -20.6679 10.9358 51.2555
v -20.7773 10.9358 50.7555
v -22.3125 9.4358 49.5554
v -20.3945 9.9358 51.2555
v -22.8320 14.9358 51.2555
v -22.8125 14.7118 50.7555
v -22.4179 14.4358 51.2555
v -22.3125 14.3518 51.7555
v -21.7226 13.4358 51.2555
v -22.1757 13.9358 50.7555
v -22.1180 13.4358 50.2555
v -21.7070 13.4358 52.2555
v -21.8125 13.4358 50.8054
v -22.3125 2.9358 49.4554
v -22.3125 4.9358 49.5554
v -22.3125 6.9358 49.5454
v -21.8125 6.4358 49.5854
v -21.3125 6.4358 49.6355
v -20.8125 8.4358 49.5454
f 1 2 3
f 4 1 3
f 4 3 5
f 3 6 5
f 7 8 9
f 1 7 9
f 10 7 1
f 1 9 2
f 10 1 11
f 1 4 11
f 12 11 13
f 11 4 13
f 7 10 14
f 7 14 15
f 7 15 8
f 16 14 10
f 16 10 17
f 12 10 11
f 12 17 10
f 2 18 19
f 2 20 3
f 2 19 20
f 20 6 3
f 20 21 6
f 6 21 22
f 9 8 18
f 18 2 9
f 18 23 19
f 19 23 24
f 24 23 25
f 19 26 20
f 19 24 26
f 24 27 26
f 24 25 27
f 26 21 20
f 26 27 21
f 8 28 18
f 28 23 18
f 29 23 28
f 25 23 29
f 27 30 31
f 29 32 25
f 27 25 30
f 25 32 30
f 30 32 33
f 32 34 33
f 31 30 33
f 33 35 31
f 36 37 12
f 5 38 4
f 39 12 13
f 13 4 38
f 13 38 39
f 12 39 36
f 27 40 21
f 22 41 6
f 21 40 22
f 22 42 41
f 22 40 42
f 41 5 6
f 40 43 42
f 31 43 40
f 27 31 40
f 35 44 31
f 31 44 43
f 35 45 44
f 5 41 46
f 47 48 42
f 44 49 43
f 42 43 47
f 49 47 43
f 49 44 50
f 44 45 50
f 51 49 50
f 52 36 53
f 5 46 38
f 42 48 41
f 41 54 46
f 41 48 54
f 48 47 55
f 47 56 55
f 56 47 49
f 49 51 56
f 38 57 39
f 48 58 54
f 48 55 58
f 38 46 57
f 54 59 46
f 54 58 59
f 46 59 57
f 55 60 58
f 55 56 60
f 53 61 62
f 63 53 36
f 58 64 59
f 58 60 64
f 60 65 64
f 65 60 56
f 56 51 65
f 36 39 63
f 66 51 67
f 67 68 66
f 69 68 67
f 70 39 57
f 71 63 39
f 39 70 71
f 59 72 57
f 57 72 70
f 64 65 73
f 65 74 73
f 65 75 74
f 65 51 66
f 65 66 75
f 66 76 75
f 76 66 68
f 77 61 53
f 77 78 61
f 79 78 77
f 80 79 77
f 81 79 80
f 82 83 70
f 84 85 82
f 85 84 86
f 71 83 87
f 70 83 71
f 88 87 83
f 89 88 83
f 83 82 89
f 90 91 88
f 88 89 90
f 89 85 90
f 82 85 89
f 91 90 92
f 92 86 93
f 92 85 86
f 92 90 85
f 63 71 94
f 71 87 94
f 87 95 94
f 95 96 94
f 87 88 95
f 97 96 95
f 95 91 97
f 88 91 95
f 97 91 98
f 99 98 92
f 98 91 92
f 92 93 99
f 53 63 94
f 100 53 94
f 96 100 94
f 101 96 102
f 97 102 96
f 102 97 103
f 97 98 103
f 103 98 104
f 100 77 53
f 105 80 77
f 105 77 100
f 100 96 105
f 101 105 96
f 106 101 102
f 80 101 81
f 105 101 80
f 81 101 106
f 107 108 59
f 70 72 82
f 72 109 82
f 72 108 109
f 108 72 59
f 64 107 59
f 64 110 107
f 107 110 111
f 107 112 108
f 112 109 108
f 107 111 112
f 82 109 84
f 109 113 84
f 109 112 113
f 112 114 113
f 112 111 114
f 86 84 115
f 115 84 113
f 116 113 114
f 116 115 113
f 64 73 110
f 73 117 110
f 74 118 117
f 73 74 117
f 110 119 111
f 110 117 119
f 117 120 119
f 111 121 114
f 111 119 121
f 120 122 119
f 114 121 123
f 116 114 123
f 121 119 122
f 123 121 122
f 74 124 118
f 124 125 118
f 118 120 117
f 118 126 120
f 125 126 118
f 120 127 122
f 126 127 120
f 127 128 122
f 124 74 75
f 75 129 124
f 125 124 129
f 129 130 125
f 130 126 125
f 126 131 127
f 128 127 131
f 128 131 132
f 129 133 130
f 129 75 76
f 129 76 133
f 130 131 126
f 134 135 133
f 133 136 130
f 133 135 136
f 130 137 131
f 138 137 136
f 136 137 130
f 76 68 134
f 133 76 134
f 139 140 135
f 134 139 135
f 136 135 141
f 135 140 141
f 138 141 142
f 138 136 141
f 131 137 143
f 138 144 137
f 137 144 143
f 138 142 144
f 99 93 145
f 146 103 104
f 104 98 99
f 106 102 146
f 147 106 146
f 102 103 146
f 146 104 145
f 104 99 145
f 86 115 93
f 115 116 93
f 93 116 148
f 93 148 149
f 145 93 150
f 93 149 150
f 116 123 148
f 123 122 148
f 148 122 128
f 148 128 149
f 128 132 149
f 149 132 150
f 132 131 143
f 150 132 143
f 151 152 153
f 154 155 17
f 156 157 154
f 154 17 156
f 37 156 12
f 158 156 37
f 159 160 154
f 160 161 155
f 154 160 155
f 162 159 157
f 159 154 157
f 163 162 157
f 157 156 163
f 164 165 163
f 163 158 164
f 156 158 163
f 166 167 159
f 162 166 159
f 159 167 160
f 160 167 168
f 160 168 161
f 169 166 162
f 170 171 169
f 165 170 169
f 165 162 163
f 165 169 162
f 172 170 165
f 164 172 165
f 166 173 167
f 167 173 168
f 166 169 171
f 170 174 171
f 172 174 170
f 171 175 166
f 174 176 175
f 171 174 175
f 177 176 174
f 174 172 177
f 176 177 151
f 178 179 166
f 166 179 173
f 173 179 180
f 180 181 173
f 173 181 182
f 178 166 175
f 175 176 153
f 153 176 151
f 178 175 183
f 175 153 183
f 155 184 16
f 17 155 16
f 14 16 184
f 14 184 15
f 17 12 156
f 155 161 185
f 155 185 184
f 185 15 184
f 161 168 185
f 185 182 15
f 15 182 8
f 173 182 168
f 168 182 185
f 8 186 28
f 182 186 8
f 187 29 28
f 188 29 187
f 32 29 188
f 188 189 32
f 34 32 189
f 34 190 33
f 35 33 190
f 190 191 192
f 28 186 187
f 187 193 194
f 188 187 194
f 188 194 189
f 194 195 189
f 34 189 191
f 189 195 191
f 190 34 191
f 192 191 196
f 186 193 187
f 197 194 193
f 197 195 194
f 197 198 195
f 198 196 195
f 191 195 196
f 192 196 199
f 198 197 200
f 200 197 193
f 198 201 196
f 198 200 201
f 196 201 199
f 193 202 200
f 199 201 203
f 204 200 202
f 204 201 200
f 193 205 202
f 203 206 199
f 201 204 207
f 203 201 207
f 207 208 203
f 203 208 206
f 207 204 209
f 209 210 207
f 207 210 208
f 208 210 211
f 206 208 211
f 212 206 211
f 209 204 202
f 209 202 205
f 209 213 210
f 211 210 213
f 212 211 214
f 37 36 158
f 158 36 52
f 158 52 164
f 164 52 172
f 52 177 172
f 215 151 177
f 152 215 216
f 151 215 152
f 35 190 192
f 192 45 35
f 45 192 217
f 199 218 192
f 192 218 217
f 217 218 219
f 218 199 206
f 206 219 218
f 220 219 212
f 219 206 212
f 214 221 212
f 62 177 52
f 215 177 62
f 222 216 215
f 50 45 223
f 223 45 217
f 223 217 224
f 225 223 224
f 50 223 225
f 224 220 226
f 225 224 226
f 220 224 219
f 219 224 217
f 212 221 220
f 220 227 228
f 221 227 220
f 222 215 229
f 51 50 225
f 67 51 225
f 225 226 67
f 226 220 228
f 226 228 230
f 228 231 230
f 232 228 227
f 228 232 231
f 232 233 231
f 52 53 62
f 234 215 62
f 226 230 235
f 67 226 235
f 230 236 237
f 236 230 231
f 236 231 238
f 69 67 235
f 69 235 239
f 239 240 69
f 230 237 235
f 235 237 239
f 237 241 239
f 240 239 241
f 236 242 237
f 242 241 237
f 242 243 241
f 244 243 242
f 234 62 245
f 68 69 246
f 134 68 246
f 139 134 246
f 240 246 69
f 240 247 246
f 241 247 240
f 243 248 241
f 248 247 241
f 248 249 247
f 243 249 248
f 61 250 62
f 78 250 61
f 78 251 250
f 251 78 79
f 252 251 79
f 250 245 62
f 253 245 250
f 250 251 253
f 252 254 251
f 255 254 252
f 252 81 255
f 79 81 252
f 255 81 256
f 234 245 253
f 234 253 257
f 253 258 257
f 253 251 258
f 259 257 258
f 254 259 258
f 251 254 258
f 254 260 259
f 254 255 260
f 261 260 255
f 261 255 256
f 262 234 257
f 257 259 262
f 263 234 262
f 262 264 263
f 262 259 264
f 144 142 265
f 247 139 246
f 141 140 266
f 142 141 266
f 265 267 268
f 265 142 267
f 247 269 139
f 139 269 140
f 140 269 266
f 266 269 270
f 142 266 271
f 267 142 271
f 271 272 267
f 267 272 268
f 272 273 268
f 247 249 269
f 269 249 270
f 270 274 266
f 266 274 271
f 275 270 249
f 275 276 270
f 276 274 270
f 271 274 272
f 272 274 276
f 249 277 275
f 278 276 275
f 276 279 272
f 279 276 278
f 272 279 273
f 81 106 256
f 261 256 280
f 280 256 147
f 256 106 147
f 281 280 147
f 147 146 145
f 145 150 147
f 147 150 282
f 150 283 282
f 150 143 283
f 143 144 265
f 283 143 265
f 265 268 283
f 282 283 284
f 268 284 283
f 282 284 285
f 284 268 285
f 268 273 285
f 286 183 153
f 216 286 152
f 286 153 152
f 287 183 288
f 289 290 288
f 288 286 289
f 183 286 288
f 289 286 216
f 289 216 291
f 292 287 293
f 288 290 294
f 294 287 288
f 293 287 294
f 295 290 289
f 295 289 291
f 296 293 294
f 291 297 298
f 295 291 298
f 216 297 291
f 298 297 299
f 300 294 301
f 294 290 301
f 300 296 294
f 301 290 302
f 302 290 295
f 302 295 298
f 303 301 302
f 304 302 298
f 304 298 299
f 301 303 305
f 305 300 301
f 306 303 302
f 306 302 304
f 179 178 292
f 292 180 179
f 287 178 183
f 292 178 287
f 293 180 292
f 296 180 293
f 296 181 180
f 181 186 182
f 186 307 193
f 307 205 193
f 205 308 209
f 209 308 309
f 213 209 309
f 211 213 310
f 310 214 211
f 213 309 311
f 310 213 311
f 310 312 214
f 307 308 205
f 307 309 308
f 310 311 313
f 312 310 313
f 307 314 309
f 309 314 315
f 315 311 309
f 311 315 316
f 313 311 316
f 307 317 314
f 315 314 318
f 319 315 318
f 316 315 319
f 319 320 316
f 320 313 316
f 321 313 320
f 321 312 313
f 318 314 317
f 319 318 322
f 322 320 319
f 317 323 318
f 318 323 322
f 324 320 322
f 321 320 324
f 299 297 325
f 214 326 221
f 326 327 221
f 214 312 328
f 214 328 326
f 327 326 329
f 330 326 328
f 329 326 330
f 321 331 312
f 331 328 312
f 331 330 328
f 332 330 331
f 321 333 331
f 333 332 331
f 299 325 334
f 227 221 327
f 329 335 327
f 332 336 330
f 336 329 330
f 335 329 336
f 337 336 332
f 216 222 229
f 229 297 216
f 227 327 338
f 338 232 227
f 327 335 338
f 232 338 233
f 335 339 338
f 339 233 338
f 339 340 233
f 335 341 339
f 340 339 341
f 336 341 335
f 336 342 341
f 337 343 336
f 342 344 341
f 325 297 229
f 215 234 229
f 231 233 238
f 345 346 238
f 233 345 238
f 346 236 238
f 236 346 242
f 346 345 347
f 345 233 340
f 345 340 347
f 341 348 340
f 348 347 340
f 344 348 341
f 229 349 325
f 334 325 350
f 242 346 244
f 347 244 346
f 351 243 244
f 348 352 347
f 352 244 347
f 352 351 244
f 352 353 351
f 353 352 348
f 349 350 325
f 353 354 351
f 353 355 354
f 356 357 350
f 351 277 243
f 264 358 349
f 358 264 359
f 360 349 358
f 359 361 358
f 358 361 360
f 361 359 362
f 350 349 363
f 363 349 360
f 364 360 361
f 356 350 363
f 364 363 360
f 364 361 365
f 365 361 362
f 365 362 366
f 356 363 364
f 367 356 364
f 367 364 365
f 365 366 368
f 357 356 367
f 369 367 365
f 369 365 368
f 229 234 263
f 349 263 264
f 261 370 260
f 229 263 349
f 359 264 259
f 259 371 359
f 260 371 259
f 370 371 260
f 372 371 370
f 362 371 372
f 362 359 371
f 372 366 362
f 243 277 249
f 373 275 277
f 275 374 278
f 374 275 373
f 374 375 278
f 375 279 278
f 351 373 277
f 374 376 375
f 375 273 279
f 375 376 273
f 354 377 373
f 351 354 373
f 374 373 378
f 373 377 378
f 378 379 374
f 379 376 374
f 380 378 377
f 378 381 379
f 380 381 378
f 355 377 354
f 355 382 377
f 382 380 377
f 381 380 382
f 383 381 382
f 368 366 384
f 370 261 280
f 281 370 280
f 372 370 281
f 384 366 372
f 384 372 385
f 372 281 385
f 384 385 386
f 385 281 386
f 285 273 376
f 282 285 387
f 387 285 388
f 285 376 388
f 379 388 376
f 381 388 379
f 387 388 389
f 389 388 383
f 383 388 381
f 300 305 390
f 390 296 300
f 391 303 306
f 391 306 392
f 392 306 304
f 392 304 299
f 305 393 390
f 390 394 296
f 305 303 393
f 303 395 393
f 395 303 391
f 396 391 392
f 390 393 397
f 397 394 390
f 397 393 395
f 398 391 396
f 397 399 394
f 395 400 397
f 400 395 398
f 398 395 391
f 401 398 396
f 397 402 399
f 400 403 402
f 397 400 402
f 400 398 404
f 403 400 404
f 404 398 401
f 404 401 405
f 402 403 406
f 399 402 406
f 404 405 407
f 406 403 408
f 408 403 407
f 407 403 404
f 407 405 409
f 409 405 410
f 394 181 296
f 399 411 394
f 394 411 181
f 399 406 411
f 411 412 181
f 412 186 181
f 186 412 307
f 307 412 317
f 412 413 317
f 414 413 412
f 414 415 413
f 323 416 322
f 416 324 322
f 417 321 324
f 418 323 317
f 419 323 418
f 323 419 416
f 419 418 420
f 416 419 420
f 420 421 416
f 421 324 416
f 421 417 324
f 418 317 422
f 418 422 420
f 420 423 421
f 423 424 421
f 424 417 421
f 422 425 420
f 425 423 420
f 413 426 317
f 426 422 317
f 427 422 426
f 422 427 425
f 413 428 426
f 428 427 426
f 429 427 428
f 425 427 429
f 429 430 425
f 425 430 423
f 430 431 423
f 415 428 413
f 415 432 428
f 432 429 428
f 429 433 430
f 433 431 430
f 396 392 434
f 434 392 299
f 401 396 435
f 435 396 434
f 405 401 435
f 405 435 410
f 417 333 321
f 417 436 333
f 436 332 333
f 424 436 417
f 424 423 437
f 424 437 436
f 431 438 423
f 438 437 423
f 434 299 334
f 334 439 434
f 435 434 439
f 435 439 440
f 410 435 440
f 332 436 337
f 337 436 441
f 437 441 436
f 437 438 442
f 437 443 441
f 443 444 445
f 446 445 444
f 437 442 443
f 442 444 443
f 343 342 336
f 447 344 342
f 441 343 337
f 343 447 342
f 445 447 343
f 445 343 441
f 441 443 445
f 446 448 445
f 344 353 348
f 447 449 344
f 449 353 344
f 445 448 447
f 448 450 447
f 447 450 449
f 449 450 451
f 452 451 450
f 448 452 450
f 453 451 452
f 452 448 446
f 454 453 452
f 454 452 446
f 439 334 350
f 455 456 353
f 449 455 353
f 451 455 449
f 455 457 458
f 457 455 451
f 458 459 455
f 451 453 457
f 457 453 460
f 460 458 457
f 461 460 453
f 440 439 462
f 456 355 353
f 455 459 456
f 459 355 456
f 460 463 458
f 460 464 463
f 439 350 357
f 357 462 439
f 465 462 357
f 459 466 355
f 467 466 459
f 458 463 459
f 463 467 459
f 468 463 469
f 463 468 467
f 357 367 470
f 471 470 367
f 471 367 369
f 472 369 368
f 473 471 369
f 473 369 472
f 474 473 472
f 475 471 473
f 475 473 474
f 470 465 357
f 465 470 476
f 476 470 471
f 476 471 475
f 477 465 476
f 478 476 475
f 478 475 474
f 479 465 477
f 480 477 476
f 480 476 478
f 481 480 478
f 462 465 479
f 472 482 474
f 384 482 472
f 482 483 474
f 478 474 483
f 478 483 481
f 484 462 485
f 462 479 485
f 479 477 486
f 487 382 355
f 466 487 355
f 467 487 466
f 488 487 489
f 488 490 487
f 467 489 487
f 491 488 489
f 491 492 488
f 493 494 492
f 493 492 491
f 495 494 493
f 492 494 488
f 472 368 384
f 482 384 386
f 482 386 483
f 483 386 496
f 386 281 497
f 497 281 147
f 498 282 499
f 500 282 498
f 282 387 501
f 501 387 389
f 502 282 501
f 501 389 383
f 501 383 490
f 490 383 382
f 487 490 382
f 282 502 499
f 499 502 501
f 499 501 494
f 494 501 490
f 488 494 490
f 494 495 499
f 408 503 406
f 407 504 408
f 408 504 503
f 504 407 409
f 505 506 503
f 504 505 503
f 507 412 411
f 406 503 508
f 508 507 406
f 406 507 411
f 507 509 412
f 507 508 510
f 509 511 412
f 506 508 503
f 510 512 507
f 512 509 507
f 508 506 510
f 505 504 513
f 504 409 513
f 510 506 514
f 505 515 506
f 515 514 506
f 513 516 505
f 505 516 515
f 517 516 513
f 514 515 518
f 518 516 519
f 515 516 518
f 516 520 519
f 517 520 516
f 514 521 512
f 514 512 510
f 518 521 514
f 521 518 522
f 518 519 522
f 512 523 509
f 521 524 512
f 512 524 523
f 522 524 521
f 524 522 525
f 519 526 522
f 522 526 525
f 527 526 519
f 520 527 519
f 414 528 415
f 412 529 414
f 530 528 414
f 530 531 528
f 531 532 528
f 533 531 530
f 534 531 533
f 532 531 534
f 532 534 535
f 536 414 529
f 535 534 537
f 533 530 538
f 538 530 414
f 536 538 414
f 533 538 539
f 533 539 540
f 533 540 534
f 540 537 534
f 541 537 540
f 541 542 537
f 528 432 415
f 543 432 528
f 429 432 543
f 429 543 433
f 528 532 543
f 543 532 433
f 433 544 431
f 431 544 438
f 438 544 545
f 532 535 433
f 433 535 544
f 544 546 545
f 544 535 546
f 546 535 537
f 546 537 547
f 548 409 410
f 548 410 549
f 513 409 548
f 548 517 513
f 517 548 550
f 548 549 550
f 550 520 517
f 550 527 520
f 551 552 542
f 438 545 553
f 553 545 554
f 545 546 547
f 554 545 547
f 554 547 542
f 547 537 542
f 555 556 550
f 553 442 438
f 553 557 442
f 557 444 442
f 553 558 557
f 554 559 553
f 558 553 559
f 559 554 560
f 542 560 554
f 559 560 561
f 552 561 560
f 552 560 542
f 549 410 440
f 557 446 444
f 562 446 557
f 558 562 557
f 563 562 558
f 563 558 559
f 559 561 563
f 564 561 565
f 561 564 563
f 555 550 549
f 562 566 454
f 562 563 566
f 563 567 566
f 567 563 564
f 568 567 564
f 446 562 454
f 549 440 569
f 569 570 549
f 549 570 555
f 571 566 567
f 571 567 572
f 573 567 568
f 572 567 573
f 454 461 453
f 571 464 461
f 566 571 461
f 454 566 461
f 440 484 569
f 574 555 575
f 576 571 572
f 461 464 460
f 464 571 576
f 463 464 576
f 469 463 576
f 576 577 469
f 576 572 577
f 462 484 440
f 569 484 570
f 578 570 484
f 578 555 570
f 577 572 579
f 579 572 573
f 468 489 467
f 468 469 580
f 577 580 469
f 485 479 486
f 480 486 477
f 481 483 581
f 483 496 581
f 480 582 486
f 481 582 480
f 583 485 584
f 484 485 583
f 486 584 485
f 584 486 582
f 582 481 585
f 582 585 584
f 585 481 586
f 586 481 581
f 586 581 587
f 583 578 484
f 578 583 588
f 589 583 584
f 585 590 589
f 585 589 584
f 586 590 585
f 586 587 590
f 588 589 591
f 583 589 588
f 590 591 589
f 592 587 581
f 593 592 581
f 594 555 578
f 588 594 578
f 591 594 588
f 594 591 595
f 590 596 591
f 591 596 595
f 596 590 587
f 596 587 592
f 597 592 593
f 597 593 497
f 575 555 594
f 598 575 594
f 595 598 594
f 598 595 599
f 596 600 595
f 595 600 599
f 600 596 592
f 601 592 597
f 602 603 604
f 603 602 605
f 606 607 608
f 606 602 604
f 602 609 605
f 610 607 611
f 610 608 607
f 608 612 606
f 612 602 606
f 611 579 610
f 610 613 608
f 613 612 608
f 612 614 602
f 614 615 609
f 609 615 616
f 614 609 602
f 580 489 468
f 489 580 491
f 617 618 493
f 617 493 491
f 495 618 499
f 618 495 493
f 617 491 580
f 617 611 619
f 580 611 617
f 620 617 619
f 620 618 617
f 620 621 618
f 621 605 618
f 577 611 580
f 619 622 620
f 622 603 621
f 622 621 620
f 603 605 621
f 611 577 579
f 607 619 611
f 619 604 622
f 604 603 622
f 607 606 604
f 619 607 604
f 386 497 496
f 581 496 497
f 581 497 593
f 147 282 623
f 500 498 499
f 500 499 605
f 623 282 500
f 609 616 605
f 605 616 500
f 616 623 500
f 605 499 618
f 524 624 523
f 525 624 524
f 624 525 625
f 526 626 525
f 525 626 625
f 527 626 526
f 626 527 556
f 624 627 523
f 628 625 626
f 629 628 626
f 556 629 626
f 627 624 630
f 624 625 630
f 630 625 631
f 625 628 631
f 631 628 632
f 632 628 629
f 632 629 633
f 523 627 509
f 627 634 509
f 509 634 511
f 627 630 635
f 630 631 635
f 634 627 636
f 634 637 511
f 635 636 627
f 636 635 638
f 631 639 635
f 635 639 638
f 632 639 631
f 632 640 639
f 632 633 640
f 641 634 636
f 637 634 641
f 642 637 641
f 642 643 637
f 643 644 637
f 637 644 511
f 636 638 641
f 642 641 645
f 642 645 643
f 641 638 646
f 645 641 646
f 640 647 639
f 639 647 638
f 638 647 646
f 648 646 649
f 646 647 649
f 650 644 643
f 650 643 648
f 645 646 648
f 643 645 648
f 648 649 651
f 529 652 536
f 511 529 412
f 653 654 529
f 654 652 529
f 655 652 654
f 656 655 654
f 657 655 656
f 658 657 656
f 659 657 658
f 511 644 529
f 644 660 529
f 661 653 660
f 660 653 529
f 654 653 661
f 662 654 661
f 662 661 663
f 654 662 656
f 664 658 662
f 658 656 662
f 665 644 650
f 660 644 665
f 663 660 665
f 660 663 661
f 665 650 666
f 665 666 667
f 665 667 663
f 664 663 667
f 663 664 662
f 650 648 666
f 648 651 666
f 667 666 668
f 666 651 669
f 666 669 668
f 667 668 664
f 664 668 670
f 658 664 671
f 671 664 670
f 670 668 672
f 539 538 673
f 673 538 536
f 674 540 539
f 675 551 541
f 540 675 541
f 551 542 541
f 652 673 536
f 676 674 539
f 676 539 673
f 674 675 540
f 677 551 675
f 655 673 652
f 655 678 673
f 678 679 676
f 678 676 673
f 676 679 674
f 680 679 659
f 674 679 680
f 674 680 675
f 680 677 675
f 678 655 657
f 657 659 678
f 679 678 659
f 680 659 677
f 671 677 659
f 677 671 681
f 658 671 659
f 556 527 550
f 629 556 633
f 574 633 556
f 647 640 682
f 633 683 640
f 640 683 682
f 649 647 682
f 682 683 684
f 649 682 684
f 685 683 633
f 574 685 633
f 683 685 684
f 651 649 686
f 651 686 669
f 649 684 686
f 686 684 685
f 671 670 687
f 668 669 672
f 670 672 687
f 669 686 672
f 672 688 687
f 672 686 688
f 677 681 551
f 681 552 551
f 681 671 689
f 681 689 552
f 689 671 687
f 555 574 556
f 565 561 552
f 552 689 565
f 686 685 690
f 686 690 688
f 689 691 565
f 691 689 692
f 689 687 692
f 691 564 565
f 692 693 691
f 688 694 687
f 687 694 692
f 564 691 568
f 574 695 685
f 685 695 696
f 685 696 690
f 692 694 693
f 697 691 693
f 691 697 568
f 690 698 688
f 688 698 699
f 694 688 700
f 699 700 688
f 693 694 701
f 701 694 700
f 702 568 697
f 703 574 575
f 698 690 699
f 690 696 699
f 568 704 573
f 579 573 704
f 568 702 704
f 598 705 575
f 599 705 598
f 705 599 706
f 600 707 599
f 599 707 706
f 707 600 592
f 707 592 601
f 705 708 575
f 706 708 705
f 708 703 575
f 709 601 597
f 710 601 709
f 710 709 711
f 711 712 710
f 574 703 695
f 713 703 708
f 706 713 708
f 707 713 706
f 713 707 714
f 601 715 707
f 707 715 714
f 715 601 710
f 715 710 712
f 715 712 716
f 716 717 718
f 712 717 716
f 719 695 703
f 713 719 703
f 695 719 720
f 719 713 714
f 714 720 719
f 716 720 714
f 715 716 714
f 720 716 718
f 718 717 721
f 721 722 723
f 696 695 724
f 695 720 724
f 720 718 724
f 724 718 721
f 724 725 696
f 724 721 725
f 721 723 726
f 726 723 727
f 696 725 699
f 699 725 728
f 726 725 721
f 728 725 726
f 727 728 726
f 727 729 728
f 730 729 727
f 699 731 700
f 700 731 732
f 699 728 731
f 731 728 733
f 731 733 732
f 728 729 733
f 732 733 734
f 735 736 734
f 734 736 732
f 737 738 739
f 740 738 737
f 741 739 738
f 741 742 739
f 743 744 745
f 743 746 744
f 744 746 742
f 737 747 748
f 737 746 747
f 739 746 737
f 742 746 739
f 697 693 749
f 750 745 749
f 743 750 751
f 750 743 745
f 746 743 751
f 752 748 735
f 749 693 701
f 749 701 750
f 753 700 732
f 700 753 701
f 701 753 750
f 736 753 732
f 736 751 753
f 753 751 750
f 751 736 747
f 746 751 747
f 747 736 735
f 748 747 735
f 579 704 610
f 613 704 754
f 610 704 613
f 755 754 756
f 612 754 755
f 754 612 613
f 755 614 612
f 755 615 614
f 702 757 704
f 757 754 704
f 756 757 758
f 756 754 757
f 759 756 758
f 756 759 755
f 759 760 755
f 616 615 741
f 615 760 741
f 755 760 615
f 702 761 757
f 757 761 758
f 762 759 758
f 742 762 744
f 760 762 742
f 760 759 762
f 760 742 741
f 697 749 761
f 702 697 761
f 749 745 761
f 761 745 758
f 744 762 758
f 744 758 745
f 709 597 497
f 711 709 497
f 763 712 711
f 711 497 763
f 763 497 764
f 497 147 764
f 717 712 763
f 717 763 722
f 763 764 722
f 721 717 722
f 764 723 722
f 764 147 765
f 765 147 752
f 764 765 766
f 766 723 764
f 723 766 767
f 767 766 765
f 727 723 767
f 730 727 767
f 730 767 765
f 730 765 768
f 765 752 768
f 730 768 729
f 734 733 729
f 768 734 729
f 734 768 735
f 752 147 740
f 147 623 740
f 740 623 738
f 616 741 738
f 616 738 623
f 740 748 752
f 748 740 737
f 752 735 768
