# RV Septal Papillary (FMA7262)
# BodyParts3D, (c) The Database Center for Life Science licensed under CC Attribution-Share Alike 2.1 Japan
# Licence: https://creativecommons.org/licenses/by-sa/2.1/jp/
# Modified from the original: see README.md in this repository.
# Units: millimetres. +X = patient left, +Y = posterior, +Z = superior.
# Origin: centroid of the heart wall.
o RV_Septal_Papillary
v -3.1734 -8.5992 -5.9246
v -3.1726 -7.9132 -6.2046
v -3.2082 -8.5012 -6.5246
v -3.0608 -7.9292 -5.9046
v -2.6315 -9.7242 -6.8645
v -2.9314 -9.7142 -6.2645
v -3.1085 -9.1072 -6.5446
v -3.1558 -9.1152 -6.2445
v -2.8279 -9.7542 -5.6646
v -3.0454 -8.8002 -6.8346
v -2.6551 -9.1102 -7.1445
v -2.8677 -8.4982 -7.1145
v -3.0733 -7.8972 -6.7946
v -2.8386 -7.8992 -7.0946
v -2.9647 -8.2452 -5.6145
v -2.0315 -9.7402 -7.2445
v -2.5677 -8.5062 -7.3446
v -2.5363 -7.9072 -7.3346
v -3.0071 -9.1442 -5.6445
v -2.3843 -9.7982 -5.0646
v -2.8043 -8.8652 -5.3346
v -2.5558 -8.2802 -5.2346
v -2.8400 -7.9702 -5.6046
v -2.4473 -10.3742 -5.6846
v -2.0204 -9.5282 -4.7346
v -2.5974 -7.6642 -5.5946
v -3.1002 -7.6062 -6.4846
v -2.8184 -7.5572 -5.8845
v -2.8069 -7.3382 -6.4746
v -2.5045 -7.3012 -6.7746
v -2.7279 -7.3362 -6.1746
v -2.4999 -7.2132 -6.4746
v -2.4997 -7.2102 -6.1746
v -2.5076 -7.3592 -5.8346
v -2.3701 -10.4672 -6.2846
v -2.0064 -10.6662 -6.5946
v -2.0628 -10.3372 -6.8845
v -0.7722 -11.3212 -6.9146
v -0.9243 -11.5412 -6.6245
v -0.9446 -11.9282 -5.7346
v 1.4052 -12.9492 -6.6646
v 0.2546 -11.9752 -6.9346
v 0.5862 -11.3802 -7.2545
v -0.9325 -11.6972 -4.8246
v -0.3629 -12.2932 -5.4446
v -0.8856 -10.8042 -4.3246
v 0.8877 -12.7032 -4.2545
v -1.9970 -9.0802 -7.4346
v -1.9525 -8.2322 -7.5246
v -1.6844 -8.8482 -7.4846
v -1.6530 -8.2482 -7.4846
v -1.4322 -9.7672 -7.3546
v -0.8173 -9.5002 -7.3346
v -0.2028 -9.2382 -7.1345
v 0.4265 -8.6952 -6.5246
v 0.6645 -9.8862 -7.1245
v -1.9731 -8.6252 -4.8346
v -1.9248 -7.7032 -5.2946
v 0.5191 -10.2922 -3.8745
v -1.6417 -8.0342 -5.0346
v 0.6731 -9.7222 -4.1546
v -1.3290 -7.8002 -5.2946
v 0.4219 -8.7842 -5.0246
v -2.2210 -7.6242 -7.3046
v -2.2105 -7.4232 -7.0846
v -2.1976 -7.1772 -6.4746
v -2.1975 -7.1742 -6.1746
v -2.2017 -7.2542 -5.8745
v -1.6041 -7.3162 -6.4746
v -1.9026 -7.2802 -5.8745
v -1.6158 -7.5392 -7.0846
v -1.3155 -7.5422 -6.7846
v -1.3127 -7.4892 -5.8845
v 0.1453 -8.3302 -5.9046
v 0.4312 -8.6052 -5.3146
v 1.7003 -13.0522 -5.7746
v 2.7221 -13.6162 -6.6846
v 2.5890 -13.2912 -7.1846
v 2.8710 -13.6402 -6.2046
v 0.1491 -13.0482 -1.8745
v 0.2832 -13.3552 -1.8845
v 0.1188 -13.3572 -1.5846
v -0.0012 -13.0512 -1.5746
v 0.0434 -13.3642 -1.2846
v -0.0533 -13.0592 -1.2746
v 0.3325 -13.6692 -1.5946
v 0.4533 -13.9172 -1.2946
v 0.7551 -13.8892 -1.8945
v 0.4985 -13.0542 -2.2346
v 0.7453 -14.0772 -1.6046
v 1.3209 -14.6322 -1.3246
v 0.7826 -13.3662 -2.3346
v 0.8710 -13.0652 -2.4746
v 1.3300 -14.3112 -1.9146
v 1.0604 -13.3752 -2.4846
v 1.3981 -13.0852 -2.6946
v 1.6820 -13.4002 -2.6846
v 1.6981 -13.0922 -2.9346
v 2.5031 -14.9282 -1.9346
v 1.9054 -14.8702 -1.6345
v 1.8994 -14.9832 -1.3346
v 0.0756 -13.3762 -0.9846
v -0.0023 -13.0722 -0.9746
v 0.2123 -13.3942 -0.6846
v 0.1960 -13.0942 -0.6345
v 0.2518 -13.6852 -0.9945
v 0.3917 -13.7032 -0.6946
v 0.5646 -13.1222 -0.3745
v 0.7398 -14.1822 -1.0045
v 1.6303 -14.3872 -0.1846
v 1.9608 -13.8132 0.0854
v 2.2917 -13.2302 0.1355
v 1.3195 -14.5852 -0.7246
v 4.2181 -15.7262 -0.1546
v 3.1272 -14.4862 0.3954
v 3.5163 -15.6582 -1.0546
v 0.4502 -13.9762 5.9054
v 0.2332 -13.3252 5.9254
v 0.4074 -13.3132 5.3254
v 0.7851 -13.3172 4.8655
v 1.0533 -13.9312 4.8354
v 0.6288 -13.9252 5.3054
v 0.7330 -14.3112 5.8954
v 1.3691 -13.6382 4.5654
v 1.3269 -14.4442 4.9855
v 1.3159 -14.6532 5.2754
v 1.6005 -14.9552 5.5754
v 2.6158 -12.7782 3.9154
v 1.7321 -12.4432 4.2455
v 0.5377 -13.9632 6.5055
v 0.3070 -13.3502 6.5254
v 0.5435 -13.6732 6.8154
v 1.0127 -14.2982 6.7954
v 1.0531 -14.0112 7.1055
v 0.4819 -13.3702 6.8454
v 0.7809 -13.3972 7.1654
v 1.0247 -14.4782 6.4855
v 1.8874 -14.9442 6.7754
v 1.0959 -13.1202 7.3655
v 1.5989 -14.9862 6.1654
v 1.6324 -14.3462 7.2455
v 2.1851 -15.2642 5.8655
v 2.3825 -15.2602 6.4654
v 2.1583 -11.7012 -9.0246
v 1.4650 -11.4062 -7.8146
v 3.0455 -10.8052 -10.1946
v 0.8544 -11.9962 -7.2346
v 1.1543 -12.0052 -7.4046
v 1.1597 -12.3122 -7.2445
v 1.1859 -11.4022 -7.5045
v 1.5326 -10.5192 -7.5045
v 1.5834 -12.0132 -7.8346
v 1.7283 -12.5172 -7.5546
v 2.3190 -12.7112 -7.8546
v -0.0343 -11.7552 -4.1746
v 0.2495 -12.0742 -4.0946
v 0.2650 -11.7772 -4.0246
v 1.1125 -12.8032 -5.1646
v 1.2098 -10.9452 -3.4246
v 2.5759 -13.5392 -3.0846
v 2.0673 -13.0332 -5.1646
v 0.2140 -12.7512 -1.8845
v 0.0285 -12.7522 -1.5646
v 0.0139 -12.7622 -1.2645
v 0.2249 -12.5432 -1.5546
v 0.5284 -12.4842 -1.8546
v 0.2245 -12.5492 -1.2545
v 0.5330 -12.3962 -1.5446
v 0.5270 -12.5112 -0.9546
v 0.8140 -12.7662 -2.3446
v 0.8345 -12.3742 -1.5446
v 1.4461 -12.1692 -3.1746
v 2.3281 -12.5372 -0.3446
v 1.4136 -12.7902 -2.5546
v 2.0218 -12.6492 -2.4546
v 1.4150 -12.7622 -3.3645
v 1.7000 -13.0562 -3.3645
v 1.5994 -12.7822 -3.0546
v 1.6386 -12.7952 -2.7545
v 2.0448 -12.2102 -2.8845
v 1.8610 -10.3832 -3.2746
v 1.2157 -10.3392 -3.5746
v 2.0239 -12.6082 -2.1546
v 3.2424 -12.2872 -0.9346
v 0.1148 -12.7782 -0.9646
v 0.5179 -12.6832 -0.6546
v 0.8105 -12.8322 -0.4446
v 0.4201 -12.7142 5.3454
v 0.2739 -12.7272 5.9454
v 0.4446 -12.4252 5.6554
v 0.4300 -12.4352 5.9554
v 0.8786 -11.8472 5.6754
v 1.8051 -11.5432 4.1854
v 0.7230 -12.1292 5.3655
v 1.1775 -11.5622 6.2854
v 1.9139 -11.2592 4.4955
v 1.4931 -11.2722 5.6954
v 2.0798 -11.5412 3.7154
v 2.0949 -11.2532 3.2954
v 1.9665 -11.2412 3.8954
v 2.4221 -10.7422 5.1155
v 1.9968 -10.9322 3.6055
v 0.4179 -12.7552 6.5454
v 0.7563 -13.0942 7.1355
v 1.4692 -11.7292 7.1854
v 2.3560 -12.0042 7.9554
v 2.9075 -12.9442 8.2254
v 1.8778 -11.0512 7.2054
v 1.8466 -11.0292 6.6055
v 2.0873 -11.3992 7.7954
v 1.9522 -11.0662 7.5055
v 1.3091 -9.0502 -8.0346
v 1.2157 -8.3702 -8.3046
v 1.7810 -8.9582 -9.5246
v 2.2651 -9.2632 -10.1345
v 2.1902 -9.5702 -9.8546
v 2.0110 -10.2132 -8.3745
v 0.7110 -8.9992 -6.7545
v 0.7349 -8.5442 -5.9146
v 0.7271 -8.6912 -6.5246
v 0.9515 -10.1432 -7.1746
v 0.9798 -9.6032 -7.0746
v 1.0277 -9.0032 -7.1345
v 1.0379 -8.4942 -6.8146
v 1.0369 -8.5132 -5.9146
v 1.2917 -9.6062 -7.4546
v 1.3575 -8.1282 -6.4945
v 1.1507 -8.0872 -7.6946
v 0.7055 -9.1052 -4.7346
v 0.7269 -8.6952 -5.3146
v 0.7178 -8.8702 -5.0246
v 1.2679 -9.8362 -3.8546
v 1.0774 -8.7782 -5.0246
v 1.2710 -9.4202 -4.1445
v 1.3135 -8.9672 -4.4246
v 1.3347 -8.5622 -5.0145
v 1.5567 -10.0592 -3.5045
v 1.5723 -9.7612 -3.4446
v 1.4336 -9.1392 -3.8346
v 1.5498 -8.5342 -4.1145
v 1.5567 -9.4772 -2.9446
v 1.5707 -9.2092 -2.0346
v 1.6112 -9.5122 -2.0446
v 1.8649 -9.9102 -2.6546
v 2.1519 -10.1662 -2.0646
v 1.9696 -10.5462 1.2254
v 1.5892 -9.5732 -0.2445
v 1.7205 -9.9332 1.2455
v 1.8028 -7.3782 -3.1746
v 1.9157 -7.8212 0.7154
v 1.7988 -10.5902 2.7254
v 1.7723 -10.2882 2.7355
v 1.9607 -10.0082 3.0454
v 2.4905 -10.3782 4.2355
v 2.3351 -8.5062 2.4955
v 2.0656 -10.7822 7.8154
v 2.1348 -10.4912 7.9955
v 1.9486 -10.5072 8.7254
v 2.0593 -10.8132 8.7154
v 2.3011 -10.8572 9.6155
v 2.0486 -10.2122 8.7355
v 2.1973 -10.2412 9.3354
v 2.9247 -9.3472 8.4654
v 1.5139 -7.7852 -8.2846
v 2.5831 -7.6712 -9.1846
v 2.3273 -6.8192 -7.6546
v 1.7777 -7.2302 -7.3645
v 1.6480 -7.5552 -6.4746
v 1.7524 -6.3702 -6.1345
v 1.9710 -5.7812 -6.1145
v 2.3530 -5.5012 -6.1046
v 1.9121 -6.0992 -5.5246
v 1.7430 -7.6232 -4.6846
v 1.8868 -7.0302 -4.6546
v 2.6595 -6.2122 -3.4146
v 2.3783 -5.8462 -4.8546
v 2.1569 -6.8912 -0.4546
v 2.6593 -6.2162 -0.1245
v 2.4014 -5.4052 -5.5045
v 4.7195 -16.0112 -1.3645
v 6.3249 -16.5232 -0.4746
v 3.4889 -13.3152 -7.8346
v 3.7435 -14.1902 -7.3046
v 6.0833 -15.4012 -6.1445
v 4.0567 -13.9462 -7.8446
v 4.9136 -14.7912 -7.3246
v 4.3886 -13.3452 -8.3246
v 3.4754 -13.5732 -4.2846
v 3.4787 -13.5092 -3.6846
v 4.0720 -13.6532 -3.6846
v 2.8591 -13.8682 -2.7946
v 4.8662 -15.6972 -1.9646
v 3.1687 -13.6922 -3.0846
v 4.3472 -14.1352 -2.8645
v 4.0656 -13.7772 -3.0846
v 4.0708 -13.6772 -3.3845
v 5.7648 -15.7462 0.7455
v 2.5595 -13.8532 0.3354
v 2.8900 -13.2802 0.6454
v 4.4016 -13.0972 1.7455
v 4.1176 -12.7842 1.8254
v 2.1430 -14.8952 4.9754
v 2.4895 -15.1892 5.2654
v 4.8524 -15.9602 6.4454
v 3.3014 -14.9452 4.6754
v 3.3893 -15.2162 4.9654
v 4.1012 -15.2872 4.6654
v 5.8339 -14.4282 3.2954
v 3.2379 -12.3732 3.2654
v 3.3832 -15.3332 7.0354
v 3.1277 -14.4762 7.6954
v 4.2949 -15.1332 7.6754
v 4.9142 -14.7802 8.8855
v 3.2221 -12.6742 8.6155
v 3.3679 -9.8922 -11.0045
v 4.2361 -10.5232 -11.4346
v 4.7885 -11.4462 -11.6445
v 3.8885 -11.4242 -10.9546
v 4.4724 -11.7462 -11.1946
v 2.8984 -11.7082 -9.9246
v 2.6416 -12.2872 -9.0446
v 3.3712 -10.5012 -10.7846
v 4.4374 -12.4142 -10.2445
v 4.6997 -13.1422 -8.7645
v 3.5513 -12.1252 -2.1345
v 2.4233 -10.7202 -3.0846
v 2.7228 -10.7382 -3.0246
v 3.5735 -11.7012 -2.5546
v 3.2900 -11.3782 -2.7645
v 3.4329 -11.0872 -2.6946
v 3.0253 -10.6982 -2.6846
v 3.3140 -10.9202 -2.3945
v 3.0227 -10.7472 -2.0846
v 3.5988 -11.2192 -1.8046
v 3.8493 -11.4302 -2.1046
v 3.9203 -12.0452 -1.8246
v 4.0151 -11.7392 -2.1145
v 4.0327 -11.7612 -1.5145
v 2.9520 -12.6782 0.5454
v 3.1548 -12.3782 0.2555
v 3.2847 -11.4802 0.1754
v 2.9835 -11.4952 1.0354
v 3.3925 -12.4222 1.1554
v 3.2480 -12.4042 0.8555
v 3.3876 -11.8012 0.5854
v 3.8718 -11.7412 -0.3146
v 3.8456 -12.2422 -0.0346
v 3.3573 -12.1102 0.8655
v 3.2676 -11.8052 0.8954
v 3.8685 -11.8052 -0.0045
v 3.8525 -12.1092 0.1155
v 4.1555 -12.0602 -0.9246
v 4.1465 -12.2322 -0.6345
v 4.1428 -12.3042 -0.3346
v 4.5649 -12.1312 -0.3246
v 4.4465 -12.2392 -0.0346
v 2.9781 -11.5972 1.4855
v 3.5492 -12.1642 2.0654
v 3.4685 -12.1372 1.4654
v 3.6772 -12.7482 1.4454
v 3.8325 -12.4912 1.7555
v 4.5019 -12.8332 2.6454
v 2.1408 -10.9602 4.2054
v 3.2534 -12.0772 8.6754
v 2.2912 -11.4052 8.0954
v 2.9696 -11.7602 8.6454
v 2.8311 -11.4652 8.9955
v 2.6944 -11.2792 9.6055
v 2.6898 -11.3682 10.8054
v 2.6384 -11.2282 11.1055
v 3.4424 -12.0972 8.9754
v 3.2296 -11.7862 8.9855
v 3.6168 -11.8482 10.1854
v 2.9790 -11.5802 10.7954
v 4.1359 -13.0662 9.8454
v 4.4326 -12.5052 10.5554
v 5.5655 -13.8162 10.1155
v 2.9808 -11.5472 11.3954
v 3.2786 -11.5972 12.1055
v 2.9954 -11.2692 11.7455
v 3.5682 -11.8032 11.9855
v 3.5696 -11.7762 12.2854
v 4.4606 -11.9702 13.1854
v 3.8178 -11.6532 12.8954
v 3.4601 -11.3132 12.3054
v 5.3721 -11.7752 14.0554
v 4.4522 -12.1322 11.0754
v 2.5148 -8.9732 -10.2146
v 3.4318 -8.6742 -10.4146
v 4.5823 -9.6482 -11.1846
v 2.9329 -8.1072 -9.7946
v 5.2124 -9.0912 -10.8745
v 4.6591 -8.1842 -10.2046
v 2.4420 -10.3622 -2.6746
v 3.0381 -10.4522 5.7254
v 2.4278 -10.6352 4.5254
v 2.7394 -10.4192 4.8254
v 3.4660 -9.2282 4.2754
v 3.5173 -9.8632 5.1554
v 3.6702 -9.8552 6.3555
v 3.9993 -9.3082 5.7555
v 4.0137 -8.9882 5.1854
v 4.2010 -8.7292 6.0954
v 2.7300 -10.5992 6.6255
v 2.4291 -10.6092 7.2254
v 3.3215 -9.9262 7.2455
v 3.6943 -9.3952 7.2654
v 3.2744 -8.7652 8.4955
v 3.9865 -9.3292 6.3755
v 4.1250 -8.7462 6.6954
v 3.7536 -8.2662 7.9054
v 2.8628 -9.3652 9.0654
v 2.5563 -10.9132 10.8154
v 3.0630 -9.9772 10.5454
v 2.9085 -10.6412 11.1255
v 3.6742 -9.7792 11.1155
v 3.7537 -8.2622 8.5055
v 4.0162 -8.9862 10.2854
v 5.2022 -9.2852 11.8855
v 3.3265 -10.6822 11.6754
v 4.5583 -10.1062 12.3454
v 4.5148 -10.7882 12.9254
v 5.2439 -8.4892 10.6055
v 3.5129 -7.1252 -8.8645
v 3.5412 -6.5862 -7.9446
v 4.0938 -7.5052 -9.4746
v 4.7311 -6.8102 -8.5446
v 5.0487 -6.4812 -7.8845
v 2.6835 -5.7552 -4.9146
v 3.2800 -5.8382 -6.4446
v 2.9761 -5.9052 -4.0145
v 6.8154 -7.1642 -3.4546
v 2.9669 -6.0792 -2.5246
v 2.9612 -6.1882 0.4754
v 3.2657 -6.1092 -2.2246
v 2.9336 -6.7152 1.9554
v 3.0315 -7.0412 2.5454
v 4.0377 -7.1882 5.2455
v 4.1434 -8.3952 5.2054
v 4.1941 -7.5182 5.8354
v 4.3580 -7.2262 5.8454
v 4.4183 -7.0462 6.4554
v 4.7065 -7.2792 5.8454
v 4.1170 -7.5562 7.0354
v 4.1503 -7.5472 6.7355
v 4.4125 -7.1562 7.0454
v 5.2449 -7.6672 8.5354
v 5.8889 -7.6472 8.5354
v 5.5012 -15.0442 -8.2346
v 6.0744 -15.5722 -7.9546
v 6.3675 -15.7112 -7.3546
v 7.8291 -16.4822 -7.3745
v 8.1256 -16.5582 -8.0145
v 5.5682 -16.0342 -1.9646
v 5.5155 -15.7102 -2.5546
v 6.0424 -16.1812 -2.5646
v 6.0406 -16.2162 -1.9746
v 5.7449 -16.1272 -1.6646
v 7.7151 -16.3742 -4.0746
v 7.8126 -16.7972 -3.1846
v 6.6312 -16.4112 -1.3645
v 7.5197 -16.6552 -1.9846
v 7.2523 -16.5382 1.3254
v 5.4522 -15.9802 4.6454
v 5.1443 -15.6322 4.3555
v 5.7610 -15.8192 4.0454
v 5.7469 -16.0882 4.3354
v 6.0318 -16.2892 4.6355
v 6.3375 -16.2832 4.0055
v 5.1605 -15.8132 5.5454
v 7.2241 -16.5622 4.9254
v 7.9621 -16.9702 4.0154
v 7.9616 -16.9802 4.3154
v 6.9404 -16.2442 5.5354
v 5.5890 -13.3682 -9.6746
v 5.4507 -12.3802 -11.7445
v 6.5770 -13.6402 -11.7846
v 6.2246 -12.7052 -12.1946
v 6.4927 -13.3222 -12.1345
v 7.0604 -13.9542 -12.1145
v 6.7924 -13.3362 -12.1946
v 4.9725 -13.6672 -8.5846
v 5.7534 -13.6802 -9.3845
v 6.7094 -14.9192 -9.7946
v 4.7681 -14.2712 -8.2046
v 5.6732 -14.9082 -8.5246
v 6.4789 -13.9872 -10.2946
v 6.7280 -14.5632 -10.0145
v 6.9822 -15.4452 -9.4446
v 6.3870 -15.3382 -8.5446
v 7.8972 -15.1832 -11.5346
v 4.6241 -14.5842 -7.6345
v 6.0852 -15.3662 -6.7445
v 5.5221 -14.6452 -4.6145
v 5.8228 -14.6402 -4.0145
v 6.9846 -15.4002 -5.2445
v 6.4090 -14.9182 -4.3246
v 5.8213 -14.6692 -3.7146
v 6.7022 -15.0562 -4.0246
v 5.5585 -14.7912 -3.1245
v 4.4138 -13.8202 -3.3945
v 5.4985 -15.0962 -2.9046
v 6.9665 -15.7452 -3.7346
v 6.1366 -14.3852 1.5954
v 5.8683 -13.7712 1.6355
v 5.8800 -13.5482 2.0254
v 5.8528 -14.0672 1.5154
v 5.1871 -15.3052 4.0654
v 6.2145 -14.0922 1.7054
v 6.1703 -13.7422 2.0154
v 6.1630 -13.8792 2.6155
v 6.1697 -13.7522 2.3154
v 6.9861 -15.3722 1.9654
v 6.6518 -14.4262 1.9955
v 6.6699 -15.6732 3.2455
v 6.5283 -14.1192 2.0055
v 6.6707 -14.4482 2.5954
v 6.4568 -14.0062 2.3154
v 6.7361 -14.4092 2.2954
v 7.2537 -15.9972 3.0354
v 5.7601 -15.8372 7.3454
v 7.5392 -16.2822 6.1355
v 6.1357 -14.4012 9.5055
v 5.6722 -11.7812 -12.0045
v 7.1545 -12.1592 -12.0145
v 6.9171 -10.9572 -11.6546
v 4.7069 -13.0032 2.0454
v 5.9358 -12.4832 11.3655
v 6.2903 -12.9202 11.0554
v 9.2452 -12.3902 14.3755
v 4.7928 -11.3652 13.5055
v 5.3566 -10.8532 13.5254
v 5.3559 -12.0852 13.4855
v 5.9979 -11.2982 14.1155
v 7.1844 -11.5882 14.6055
v 7.7679 -11.9182 14.5654
v 7.8617 -10.1282 -10.9646
v 5.8573 -8.2482 -10.1445
v 7.0818 -8.3252 -9.7946
v 5.1532 -10.2202 12.9054
v 6.1371 -8.6422 11.5055
v 6.3697 -9.9362 13.2555
v 6.1058 -9.2392 12.3855
v 7.3117 -9.1582 12.6854
v 6.9169 -10.9592 14.2154
v 5.2956 -7.5032 -9.4746
v 5.9255 -6.9482 -8.5546
v 6.2321 -6.8302 -7.9446
v 6.7908 -7.6342 -9.1746
v 6.5163 -7.1382 -8.5546
v 6.1833 -7.7602 7.9354
v 11.1606 -10.2352 12.0554
v 6.7607 -8.2082 10.9154
v 7.6466 -8.5012 11.5055
v 7.3430 -8.5612 11.8054
v 8.7781 -15.5722 -11.4046
v 9.3448 -16.2222 -10.8645
v 9.0431 -16.2472 -10.9746
v 8.7433 -16.2362 -10.9746
v 8.1951 -15.2302 -11.6946
v 8.1520 -16.0532 -8.8645
v 8.2273 -16.2432 -8.5746
v 7.5889 -15.3332 -10.3446
v 8.1706 -15.6992 -10.9546
v 8.1549 -15.9982 -9.7645
v 9.2904 -17.2602 -8.0045
v 8.4249 -16.5782 -6.4846
v 9.4890 -17.5522 -7.4146
v 10.0051 -17.9002 -6.8246
v 6.9940 -15.2212 -4.3346
v 7.1256 -15.4422 -4.0446
v 11.2863 -19.3022 -5.6746
v 8.9405 -18.2052 0.0654
v 8.0718 -17.5832 0.0854
v 8.6740 -17.5572 0.6854
v 8.6558 -17.9052 0.3755
v 8.6911 -17.2312 1.0055
v 10.1205 -18.6182 0.9554
v 9.8847 -17.3842 1.8954
v 8.1098 -16.8592 1.6155
v 7.7801 -16.2862 1.9354
v 7.5615 -15.8562 2.2455
v 8.1481 -16.1272 2.5354
v 7.8416 -16.2452 3.1355
v 7.2251 -16.5432 3.7254
v 7.8297 -16.4702 3.4254
v 8.3750 -16.3282 2.2355
v 9.0366 -16.3712 2.5354
v 8.7381 -16.3342 3.1355
v 9.0192 -16.7032 3.4054
v 9.3128 -16.8322 2.2154
v 8.9973 -17.1212 1.6055
v 9.3268 -16.5672 3.1255
v 7.8142 -16.7662 3.7154
v 7.8301 -16.4632 5.2254
v 7.8401 -16.2732 5.8354
v 8.7401 -16.2962 5.5354
v 8.9912 -17.2372 4.0055
v 9.5946 -17.1882 3.7054
v 8.9994 -17.0802 4.6055
v 8.7420 -16.2602 5.8354
v 9.3286 -16.5322 5.2254
v 10.1963 -17.1712 4.6055
v 8.4221 -16.6322 7.0254
v 8.1324 -16.4272 7.6355
v 8.7383 -16.3312 6.1355
v 10.2128 -16.8572 7.0254
v 9.9336 -16.4522 7.9354
v 8.7440 -16.2222 8.2455
v 9.9403 -16.3232 8.5354
v 7.6595 -13.9872 -12.0646
v 8.5891 -13.4442 -11.7846
v 8.8256 -14.6652 -11.6145
v 8.6516 -12.2522 -11.5946
v 7.3047 -15.0242 -10.3346
v 6.9864 -15.3662 2.5854
v 6.9348 -15.0522 2.2754
v 7.0783 -15.3592 2.2654
v 7.6401 -14.3582 9.5055
v 7.0430 -14.2862 10.1055
v 7.6043 -15.0392 8.8855
v 7.8741 -15.6242 8.5654
v 8.6565 -14.5032 9.8054
v 8.8931 -15.7062 9.4554
v 9.0440 -16.2302 8.8454
v 9.4399 -14.4082 10.4054
v 8.2555 -14.0782 11.6155
v 9.1502 -14.2032 11.0154
v 8.4161 -11.3452 -11.4046
v 9.2823 -11.6832 -11.1145
v 8.8306 -10.4872 -10.7746
v 8.4796 -13.0872 12.5554
v 8.5921 -13.3882 12.3855
v 9.8010 -13.2502 13.1454
v 9.2654 -12.0052 14.8154
v 8.9816 -11.6882 14.7754
v 8.5273 -8.8922 -9.5145
v 9.1802 -9.9252 -10.1546
v 11.4055 -11.2942 -8.7246
v 9.9108 -11.1552 -10.4546
v 8.1900 -9.5962 13.2754
v 8.2272 -8.8862 12.3954
v 9.1110 -9.2192 12.7455
v 9.6500 -10.3992 13.8454
v 7.5642 -10.0732 13.6854
v 7.7993 -11.3182 14.5554
v 8.4466 -10.4312 14.0154
v 9.9126 -11.1202 14.3254
v 8.8227 -8.9882 12.3954
v 9.7023 -9.4012 12.6854
v 11.7125 -18.2902 -6.8346
v 11.5783 -19.4632 -5.6746
v 10.7506 -18.0592 -8.0246
v 10.1652 -17.7652 -8.3246
v 11.2931 -19.1722 -0.2645
v 11.8638 -19.7462 -4.1846
v 10.6992 -19.0402 0.3454
v 11.2895 -19.2412 0.6355
v 11.8846 -19.3502 1.5354
v 11.0255 -18.5462 1.8555
v 9.6009 -17.0672 -10.0946
v 9.3082 -16.9212 -10.0946
v 9.6174 -16.7522 -10.3845
v 9.9463 -15.0482 -10.9246
v 10.1861 -17.3652 -9.5045
v 9.8840 -17.3992 -9.5045
v 9.9433 -16.2672 -10.4646
v 9.9095 -16.9122 -10.0946
v 10.5034 -17.0442 -9.4945
v 10.5526 -16.1052 -10.0646
v 11.1029 -14.8402 -10.0145
v 11.2540 -16.3812 -9.1746
v 11.9434 -15.2272 -8.8246
v 9.8687 -17.6912 -7.7146
v 9.9223 -17.0202 2.5154
v 9.9024 -17.0472 3.3054
v 10.1966 -17.1662 3.1055
v 10.1881 -17.3272 3.7054
v 11.0389 -18.2892 2.7455
v 10.8493 -17.7012 3.3855
v 10.4422 -17.3792 3.4054
v 11.1718 -18.3082 3.0654
v 11.9529 -18.0472 4.5854
v 10.4014 -17.3982 4.0055
v 10.2306 -16.5162 5.8354
v 10.8101 -16.9242 5.2154
v 10.7773 -17.5502 3.6954
v 11.0794 -17.5172 4.2954
v 11.3996 -17.1392 5.5154
v 10.5238 -16.6542 6.1255
v 11.6838 -17.4482 5.2054
v 10.2229 -16.6632 6.4254
v 10.5159 -16.8052 7.6255
v 10.8015 -17.0892 6.7154
v 10.7987 -17.1412 7.0154
v 11.6790 -17.5402 7.2954
v 11.4432 -16.3072 8.2455
v 11.9653 -17.8102 6.3954
v 9.9323 -16.4762 9.4354
v 9.8663 -16.3682 9.7355
v 11.1266 -16.6172 10.3354
v 10.8352 -16.4442 10.4554
v 10.5352 -16.4372 9.4354
v 11.1494 -16.1822 9.1454
v 11.1343 -16.4702 10.7555
v 11.7198 -16.7622 10.6255
v 12.0183 -16.7982 11.2254
v 11.7324 -16.5222 11.3454
v 9.4871 -13.5062 -11.3645
v 10.0542 -14.1502 -11.0045
v 11.2664 -13.9492 -9.9546
v 10.7152 -13.0022 -10.4346
v 11.4651 -13.0682 -9.6546
v 11.7107 -14.2932 -9.3945
v 9.4012 -15.1462 9.8755
v 10.8505 -16.1522 10.6854
v 10.6591 -14.9402 10.6954
v 11.1512 -16.1472 8.5454
v 11.1968 -15.2772 10.9354
v 11.7511 -16.1662 8.8454
v 10.0613 -14.0152 11.9254
v 10.7140 -14.6532 11.0055
v 11.5211 -16.2072 11.2455
v 12.9913 -15.4292 12.5754
v 9.5340 -12.6122 -11.2346
v 10.1169 -12.9542 -10.9046
v 10.1481 -12.3602 -10.7645
v 10.7772 -12.4112 -10.2346
v 10.6996 -10.9272 -9.5846
v 11.3787 -11.8062 -9.3146
v 11.6964 -11.6112 -8.7046
v 12.1684 -12.5472 -8.4346
v 12.2720 -11.9572 -7.5145
v 11.6381 -13.3052 14.0554
v 9.8490 -12.3342 14.7455
v 10.1642 -12.0512 14.7654
v 12.4992 -13.3552 14.1854
v 10.8561 -12.3852 14.6854
v 10.4800 -11.7592 14.5454
v 11.3954 -11.4882 14.0254
v 11.9311 -12.7302 14.3555
v 10.5681 -10.0772 13.2654
v 12.3242 -10.9612 12.9354
v 11.9434 -10.8882 13.2355
v 10.8440 -10.8512 13.8354
v 12.2679 -19.6042 -4.4746
v 12.1602 -19.8222 -4.1846
v 12.3453 -18.6652 -5.6445
v 13.0147 -18.4322 -4.7346
v 12.7854 -19.3582 -3.7046
v 12.1586 -19.8542 -3.2846
v 12.4595 -19.8442 -3.2846
v 12.4538 -19.9532 -2.0846
v 12.4529 -19.9692 -1.4846
v 12.7624 -19.7982 -2.3845
v 13.0627 -19.8002 -1.4846
v 13.8190 -18.5792 -1.7346
v 12.1681 -19.6732 0.9254
v 13.3203 -20.6162 -0.0045
v 13.6133 -20.7582 1.1854
v 13.3346 -20.3432 -0.5946
v 13.3481 -20.0862 -0.9146
v 13.7075 -20.4372 -0.0045
v 13.6171 -20.7542 0.5854
v 11.6117 -18.8252 3.0554
v 12.7120 -19.6002 3.3254
v 13.9123 -20.7842 2.6854
v 13.9256 -20.5312 3.8954
v 12.4887 -19.2862 3.6355
v 13.2788 -19.3922 5.1355
v 13.9426 -20.2072 4.8054
v 13.1230 -18.6482 6.0654
v 13.4171 -18.7682 6.3555
v 12.6010 -17.1452 -6.5346
v 13.6846 -16.6652 -4.6746
v 13.0378 -17.8122 -5.3146
v 13.7364 -17.2902 -4.0946
v 14.4171 -17.1092 -1.6846
v 11.6876 -17.3762 5.8054
v 12.2315 -17.8572 5.7854
v 12.5468 -18.1792 6.6754
v 13.1682 -17.7852 7.5954
v 13.1325 -18.4682 6.6654
v 13.4728 -17.7072 7.8954
v 14.0264 -18.6072 7.3454
v 12.6264 -16.6592 10.6355
v 13.2300 -16.6062 10.6355
v 13.8233 -16.7502 10.6355
v 12.3390 -16.4122 8.8454
v 12.3169 -16.8332 11.2254
v 12.6035 -16.5852 11.8354
v 13.5292 -16.6292 11.2355
v 13.2288 -16.6292 11.8354
v 13.2380 -16.4542 12.1454
v 14.1290 -16.6502 11.4054
v 12.3022 -13.7552 -8.4746
v 12.5646 -14.3902 -7.8945
v 12.8598 -13.2362 -6.9546
v 13.0812 -15.3702 -6.4346
v 13.5942 -14.5382 -5.2046
v 13.4890 -13.0522 -4.5446
v 13.6273 -13.3702 -4.2545
v 13.7515 -13.6882 -3.9646
v 14.0657 -15.2162 -3.7246
v 13.9002 -13.7162 -3.3645
v 12.4585 -14.7972 12.4955
v 13.0521 -14.2692 13.6954
v 12.9602 -16.0222 12.4054
v 13.3060 -15.1562 12.9054
v 13.5592 -16.0572 12.5154
v 13.5900 -15.4692 12.8254
v 13.8366 -16.4972 11.8454
v 13.8437 -16.3602 12.1454
v 13.6078 -15.1302 13.0954
v 13.8896 -15.4852 12.8555
v 13.6360 -14.5912 13.4454
v 12.5007 -12.2952 -7.5246
v 13.4317 -12.7572 -4.3046
v 13.6992 -13.3852 -3.9346
v 13.7828 -13.0892 -3.9446
v 13.8649 -13.4042 -3.6546
v 13.9096 -13.1162 -3.3446
v 14.0135 -13.1222 -2.7445
v 14.2963 -13.4572 -2.7946
v 13.4622 -12.1762 12.8954
v 13.3992 -13.3792 13.5154
v 14.0393 -13.3892 12.8555
v 14.1552 -12.1632 11.9955
v 12.8997 -11.4452 12.9154
v 13.9372 -13.9952 13.1355
v 15.0248 -12.7672 10.7754
v 13.8576 -11.8472 12.0055
v 12.5629 -12.1382 13.6754
v 14.0088 -20.1532 0.0055
v 13.9159 -20.7152 0.8855
v 14.3612 -19.2502 -0.5646
v 14.6735 -19.9192 0.9154
v 15.2053 -19.0422 0.8354
v 15.4632 -19.0912 1.8454
v 13.9091 -20.8452 1.4855
v 13.9100 -20.8272 2.2555
v 14.2114 -20.8092 2.0854
v 14.2082 -20.8702 2.6854
v 14.5267 -20.5262 4.1954
v 14.7674 -20.2762 2.4054
v 15.5827 -19.1392 3.0454
v 15.6265 -17.8572 0.6954
v 15.9192 -17.9142 1.8954
v 15.8327 -18.5342 2.7654
v 14.2293 -20.6112 4.1954
v 14.2547 -19.9822 5.7154
v 14.5359 -20.3502 4.8755
v 14.5769 -19.7922 6.0254
v 15.2033 -19.7512 3.9254
v 14.8514 -20.0612 4.7254
v 15.1943 -19.2512 5.4454
v 14.9781 -19.2122 6.0454
v 15.4630 -19.1852 4.5454
v 15.7857 -18.3122 4.8755
v 14.3148 -18.8372 7.2555
v 14.6226 -18.6952 7.2654
v 14.4022 -16.4972 -1.9646
v 14.5187 -16.5142 -1.6646
v 14.5594 -15.9152 -1.6445
v 14.5983 -18.0402 -1.1145
v 14.8747 -17.1542 -1.0846
v 15.3646 -16.0012 -0.4146
v 15.3973 -17.2132 -0.1846
v 15.2477 -18.2322 0.0754
v 15.8140 -16.9662 0.7254
v 16.1827 -16.7372 2.2355
v 15.9611 -16.0842 1.0654
v 16.1293 -17.6672 3.1055
v 15.3903 -18.3332 6.0754
v 15.9564 -18.2792 3.6754
v 15.8438 -16.8452 5.8354
v 16.1772 -17.1112 4.3254
v 16.0588 -16.2352 5.2555
v 14.6393 -18.3772 8.4754
v 14.6248 -18.6532 7.5654
v 15.2405 -17.7882 7.8954
v 14.9447 -18.2822 8.1854
v 15.3754 -17.4532 6.7054
v 15.4955 -17.2222 8.5154
v 15.2394 -17.8092 8.4955
v 14.7127 -16.9762 11.2555
v 14.9486 -18.2072 8.7854
v 14.9892 -17.4312 10.3154
v 15.2061 -17.5492 9.7054
v 15.4445 -16.6712 10.0354
v 15.0282 -16.6882 11.1654
v 15.7590 -16.3142 7.9554
v 15.7975 -15.7572 9.1754
v 14.4267 -16.7012 11.5354
v 14.4389 -16.4682 11.8454
v 14.0800 -14.0472 -2.7846
v 14.4225 -14.4072 -1.5946
v 14.2801 -13.7672 -2.5045
v 14.6136 -13.5372 -0.9646
v 15.5515 -14.5402 0.5055
v 16.0995 -14.6522 2.9054
v 15.4297 -13.8212 5.9354
v 16.2017 -15.8382 2.2654
v 16.2832 -15.8942 3.7654
v 16.1257 -15.3172 4.6854
v 15.6042 -14.4312 5.9154
v 15.6612 -15.0452 6.1954
v 16.0879 -14.6942 4.1055
v 15.6207 -16.2652 6.7555
v 15.7983 -15.3842 7.0854
v 15.5725 -14.1402 6.2254
v 15.8594 -14.2172 8.0254
v 15.9007 -15.1312 8.2954
v 15.6587 -15.1812 10.0954
v 15.8228 -14.5582 9.2154
v 14.1381 -16.4752 11.8454
v 14.1587 -16.0832 12.3555
v 14.1988 -15.3172 12.7854
v 14.5108 -14.6042 12.5154
v 14.7570 -16.1312 11.8555
v 14.9158 -15.2052 11.8855
v 14.8528 -14.3022 11.9554
v 15.2149 -15.5002 11.2754
v 15.2322 -14.9002 11.3054
v 15.6518 -13.9692 9.8354
v 14.6107 -13.1902 11.9554
v 14.7944 -12.7762 11.3755
v 15.0017 -13.3872 11.3555
v 16.2700 -16.7732 3.1355
f 1 2 3
f 1 4 2
f 5 6 7
f 6 8 7
f 6 9 8
f 10 11 5
f 5 7 10
f 7 3 10
f 1 3 8
f 3 7 8
f 12 11 10
f 13 12 10
f 13 10 3
f 14 12 13
f 4 1 15
f 11 16 5
f 11 12 17
f 17 14 18
f 17 12 14
f 9 19 8
f 9 20 19
f 8 19 1
f 20 21 19
f 1 19 15
f 21 22 15
f 19 21 15
f 23 4 15
f 6 24 9
f 20 25 21
f 21 25 22
f 23 22 26
f 23 15 22
f 27 3 2
f 27 13 3
f 4 28 2
f 13 27 29
f 29 27 2
f 14 13 18
f 18 13 30
f 29 30 13
f 31 29 2
f 28 31 2
f 30 29 32
f 29 31 33
f 32 29 33
f 4 23 28
f 28 23 26
f 28 34 31
f 28 26 34
f 31 34 33
f 5 35 6
f 35 24 6
f 36 35 5
f 36 5 37
f 36 37 38
f 38 37 16
f 39 36 38
f 40 36 39
f 35 36 40
f 40 39 41
f 39 42 41
f 38 43 42
f 42 39 38
f 43 38 16
f 35 40 24
f 40 44 24
f 20 24 44
f 44 40 45
f 20 44 46
f 45 40 41
f 44 45 47
f 37 5 16
f 48 16 11
f 48 11 17
f 49 17 18
f 48 17 49
f 50 48 49
f 50 49 51
f 52 16 48
f 50 52 48
f 53 52 50
f 50 51 53
f 53 51 54
f 51 55 54
f 43 52 53
f 43 16 52
f 56 43 53
f 53 54 56
f 22 25 57
f 58 26 22
f 58 22 57
f 9 24 20
f 46 25 20
f 25 59 57
f 60 58 57
f 46 59 25
f 59 60 57
f 60 59 61
f 62 61 63
f 49 18 64
f 65 64 18
f 65 18 30
f 66 65 30
f 30 32 66
f 66 32 67
f 32 33 67
f 67 33 68
f 66 67 69
f 69 67 70
f 67 68 70
f 51 49 64
f 71 51 64
f 71 64 65
f 66 71 65
f 71 66 69
f 51 71 55
f 72 55 71
f 69 70 73
f 72 71 69
f 72 69 74
f 74 69 73
f 72 74 55
f 34 58 68
f 58 34 26
f 68 33 34
f 58 70 68
f 62 58 60
f 62 60 61
f 58 62 70
f 73 70 62
f 62 75 73
f 73 75 74
f 41 76 45
f 77 76 41
f 78 77 41
f 77 79 76
f 80 81 82
f 80 82 83
f 82 84 83
f 84 85 83
f 86 87 84
f 86 82 81
f 88 86 81
f 84 82 86
f 81 80 89
f 88 90 86
f 90 91 87
f 86 90 87
f 88 81 92
f 92 89 93
f 92 81 89
f 91 90 94
f 94 92 95
f 94 88 92
f 96 97 95
f 93 96 95
f 92 93 95
f 90 88 94
f 97 94 95
f 97 96 98
f 94 99 100
f 91 100 101
f 91 94 100
f 94 97 99
f 84 102 85
f 102 103 85
f 102 104 103
f 104 105 103
f 84 87 106
f 102 84 106
f 102 106 104
f 106 107 104
f 105 104 108
f 87 91 109
f 106 87 109
f 107 106 109
f 107 110 104
f 111 104 110
f 108 104 111
f 111 112 108
f 109 91 113
f 107 109 113
f 113 110 107
f 114 110 113
f 115 111 110
f 101 116 113
f 91 101 113
f 117 118 119
f 120 121 122
f 120 122 119
f 122 117 119
f 117 122 123
f 121 120 124
f 125 126 122
f 126 127 123
f 122 126 123
f 125 122 121
f 125 121 124
f 128 124 129
f 127 126 125
f 117 130 131
f 117 131 118
f 130 117 123
f 130 132 131
f 133 134 132
f 130 133 132
f 132 135 131
f 132 136 135
f 132 134 136
f 137 130 123
f 137 138 133
f 133 130 137
f 136 134 139
f 137 123 140
f 140 138 137
f 133 138 141
f 134 133 141
f 123 127 140
f 134 141 139
f 142 140 127
f 143 138 140
f 144 145 146
f 147 42 43
f 147 148 149
f 149 42 147
f 148 147 43
f 148 43 150
f 150 43 151
f 41 42 149
f 149 148 152
f 148 145 152
f 145 148 150
f 153 41 149
f 153 149 152
f 150 151 145
f 154 41 153
f 144 153 152
f 145 144 152
f 145 151 146
f 44 155 46
f 59 46 155
f 47 156 44
f 156 155 44
f 155 156 157
f 158 47 45
f 155 157 159
f 159 59 155
f 76 158 45
f 158 160 47
f 76 161 158
f 162 89 80
f 80 83 162
f 83 163 162
f 83 85 163
f 85 164 163
f 162 163 165
f 166 162 165
f 163 164 167
f 165 163 167
f 166 165 168
f 167 168 165
f 168 167 169
f 89 170 93
f 89 162 170
f 166 170 162
f 166 168 171
f 171 168 169
f 156 172 157
f 157 172 159
f 170 96 93
f 171 169 173
f 174 96 170
f 174 170 166
f 175 174 166
f 166 171 175
f 156 176 172
f 47 176 156
f 47 177 176
f 176 177 178
f 178 98 179
f 98 174 179
f 96 174 98
f 179 174 175
f 172 176 178
f 178 180 172
f 180 159 172
f 180 181 159
f 182 159 181
f 160 177 47
f 98 177 160
f 178 177 98
f 178 179 175
f 171 183 175
f 175 180 178
f 183 171 184
f 85 103 164
f 103 185 164
f 103 105 185
f 167 164 185
f 186 185 105
f 186 105 108
f 167 185 169
f 185 186 169
f 112 187 108
f 187 186 108
f 169 186 173
f 187 173 186
f 171 173 184
f 188 120 119
f 119 118 188
f 118 189 188
f 190 188 189
f 189 191 190
f 192 190 191
f 188 193 120
f 194 193 188
f 188 190 194
f 192 194 190
f 192 191 195
f 120 193 124
f 196 193 194
f 196 194 192
f 129 124 193
f 197 196 192
f 129 198 128
f 129 193 198
f 199 198 200
f 198 193 200
f 196 200 193
f 196 197 201
f 199 200 202
f 131 135 203
f 118 131 189
f 131 203 189
f 189 203 191
f 203 135 204
f 136 139 204
f 135 136 204
f 203 204 205
f 195 191 203
f 204 139 205
f 206 139 207
f 205 139 206
f 197 192 195
f 195 203 208
f 203 205 208
f 197 195 209
f 195 208 209
f 210 205 206
f 205 211 208
f 205 210 211
f 212 213 214
f 214 215 216
f 216 212 214
f 216 217 212
f 54 218 56
f 55 218 54
f 55 74 219
f 55 220 218
f 55 219 220
f 221 43 56
f 56 222 221
f 222 56 218
f 222 218 223
f 218 220 223
f 223 220 224
f 224 220 225
f 220 219 225
f 151 43 221
f 221 222 151
f 222 223 226
f 212 223 213
f 225 227 224
f 223 228 213
f 223 224 228
f 224 227 228
f 222 226 151
f 212 217 226
f 226 223 212
f 151 226 217
f 62 63 75
f 229 63 61
f 219 75 230
f 74 75 219
f 182 61 59
f 63 231 230
f 229 231 63
f 230 75 63
f 159 182 59
f 61 182 232
f 61 232 229
f 225 219 233
f 219 230 233
f 231 233 230
f 229 234 235
f 229 232 234
f 229 233 231
f 235 233 229
f 236 233 235
f 225 233 236
f 182 237 232
f 232 237 238
f 234 232 238
f 234 238 239
f 234 240 235
f 234 239 240
f 235 240 236
f 236 227 225
f 240 227 236
f 238 181 241
f 238 241 239
f 241 242 239
f 241 243 242
f 239 242 240
f 237 182 181
f 238 237 181
f 181 244 241
f 241 244 243
f 243 245 246
f 245 243 244
f 246 247 243
f 246 248 247
f 247 242 243
f 247 249 242
f 247 250 249
f 251 252 248
f 248 252 250
f 252 253 250
f 248 250 247
f 199 251 246
f 199 202 251
f 251 248 246
f 251 202 252
f 202 253 252
f 254 253 202
f 253 255 250
f 256 211 210
f 211 256 257
f 257 256 258
f 258 256 210
f 210 259 258
f 259 260 258
f 258 261 257
f 262 261 258
f 258 260 262
f 257 261 263
f 214 213 264
f 214 264 265
f 265 264 266
f 264 213 228
f 228 267 264
f 228 227 267
f 227 240 268
f 264 267 266
f 267 268 269
f 268 267 227
f 266 267 270
f 267 269 270
f 271 266 270
f 269 272 270
f 249 273 240
f 273 268 240
f 273 249 274
f 249 275 274
f 268 273 269
f 273 274 269
f 269 274 272
f 274 276 272
f 240 242 249
f 250 277 249
f 277 278 249
f 270 272 279
f 271 270 279
f 272 276 279
f 280 281 116
f 281 114 116
f 282 78 154
f 77 78 283
f 283 284 77
f 79 77 284
f 78 282 285
f 284 283 286
f 78 285 283
f 285 282 287
f 287 282 154
f 161 76 79
f 158 161 160
f 79 284 161
f 284 288 161
f 161 288 289
f 288 290 289
f 160 97 98
f 280 101 100
f 280 100 99
f 97 160 291
f 291 99 97
f 280 99 292
f 161 293 160
f 293 291 160
f 292 99 294
f 289 293 161
f 294 99 291
f 289 295 293
f 295 291 293
f 294 291 295
f 290 296 289
f 296 295 289
f 297 110 114
f 115 110 297
f 298 111 115
f 298 112 111
f 114 113 116
f 101 280 116
f 298 299 112
f 299 298 115
f 115 300 301
f 127 302 303
f 303 142 127
f 302 125 124
f 302 127 125
f 304 142 303
f 305 124 128
f 302 124 305
f 302 305 306
f 303 302 306
f 303 306 304
f 307 306 305
f 305 128 308
f 308 128 309
f 142 143 140
f 207 139 141
f 310 138 143
f 310 141 138
f 304 143 142
f 310 311 141
f 207 141 311
f 304 310 143
f 310 312 311
f 311 313 314
f 315 316 317
f 318 315 317
f 319 318 317
f 146 320 144
f 321 144 320
f 318 320 146
f 146 322 318
f 323 154 321
f 321 320 319
f 319 320 318
f 324 154 323
f 321 319 323
f 78 41 154
f 153 144 321
f 153 321 154
f 325 180 175
f 184 175 183
f 326 181 180
f 327 326 180
f 180 325 328
f 328 329 180
f 327 180 329
f 330 327 329
f 331 327 330
f 330 332 331
f 331 332 333
f 330 329 328
f 332 334 333
f 332 330 335
f 325 175 336
f 175 184 336
f 325 337 328
f 330 328 337
f 337 335 330
f 335 338 334
f 334 332 335
f 336 337 325
f 336 338 337
f 338 335 337
f 187 112 173
f 173 112 339
f 173 339 340
f 112 299 339
f 341 342 246
f 246 334 341
f 339 299 343
f 340 184 173
f 343 344 339
f 339 344 340
f 341 345 342
f 341 334 346
f 184 340 347
f 344 345 340
f 344 348 345
f 344 343 348
f 348 349 345
f 334 338 346
f 341 346 350
f 341 350 345
f 342 345 349
f 351 340 345
f 351 347 340
f 350 351 345
f 352 336 353
f 336 184 353
f 353 184 354
f 354 184 347
f 336 352 338
f 352 346 338
f 352 353 355
f 353 354 355
f 355 354 356
f 354 347 356
f 347 351 356
f 352 355 346
f 346 355 350
f 355 351 350
f 342 357 246
f 246 309 199
f 246 357 309
f 309 357 358
f 349 359 357
f 349 357 342
f 299 360 343
f 343 361 359
f 343 359 348
f 361 358 357
f 359 349 348
f 357 359 361
f 299 115 301
f 299 301 360
f 343 360 361
f 301 361 360
f 301 358 361
f 362 358 301
f 362 309 358
f 128 198 309
f 309 198 199
f 200 363 202
f 196 363 200
f 201 363 196
f 207 364 206
f 210 206 365
f 206 364 365
f 365 364 366
f 365 367 259
f 210 365 259
f 367 365 366
f 368 369 260
f 260 369 370
f 207 314 364
f 364 371 372
f 366 364 372
f 367 366 372
f 372 373 367
f 373 368 367
f 369 368 374
f 311 314 207
f 364 314 371
f 314 375 371
f 371 373 372
f 373 374 368
f 375 373 371
f 375 376 373
f 313 375 314
f 313 377 375
f 375 377 376
f 369 378 370
f 369 374 378
f 378 379 370
f 379 380 370
f 381 378 374
f 379 378 381
f 374 373 381
f 382 379 381
f 382 383 384
f 379 382 384
f 380 379 385
f 384 385 379
f 381 383 382
f 383 386 384
f 387 373 376
f 387 381 373
f 388 315 215
f 389 315 388
f 315 318 322
f 389 390 315
f 315 390 316
f 214 388 215
f 214 391 388
f 146 151 217
f 146 216 215
f 217 216 146
f 322 146 215
f 389 388 391
f 315 322 215
f 389 392 390
f 392 389 393
f 393 389 391
f 326 394 181
f 394 244 181
f 394 245 244
f 394 326 327
f 245 394 331
f 331 394 327
f 331 333 245
f 334 245 333
f 245 334 246
f 197 209 395
f 363 254 202
f 363 201 396
f 395 201 197
f 396 254 363
f 254 396 397
f 396 201 397
f 397 201 395
f 253 254 398
f 253 398 255
f 397 395 399
f 397 399 254
f 399 398 254
f 400 401 399
f 401 402 399
f 399 402 398
f 401 403 402
f 395 209 404
f 405 209 208
f 208 211 405
f 257 405 211
f 404 209 405
f 406 405 257
f 406 257 263
f 395 404 400
f 404 405 406
f 395 400 399
f 406 400 404
f 263 407 406
f 408 407 263
f 400 406 407
f 409 401 400
f 400 407 409
f 403 409 410
f 407 410 409
f 411 410 407
f 407 408 411
f 401 409 403
f 412 263 261
f 262 412 261
f 368 259 367
f 260 259 368
f 260 370 413
f 260 413 262
f 413 414 262
f 415 414 413
f 414 415 416
f 262 414 412
f 414 417 412
f 412 408 263
f 417 408 412
f 417 414 418
f 414 416 418
f 416 419 418
f 370 380 413
f 380 415 413
f 415 380 420
f 420 380 385
f 415 420 416
f 416 420 421
f 385 384 422
f 385 422 420
f 416 421 419
f 422 421 420
f 419 423 418
f 391 214 265
f 424 265 266
f 424 391 265
f 424 266 425
f 426 391 424
f 427 424 425
f 424 427 426
f 393 391 426
f 428 427 425
f 274 275 276
f 279 429 430
f 430 431 432
f 429 431 430
f 275 249 433
f 278 433 249
f 434 433 278
f 275 433 431
f 431 433 435
f 433 434 435
f 432 431 435
f 250 278 277
f 435 434 432
f 255 436 250
f 436 278 250
f 255 398 437
f 255 437 436
f 278 436 434
f 436 437 438
f 439 398 402
f 398 439 437
f 438 437 439
f 438 434 436
f 402 403 439
f 439 403 440
f 439 440 438
f 438 440 441
f 440 442 441
f 441 434 438
f 441 442 443
f 441 443 434
f 411 408 417
f 411 417 444
f 410 444 403
f 410 411 444
f 403 445 440
f 403 444 445
f 444 417 446
f 444 446 445
f 440 445 442
f 442 445 446
f 446 417 447
f 446 448 442
f 417 418 423
f 425 266 271
f 271 279 430
f 271 430 425
f 276 429 279
f 276 275 429
f 275 431 429
f 449 450 286
f 451 286 450
f 452 450 453
f 452 451 450
f 292 454 280
f 294 455 292
f 456 454 455
f 292 455 454
f 456 457 454
f 454 457 458
f 458 280 454
f 459 456 455
f 456 459 460
f 456 460 457
f 460 458 457
f 458 461 280
f 462 458 460
f 114 281 297
f 463 297 281
f 281 280 461
f 464 307 465
f 466 467 465
f 464 465 467
f 464 467 468
f 466 469 467
f 470 464 468
f 470 468 471
f 467 469 468
f 468 469 472
f 472 473 468
f 473 471 468
f 471 474 470
f 475 476 477
f 476 478 479
f 480 479 481
f 477 479 480
f 476 479 477
f 481 479 478
f 287 154 324
f 482 287 324
f 482 324 483
f 483 324 475
f 484 482 483
f 484 485 482
f 486 485 484
f 475 487 483
f 488 484 483
f 475 477 487
f 483 487 488
f 489 490 486
f 489 486 484
f 491 487 477
f 283 285 485
f 485 285 287
f 492 286 283
f 492 283 485
f 449 492 485
f 482 485 287
f 449 286 492
f 486 449 485
f 490 449 486
f 449 490 450
f 284 286 493
f 451 493 286
f 493 451 452
f 494 288 284
f 288 494 290
f 495 290 494
f 496 497 494
f 497 495 494
f 498 499 500
f 499 495 497
f 499 498 495
f 496 494 284
f 495 498 501
f 290 495 501
f 295 501 498
f 296 290 501
f 501 295 296
f 502 294 500
f 295 498 500
f 500 294 295
f 455 502 500
f 455 294 502
f 459 455 503
f 455 500 503
f 115 297 504
f 505 300 115
f 505 506 300
f 115 507 505
f 466 508 308
f 504 507 115
f 505 507 509
f 509 510 505
f 308 309 511
f 510 506 505
f 510 512 506
f 511 362 512
f 362 506 512
f 511 309 362
f 513 514 504
f 515 466 308
f 507 504 509
f 504 514 509
f 509 516 510
f 517 511 518
f 517 308 511
f 518 510 516
f 512 510 518
f 518 511 512
f 504 297 513
f 515 308 517
f 509 514 516
f 514 519 516
f 518 516 519
f 519 517 518
f 304 306 307
f 307 305 508
f 508 305 308
f 465 307 508
f 464 470 307
f 466 465 508
f 520 466 515
f 520 469 466
f 470 304 307
f 310 521 312
f 313 312 521
f 470 522 304
f 521 310 304
f 313 311 312
f 521 523 313
f 313 523 377
f 316 390 524
f 317 316 524
f 476 319 317
f 323 319 476
f 478 476 317
f 323 476 475
f 478 317 524
f 525 478 524
f 525 524 526
f 323 475 324
f 356 351 355
f 527 301 300
f 362 301 527
f 506 362 527
f 506 527 300
f 528 387 376
f 529 376 377
f 376 529 528
f 387 383 381
f 528 530 387
f 384 386 531
f 532 531 386
f 387 533 383
f 383 533 386
f 387 530 533
f 386 533 530
f 534 532 386
f 535 534 386
f 386 530 536
f 536 535 386
f 526 390 392
f 524 390 526
f 526 392 537
f 392 393 538
f 537 392 538
f 539 537 538
f 531 422 384
f 531 532 422
f 532 540 422
f 422 540 421
f 421 540 419
f 423 419 541
f 540 542 543
f 540 543 419
f 541 419 543
f 543 542 544
f 542 540 532
f 532 534 542
f 545 534 535
f 545 542 534
f 546 393 426
f 538 393 546
f 426 427 546
f 427 428 547
f 546 427 547
f 428 548 547
f 546 549 538
f 547 549 546
f 548 550 547
f 547 550 549
f 538 549 539
f 430 428 425
f 430 548 428
f 548 430 432
f 443 432 434
f 443 442 551
f 551 442 448
f 446 447 448
f 551 552 443
f 443 552 432
f 417 423 447
f 423 553 447
f 423 541 553
f 448 447 553
f 551 448 554
f 448 553 554
f 543 544 541
f 555 541 544
f 553 541 555
f 554 553 555
f 556 557 558
f 558 559 560
f 558 560 556
f 489 561 490
f 562 490 561
f 563 564 565
f 561 489 565
f 565 564 559
f 562 561 566
f 565 559 561
f 450 490 453
f 452 567 493
f 453 490 562
f 284 493 567
f 453 568 452
f 567 452 568
f 453 562 566
f 569 567 568
f 567 496 284
f 570 496 567
f 569 459 571
f 569 570 567
f 459 569 572
f 461 458 462
f 459 503 571
f 459 572 460
f 572 462 460
f 573 281 461
f 573 461 462
f 574 281 573
f 575 281 574
f 575 574 576
f 576 574 573
f 575 577 281
f 573 578 576
f 578 575 576
f 575 578 579
f 579 577 575
f 463 281 580
f 297 581 513
f 297 463 581
f 520 582 583
f 520 583 584
f 585 584 586
f 585 520 584
f 587 582 581
f 587 583 582
f 580 581 463
f 580 587 581
f 588 583 587
f 588 589 583
f 583 589 584
f 589 586 584
f 590 586 589
f 580 281 577
f 587 580 591
f 591 588 587
f 577 592 580
f 591 580 592
f 593 590 589
f 474 522 470
f 472 469 585
f 585 469 520
f 594 585 586
f 594 472 585
f 471 595 474
f 474 595 596
f 596 522 474
f 597 596 595
f 472 594 598
f 598 473 472
f 598 594 599
f 600 471 473
f 595 471 600
f 590 594 586
f 599 594 590
f 597 601 596
f 602 595 600
f 602 597 595
f 598 600 473
f 603 602 600
f 304 522 604
f 605 521 304
f 596 606 522
f 606 604 522
f 604 605 304
f 601 606 596
f 607 604 606
f 607 605 604
f 608 609 605
f 608 610 609
f 491 477 480
f 611 480 481
f 525 481 478
f 560 491 480
f 611 560 480
f 481 525 611
f 611 525 612
f 487 491 564
f 613 560 611
f 613 611 612
f 614 612 525
f 559 564 491
f 559 491 560
f 613 556 560
f 484 563 489
f 563 484 615
f 487 615 488
f 484 488 615
f 489 563 565
f 564 563 615
f 564 615 487
f 496 570 497
f 571 500 499
f 499 497 570
f 499 570 571
f 571 570 569
f 571 503 500
f 520 515 616
f 617 519 513
f 617 616 519
f 616 517 519
f 616 515 517
f 513 519 514
f 520 616 582
f 618 582 616
f 618 617 513
f 616 617 618
f 513 581 582
f 582 618 513
f 521 619 523
f 619 620 523
f 621 619 521
f 622 521 605
f 622 621 521
f 619 621 623
f 609 622 605
f 622 624 621
f 610 625 609
f 622 609 625
f 623 626 619
f 377 523 620
f 627 377 620
f 619 628 620
f 628 627 620
f 526 629 525
f 629 614 525
f 614 629 630
f 631 630 629
f 529 632 528
f 529 377 632
f 528 632 530
f 633 632 377
f 633 377 627
f 633 627 634
f 634 632 633
f 536 530 635
f 635 636 535
f 536 635 535
f 629 526 537
f 631 629 537
f 539 637 537
f 549 550 637
f 550 548 637
f 631 537 638
f 638 537 637
f 639 637 548
f 638 640 631
f 544 641 642
f 643 642 641
f 644 643 641
f 542 545 645
f 542 645 544
f 646 545 535
f 645 545 646
f 641 544 645
f 636 646 535
f 647 646 636
f 647 645 646
f 647 641 645
f 647 644 641
f 636 648 647
f 647 648 644
f 549 637 539
f 642 555 544
f 642 554 555
f 642 649 554
f 649 642 643
f 554 649 551
f 551 649 650
f 650 649 643
f 651 652 653
f 653 652 654
f 654 572 569
f 655 462 572
f 656 655 572
f 657 573 655
f 578 573 657
f 657 658 578
f 658 659 578
f 655 573 462
f 655 658 657
f 578 659 660
f 558 661 559
f 559 661 662
f 561 559 662
f 654 561 662
f 661 558 663
f 663 558 557
f 557 556 664
f 665 666 661
f 661 666 662
f 666 654 662
f 663 667 668
f 661 663 668
f 661 668 665
f 557 667 663
f 667 557 664
f 668 669 665
f 667 670 668
f 670 667 664
f 665 653 666
f 666 653 654
f 668 670 669
f 664 671 670
f 665 651 653
f 669 651 665
f 669 672 651
f 670 672 669
f 672 673 651
f 670 671 672
f 673 672 671
f 566 561 654
f 453 674 568
f 569 568 674
f 674 453 566
f 674 654 569
f 566 654 674
f 589 588 593
f 579 592 577
f 579 591 592
f 579 675 591
f 593 676 599
f 675 588 591
f 675 593 588
f 578 660 579
f 660 675 579
f 676 677 678
f 677 593 675
f 676 593 677
f 675 660 679
f 680 675 679
f 677 675 680
f 681 677 680
f 678 677 681
f 679 682 680
f 682 683 680
f 599 684 598
f 684 600 598
f 593 599 590
f 602 685 597
f 597 685 601
f 684 603 600
f 599 676 678
f 678 684 599
f 602 603 686
f 686 685 602
f 684 678 681
f 680 687 681
f 681 687 684
f 687 688 684
f 603 684 688
f 688 686 603
f 689 685 686
f 680 683 687
f 685 689 690
f 683 688 687
f 691 688 683
f 691 686 688
f 691 689 686
f 685 606 601
f 606 692 607
f 685 692 606
f 685 690 692
f 605 607 693
f 693 608 605
f 694 695 692
f 692 695 607
f 695 693 607
f 694 692 690
f 696 693 695
f 608 693 697
f 694 690 698
f 610 699 625
f 622 625 700
f 700 625 699
f 701 700 699
f 700 701 702
f 610 703 699
f 703 701 699
f 704 701 703
f 705 702 701
f 704 706 701
f 706 707 701
f 701 707 705
f 708 705 707
f 556 613 664
f 613 612 709
f 710 664 613
f 613 709 710
f 710 671 664
f 711 671 710
f 712 711 710
f 711 712 713
f 714 671 711
f 713 714 711
f 624 715 621
f 700 624 622
f 624 700 716
f 716 715 624
f 621 715 623
f 715 717 623
f 608 718 610
f 718 704 610
f 610 704 703
f 702 716 700
f 715 716 719
f 717 715 719
f 697 718 608
f 697 720 718
f 720 704 718
f 628 721 627
f 626 628 619
f 628 626 721
f 721 626 722
f 626 623 722
f 717 722 623
f 717 719 722
f 716 702 705
f 723 719 716
f 716 705 723
f 705 708 723
f 719 723 724
f 725 612 614
f 630 725 614
f 725 709 612
f 726 710 709
f 725 726 709
f 630 631 640
f 727 725 630
f 726 725 727
f 630 640 727
f 640 728 727
f 728 640 729
f 710 726 712
f 712 727 728
f 726 727 712
f 712 728 713
f 729 730 728
f 731 729 639
f 728 730 713
f 730 731 732
f 730 729 731
f 733 639 432
f 634 627 721
f 721 734 634
f 721 722 734
f 632 634 530
f 735 635 530
f 635 735 736
f 634 734 530
f 735 530 734
f 735 737 738
f 738 739 736
f 738 736 735
f 738 740 739
f 735 734 737
f 741 738 737
f 741 740 738
f 640 638 729
f 729 638 637
f 729 637 639
f 639 548 432
f 552 551 650
f 650 643 742
f 643 644 742
f 552 650 743
f 743 650 742
f 552 743 432
f 743 742 744
f 635 736 636
f 736 648 636
f 736 739 648
f 644 648 745
f 644 745 742
f 739 745 648
f 744 745 740
f 740 745 739
f 744 742 745
f 654 652 572
f 656 572 652
f 746 747 652
f 652 747 656
f 748 746 652
f 748 749 746
f 747 746 750
f 750 746 749
f 747 751 656
f 751 655 656
f 747 752 751
f 752 753 751
f 753 754 751
f 750 755 752
f 752 755 753
f 755 754 753
f 752 747 750
f 754 755 756
f 757 750 749
f 755 750 756
f 750 757 756
f 655 758 658
f 754 655 751
f 759 655 754
f 758 655 759
f 760 758 759
f 759 754 761
f 754 756 762
f 763 764 759
f 759 764 760
f 761 754 762
f 761 763 759
f 679 660 659
f 682 679 765
f 765 679 659
f 659 658 758
f 659 766 765
f 767 659 758
f 659 767 768
f 766 659 768
f 758 760 767
f 769 765 766
f 683 765 769
f 770 683 769
f 769 771 770
f 769 766 768
f 768 771 769
f 772 770 773
f 774 651 673
f 748 652 651
f 774 748 651
f 774 673 775
f 774 775 776
f 748 774 776
f 777 749 776
f 749 748 776
f 777 776 775
f 749 777 757
f 757 777 778
f 765 683 682
f 690 689 779
f 779 689 691
f 691 683 772
f 780 691 772
f 779 691 780
f 683 770 772
f 698 781 695
f 694 698 695
f 695 781 696
f 779 698 690
f 782 697 693
f 696 782 693
f 781 783 696
f 698 779 780
f 772 781 780
f 698 780 781
f 773 783 772
f 783 781 772
f 782 696 783
f 784 782 783
f 785 783 773
f 784 783 785
f 704 786 706
f 704 787 786
f 784 788 789
f 790 707 706
f 706 786 790
f 790 791 707
f 707 791 708
f 786 792 790
f 787 792 786
f 792 793 790
f 790 793 791
f 791 793 794
f 788 795 787
f 787 795 792
f 671 714 673
f 714 796 673
f 673 796 797
f 797 796 798
f 673 797 799
f 797 798 799
f 673 799 775
f 799 800 775
f 800 799 798
f 798 801 800
f 802 803 800
f 804 800 803
f 803 805 804
f 784 789 782
f 789 697 782
f 789 720 697
f 789 787 720
f 720 787 704
f 787 789 788
f 719 806 722
f 806 807 722
f 807 734 722
f 723 708 808
f 724 723 808
f 724 806 719
f 791 808 708
f 806 724 809
f 806 809 807
f 794 808 791
f 808 794 810
f 810 811 808
f 724 808 811
f 809 724 811
f 812 793 792
f 793 813 794
f 794 813 810
f 809 811 814
f 814 807 809
f 795 812 792
f 793 812 813
f 815 811 810
f 815 814 811
f 807 814 816
f 814 815 816
f 713 730 732
f 713 796 714
f 732 796 713
f 733 731 639
f 796 732 798
f 798 732 817
f 732 731 817
f 817 731 733
f 818 817 733
f 817 818 798
f 432 818 733
f 801 798 818
f 800 801 802
f 803 802 819
f 802 801 820
f 802 820 819
f 801 818 820
f 803 819 821
f 803 821 805
f 819 820 821
f 822 820 818
f 823 822 818
f 432 823 818
f 821 820 822
f 822 824 821
f 824 822 823
f 825 826 827
f 825 828 829
f 826 830 827
f 825 827 828
f 831 432 832
f 734 807 737
f 737 833 741
f 833 740 741
f 833 737 826
f 816 826 737
f 807 816 737
f 826 825 833
f 816 830 826
f 744 829 743
f 825 829 833
f 829 832 743
f 743 832 432
f 740 833 744
f 833 829 744
f 763 761 834
f 764 763 835
f 761 762 834
f 836 762 756
f 763 834 835
f 756 757 836
f 837 835 834
f 834 762 836
f 837 834 836
f 837 836 838
f 837 838 839
f 764 835 760
f 840 760 835
f 841 760 840
f 841 767 760
f 835 842 840
f 837 842 835
f 840 842 841
f 843 841 842
f 767 841 843
f 844 843 845
f 845 842 837
f 843 842 845
f 845 837 839
f 845 839 846
f 839 838 847
f 848 839 847
f 846 839 849
f 768 850 771
f 843 850 767
f 767 850 768
f 851 771 850
f 851 770 771
f 844 850 843
f 844 852 850
f 851 850 852
f 852 853 851
f 845 854 844
f 844 855 852
f 854 855 844
f 853 852 855
f 856 853 855
f 856 857 853
f 854 858 855
f 856 855 858
f 859 856 858
f 854 845 846
f 851 773 770
f 773 851 785
f 860 785 851
f 860 851 853
f 853 857 861
f 778 777 862
f 778 862 863
f 862 777 775
f 863 862 864
f 757 778 865
f 866 865 778
f 778 863 866
f 865 836 757
f 866 863 867
f 866 867 868
f 836 865 869
f 869 865 868
f 865 866 868
f 836 869 838
f 869 868 847
f 847 868 870
f 868 867 870
f 848 847 870
f 847 838 869
f 839 848 849
f 848 870 871
f 870 872 871
f 848 871 873
f 848 873 849
f 874 856 859
f 858 854 846
f 875 859 858
f 876 874 859
f 875 846 849
f 846 875 858
f 849 873 875
f 859 875 877
f 859 877 876
f 876 877 878
f 785 879 784
f 785 860 879
f 861 860 853
f 861 880 860
f 880 879 860
f 881 880 861
f 880 881 882
f 861 857 874
f 857 856 874
f 874 883 861
f 881 861 883
f 884 885 881
f 881 883 884
f 874 876 883
f 879 788 784
f 879 886 788
f 880 882 879
f 882 887 879
f 887 888 879
f 885 882 881
f 887 882 885
f 887 885 889
f 888 887 889
f 885 884 889
f 890 889 884
f 888 889 890
f 888 890 891
f 884 892 893
f 788 886 795
f 894 795 886
f 895 894 886
f 888 886 879
f 886 888 891
f 775 800 804
f 804 805 896
f 804 896 897
f 896 805 898
f 862 775 864
f 775 804 864
f 804 897 864
f 897 896 898
f 899 897 898
f 863 864 867
f 897 867 864
f 867 897 899
f 900 867 899
f 901 900 899
f 872 870 867
f 900 872 867
f 872 900 901
f 899 432 901
f 902 901 432
f 872 903 871
f 901 903 872
f 903 901 904
f 905 906 907
f 905 902 906
f 878 905 907
f 901 902 908
f 878 904 905
f 904 901 908
f 904 908 905
f 902 905 908
f 883 876 909
f 884 883 909
f 907 909 876
f 909 907 910
f 907 906 911
f 907 911 912
f 884 909 892
f 878 907 876
f 909 910 892
f 892 910 913
f 907 912 910
f 910 912 913
f 884 893 890
f 892 913 893
f 890 893 914
f 913 915 893
f 893 915 914
f 913 912 915
f 916 812 795
f 812 916 813
f 917 810 813
f 917 813 916
f 810 917 815
f 917 918 815
f 894 916 795
f 895 916 894
f 895 917 916
f 918 816 815
f 918 919 816
f 895 886 920
f 895 920 917
f 918 917 920
f 919 918 921
f 922 919 921
f 886 891 920
f 891 923 920
f 920 923 921
f 920 921 918
f 923 924 921
f 921 924 922
f 924 923 914
f 925 924 914
f 890 914 923
f 891 890 923
f 816 919 830
f 805 821 824
f 899 823 432
f 898 805 824
f 898 824 899
f 899 824 823
f 831 902 432
f 906 902 911
f 911 902 912
f 912 902 831
f 915 925 914
f 925 915 912
f 912 831 925
f 828 827 926
f 828 832 829
f 926 827 922
f 927 926 928
f 828 926 927
f 927 831 828
f 832 828 831
f 922 827 919
f 928 926 922
f 927 928 831
f 928 922 924
f 831 928 925
f 925 928 924
f 919 827 830
f 871 903 929
f 873 871 929
f 929 903 904
f 877 875 873
f 873 929 877
f 929 904 877
f 877 904 878
