# RV Posterior Papillary (FMA7261)
# BodyParts3D, (c) The Database Center for Life Science licensed under CC Attribution-Share Alike 2.1 Japan
# Licence: https://creativecommons.org/licenses/by-sa/2.1/jp/
# Modified from the original: see README.md in this repository.
# Units: millimetres. +X = patient left, +Y = posterior, +Z = superior.
# Origin: centroid of the heart wall.
o RV_Posterior_Papillary
v -8.7820 -20.7232 -35.4746
v -8.6395 -21.1842 -35.1946
v -8.8575 -20.7302 -35.1746
v -8.2720 -21.6512 -35.5045
v -7.4780 -21.9492 -36.7645
v -8.5383 -21.3582 -34.8945
v -8.7145 -21.0482 -34.8845
v -8.4593 -21.3722 -34.5946
v -8.6402 -21.0632 -34.5846
v -8.2316 -21.6842 -34.6046
v -8.4956 -21.0812 -34.2846
v -8.0791 -21.9542 -34.9146
v -7.7899 -22.1702 -34.6245
v -8.3054 -21.3912 -34.2946
v -8.0655 -21.6962 -34.3046
v -8.0512 -21.4222 -33.9945
v -8.0222 -20.8702 -33.6746
v -8.8646 -20.4192 -35.4646
v -8.9541 -20.4252 -35.1646
v -8.8630 -20.1192 -35.4546
v -8.9337 -20.1262 -35.1546
v -8.6956 -20.4172 -35.7645
v -8.4687 -20.1182 -36.0546
v -7.5451 -21.0362 -36.9846
v -8.7033 -20.1172 -35.7545
v -8.6501 -19.8192 -35.7445
v -8.7864 -19.8232 -35.4446
v -8.8385 -19.8302 -35.1445
v -8.4607 -19.2502 -35.1245
v -8.4461 -19.2402 -35.4246
v -7.9833 -20.1272 -36.5246
v -8.3062 -19.5262 -36.0346
v -8.0964 -19.2372 -36.0246
v -8.3285 -19.2362 -35.7246
v -8.2262 -19.0292 -35.4146
v -8.2261 -19.0282 -35.1145
v -7.9522 -19.5332 -36.3645
v -7.9179 -18.8792 -35.7046
v -7.9138 -18.8012 -35.4046
v -7.9139 -18.8022 -35.1046
v -8.8487 -20.7412 -34.8745
v -8.9313 -20.4362 -34.8645
v -8.9156 -20.1372 -34.8546
v -8.8412 -20.1512 -34.5546
v -8.7696 -20.7562 -34.5746
v -8.6181 -20.7742 -34.2645
v -8.8429 -20.4512 -34.5646
v -8.6936 -20.4702 -34.2645
v -8.6873 -20.1702 -34.2545
v -8.4205 -20.1942 -33.9546
v -8.8109 -19.8422 -34.8446
v -8.6455 -19.5512 -34.8346
v -8.4103 -20.7952 -33.9746
v -8.3036 -20.5062 -33.8246
v -8.0339 -20.2252 -33.6546
v -8.5546 -19.8772 -34.2445
v -8.2977 -19.9012 -33.9446
v -7.9728 -19.9262 -33.6946
v -8.5383 -19.5672 -34.5346
v -8.2501 -19.4872 -34.2346
v -8.4098 -19.2632 -34.8246
v -8.2395 -19.2842 -34.4746
v -8.0573 -19.6132 -33.9346
v -7.9349 -19.2032 -34.2146
v -7.9174 -18.8692 -34.8046
v -5.7701 -29.4862 -39.6746
v -5.9413 -29.7532 -39.3845
v -6.2696 -28.2252 -39.6345
v -6.2406 -27.0002 -40.3046
v -4.5210 -28.5802 -40.6846
v -6.2208 -26.3942 -40.4746
v -6.4381 -26.6942 -40.1846
v -6.4582 -26.0922 -40.1646
v -6.1296 -24.8812 -40.8945
v -6.4680 -25.6062 -40.4446
v -6.3888 -27.0072 -39.8945
v -6.2776 -27.0342 -39.2946
v -6.4183 -26.4052 -39.8745
v -6.2897 -25.8322 -39.2545
v -6.0793 -28.2662 -38.7346
v -6.0281 -27.3782 -38.4046
v -6.0014 -26.7792 -38.3845
v -6.1366 -26.7622 -38.6846
v -5.6614 -27.4112 -38.0145
v -5.5508 -25.3012 -38.3546
v -5.9965 -24.3572 -38.8945
v -6.4379 -25.0322 -40.4246
v -6.4002 -24.5732 -40.7046
v -6.1482 -24.0282 -39.4846
v -6.0508 -23.3792 -41.0045
v -6.1661 -23.3842 -40.6646
v -4.8511 -23.4152 -41.7545
v -6.3743 -25.2062 -39.8246
v -5.8977 -22.8292 -39.7445
v -6.0301 -23.4752 -38.2645
v -5.7812 -23.9662 -37.9846
v -6.4861 -22.8612 -37.9446
v -5.4905 -24.1512 -36.9346
v -6.4361 -23.2062 -36.7545
v -5.8342 -24.9782 -38.5746
v -5.9323 -23.7602 -38.8745
v -5.8632 -23.7842 -38.2746
v -5.9453 -23.4692 -38.5646
v -6.0610 -23.5732 -36.1646
v -5.4851 -21.2872 -41.4945
v -5.6288 -21.0582 -41.1846
v -5.5887 -21.3242 -40.2946
v -6.4839 -22.5512 -38.2346
v -6.6100 -21.6442 -38.2046
v -6.0419 -23.1642 -38.5546
v -6.0078 -22.5562 -38.7846
v -5.6644 -21.7372 -39.1046
v -5.8770 -23.1522 -39.1546
v -5.7567 -22.5582 -39.1345
v -7.7941 -22.2492 -35.5246
v -6.9334 -23.0232 -35.5546
v -7.5084 -22.5302 -34.9346
v -6.9308 -22.9742 -34.9446
v -7.4943 -22.2612 -34.3246
v -7.4676 -21.7522 -33.8146
v -7.4368 -21.1632 -33.5145
v -6.8558 -22.6682 -34.3346
v -6.8443 -22.3792 -34.0246
v -6.8688 -21.7902 -33.6345
v -6.8378 -21.1982 -33.4046
v -5.9701 -21.8382 -33.6046
v -5.4737 -23.8302 -35.8745
v -6.3364 -23.0952 -34.6546
v -6.3158 -22.7032 -34.1546
v -6.3006 -22.4112 -33.9046
v -6.2386 -21.2292 -33.4346
v -4.5704 -23.7902 -35.2746
v -5.7014 -22.4432 -33.9046
v -5.6392 -21.2562 -33.5546
v -4.2336 -23.0982 -34.5646
v -5.3707 -21.8662 -33.7146
v -7.3677 -19.8442 -36.9446
v -5.6293 -21.0682 -38.9346
v -6.4497 -19.5262 -37.2246
v -7.6368 -19.2472 -36.4246
v -7.6161 -18.8522 -36.0045
v -7.6085 -18.7082 -35.7046
v -7.6697 -18.6802 -35.4046
v -7.3206 -18.9462 -36.3146
v -7.3094 -18.7322 -36.0045
v -7.3031 -18.6112 -35.6946
v -6.7111 -18.7812 -36.3046
v -7.6735 -19.9472 -33.5546
v -7.6893 -20.2482 -33.5045
v -7.6575 -19.6432 -33.6746
v -7.6944 -19.3322 -33.9246
v -7.6356 -19.0242 -34.2146
v -7.6089 -18.7162 -34.8046
v -7.4056 -20.5672 -33.4046
v -7.3740 -19.9652 -33.4746
v -7.3581 -19.6622 -33.5846
v -7.3421 -19.3562 -33.7545
v -7.0007 -18.5742 -34.7946
v -7.0153 -18.8532 -34.2046
v -6.8065 -20.6012 -33.3346
v -6.7590 -19.6952 -33.5346
v -6.7430 -19.3902 -33.6946
v -6.4159 -18.8792 -34.2046
v -6.2072 -20.6302 -33.4046
v -6.1756 -20.0272 -33.5145
v -6.1518 -19.7232 -33.6345
v -5.8432 -19.4172 -33.9246
v -5.5919 -20.3542 -33.6245
v -5.5601 -19.7472 -33.8546
v -5.5354 -19.2752 -34.2146
v -5.8152 -18.8812 -34.5045
v -4.9323 -19.2322 -34.8146
v -5.8072 -18.7312 -34.7946
v -7.0054 -18.6632 -36.0045
v -6.6966 -18.5042 -35.3945
v -6.4028 -18.6292 -35.9945
v -5.8012 -18.6162 -35.3945
v -6.4005 -18.5872 -34.7946
v -5.8179 -18.9352 -36.6046
v -5.2123 -18.8422 -36.0045
v -6.4062 -18.6962 -34.4945
v -4.2765 -33.1852 -38.3046
v -3.7233 -33.8252 -38.0246
v -4.1787 -33.2012 -38.0045
v -5.6384 -30.6912 -38.8146
v -4.9524 -31.0802 -37.3046
v -5.6908 -29.8082 -38.1846
v -5.6894 -30.6782 -39.1145
v -5.2482 -30.9922 -39.3745
v -5.2660 -31.3312 -39.1445
v -5.2799 -31.5972 -38.8446
v -4.8379 -32.2552 -38.2746
v -4.9804 -31.6152 -39.1646
v -3.1495 -31.0722 -40.2445
v -3.4973 -31.9762 -39.6445
v -5.1886 -29.8552 -37.5946
v -4.2737 -32.3262 -37.0746
v -4.3854 -31.7262 -36.8745
v -3.2813 -33.5872 -36.8146
v -3.8394 -32.7712 -36.7846
v -3.8070 -32.1542 -36.7645
v -5.9361 -29.4742 -38.7746
v -5.8827 -30.0672 -39.0946
v -5.8216 -28.9012 -38.1546
v -4.2848 -29.8072 -40.3446
v -4.8782 -29.6652 -37.5846
v -4.2580 -29.2952 -37.8146
v -2.2547 -29.6782 -38.4746
v -5.0780 -27.7452 -37.9246
v -5.2775 -25.8192 -41.1445
v -2.5637 -25.6262 -42.1445
v -5.2671 -25.6202 -38.2545
v -4.3996 -26.2652 -38.3146
v -5.4890 -24.7052 -38.3046
v -5.7385 -24.0912 -38.2846
v -5.5113 -24.4142 -37.9945
v -4.6237 -25.3712 -37.7346
v -4.9521 -25.3412 -38.0946
v -4.1209 -25.9882 -38.0546
v -4.8638 -24.5002 -36.4945
v -4.3096 -24.5472 -35.9746
v -3.7706 -25.7272 -36.8446
v -3.6804 -24.0062 -35.2146
v -2.8435 -25.2332 -35.7545
v -2.6320 -26.9872 -37.4846
v -3.4711 -25.7432 -36.5446
v 0.7184 -20.3232 -43.9746
v -2.0111 -20.8142 -43.0446
v -4.0150 -18.9262 -42.4546
v -3.5137 -20.8252 -40.4546
v -3.2430 -21.3912 -40.2946
v -2.9301 -21.1532 -40.5446
v -3.8726 -21.4242 -39.9945
v -3.2502 -21.5292 -39.9945
v -5.5328 -21.9582 -39.4146
v -5.3470 -21.3682 -39.3945
v -5.3839 -21.3552 -39.6946
v -5.0255 -21.0102 -39.3845
v -5.0232 -20.9672 -39.6746
v -3.8462 -21.4372 -39.6646
v -2.6085 -20.7502 -39.0646
v -5.0553 -21.5802 -33.7645
v -4.8023 -22.4842 -34.0746
v -3.6033 -22.5342 -34.4246
v -3.0505 -23.4502 -34.8645
v -3.5719 -21.9352 -34.4346
v -3.3680 -18.0452 -42.8146
v -5.3982 -20.7332 -40.2746
v -5.2831 -18.8962 -41.4046
v -4.8990 -18.5962 -41.9446
v -4.9087 -18.7812 -40.8046
v -5.1311 -18.5932 -41.6946
v -4.6335 -19.2632 -40.4746
v -4.0501 -19.5952 -40.4546
v -3.4662 -19.9182 -40.6746
v -3.0085 -16.9172 -41.2246
v -2.5986 -20.5592 -40.8446
v -1.8889 -18.4832 -41.1145
v -4.6900 -20.3422 -38.7545
v -3.4717 -20.0232 -38.1445
v -5.2718 -18.8062 -35.4046
v -4.3325 -19.2522 -36.6145
v -4.6231 -19.0652 -36.0045
v -4.6269 -19.1372 -35.4945
v -4.6813 -19.4582 -34.8246
v -2.7492 -20.0762 -37.2445
v -2.7128 -20.3992 -36.6546
v -5.0238 -20.9792 -33.7946
v -4.9922 -20.3742 -33.9446
v -4.9602 -19.7642 -34.2545
v -2.9559 -21.6452 -35.0346
v -4.8786 -18.2072 -41.6846
v -4.8497 -18.3282 -41.0846
v -4.5801 -18.2442 -40.7846
v -4.2548 -17.7692 -40.7746
v -4.3158 -17.4562 -41.0546
v -3.8979 -16.6912 -41.3246
v -3.5922 -16.5902 -41.0946
v -3.6487 -16.2792 -41.3146
v -3.2769 -16.3062 -41.1145
v -3.5986 -15.9502 -42.2046
v -3.5661 -16.0922 -42.5045
v -3.4653 -15.6472 -42.4945
v -2.5955 -14.7692 -43.0946
v -3.1610 -15.3942 -41.5846
v -3.1062 -15.0652 -42.4746
v -2.2917 -13.5862 -43.0145
v -3.2445 -15.6882 -41.2946
v -2.6304 -15.4352 -41.2146
v -3.6005 -33.9442 -38.3246
v -3.1061 -34.4582 -38.0446
v -2.4495 -34.9112 -38.0546
v -2.1109 -34.1842 -38.7846
v -1.8597 -35.1222 -38.1046
v -2.1596 -35.1122 -37.9546
v -3.0530 -34.4712 -37.7445
v -2.4557 -35.0302 -37.7645
v -2.2094 -35.1262 -37.4646
v -1.9010 -35.4322 -37.7746
v -1.3814 -35.7702 -37.4846
v -1.8314 -34.5822 -36.4146
v -3.5500 -32.9822 -36.6145
v -1.7831 -33.6612 -37.0346
v 0.6789 -32.5402 -38.4046
v -1.6188 -30.5252 -40.9746
v -1.3829 -31.7572 -40.4945
v 0.0838 -32.4312 -40.6046
v -1.8002 -32.4352 -37.6746
v -2.4542 -29.2692 -41.2645
v 2.1214 -27.9442 -43.0246
v -0.4197 -30.5742 -41.3945
v -1.5450 -29.1182 -38.3546
v -1.6393 -30.9162 -38.3645
v -0.9924 -30.0382 -38.6546
v -0.9770 -29.7432 -38.5246
v -0.1497 -25.4222 -42.9846
v -1.1690 -27.6752 -37.2146
v -2.2135 -24.6772 -35.4246
v 1.8881 -26.6652 -36.2846
v -0.4313 -25.0632 -35.6445
v -0.6841 -24.1552 -35.4446
v -2.1357 -23.1922 -35.0145
v -2.8339 -21.4682 -40.2946
v -1.4352 -21.2892 -40.5846
v -2.0369 -21.3072 -39.9846
v -0.5377 -21.3622 -39.9846
v -0.2407 -21.4272 -40.5846
v -2.1822 -21.9702 -35.5045
v -1.8628 -20.7232 -37.2645
v 0.8148 -24.2152 -35.9846
v -1.8202 -22.9032 -35.1546
v 1.5107 -22.4002 -38.2146
v -2.5670 -19.9572 -40.9346
v -0.8164 -20.9482 -40.9945
v -0.8005 -20.6442 -41.1145
v -2.2847 -20.3022 -37.8446
v -2.1263 -20.3982 -37.5546
v -0.2328 -21.2752 -38.4846
v -1.0649 -14.2242 -43.7846
v -1.7155 -15.1742 -41.4446
v 1.7716 -17.4232 -42.5145
v -1.6019 -13.0062 -43.4346
v -2.6692 -14.5192 -41.5546
v -2.5989 -14.8332 -41.2746
v -2.5126 -14.2162 -41.8446
v -2.2834 -14.5462 -41.3645
v -1.9710 -14.3172 -41.5446
v -1.0843 -14.5942 -41.7746
v 1.6763 -13.5082 -42.5746
v -1.6796 -14.4882 -34.6445
v -1.6638 -14.1872 -35.3446
v -1.1663 -15.1282 -34.9646
v 0.9498 -16.9362 -38.0246
v 1.4508 -17.8112 -37.4546
v -0.5542 -15.7712 -34.6846
v -1.6795 -14.4882 -34.0446
v -1.8927 -14.2112 -34.3346
v -1.9436 -13.9292 -33.7246
v -1.5069 -14.5522 -33.7445
v -1.1161 -15.2012 -34.3645
v -1.4513 -14.8342 -34.3546
v -1.3971 -14.8302 -34.0546
v -1.0840 -14.5882 -33.3446
v -1.3552 -14.0322 -33.1245
v -1.1115 -15.1142 -34.0646
v -1.1866 -14.8692 -33.7545
v -1.0533 -14.0032 -32.9346
v -0.8232 -15.3442 -34.0746
v -0.8122 -15.1352 -33.7645
v -0.7846 -14.6082 -33.2146
v -0.7539 -14.0222 -32.8446
v 0.0681 -15.5332 -33.8346
v -0.1856 -14.6442 -33.1145
v -0.1548 -14.0562 -32.7846
v -1.4280 -12.4192 -43.2746
v -1.2708 -12.4202 -43.4846
v -1.4021 -12.4632 -42.0746
v -0.4025 -13.0492 -43.9846
v -1.6049 -13.0632 -41.7946
v -1.3054 -13.0822 -41.7146
v -0.9750 -12.1952 -41.7645
v -0.2767 -11.3212 -42.0346
v 0.3025 -11.0612 -41.7346
v -2.2485 -12.6702 -34.8845
v -2.1543 -12.6642 -35.1846
v -2.2454 -12.9702 -34.8945
v -2.1906 -12.3732 -34.8745
v -1.9698 -13.2642 -35.5045
v -1.9491 -13.8982 -34.9246
v -1.8842 -12.6612 -35.6946
v -2.0965 -12.3672 -35.1746
v -1.7619 -12.0742 -35.4646
v -1.8488 -11.9862 -35.1546
v -2.0345 -12.0812 -34.8645
v -1.8427 -11.8682 -34.8546
v -1.4664 -13.8702 -36.1245
v -1.6487 -12.9602 -36.0946
v -1.5839 -12.6632 -36.0846
v -1.2683 -12.3742 -36.2146
v -1.7256 -12.3662 -35.7746
v -1.5342 -11.7142 -35.1445
v -1.5301 -11.6362 -34.8446
v 0.5894 -15.3952 -38.5746
v 0.4232 -14.4902 -38.4246
v -1.2838 -12.6682 -36.3845
v -1.2430 -11.8912 -35.7545
v -1.2326 -11.6912 -35.4446
v 0.4696 -13.6062 -37.9846
v -0.6685 -12.3922 -36.5946
v -0.9486 -12.0042 -36.0546
v -0.9364 -11.7712 -35.7445
v -0.6436 -11.9172 -36.0546
v -0.0629 -12.3022 -36.6646
v -0.0414 -11.8922 -36.0546
v -2.0777 -13.6212 -33.7146
v -2.2032 -13.0152 -33.6746
v -2.3167 -12.9882 -34.2946
v -2.1796 -13.5952 -34.3146
v -2.2958 -12.6782 -34.5846
v -2.2964 -12.6882 -34.2846
v -2.1870 -12.7072 -33.6846
v -2.1677 -12.3392 -34.5746
v -1.7429 -13.9502 -33.4246
v -2.0064 -13.3362 -33.4046
v -2.0733 -12.7322 -33.3845
v -1.8888 -12.7482 -33.1746
v -2.0753 -12.4102 -33.9746
v -2.0898 -12.4202 -33.6746
v -1.9780 -12.4362 -33.3745
v -1.9332 -12.1172 -33.9646
v -1.7765 -11.8042 -34.5546
v -1.8526 -12.0582 -33.6546
v -1.6364 -13.6642 -33.1445
v -1.6209 -13.3702 -33.0045
v -1.6379 -12.4652 -33.0746
v -1.5507 -12.0292 -33.3546
v -1.5334 -11.7002 -33.9446
v -1.5394 -11.8132 -33.6445
v -1.3372 -13.6872 -32.9446
v -1.2199 -13.3982 -32.8046
v -1.2903 -12.7932 -32.8046
v -1.2584 -12.1842 -33.0846
v -1.0378 -13.7082 -32.8146
v -0.7228 -13.4292 -32.6546
v -0.6914 -12.8292 -32.6646
v -0.9589 -12.2032 -32.9846
v -0.9750 -12.5092 -32.7946
v -0.9426 -11.8922 -33.3146
v -0.6594 -12.2192 -32.9646
v -0.4389 -13.7432 -32.6846
v -0.4233 -13.4462 -32.6245
v -0.3918 -12.8452 -32.6546
v -0.0761 -12.5542 -32.8546
v -0.0599 -12.2452 -33.0646
v -0.3087 -11.2602 -43.5346
v -0.9283 -11.6182 -35.4446
v -0.9232 -11.5212 -35.1345
v -0.9199 -11.4582 -34.5346
v -0.6333 -11.7222 -35.7445
v -0.6265 -11.5922 -35.4446
v -0.3207 -11.4882 -34.8346
v -0.0339 -11.7482 -35.7445
v -1.5289 -11.6132 -34.5446
v -0.9306 -11.6622 -33.6445
v -0.6234 -11.5322 -33.9346
v -0.3310 -11.6842 -33.6445
v -0.3413 -11.8822 -33.3546
v -0.4158 -36.2322 -37.2046
v -0.4177 -36.2692 -37.5045
v 0.8089 -36.7962 -37.2146
v 0.1394 -36.1812 -36.5946
v -0.0968 -35.8772 -36.3446
v 1.9341 -37.2502 -37.5346
v 0.5020 -35.9152 -36.1646
v 0.7861 -36.2282 -36.2445
v 1.1014 -35.9442 -36.2445
v 0.5547 -34.9112 -39.1746
v -0.9795 -35.5232 -36.5646
v -0.9643 -35.2332 -36.2746
v -0.0814 -35.5832 -36.2046
v 3.1451 -31.3392 -42.0446
v -0.4402 -30.9662 -38.7445
v -0.1406 -30.9802 -38.7846
v 1.0103 -31.9482 -38.6046
v 1.8615 -32.9042 -38.3546
v -0.4224 -30.6272 -38.8046
v -0.6316 -28.8862 -37.7645
v -0.3934 -30.0722 -38.6046
v 0.4894 -30.4252 -38.4246
v 0.0141 -28.0302 -37.4346
v 1.6248 -31.6872 -38.4046
v 1.6872 -30.4982 -38.1245
v 1.1660 -28.9792 -37.8146
v 0.3500 -21.6192 -39.9945
v 1.8383 -21.8822 -40.8945
v 1.5352 -21.9332 -40.6046
v 2.3589 -23.4132 -37.6445
v 1.8725 -22.3252 -40.0145
v 2.1852 -15.2632 -44.7346
v 1.2974 -20.7382 -41.5646
v 1.3607 -19.5302 -41.8246
v 2.7509 -21.6652 -41.4945
v 1.2826 -21.0222 -41.4746
v 2.1806 -21.0832 -41.6046
v 2.4574 -18.7112 -41.0846
v 1.0322 -16.6192 -38.6145
v 1.3678 -16.3052 -39.5045
v 1.2768 -15.3992 -39.4846
v 1.5025 -17.8552 -38.3546
v 0.0350 -16.1662 -34.6946
v 1.4559 -17.7152 -36.8546
v 2.5696 -19.1122 -38.3945
v 1.4746 -11.6262 -44.5346
v 3.1277 -14.4762 -42.8645
v 2.1303 -16.3112 -40.4746
v 1.3079 -14.8052 -39.3146
v 3.3313 -16.3222 -41.3046
v 0.3585 -15.7252 -37.9846
v 1.6233 -14.5212 -39.3246
v 0.6825 -15.2742 -33.5746
v 0.1294 -14.3652 -32.9446
v 0.6368 -16.1472 -34.3945
v 2.3372 -18.0952 -36.5646
v 1.2975 -15.0052 -33.5946
v 2.6735 -17.4102 -35.6546
v 0.4446 -14.0832 -32.9046
v 1.8355 -16.2032 -34.5246
v 2.1508 -15.9202 -34.5045
v 2.4928 -15.6312 -34.6746
v 2.7041 -16.8262 -35.1846
v -0.0244 -11.5672 -43.9546
v 0.2145 -12.7402 -42.0846
v 2.9062 -12.9692 -42.6445
v 1.2171 -10.8062 -41.8046
v 1.9774 -13.4962 -38.2046
v 0.7998 -12.1772 -36.3645
v 1.1459 -12.1662 -36.0546
v 0.5642 -11.8002 -35.4446
v 1.1524 -12.0412 -35.4546
v 1.1520 -12.0482 -34.8546
v 2.0214 -12.6562 -35.1746
v 2.5809 -13.4442 -37.9046
v 3.4645 -13.7822 -37.9146
v 3.7586 -13.9022 -37.3146
v 0.1604 -13.7732 -32.7346
v -0.0921 -12.8592 -32.7146
v 0.2398 -12.2582 -33.1946
v -0.0438 -11.9362 -33.3745
v 0.4759 -13.4862 -32.8246
v 0.5075 -12.8812 -32.9746
v 0.5235 -12.5762 -33.1245
v 0.5398 -12.2662 -33.4046
v 0.2596 -11.8792 -33.6445
v 0.8075 -12.8902 -33.1646
v 1.1237 -12.5882 -33.6746
v 0.8488 -12.1012 -33.9546
v 1.0443 -14.1042 -33.1946
v 1.0757 -13.5042 -33.1946
v 1.3917 -13.2072 -33.5746
v 0.5680 -11.7272 -34.8446
v 1.6601 -13.8182 -33.6946
v 1.5266 -12.5892 -34.2746
v 1.3675 -14.1132 -33.4246
v 1.9758 -13.2132 -34.2946
v 3.2540 -14.4382 -35.5346
v 2.1283 -12.8992 -34.8845
v 0.3067 -10.9812 -44.0346
v 1.5370 -10.4342 -44.3246
v 2.1367 -10.4562 -44.5946
v 0.0956 -10.9772 -43.8246
v 0.6256 -10.6292 -42.0045
v 0.6254 -10.6322 -43.8146
v 1.9268 -10.1622 -44.0946
v 1.8516 -10.1632 -41.9945
v 3.1522 -9.7102 -41.6746
v 2.7669 -9.8952 -44.3845
v 1.8319 -10.5412 -41.7146
v 2.1541 -10.1232 -41.6846
v -0.0341 -11.7512 -33.6445
v -0.0234 -11.5482 -34.2346
v 1.9759 -36.4532 -38.4046
v 2.5395 -37.1642 -37.8945
v 2.6367 -35.3082 -39.5246
v 4.3705 -36.6192 -39.0346
v 1.6428 -37.0772 -37.2246
v 1.3851 -36.2622 -36.1646
v 1.9687 -36.5912 -36.2346
v 2.0004 -35.9852 -36.4046
v 2.5267 -37.4082 -37.5346
v 2.8384 -37.1922 -36.9246
v 2.8675 -36.6372 -36.2545
v 3.1062 -37.4962 -37.8346
v 3.1224 -37.5052 -37.5346
v 3.7435 -37.1192 -36.6245
v 3.1518 -36.9452 -36.4746
v 3.4827 -36.3622 -36.4446
v 3.2316 -35.4222 -37.1445
v 2.7332 -33.4672 -40.7346
v 2.1769 -32.6182 -38.3945
v 2.8228 -31.7572 -38.2046
v 3.6593 -32.9932 -38.5045
v 2.3014 -30.2422 -37.7645
v 3.4370 -31.5022 -37.8146
v 3.4062 -32.0892 -38.1646
v 4.7873 -28.6652 -43.5946
v 2.3324 -29.6502 -37.5446
v 2.0953 -28.4432 -37.3346
v 3.7521 -31.2222 -37.7046
v 2.6476 -29.3682 -37.4846
v 3.5152 -30.0092 -37.6445
v 3.2624 -29.1012 -37.4446
v 2.2324 -25.8272 -43.5746
v 2.2032 -26.3842 -36.2046
v 3.6083 -28.2342 -36.9846
v 3.3865 -26.7332 -36.5746
v 5.2927 -24.7552 -44.4146
v 2.8342 -25.8082 -36.4246
v 4.6501 -25.5522 -37.8645
v 3.7021 -26.4432 -36.7445
v 2.7486 -22.3402 -40.9146
v 3.7509 -23.3352 -39.7445
v 3.2850 -22.9392 -40.6345
v 3.3318 -22.0462 -41.6046
v 2.7640 -21.4162 -41.5746
v 3.5997 -22.6652 -41.4945
v 3.6158 -22.3582 -41.7046
v 3.7297 -22.0602 -41.8046
v 3.3632 -21.4462 -41.6046
v 3.8751 -23.1442 -40.6345
v 3.8823 -23.0062 -41.2346
v 3.8997 -22.6732 -41.7046
v 3.9157 -22.3672 -41.8745
v 4.2312 -22.0812 -41.9546
v 4.2467 -21.7852 -41.8246
v 3.6782 -21.1692 -41.4146
v 2.3813 -22.9852 -38.2346
v 3.8476 -23.6682 -39.1546
v 6.1682 -16.6472 -45.5145
v 1.9253 -20.2212 -41.7445
v 1.9442 -19.8602 -41.8446
v 2.3076 -18.6602 -42.3246
v 2.4802 -21.0992 -41.6046
v 2.5114 -20.5032 -41.5246
v 2.3688 -19.3282 -40.5045
v 2.4139 -19.9002 -41.4246
v 2.6739 -20.2242 -41.1345
v 2.5442 -19.2952 -41.7046
v 2.8494 -19.7852 -39.9246
v 2.9834 -18.7082 -41.9846
v 2.7952 -20.8202 -41.4646
v 3.1042 -20.6562 -41.1546
v 3.0792 -21.1332 -41.5246
v 3.1164 -20.4242 -40.8446
v 4.5648 -21.4472 -41.1746
v 4.5926 -20.9162 -39.0546
v 3.4591 -19.6172 -38.1145
v 2.6231 -18.3722 -42.4346
v 2.6547 -17.7692 -42.5446
v 2.9225 -18.3922 -42.3346
v 2.9858 -17.1842 -42.5846
v 3.0174 -16.5812 -42.6846
v 3.2139 -17.8082 -42.2545
v 3.4134 -17.2182 -42.2346
v 3.3010 -16.9012 -42.5346
v 3.5696 -16.9262 -42.2246
v 3.9264 -16.4332 -42.2046
v 3.0079 -18.4192 -41.6746
v 2.9986 -16.9392 -41.3246
v 2.8498 -18.1212 -41.3645
v 3.2528 -17.8212 -41.9446
v 3.4035 -17.2282 -41.9346
v 4.6432 -19.9522 -37.8246
v 5.6077 -13.0112 -45.4945
v 3.6955 -15.1062 -42.9046
v 3.6480 -16.0112 -42.7246
v 3.7659 -16.3262 -42.5045
v 4.5599 -15.8082 -42.1846
v 4.2537 -15.9182 -42.4846
v 4.8887 -15.2662 -42.7645
v 3.9309 -16.3472 -41.9046
v 4.8781 -15.4692 -41.8745
v 4.6112 -14.8302 -40.9446
v 3.6823 -15.3572 -35.6946
v 3.5610 -14.1332 -36.1245
v 3.0193 -16.5442 -35.1546
v 3.3512 -10.2122 -44.8046
v 3.5674 -11.8172 -42.2046
v 4.3730 -13.6432 -42.7645
v 3.4463 -14.1282 -39.1245
v 4.3415 -14.2442 -38.2246
v 5.2166 -14.7422 -38.4046
v 5.4833 -15.3852 -37.5946
v 2.4520 -10.1722 -44.6046
v 3.0576 -10.0812 -44.6846
v 3.0668 -9.9052 -44.5446
v 3.3782 -9.6952 -44.3745
v 3.6665 -9.9262 -44.8446
v 3.6758 -9.7492 -44.6746
v 4.2918 -9.4602 -44.6646
v 4.3885 -9.9592 -44.9846
v 4.2815 -9.6552 -44.9146
v 2.7613 -10.0022 -41.3246
v 3.0665 -9.9112 -41.3745
v 3.3604 -10.0352 -41.2746
v 4.8427 -10.4122 -41.3246
v 3.6875 -9.5252 -41.3645
v 3.8335 -9.7662 -41.0746
v 4.2966 -9.3682 -41.0546
v 4.4660 -11.8682 -42.0846
v 4.2744 -9.7922 -41.0045
v 4.5895 -9.5112 -40.9046
v 4.8735 -9.8242 -40.9846
v 4.2982 -9.3372 -41.3546
v 4.8588 -9.2092 -41.3546
v 4.3142 -37.6932 -37.8446
v 4.9137 -37.7192 -38.1445
v 5.5208 -37.5992 -38.4346
v 5.5141 -37.7272 -38.1445
v 3.7509 -36.9772 -36.4546
v 3.7663 -36.6832 -36.2946
v 4.3352 -37.2922 -36.9246
v 4.3502 -37.0072 -36.4846
v 4.3657 -36.7112 -36.3745
v 5.5413 -37.2072 -36.9246
v 5.2491 -37.0502 -36.6046
v 4.6815 -36.4172 -36.6546
v 5.2176 -37.6512 -37.8446
v 6.4638 -36.8022 -36.9246
v 5.8290 -37.4502 -37.5346
v 10.1614 -35.0332 -41.4846
v 4.4949 -34.2452 -38.3246
v 4.2270 -33.6242 -38.4945
v 4.8264 -33.6512 -38.6046
v 5.0944 -34.2702 -38.5145
v 5.1262 -33.6632 -38.7146
v 5.1629 -32.9632 -41.6145
v 3.9816 -32.5762 -38.2645
v 4.0051 -32.1262 -38.0045
v 4.5580 -33.0412 -38.4646
v 4.6045 -32.1532 -38.1345
v 4.3359 -31.5462 -37.9046
v 4.9187 -33.0562 -38.5846
v 5.2357 -31.5742 -38.4646
v 4.6673 -30.9562 -38.0746
v 5.4143 -33.0722 -38.8845
v 5.7418 -33.3812 -39.1046
v 5.8153 -33.0822 -39.1846
v 5.7890 -32.4822 -39.1245
v 5.5509 -31.2932 -38.3645
v 7.3729 -30.9202 -43.1646
v 5.6541 -29.3232 -43.2946
v 5.5970 -30.4132 -37.8146
v 5.6437 -29.5212 -37.6145
v 5.7019 -28.4112 -43.6546
v 6.6328 -27.8442 -44.0546
v 6.3072 -28.3262 -38.3745
v 8.8650 -27.1852 -40.4746
v 10.0461 -25.5782 -45.2146
v 4.7484 -23.6762 -40.0946
v 7.9495 -25.6492 -40.0446
v 7.0990 -24.6822 -40.6245
v 6.5312 -24.0512 -40.6445
v 5.9476 -23.7222 -40.5646
v 4.1804 -23.0502 -41.2346
v 4.1866 -22.9312 -41.5346
v 4.4652 -23.3482 -40.4346
v 4.1816 -22.6842 -41.8246
v 4.2155 -22.3802 -41.9646
v 4.5575 -21.5862 -41.4846
v 4.7761 -23.1482 -40.9346
v 4.4991 -22.7012 -41.8146
v 4.5151 -22.3952 -41.9846
v 4.5308 -22.0962 -41.9546
v 4.5432 -21.8582 -41.7946
v 4.7921 -22.8412 -41.5246
v 4.8145 -22.4152 -41.8745
v 4.8307 -22.1062 -41.8046
v 4.8456 -21.8212 -41.4945
v 5.0651 -23.3652 -40.6445
v 5.0900 -22.8912 -41.2246
v 5.5608 -22.7882 -40.9246
v 5.1579 -22.4452 -41.5145
v 5.1081 -22.1422 -41.5045
v 5.0040 -21.8472 -41.1946
v 5.1470 -21.8032 -40.5946
v 5.6640 -23.4032 -40.6846
v 5.2735 -23.0732 -40.9346
v 5.7039 -22.5052 -40.6145
v 5.6077 -22.2112 -40.3046
v 6.2937 -22.8512 -40.2146
v 5.7337 -22.0722 -39.6946
v 5.9792 -23.1202 -40.6345
v 6.2629 -23.4382 -40.5646
v 6.5778 -23.1632 -40.3046
v 5.4634 -21.4972 -39.0746
v 6.8903 -22.9312 -40.0246
v 6.4772 -19.3502 -37.4446
v 5.3871 -17.2202 -36.5346
v 5.7189 -16.6222 -36.9546
v 6.8875 -17.2542 -37.8446
v 7.8944 -18.4902 -38.3645
v 6.7276 -14.5712 -45.5446
v 4.9305 -15.4862 -42.4746
v 5.2092 -14.8832 -42.9546
v 5.0035 -15.5002 -42.1746
v 5.4970 -15.1252 -42.7545
v 5.1832 -15.3802 -42.4646
v 7.0228 -14.6712 -43.1245
v 5.4888 -15.2802 -42.1646
v 5.7336 -15.2282 -42.4646
v 6.4012 -15.0672 -42.7545
v 6.0993 -15.0962 -42.1546
v 8.2528 -14.1312 -43.2246
v 7.3154 -14.8202 -42.7445
v 5.4949 -15.1642 -41.8546
v 6.4206 -14.6972 -41.5446
v 5.8277 -14.5462 -40.9346
v 6.1267 -14.5742 -40.3346
v 4.9343 -14.3972 -39.4346
v 6.7282 -14.5612 -40.9346
v 8.2218 -14.7222 -42.7346
v 7.3168 -14.7932 -40.9446
v 6.7002 -15.0942 -39.7545
v 6.8245 -15.7222 -38.5746
v 6.6513 -16.0272 -38.1846
v 6.9840 -15.4112 -39.1646
v 6.2695 -11.8472 -45.3845
v 8.2104 -14.9382 -45.8546
v 7.9688 -13.8172 -43.1746
v 4.8810 -9.6822 -45.0546
v 6.9788 -9.7792 -45.4146
v 6.3959 -9.4372 -45.2545
v 5.2011 -9.3062 -44.6546
v 6.9944 -9.4822 -45.3546
v 4.8891 -9.5262 -40.9246
v 5.7725 -9.8682 -41.0846
v 9.9051 -11.2632 -41.7645
v 6.7069 -9.2342 -44.9546
v 6.7176 -9.0312 -41.6445
v 5.2093 -9.1502 -41.3446
v 4.9002 -9.3162 -41.0546
v 5.2065 -9.2022 -41.0546
v 7.0025 -9.3262 -41.2246
v 8.2131 -9.1562 -41.6445
v 6.7221 -37.6062 -38.4346
v 6.1197 -37.6362 -38.1345
v 7.3269 -37.5292 -38.7346
v 7.3316 -37.4412 -38.4246
v 8.2432 -37.2412 -39.3246
v 7.6322 -37.4372 -38.7246
v 6.7405 -37.2542 -37.5246
v 6.1485 -37.0862 -36.9346
v 7.6631 -36.8472 -37.4346
v 7.6790 -36.5442 -37.5446
v 7.9564 -36.9832 -37.8146
v 6.0417 -33.3912 -39.2746
v 6.5610 -34.9462 -38.5646
v 6.3096 -34.0112 -39.1345
v 6.6411 -33.4182 -39.4046
v 6.9090 -34.0402 -39.2246
v 7.8233 -33.7892 -39.1546
v 9.5256 -35.7012 -38.6145
v 6.0575 -33.0902 -39.3246
v 6.3573 -33.1022 -39.4146
v 6.3883 -32.5102 -39.2046
v 7.3020 -32.2732 -38.7645
v 6.6568 -33.1192 -39.3945
v 7.2556 -33.1582 -39.1746
v 7.8546 -33.1932 -39.0546
v 8.5319 -31.7342 -38.8346
v 8.4694 -32.9262 -39.0145
v 7.1528 -29.3882 -43.6846
v 10.3856 -30.7562 -43.7746
v 8.0110 -30.2082 -38.7046
v 8.0588 -29.2972 -39.0346
v 9.2837 -28.1082 -40.5045
v 7.6986 -24.7052 -40.8745
v 6.8464 -23.7692 -40.5746
v 7.9820 -25.0292 -40.6345
v 8.2975 -24.7412 -40.7346
v 8.9121 -24.4782 -40.5746
v 8.7206 -22.4002 -39.5446
v 8.5515 -25.6282 -40.4146
v 8.2656 -25.3512 -40.4446
v 9.4332 -26.0002 -40.8146
v 8.6997 -22.7992 -45.2946
v 8.4317 -22.1812 -45.3745
v 9.0629 -21.6012 -45.7346
v 8.7788 -21.2902 -45.6046
v 7.1613 -23.4922 -40.3745
v 8.7669 -21.5182 -39.0646
v 9.1130 -20.6462 -38.7146
v 7.5214 -19.3922 -37.8046
v 8.7179 -20.0352 -38.4246
v 6.8240 -18.4642 -37.5145
v 9.5562 -17.9202 -39.9646
v 8.4194 -16.3852 -39.1946
v 8.1736 -16.0722 -39.1846
v 8.2369 -14.4332 -43.1546
v 9.1035 -15.0942 -42.7545
v 8.8136 -14.8932 -42.7445
v 8.2027 -15.0862 -41.5546
v 8.8361 -14.4642 -43.1646
v 9.1198 -14.7832 -43.0746
v 9.1358 -14.4792 -43.2046
v 7.8765 -15.5782 -39.7645
v 7.9165 -15.4052 -40.6646
v 8.5466 -15.7282 -40.9746
v 8.4615 -15.8802 -39.7746
v 9.6551 -16.0342 -42.4945
v 7.5714 -15.6672 -39.1746
v 8.1648 -15.8102 -39.4746
v 8.4512 -16.0772 -39.4446
v 10.7881 -17.3442 -41.1145
v 10.5140 -16.8412 -41.3046
v 9.9440 -10.5202 -45.8546
v 8.0152 -12.9312 -42.8046
v 9.4823 -13.5992 -43.0846
v 9.1515 -14.1782 -43.2346
v 7.9610 -9.8252 -45.5746
v 7.2941 -9.4942 -45.4346
v 7.8934 -9.5242 -45.4846
v 9.3770 -9.8752 -45.2645
v 7.9050 -9.3012 -44.9546
v 9.6664 -10.0862 -45.5746
v 10.8040 -11.3072 -41.8246
v 9.6682 -10.0522 -41.6445
v 7.3033 -9.3192 -45.2545
v 8.5098 -9.2272 -41.9446
v 8.9988 -9.4052 -41.9546
v 8.5083 -9.2542 -41.6445
v 8.7327 -37.1382 -39.3146
v 10.3933 -36.3412 -40.4846
v 10.0924 -36.3502 -40.4846
v 9.1951 -36.5932 -38.3945
v 9.4739 -36.6882 -39.0045
v 9.7753 -36.6682 -39.5946
v 9.9559 -36.3122 -38.9846
v 11.6436 -35.4132 -41.3546
v 9.6052 -34.1822 -39.1946
v 9.7684 -36.0122 -38.6746
v 10.4727 -34.8262 -39.2846
v 10.7568 -35.1372 -39.4146
v 10.5358 -33.6232 -39.3845
v 11.4246 -33.8602 -42.5346
v 11.2209 -32.0142 -43.4446
v 10.0463 -31.4992 -39.2246
v 10.3779 -30.9032 -39.5546
v 10.8293 -29.3792 -40.8446
v 10.9459 -31.5292 -39.7046
v 10.2547 -27.5202 -41.5546
v 10.2113 -28.1252 -41.4046
v 10.7796 -28.4442 -41.7146
v 10.7868 -28.8332 -41.4246
v 11.1385 -27.8532 -41.9546
v 10.9014 -26.6462 -41.7346
v 9.1573 -25.3882 -40.7046
v 8.8965 -24.7762 -40.6445
v 9.7962 -24.8052 -40.6846
v 9.7487 -25.7122 -40.9346
v 10.3792 -25.1452 -40.8945
v 10.7096 -24.5732 -40.5646
v 11.2166 -26.3642 -41.6746
v 9.8986 -22.8512 -45.6046
v 9.0313 -22.2042 -45.6345
v 9.3469 -21.9142 -45.7746
v 10.5453 -21.9762 -45.8146
v 9.6506 -21.8522 -39.4346
v 9.3198 -22.4312 -39.5746
v 10.5034 -22.7772 -40.0446
v 10.6188 -21.8832 -39.9846
v 11.3089 -24.6022 -40.6345
v 11.1032 -22.7962 -40.3945
v 9.9970 -20.9732 -39.2746
v 9.4097 -20.7172 -45.7346
v 10.1037 -18.9382 -46.0646
v 9.9934 -21.0432 -45.8645
v 14.2519 -20.0372 -46.6345
v 12.1440 -20.1332 -40.7445
v 10.1879 -17.3312 -40.5646
v 10.7449 -18.1682 -40.7545
v 11.3059 -17.0422 -41.9146
v 11.8759 -19.5162 -40.7846
v 9.4442 -15.1012 -43.0546
v 9.6833 -14.8032 -43.3346
v 9.8766 -15.1132 -43.3546
v 9.7509 -14.2062 -43.3346
v 10.0193 -14.8162 -43.4546
v 9.6418 -16.2862 -41.8945
v 10.5403 -16.3392 -43.3945
v 10.8558 -16.0512 -43.7946
v 11.1249 -16.6492 -43.4046
v 10.2277 -16.5722 -41.5946
v 11.1398 -16.3662 -43.8146
v 11.1230 -16.6842 -42.8046
v 11.1556 -16.0632 -43.9046
v 11.1714 -15.7622 -43.9246
v 11.2026 -15.1662 -43.8446
v 10.9341 -14.5582 -43.6245
v 11.4294 -16.5712 -43.6946
v 11.4395 -16.3792 -43.8745
v 12.0192 -16.7822 -43.1046
v 11.4224 -16.7042 -43.1046
v 11.7707 -15.7912 -44.0145
v 13.7297 -12.8042 -46.4146
v 10.5277 -10.8482 -45.9546
v 11.5642 -13.9992 -43.3546
v 11.3559 -12.2422 -42.0446
v 9.9630 -10.1592 -45.2746
v 10.2435 -10.5382 -45.7946
v 10.6615 -10.5672 -45.5946
v 11.7109 -10.7382 -42.2946
v 11.4153 -11.1082 -45.9046
v 10.2722 -9.9902 -41.9646
v 11.1430 -10.5712 -41.9846
v 10.8354 -10.7082 -41.8246
v 12.3024 -11.3782 -42.0546
v 11.3250 -35.7602 -40.7645
v 11.0136 -35.9702 -40.4746
v 11.6432 -35.4202 -40.4546
v 11.9753 -34.8162 -41.8146
v 12.6067 -34.2322 -42.2746
v 12.2707 -34.9102 -41.6345
v 12.2611 -35.0952 -41.0446
v 12.2627 -35.0632 -40.7346
v 12.2755 -34.8202 -40.4346
v 11.6569 -35.1592 -40.1245
v 12.5668 -34.9942 -41.0346
v 12.5876 -34.5972 -41.9246
v 12.5730 -34.8762 -40.7346
v 12.5878 -34.5932 -40.4945
v 12.3033 -34.2892 -40.1746
v 13.0124 -34.5972 -41.0246
v 12.8264 -34.5982 -40.7246
v 12.9034 -34.3032 -40.6846
v 12.6190 -33.9982 -40.3645
v 12.9224 -33.9412 -42.4646
v 13.1484 -33.7042 -40.9945
v 11.7191 -33.9722 -39.7846
v 11.1667 -33.0492 -39.5546
v 12.3347 -33.6902 -40.1445
v 13.1149 -30.2662 -44.6746
v 13.0350 -31.7922 -43.9046
v 12.5478 -33.3932 -40.3845
v 12.4469 -31.5482 -41.4046
v 11.7982 -32.4622 -40.0846
v 13.0627 -31.2642 -41.8745
v 13.2987 -32.4932 -41.4546
v 11.7664 -33.0702 -39.8546
v 12.5330 -29.7272 -42.0546
v 13.1104 -30.3522 -42.2146
v 12.7915 -29.1292 -42.3346
v 13.7418 -29.7702 -42.6145
v 11.4068 -28.4672 -41.9945
v 11.4852 -26.9712 -41.9046
v 13.4891 -28.8592 -42.4945
v 12.6211 -28.2252 -42.1546
v 12.3928 -26.8492 -41.6546
v 13.2514 -27.6622 -41.9945
v 12.1459 -25.8282 -41.2246
v 13.9220 -28.5772 -42.6145
v 13.8572 -27.5672 -45.6145
v 13.0296 -26.1632 -41.5546
v 13.3295 -26.1722 -41.7445
v 13.0610 -25.5642 -41.5446
v 14.8673 -25.4912 -46.3246
v 11.9875 -23.1192 -41.0946
v 11.7485 -22.2112 -40.8945
v 13.8039 -22.8542 -42.7946
v 11.4815 -21.3102 -40.4846
v 14.0567 -23.7612 -42.9945
v 12.6832 -20.4482 -41.1245
v 12.7343 -19.8402 -41.4046
v 14.0853 -20.7802 -42.3346
v 13.8658 -21.6712 -42.3046
v 12.5723 -17.6922 -42.4246
v 12.0693 -18.5942 -41.6646
v 13.7090 -18.9312 -43.0846
v 15.2875 -17.4732 -44.1546
v 15.8715 -17.7942 -44.4346
v 15.0036 -17.1582 -44.1546
v 13.7920 -19.5432 -42.8945
v 11.7238 -16.6862 -43.4046
v 11.7550 -16.0912 -44.0045
v 12.3699 -15.8222 -44.0246
v 11.8019 -15.1952 -43.9046
v 12.3084 -16.9952 -42.8146
v 12.3292 -16.5992 -43.6946
v 12.6378 -16.4422 -43.8845
v 12.4320 -14.6362 -43.6445
v 13.3614 -16.7872 -43.7046
v 14.4359 -16.5252 -44.1946
v 13.2373 -16.4682 -44.0446
v 14.0507 -16.8122 -44.0045
v 13.4521 -12.3682 -46.2445
v 13.1078 -13.2072 -42.5446
v 12.7623 -14.0662 -43.2445
v 14.0219 -12.9612 -42.3546
v 13.9908 -13.5542 -42.5346
v 13.4635 -12.1512 -45.9446
v 13.1886 -11.6652 -42.3246
v 13.4252 -11.7182 -42.6245
v 13.4697 -12.0342 -42.2445
v 13.6862 -12.0422 -42.3346
v 13.7536 -12.3482 -42.2946
v 13.9900 -12.0472 -42.6345
v 14.0537 -12.3542 -42.3446
v 13.0614 -34.2892 -41.3146
v 13.1030 -34.3022 -41.0145
v 13.7869 -33.0742 -42.7645
v 13.1619 -33.9842 -41.6046
v 13.6020 -32.4372 -43.5145
v 14.2373 -31.7792 -43.9246
v 14.3990 -31.8732 -43.6245
v 14.2036 -32.4232 -42.7445
v 14.8991 -31.0202 -42.9945
v 14.6416 -31.2752 -43.9046
v 13.5496 -33.3932 -41.8745
v 13.5508 -32.8032 -41.5546
v 13.9303 -31.9052 -42.0346
v 13.7916 -32.8052 -41.8546
v 14.3454 -29.7162 -45.0646
v 14.7402 -27.9162 -45.5646
v 14.6292 -30.0342 -45.0045
v 15.1204 -28.8572 -45.0246
v 14.8817 -30.0552 -44.7645
v 14.3137 -30.3222 -44.8845
v 14.3729 -29.1922 -42.8945
v 14.9567 -29.5172 -43.0746
v 14.7443 -30.6592 -44.4846
v 14.9772 -30.4242 -42.9746
v 14.5935 -30.7152 -42.6546
v 14.9884 -28.9132 -43.2146
v 14.9949 -30.7142 -43.2846
v 15.1672 -30.1122 -43.5646
v 15.1760 -30.1232 -43.2645
v 15.2069 -29.8042 -43.8546
v 15.3203 -29.5202 -43.5446
v 15.1510 -29.1692 -44.7346
v 15.2884 -28.9202 -43.4646
v 15.4178 -28.9142 -43.8246
v 13.8890 -26.9612 -45.8046
v 14.1727 -27.2812 -45.6846
v 14.8220 -26.3552 -46.1345
v 14.7877 -27.0092 -45.7846
v 14.7560 -27.6142 -45.6345
v 15.0396 -27.9362 -45.4446
v 15.3692 -27.3782 -45.8645
v 15.0480 -27.7752 -45.5846
v 15.3873 -27.0332 -45.9945
v 15.2845 -27.9652 -44.9846
v 15.3985 -27.6602 -45.2746
v 15.5378 -27.6992 -44.3745
v 14.7043 -28.6012 -43.1145
v 14.1514 -27.6862 -42.6646
v 14.4834 -27.0832 -43.2046
v 15.3542 -27.7102 -43.7746
v 14.7991 -26.7922 -43.3945
v 14.5614 -25.5962 -42.8745
v 15.0201 -28.3082 -43.3745
v 15.3550 -28.5902 -44.4146
v 15.4398 -28.3152 -43.8046
v 15.8278 -27.4132 -44.3645
v 15.6830 -27.1232 -43.8546
v 15.7143 -26.5252 -43.8146
v 13.8343 -27.0822 -42.2545
v 15.7347 -26.1362 -46.3745
v 16.4762 -23.4532 -46.8546
v 14.0682 -26.1832 -42.5246
v 15.1809 -25.2392 -43.3945
v 13.9497 -24.9762 -42.4846
v 15.5406 -24.1072 -43.9346
v 14.9251 -24.3882 -43.5746
v 15.6466 -24.7122 -43.9746
v 16.0456 -25.9362 -43.9546
v 16.1088 -24.7302 -44.1746
v 13.9613 -25.5822 -42.3745
v 15.9399 -22.2222 -46.8745
v 14.3881 -23.1702 -43.2246
v 14.6567 -23.7772 -43.4546
v 14.4193 -22.5752 -43.0746
v 14.9878 -23.1922 -43.4945
v 15.3028 -22.9122 -43.3645
v 14.7655 -21.7012 -42.7946
v 15.3339 -22.3202 -43.1445
v 15.3653 -21.7212 -43.1445
v 17.5481 -20.1952 -47.0846
v 14.5219 -20.4822 -42.9246
v 15.0811 -21.4102 -43.0045
v 14.5774 -19.5582 -43.6345
v 15.9811 -21.4352 -43.6546
v 15.7773 -19.5912 -44.4945
v 18.6167 -22.7332 -44.8446
v 16.0479 -18.9982 -44.6746
v 16.6768 -19.6232 -44.9146
v 15.4848 -17.1772 -44.3146
v 16.5023 -17.2212 -44.5846
v 16.7553 -18.1262 -44.8745
v 17.4996 -15.3882 -46.9246
v 14.4669 -15.9342 -43.9446
v 15.4264 -14.8232 -42.7746
v 14.7198 -16.8402 -44.2146
v 16.2336 -16.6172 -44.2645
v 15.3441 -16.8702 -44.3046
v 15.9185 -16.8972 -44.3745
v 16.5938 -15.4752 -43.0746
v 15.4418 -14.5282 -42.6445
v 16.6474 -14.4522 -46.6145
v 17.7557 -14.6262 -43.3146
v 14.6493 -12.4542 -42.9446
v 14.6483 -12.4732 -42.6445
v 15.7885 -13.6452 -42.6145
v 17.8273 -14.8682 -43.0246
v 16.0031 -26.7472 -46.4945
v 16.2960 -26.8902 -46.1546
v 16.3055 -26.7092 -46.4446
v 16.2862 -27.0782 -44.6546
v 16.9141 -26.5622 -44.6345
v 16.3503 -25.8542 -46.7545
v 16.3319 -26.2052 -46.7246
v 16.5505 -26.4772 -46.4346
v 16.6469 -25.9272 -46.7146
v 16.6658 -25.5672 -46.8446
v 16.6815 -25.2662 -46.8745
v 16.9217 -26.5492 -44.9346
v 17.2400 -26.0752 -44.6145
v 16.9812 -25.2812 -46.9046
v 17.6592 -23.8082 -47.0646
v 18.2235 -24.5042 -44.8645
v 17.5903 -24.7202 -46.6746
v 16.6295 -26.2602 -44.1746
v 17.6072 -24.7992 -44.4246
v 16.7381 -26.5612 -44.3346
v 17.2605 -25.6842 -44.3945
v 17.3233 -24.4852 -44.2645
v 17.9008 -24.9292 -44.5746
v 17.9380 -24.2212 -44.2645
v 18.1053 -24.5202 -44.5646
v 18.6367 -22.3532 -47.1646
v 17.9545 -23.9042 -46.9446
v 16.7700 -23.5782 -43.7046
v 16.8169 -22.6832 -43.5946
v 17.2962 -22.6972 -43.9046
v 17.0853 -23.2942 -43.7046
v 17.9692 -23.6252 -44.1646
v 18.3434 -24.2322 -44.5546
v 18.2535 -23.9332 -44.3845
v 18.8251 -18.7572 -47.1345
v 18.3735 -21.6432 -45.0646
v 18.9799 -21.5372 -45.2346
v 19.0462 -20.2702 -47.1546
v 17.0237 -18.7362 -45.0145
v 18.6354 -16.6452 -47.0546
v 18.4748 -19.7092 -45.1646
v 17.3702 -17.8582 -44.8645
v 17.1016 -17.2512 -44.6245
v 17.7006 -17.2852 -44.5646
v 18.8056 -19.1292 -45.0546
v 19.1362 -18.5532 -44.8146
v 20.2153 -18.0262 -44.3346
v 17.7313 -16.7012 -44.1245
v 17.7991 -15.4072 -46.8346
v 18.0938 -15.5162 -46.6546
v 18.9423 -16.5212 -46.6846
v 18.3857 -15.6772 -46.3546
v 18.9448 -15.5782 -43.6445
v 19.2580 -15.8952 -43.6646
v 19.2590 -16.2102 -43.2445
v 18.9678 -15.5902 -43.3546
v 16.9244 -14.9002 -42.8146
v 19.2661 -22.7482 -45.4046
v 18.7798 -22.9812 -46.6145
v 18.9008 -23.0452 -44.9446
v 18.9324 -22.4432 -45.0346
v 18.9519 -22.0702 -47.1245
v 19.2322 -22.4542 -45.1646
v 19.1691 -22.0902 -46.8745
v 19.6345 -22.1672 -45.3745
v 19.4208 -20.6022 -46.8246
v 19.6266 -20.6612 -45.4546
v 19.5823 -21.5062 -45.3546
v 19.6735 -19.7672 -45.3046
v 19.5634 -21.8662 -45.2746
v 19.8396 -21.5672 -45.6546
v 19.8795 -20.3572 -45.9146
v 19.4241 -20.0022 -46.8046
v 19.7303 -21.8612 -45.6646
v 19.8349 -20.6662 -45.6245
v 20.0883 -19.7782 -45.5946
v 20.0899 -19.4782 -45.5846
v 18.9191 -16.9642 -46.9746
v 19.1401 -18.4802 -46.9146
v 19.6890 -19.4712 -45.1946
v 19.9850 -19.5552 -45.2846
v 20.0348 -18.6042 -44.7246
v 19.2180 -16.9922 -46.5946
v 20.4944 -18.0302 -44.6345
v 19.7567 -17.0592 -45.5045
v 19.5277 -16.8162 -43.5246
v 20.2458 -17.7372 -44.0246
v 20.0959 -17.4382 -43.7846
v 20.3758 -17.8292 -43.7246
v 20.5048 -17.7412 -44.3246
v 20.6954 -17.4642 -43.7146
v 20.6557 -17.4592 -44.0145
v 20.3951 -17.4622 -43.5346
v 19.8388 -16.6112 -43.9846
v 20.3893 -17.1452 -44.0045
v 19.4554 -16.2162 -43.3745
v 20.1113 -17.1442 -43.5946
v 19.8271 -16.8342 -43.4346
v 19.8388 -16.6132 -43.6846
v 19.5914 -16.5232 -43.3845
v 20.3973 -17.4202 -44.3146
v 20.4110 -17.1572 -43.6746
f 1 2 3
f 4 1 5
f 2 1 4
f 2 6 7
f 3 2 7
f 6 8 9
f 7 6 9
f 2 4 6
f 6 10 8
f 8 11 9
f 12 13 10
f 6 4 12
f 10 6 12
f 10 14 8
f 10 15 14
f 10 13 15
f 15 16 14
f 14 11 8
f 16 17 11
f 14 16 11
f 18 3 19
f 20 18 19
f 21 20 19
f 22 5 1
f 22 1 18
f 18 1 3
f 23 24 22
f 25 23 22
f 22 18 25
f 18 20 25
f 26 23 25
f 25 20 26
f 20 27 26
f 21 28 20
f 28 27 20
f 27 28 29
f 30 27 29
f 24 5 22
f 23 31 24
f 32 31 23
f 23 26 32
f 26 27 32
f 33 32 34
f 30 32 27
f 30 34 32
f 34 30 35
f 30 29 36
f 35 30 36
f 37 31 32
f 33 37 32
f 33 34 38
f 35 38 34
f 39 38 35
f 36 39 35
f 39 36 40
f 3 41 42
f 19 3 42
f 19 42 21
f 42 43 21
f 42 44 43
f 7 41 3
f 7 9 41
f 9 45 41
f 9 46 45
f 41 47 42
f 41 45 47
f 45 48 47
f 45 46 48
f 44 42 47
f 47 48 44
f 48 49 44
f 48 50 49
f 43 28 21
f 51 28 43
f 44 51 43
f 51 52 28
f 44 52 51
f 29 28 52
f 11 46 9
f 11 53 46
f 48 46 53
f 53 54 48
f 54 55 50
f 48 54 50
f 49 56 44
f 50 56 49
f 50 57 56
f 55 58 57
f 50 55 57
f 44 59 52
f 44 56 59
f 56 60 59
f 57 60 56
f 61 29 52
f 52 59 61
f 60 62 59
f 36 29 61
f 61 59 62
f 11 17 53
f 17 55 54
f 53 17 54
f 57 63 60
f 63 57 58
f 60 63 64
f 61 62 65
f 62 60 64
f 62 64 65
f 36 61 65
f 40 36 65
f 66 67 68
f 69 70 66
f 69 66 68
f 71 69 72
f 71 72 73
f 74 69 71
f 75 74 71
f 71 73 75
f 76 68 77
f 69 76 72
f 76 78 72
f 76 77 78
f 72 78 73
f 77 79 78
f 78 79 73
f 68 76 69
f 68 80 77
f 77 80 81
f 81 82 83
f 81 84 82
f 83 77 81
f 79 77 83
f 84 85 82
f 83 82 79
f 86 79 82
f 87 74 75
f 74 87 88
f 87 89 88
f 90 74 88
f 88 89 91
f 91 90 88
f 69 74 92
f 74 90 92
f 73 93 75
f 73 79 93
f 79 86 93
f 75 93 87
f 87 93 89
f 93 86 89
f 91 89 94
f 95 96 97
f 96 98 99
f 97 96 99
f 82 100 86
f 86 101 89
f 101 102 103
f 102 95 103
f 95 102 96
f 98 104 99
f 91 105 90
f 91 106 105
f 91 107 106
f 5 24 108
f 108 24 109
f 108 97 5
f 108 95 97
f 110 108 111
f 111 109 112
f 111 108 109
f 89 113 94
f 89 101 113
f 113 103 110
f 113 101 103
f 95 110 103
f 108 110 95
f 113 110 114
f 91 94 107
f 113 114 94
f 110 111 114
f 114 111 112
f 115 4 5
f 115 116 117
f 99 116 115
f 104 118 116
f 115 97 99
f 116 99 104
f 97 115 5
f 4 115 12
f 117 119 13
f 12 115 117
f 13 12 117
f 119 15 13
f 119 16 15
f 119 120 16
f 16 120 17
f 120 121 17
f 117 116 118
f 119 117 118
f 119 122 123
f 123 120 119
f 124 120 123
f 121 120 124
f 124 125 121
f 122 119 118
f 126 125 124
f 127 128 118
f 118 128 122
f 122 128 129
f 129 123 122
f 130 123 129
f 130 124 123
f 126 124 130
f 126 131 125
f 132 128 127
f 128 132 129
f 130 129 133
f 133 126 130
f 134 131 126
f 135 129 132
f 129 135 133
f 136 134 126
f 112 109 137
f 137 138 112
f 139 138 137
f 31 137 24
f 31 37 137
f 33 140 37
f 37 140 137
f 140 33 141
f 33 38 141
f 141 38 142
f 142 39 143
f 142 38 39
f 40 143 39
f 139 137 140
f 140 141 144
f 144 141 145
f 146 145 142
f 145 141 142
f 139 140 144
f 24 137 109
f 147 139 144
f 55 148 58
f 148 55 149
f 148 150 58
f 150 63 58
f 151 64 63
f 151 63 150
f 152 65 64
f 64 151 152
f 40 65 153
f 65 152 153
f 121 154 17
f 154 55 17
f 154 149 55
f 154 155 149
f 155 148 149
f 150 148 156
f 156 148 155
f 157 151 150
f 150 156 157
f 157 152 151
f 158 153 159
f 159 153 152
f 154 121 125
f 160 154 125
f 160 155 154
f 160 161 155
f 161 156 155
f 162 157 156
f 161 162 156
f 159 152 157
f 162 159 157
f 163 159 162
f 125 131 160
f 160 131 164
f 165 160 164
f 165 161 160
f 162 166 167
f 161 166 162
f 165 166 161
f 162 167 163
f 134 164 131
f 134 168 164
f 168 165 164
f 169 166 165
f 166 169 167
f 163 170 171
f 167 170 163
f 168 169 165
f 170 167 169
f 171 172 173
f 170 172 171
f 142 143 146
f 143 40 153
f 146 143 153
f 144 145 174
f 145 146 174
f 174 146 175
f 147 144 174
f 176 147 174
f 176 174 175
f 176 175 177
f 177 175 178
f 179 147 176
f 180 179 176
f 180 176 177
f 177 178 173
f 153 158 146
f 175 146 158
f 175 158 178
f 178 158 181
f 181 158 159
f 163 181 159
f 171 173 181
f 181 173 178
f 171 181 163
f 182 183 184
f 185 186 187
f 188 189 190
f 190 191 188
f 185 188 191
f 186 185 191
f 191 182 192
f 192 186 191
f 191 190 193
f 193 190 189
f 182 191 193
f 193 194 195
f 187 186 196
f 186 192 197
f 186 198 196
f 198 186 197
f 182 184 192
f 184 197 192
f 184 199 200
f 184 200 197
f 197 200 198
f 200 201 198
f 185 202 203
f 67 203 202
f 187 204 202
f 68 67 202
f 68 202 80
f 202 204 80
f 80 204 81
f 67 188 203
f 188 185 203
f 202 185 187
f 196 84 204
f 189 188 67
f 189 67 66
f 189 66 194
f 194 193 189
f 205 194 66
f 205 66 70
f 204 187 196
f 206 196 198
f 206 198 207
f 208 209 207
f 210 70 69
f 211 70 210
f 81 204 84
f 84 212 85
f 196 209 84
f 209 212 84
f 206 209 196
f 207 209 206
f 209 213 212
f 209 208 213
f 92 210 69
f 92 90 105
f 211 210 92
f 100 82 85
f 214 100 85
f 214 86 100
f 101 86 215
f 86 214 215
f 214 216 215
f 216 96 215
f 216 217 98
f 216 98 96
f 215 102 101
f 96 102 215
f 218 85 212
f 214 85 218
f 214 217 216
f 217 214 218
f 218 213 219
f 218 212 213
f 218 219 217
f 104 98 127
f 127 118 104
f 220 127 98
f 221 127 220
f 217 222 98
f 222 217 219
f 220 98 222
f 221 132 127
f 221 223 132
f 221 220 222
f 223 221 224
f 225 226 222
f 226 221 222
f 221 226 224
f 227 92 228
f 92 105 229
f 230 231 232
f 233 231 230
f 234 231 233
f 94 114 235
f 94 235 107
f 112 235 114
f 112 236 235
f 235 237 107
f 235 236 237
f 112 138 236
f 237 236 238
f 238 239 237
f 239 240 233
f 233 230 239
f 238 240 239
f 240 234 233
f 241 234 240
f 126 133 136
f 242 134 136
f 243 136 133
f 135 243 133
f 244 136 243
f 244 242 136
f 132 223 135
f 135 244 243
f 135 245 244
f 244 246 242
f 228 92 229
f 247 228 229
f 107 248 106
f 106 248 249
f 105 106 249
f 250 229 105
f 248 251 249
f 105 252 250
f 249 252 105
f 239 253 248
f 251 248 253
f 230 254 239
f 254 253 239
f 230 255 254
f 255 256 254
f 257 230 232
f 257 255 230
f 258 256 255
f 107 237 248
f 238 236 138
f 238 138 139
f 248 237 239
f 139 147 238
f 259 238 147
f 259 147 179
f 238 259 240
f 259 179 260
f 240 259 241
f 261 173 172
f 179 180 262
f 262 180 263
f 263 180 261
f 264 261 172
f 264 172 265
f 262 263 266
f 263 264 266
f 265 267 264
f 261 264 263
f 266 264 267
f 262 260 179
f 242 268 134
f 134 268 168
f 269 168 268
f 269 270 169
f 269 169 168
f 270 172 170
f 270 170 169
f 242 246 268
f 246 271 269
f 268 246 269
f 271 265 270
f 271 270 269
f 265 172 270
f 271 267 265
f 247 229 272
f 252 249 273
f 272 252 273
f 272 229 250
f 250 252 272
f 251 273 249
f 251 274 273
f 251 253 274
f 274 275 273
f 272 273 276
f 273 275 276
f 254 275 253
f 275 274 253
f 276 277 272
f 278 277 276
f 276 275 278
f 277 279 272
f 277 278 279
f 256 275 254
f 256 280 275
f 280 278 275
f 280 279 278
f 261 180 177
f 173 261 177
f 281 282 272
f 282 283 284
f 282 284 272
f 281 283 282
f 281 285 283
f 284 247 272
f 286 284 283
f 286 287 284
f 279 281 272
f 288 279 280
f 281 279 285
f 280 289 288
f 288 285 279
f 285 288 289
f 285 286 283
f 290 291 183
f 182 290 183
f 290 182 193
f 195 290 193
f 292 291 290
f 290 293 292
f 293 290 195
f 294 295 292
f 294 292 293
f 183 199 184
f 291 296 183
f 296 199 183
f 291 297 296
f 297 298 296
f 296 298 199
f 291 292 297
f 295 299 297
f 299 300 298
f 297 299 298
f 297 292 295
f 301 302 199
f 301 201 302
f 299 295 294
f 301 199 298
f 303 201 301
f 304 303 301
f 194 305 306
f 306 195 194
f 307 195 306
f 200 199 302
f 200 302 201
f 308 207 201
f 303 308 201
f 303 304 308
f 70 305 205
f 305 194 205
f 309 305 70
f 309 70 211
f 310 309 211
f 311 307 305
f 305 309 311
f 311 309 310
f 312 213 208
f 308 313 207
f 208 207 313
f 314 312 208
f 312 314 315
f 207 198 201
f 316 310 211
f 219 213 312
f 219 312 225
f 222 219 225
f 226 225 317
f 317 225 312
f 316 211 92
f 317 224 226
f 223 224 318
f 318 224 319
f 319 320 318
f 320 321 318
f 321 245 318
f 321 322 245
f 316 92 227
f 323 231 234
f 323 232 231
f 232 323 324
f 323 234 324
f 324 234 325
f 324 325 326
f 324 326 327
f 241 325 234
f 328 329 271
f 330 329 328
f 328 331 330
f 332 329 330
f 223 318 245
f 135 223 245
f 245 322 244
f 244 322 246
f 322 331 246
f 331 328 271
f 331 271 246
f 257 333 255
f 258 255 333
f 324 334 232
f 334 257 232
f 327 334 324
f 335 257 334
f 335 333 257
f 260 241 259
f 336 241 260
f 262 336 260
f 262 337 336
f 241 326 325
f 326 241 336
f 336 337 338
f 336 338 326
f 337 329 338
f 271 329 267
f 337 266 329
f 329 266 267
f 266 337 262
f 228 247 339
f 339 247 284
f 340 280 256
f 340 256 258
f 341 340 258
f 339 284 342
f 340 289 280
f 343 286 285
f 285 344 343
f 285 289 344
f 287 286 345
f 345 286 343
f 346 343 344
f 345 343 346
f 340 344 289
f 340 346 344
f 340 347 346
f 347 340 348
f 341 348 340
f 349 347 348
f 349 348 341
f 350 351 352
f 352 351 353
f 353 354 352
f 354 355 352
f 350 356 357
f 356 358 357
f 358 356 359
f 352 360 361
f 356 350 361
f 350 352 361
f 361 362 356
f 361 360 362
f 359 356 362
f 359 363 364
f 365 362 360
f 366 362 365
f 359 362 366
f 366 363 359
f 363 367 364
f 355 360 352
f 368 365 360
f 368 369 365
f 369 366 365
f 369 363 366
f 370 363 369
f 370 367 363
f 371 367 370
f 355 368 360
f 372 369 368
f 372 370 369
f 372 373 370
f 373 371 370
f 371 373 374
f 284 287 342
f 287 375 342
f 375 376 342
f 377 375 287
f 345 377 287
f 339 342 378
f 379 345 346
f 347 379 346
f 347 380 379
f 381 379 380
f 345 379 377
f 379 381 377
f 380 347 349
f 377 381 382
f 382 381 383
f 384 385 386
f 387 385 384
f 388 389 386
f 385 390 388
f 388 386 385
f 391 390 385
f 385 387 391
f 392 391 393
f 394 391 387
f 394 393 391
f 393 394 395
f 389 351 350
f 388 396 351
f 351 389 388
f 397 396 388
f 397 390 398
f 388 390 397
f 399 398 400
f 400 398 390
f 390 391 400
f 400 391 392
f 392 393 401
f 395 401 393
f 402 401 395
f 396 353 351
f 397 403 396
f 404 403 397
f 405 404 397
f 397 398 405
f 399 405 398
f 406 392 407
f 406 400 392
f 406 399 400
f 392 401 407
f 404 405 408
f 399 409 405
f 405 409 408
f 409 399 410
f 410 406 411
f 410 399 406
f 406 407 411
f 412 409 410
f 408 409 413
f 409 412 413
f 413 412 414
f 415 416 417
f 415 417 418
f 386 419 384
f 386 417 419
f 417 420 419
f 417 421 420
f 417 416 421
f 384 419 387
f 420 422 419
f 387 419 422
f 394 387 422
f 357 358 418
f 389 418 386
f 389 357 418
f 386 418 417
f 415 423 424
f 416 415 424
f 425 416 424
f 421 416 425
f 424 426 425
f 427 422 420
f 421 427 420
f 428 427 421
f 421 425 428
f 425 429 428
f 425 426 429
f 430 394 422
f 422 427 430
f 427 428 430
f 394 430 431
f 395 394 431
f 430 428 432
f 428 429 432
f 357 389 350
f 359 423 358
f 358 415 418
f 415 358 423
f 423 433 424
f 433 434 424
f 424 434 426
f 429 426 435
f 429 435 436
f 431 402 395
f 437 431 430
f 432 437 430
f 432 436 438
f 432 429 436
f 364 423 359
f 364 439 433
f 423 364 433
f 433 439 434
f 440 441 434
f 441 426 434
f 441 435 426
f 442 436 435
f 441 442 435
f 438 436 437
f 439 367 443
f 439 364 367
f 434 439 440
f 443 444 440
f 439 443 440
f 444 445 440
f 440 445 441
f 442 441 446
f 446 441 447
f 436 448 437
f 436 442 448
f 442 446 448
f 371 443 367
f 444 443 371
f 447 441 445
f 449 446 447
f 449 448 446
f 374 450 371
f 444 371 450
f 450 451 444
f 451 452 444
f 452 445 444
f 453 445 452
f 445 449 447
f 445 453 449
f 453 454 449
f 376 375 455
f 411 407 456
f 456 401 457
f 456 407 401
f 402 457 401
f 458 457 402
f 412 410 411
f 459 412 411
f 459 411 460
f 411 456 460
f 460 456 457
f 461 460 457
f 461 457 458
f 414 412 459
f 462 414 459
f 462 459 460
f 402 431 463
f 463 431 437
f 437 432 438
f 402 463 458
f 437 464 465
f 437 448 464
f 458 463 437
f 464 466 465
f 466 464 467
f 467 464 448
f 449 467 448
f 458 437 465
f 454 467 449
f 468 300 469
f 469 470 468
f 471 472 468
f 471 468 470
f 473 470 469
f 474 472 471
f 471 470 475
f 474 471 475
f 474 475 476
f 299 294 300
f 293 477 294
f 477 195 307
f 293 195 477
f 477 300 294
f 300 477 469
f 469 477 473
f 298 300 301
f 478 300 468
f 300 478 301
f 301 478 479
f 472 478 468
f 480 479 478
f 480 301 479
f 472 480 478
f 474 480 472
f 476 480 474
f 306 305 307
f 311 481 307
f 311 310 481
f 482 313 308
f 483 482 304
f 304 484 483
f 485 484 304
f 304 482 308
f 486 208 313
f 312 315 487
f 312 487 317
f 486 314 208
f 315 314 488
f 482 486 313
f 488 314 486
f 315 488 487
f 486 482 483
f 483 488 486
f 488 489 487
f 488 483 489
f 487 489 490
f 483 491 489
f 489 491 492
f 493 490 489
f 492 493 489
f 317 487 490
f 224 317 490
f 319 224 490
f 321 331 322
f 327 326 494
f 495 327 496
f 494 496 327
f 329 332 338
f 330 497 332
f 338 498 494
f 227 228 499
f 495 334 327
f 335 500 333
f 500 258 333
f 334 500 335
f 500 501 258
f 334 502 503
f 495 502 334
f 503 500 334
f 504 503 502
f 503 504 500
f 494 326 338
f 499 228 339
f 501 341 258
f 505 506 507
f 505 507 508
f 509 353 506
f 354 353 509
f 510 354 511
f 354 512 511
f 499 339 513
f 514 349 341
f 515 516 517
f 396 403 518
f 396 518 353
f 403 404 508
f 518 506 353
f 403 507 506
f 403 506 518
f 507 403 508
f 404 516 508
f 404 408 516
f 516 408 519
f 515 508 516
f 516 519 517
f 354 510 355
f 368 355 510
f 372 368 510
f 520 521 373
f 521 374 373
f 510 522 372
f 520 372 522
f 373 372 520
f 510 523 522
f 524 521 520
f 520 522 525
f 524 526 521
f 522 523 525
f 527 520 525
f 524 520 527
f 524 527 528
f 528 529 524
f 525 530 527
f 513 339 378
f 378 342 513
f 376 531 342
f 380 349 532
f 531 513 342
f 533 534 349
f 381 380 383
f 532 383 380
f 532 349 383
f 519 408 413
f 519 413 535
f 536 413 414
f 536 414 462
f 537 536 462
f 538 537 462
f 537 538 539
f 536 535 413
f 540 541 539
f 536 542 535
f 543 536 537
f 544 539 541
f 539 543 537
f 544 543 539
f 374 545 450
f 545 451 450
f 545 546 451
f 546 452 451
f 452 546 453
f 547 454 453
f 454 547 548
f 521 526 374
f 545 374 526
f 549 545 526
f 549 550 546
f 545 549 546
f 550 551 453
f 550 453 546
f 551 547 453
f 551 552 547
f 552 553 547
f 554 551 550
f 552 555 556
f 555 552 551
f 554 555 551
f 556 553 552
f 557 558 549
f 526 557 549
f 549 558 550
f 558 554 550
f 558 559 554
f 559 555 554
f 560 556 540
f 526 524 557
f 561 559 558
f 541 540 562
f 540 556 562
f 524 563 557
f 563 561 558
f 557 563 558
f 564 561 565
f 561 564 559
f 564 562 555
f 564 555 559
f 566 541 562
f 562 556 555
f 561 529 565
f 529 561 563
f 524 529 563
f 562 564 566
f 567 568 569
f 567 569 513
f 375 382 455
f 377 382 375
f 531 376 570
f 376 455 570
f 570 567 531
f 571 455 382
f 455 571 570
f 567 513 531
f 572 567 570
f 572 570 571
f 567 572 568
f 568 572 573
f 574 572 571
f 575 572 574
f 576 568 573
f 382 383 571
f 571 383 534
f 349 534 383
f 533 577 534
f 577 571 534
f 574 571 577
f 574 577 578
f 462 460 461
f 462 461 538
f 461 560 538
f 539 538 560
f 560 540 539
f 548 579 467
f 467 579 466
f 548 467 454
f 560 461 580
f 461 458 580
f 579 580 465
f 465 580 458
f 579 465 466
f 579 556 580
f 556 579 553
f 553 579 548
f 547 553 548
f 560 580 556
f 581 473 477
f 582 473 581
f 581 583 584
f 584 582 581
f 470 585 475
f 586 476 475
f 585 470 473
f 475 585 587
f 586 475 587
f 586 587 588
f 589 585 473
f 589 473 582
f 590 587 585
f 591 587 590
f 589 582 592
f 592 593 589
f 593 590 589
f 589 590 585
f 587 591 588
f 593 594 590
f 584 592 582
f 590 594 595
f 595 591 590
f 588 591 596
f 588 596 597
f 477 307 598
f 477 583 581
f 598 583 477
f 588 480 476
f 588 301 480
f 301 588 304
f 586 588 476
f 485 304 588
f 597 485 588
f 598 307 481
f 485 599 484
f 484 491 483
f 491 484 599
f 600 491 599
f 601 599 485
f 601 600 599
f 492 491 600
f 602 600 603
f 602 492 600
f 604 600 601
f 604 603 600
f 310 605 481
f 602 493 492
f 493 602 606
f 493 606 607
f 602 603 606
f 608 609 606
f 609 607 606
f 606 603 608
f 610 609 608
f 610 611 609
f 611 607 609
f 310 316 612
f 490 493 607
f 607 319 490
f 613 319 614
f 614 319 607
f 607 611 614
f 614 615 613
f 612 316 227
f 612 227 616
f 613 320 319
f 321 320 613
f 617 618 330
f 617 330 331
f 331 321 613
f 617 331 613
f 617 615 619
f 613 615 617
f 618 617 619
f 620 496 498
f 494 498 496
f 496 620 495
f 495 620 502
f 498 621 622
f 498 622 620
f 620 623 502
f 623 624 502
f 625 620 622
f 625 626 620
f 626 627 623
f 626 623 620
f 627 628 623
f 628 624 623
f 622 629 630
f 631 625 630
f 630 625 622
f 631 626 625
f 631 632 626
f 627 632 633
f 626 632 627
f 634 627 633
f 627 634 628
f 634 635 628
f 498 338 332
f 497 636 332
f 498 636 621
f 498 332 636
f 637 497 618
f 637 636 497
f 637 621 636
f 618 497 330
f 227 499 638
f 639 500 504
f 639 640 500
f 640 501 500
f 640 641 501
f 642 639 504
f 643 639 642
f 640 639 643
f 644 354 509
f 642 504 502
f 640 643 645
f 643 646 645
f 640 645 647
f 645 648 644
f 644 648 354
f 647 649 640
f 624 642 502
f 643 642 650
f 643 651 646
f 646 648 645
f 652 642 624
f 650 642 652
f 650 651 643
f 653 646 651
f 653 648 646
f 652 624 628
f 650 652 651
f 635 652 628
f 651 652 635
f 651 635 653
f 654 655 648
f 654 648 653
f 512 648 655
f 655 656 512
f 657 341 641
f 657 658 341
f 641 659 657
f 659 658 657
f 660 661 658
f 661 341 658
f 658 659 662
f 662 663 658
f 663 660 658
f 664 660 663
f 664 661 660
f 663 665 664
f 665 666 664
f 641 341 501
f 505 508 515
f 509 506 644
f 644 506 505
f 649 641 640
f 505 647 645
f 505 645 644
f 505 667 647
f 505 668 669
f 641 649 659
f 649 667 659
f 667 649 647
f 659 667 662
f 505 669 667
f 670 662 667
f 669 670 667
f 671 669 668
f 662 670 663
f 670 671 663
f 670 669 671
f 663 671 665
f 671 668 517
f 671 666 665
f 512 354 648
f 511 512 656
f 511 523 510
f 523 511 656
f 523 656 672
f 523 672 525
f 638 499 673
f 661 674 341
f 664 675 661
f 675 674 661
f 674 514 341
f 676 675 664
f 676 664 666
f 676 666 677
f 678 675 676
f 676 677 678
f 679 674 675
f 678 679 675
f 505 515 668
f 515 517 668
f 680 666 671
f 517 680 671
f 677 680 681
f 677 666 680
f 517 681 680
f 519 682 517
f 683 684 565
f 527 530 528
f 530 685 528
f 685 529 528
f 683 565 529
f 685 683 529
f 499 513 686
f 514 533 349
f 577 533 687
f 688 687 533
f 688 533 514
f 689 519 535
f 535 542 689
f 689 542 543
f 689 543 690
f 544 690 543
f 690 544 691
f 542 536 543
f 541 684 544
f 684 541 566
f 544 684 691
f 684 692 691
f 684 564 565
f 684 566 564
f 693 569 568
f 693 568 576
f 686 513 569
f 569 693 686
f 694 693 576
f 694 686 693
f 576 695 694
f 695 576 696
f 694 695 686
f 697 686 695
f 698 697 695
f 698 695 696
f 698 699 697
f 699 698 696
f 700 686 697
f 700 697 701
f 701 697 699
f 576 573 575
f 573 572 575
f 576 575 696
f 696 575 699
f 687 702 577
f 578 577 702
f 574 578 575
f 578 702 575
f 575 702 703
f 704 703 702
f 704 702 705
f 699 575 706
f 706 575 703
f 707 703 704
f 707 706 703
f 705 702 687
f 707 708 706
f 687 709 705
f 710 707 704
f 710 711 707
f 711 708 707
f 705 710 704
f 712 710 705
f 712 711 710
f 713 706 708
f 699 706 713
f 699 713 714
f 714 713 708
f 715 592 716
f 716 592 584
f 717 716 584
f 718 716 717
f 595 594 719
f 719 591 595
f 720 591 719
f 591 720 596
f 592 715 593
f 721 594 593
f 594 721 722
f 719 594 722
f 719 722 720
f 721 593 715
f 723 720 722
f 723 596 720
f 721 724 725
f 722 721 725
f 725 723 722
f 726 596 723
f 716 727 715
f 721 715 727
f 727 724 721
f 728 723 725
f 723 728 726
f 718 727 716
f 718 729 727
f 584 598 730
f 584 583 598
f 485 597 731
f 731 732 485
f 731 733 732
f 597 734 731
f 734 733 731
f 734 735 733
f 726 728 597
f 726 597 596
f 736 598 481
f 604 601 737
f 603 604 738
f 732 601 485
f 604 737 738
f 739 601 732
f 739 737 601
f 737 739 738
f 738 739 740
f 740 741 738
f 739 733 742
f 732 733 739
f 739 742 740
f 740 743 741
f 743 744 741
f 735 745 733
f 745 742 733
f 740 742 745
f 745 743 740
f 735 746 745
f 747 745 746
f 747 748 745
f 745 748 743
f 749 743 748
f 603 738 608
f 738 741 608
f 750 481 751
f 605 751 481
f 610 741 744
f 749 744 743
f 752 744 749
f 741 610 608
f 744 611 610
f 752 611 744
f 614 611 752
f 752 615 614
f 752 753 615
f 612 605 310
f 616 605 612
f 605 616 754
f 754 616 755
f 751 605 754
f 619 756 757
f 615 753 619
f 753 756 619
f 758 755 616
f 759 760 761
f 761 762 763
f 761 763 759
f 759 637 618
f 619 760 618
f 760 759 618
f 757 760 619
f 758 616 227
f 630 764 765
f 630 629 764
f 764 629 766
f 766 629 621
f 629 622 621
f 631 765 767
f 631 630 765
f 767 768 632
f 767 632 631
f 768 633 632
f 635 634 769
f 759 766 621
f 764 770 765
f 770 764 766
f 765 771 767
f 772 767 771
f 772 768 767
f 772 773 768
f 773 633 768
f 774 634 773
f 634 633 773
f 774 769 634
f 765 775 771
f 765 770 775
f 776 772 771
f 775 776 771
f 776 773 772
f 777 774 773
f 774 777 778
f 778 769 774
f 654 769 778
f 770 766 779
f 759 779 766
f 775 780 781
f 780 775 770
f 776 775 782
f 777 776 782
f 773 776 777
f 782 783 777
f 777 783 778
f 784 778 783
f 654 778 784
f 784 785 654
f 763 779 759
f 763 786 779
f 787 779 786
f 787 770 779
f 780 787 781
f 780 770 787
f 781 782 775
f 781 788 782
f 782 788 783
f 783 789 784
f 789 785 784
f 781 787 786
f 783 788 789
f 788 790 789
f 790 791 789
f 781 786 792
f 792 790 788
f 781 792 788
f 786 763 793
f 793 763 762
f 792 786 793
f 792 793 794
f 790 792 794
f 637 759 621
f 789 791 655
f 795 791 796
f 796 791 790
f 769 653 635
f 654 653 769
f 655 654 785
f 655 785 789
f 795 656 655
f 656 795 672
f 791 795 655
f 672 795 796
f 525 672 530
f 530 797 685
f 685 797 798
f 685 798 683
f 799 798 800
f 672 797 530
f 801 800 798
f 638 673 802
f 678 677 803
f 679 678 803
f 679 804 674
f 804 514 674
f 805 803 677
f 679 806 804
f 679 803 807
f 679 807 806
f 807 803 805
f 808 514 804
f 807 805 809
f 806 808 804
f 809 810 807
f 806 811 808
f 807 810 806
f 806 810 811
f 810 809 812
f 810 812 811
f 813 514 808
f 811 814 808
f 517 682 681
f 815 681 682
f 816 815 682
f 816 682 519
f 677 681 805
f 805 681 815
f 816 519 689
f 809 805 815
f 817 816 689
f 817 689 818
f 689 819 818
f 812 809 815
f 812 815 816
f 817 818 820
f 812 814 811
f 814 812 816
f 820 821 816
f 821 814 816
f 816 817 820
f 822 820 818
f 822 818 823
f 691 692 824
f 819 690 691
f 818 819 691
f 799 824 692
f 825 824 799
f 824 826 691
f 826 823 691
f 691 823 818
f 684 683 799
f 799 692 684
f 798 799 683
f 800 825 799
f 673 499 686
f 827 673 686
f 802 673 828
f 828 673 827
f 709 687 688
f 514 829 688
f 829 709 688
f 514 813 829
f 819 689 690
f 830 700 701
f 830 701 699
f 827 686 700
f 827 700 830
f 831 830 832
f 832 830 833
f 830 831 827
f 834 831 832
f 835 711 712
f 836 712 705
f 705 709 836
f 712 836 835
f 836 709 837
f 833 830 699
f 838 832 833
f 838 833 839
f 834 832 838
f 699 840 833
f 833 840 839
f 840 699 714
f 714 708 841
f 841 708 711
f 835 841 711
f 841 835 842
f 714 841 842
f 714 842 840
f 839 840 842
f 843 842 835
f 843 839 842
f 844 839 843
f 718 717 845
f 845 846 718
f 847 845 717
f 847 848 845
f 847 717 849
f 849 850 847
f 850 848 847
f 717 584 849
f 729 724 727
f 718 846 729
f 846 851 729
f 852 725 724
f 852 724 729
f 725 852 728
f 846 845 851
f 845 848 851
f 852 729 851
f 852 851 853
f 728 852 853
f 728 853 854
f 848 855 851
f 855 853 851
f 848 850 855
f 734 856 735
f 597 728 857
f 597 858 734
f 859 856 858
f 858 856 734
f 857 858 597
f 860 859 858
f 857 860 858
f 860 861 859
f 862 860 857
f 861 860 862
f 857 854 862
f 728 854 857
f 730 598 736
f 736 750 730
f 750 736 481
f 856 746 735
f 747 856 863
f 746 856 747
f 748 747 863
f 859 864 856
f 864 863 856
f 864 865 863
f 865 748 863
f 865 749 748
f 866 749 865
f 866 752 749
f 867 864 859
f 861 867 859
f 864 867 868
f 864 868 865
f 865 868 866
f 861 868 867
f 861 869 868
f 869 866 868
f 752 866 870
f 871 866 869
f 866 871 870
f 872 750 751
f 751 754 872
f 750 872 873
f 873 872 755
f 874 756 753
f 870 753 752
f 870 874 753
f 756 875 876
f 874 875 756
f 754 755 872
f 876 757 756
f 761 760 877
f 877 762 761
f 877 878 762
f 877 879 880
f 879 877 760
f 880 881 877
f 877 881 882
f 883 884 760
f 884 879 760
f 884 880 879
f 884 883 880
f 885 760 757
f 885 883 760
f 758 227 886
f 886 227 887
f 888 887 889
f 878 793 762
f 794 793 878
f 790 794 796
f 890 794 878
f 796 794 890
f 877 890 878
f 882 890 877
f 882 796 890
f 882 891 796
f 638 887 227
f 889 887 638
f 672 891 797
f 797 891 892
f 892 893 797
f 796 891 672
f 894 893 892
f 895 797 893
f 801 896 800
f 897 898 800
f 894 895 893
f 801 895 894
f 896 801 894
f 800 896 897
f 895 798 797
f 798 895 801
f 828 638 802
f 808 899 813
f 814 821 808
f 808 821 899
f 900 901 902
f 899 901 903
f 901 899 821
f 900 904 901
f 904 903 901
f 904 905 903
f 823 906 907
f 823 907 822
f 821 820 901
f 901 820 822
f 907 902 822
f 822 902 901
f 908 906 909
f 908 907 906
f 907 908 902
f 900 902 910
f 902 908 910
f 824 911 826
f 825 911 824
f 826 906 823
f 906 826 911
f 898 825 800
f 911 912 906
f 911 898 912
f 898 911 825
f 913 897 914
f 898 897 913
f 906 912 909
f 898 913 912
f 909 913 915
f 915 913 914
f 912 913 909
f 828 827 916
f 917 709 829
f 917 837 709
f 903 813 899
f 829 918 917
f 905 919 903
f 919 813 903
f 919 829 813
f 919 918 829
f 920 831 921
f 921 831 834
f 827 831 920
f 922 920 921
f 916 827 920
f 916 920 922
f 923 922 924
f 925 916 922
f 922 923 925
f 918 837 917
f 926 843 836
f 843 835 836
f 836 837 926
f 927 843 926
f 928 921 834
f 928 834 838
f 924 838 839
f 922 921 928
f 928 838 924
f 924 922 928
f 924 929 930
f 930 923 924
f 924 839 844
f 929 924 844
f 929 844 931
f 931 844 843
f 931 930 929
f 927 931 843
f 849 932 850
f 932 855 850
f 933 932 849
f 849 934 933
f 932 935 855
f 853 855 935
f 934 849 584
f 935 932 936
f 936 932 937
f 937 932 933
f 938 935 936
f 936 937 938
f 584 730 934
f 933 934 939
f 853 862 854
f 940 861 862
f 941 935 938
f 935 941 853
f 853 941 862
f 942 940 862
f 943 862 941
f 943 942 862
f 944 940 942
f 945 730 946
f 871 869 861
f 940 871 861
f 944 870 871
f 944 871 940
f 944 947 870
f 750 873 946
f 946 730 750
f 947 874 870
f 947 948 874
f 948 875 874
f 948 949 876
f 948 876 875
f 950 948 947
f 951 885 757
f 952 757 876
f 952 951 757
f 952 953 951
f 954 953 952
f 954 952 876
f 951 955 956
f 957 958 880
f 958 881 880
f 957 883 885
f 957 880 883
f 957 959 958
f 959 881 958
f 885 960 957
f 959 957 960
f 961 959 960
f 960 885 956
f 956 885 951
f 961 960 956
f 959 962 881
f 962 959 961
f 963 961 956
f 964 758 886
f 886 887 965
f 965 887 888
f 964 965 966
f 964 886 965
f 966 965 888
f 966 967 964
f 758 964 967
f 962 882 881
f 968 969 970
f 968 970 971
f 962 972 969
f 971 970 973
f 969 891 882
f 891 969 968
f 969 882 962
f 968 971 974
f 889 975 888
f 889 638 975
f 975 638 976
f 967 966 977
f 977 966 888
f 977 888 975
f 977 975 976
f 967 977 978
f 978 977 976
f 891 968 892
f 968 974 892
f 894 892 974
f 979 894 974
f 978 976 638
f 980 896 981
f 914 980 981
f 914 982 915
f 980 897 896
f 894 983 896
f 983 981 896
f 978 638 828
f 984 904 900
f 985 905 904
f 984 900 910
f 984 985 904
f 986 985 984
f 987 985 988
f 905 985 987
f 986 988 985
f 989 990 910
f 984 910 990
f 991 984 990
f 984 991 986
f 991 988 986
f 992 990 993
f 990 992 994
f 993 982 995
f 993 995 992
f 994 996 991
f 994 991 990
f 996 997 991
f 997 988 991
f 997 998 988
f 998 987 988
f 998 999 987
f 994 1000 1001
f 992 1000 994
f 1002 1003 995
f 995 1003 992
f 1002 995 982
f 1001 996 994
f 996 1004 997
f 1004 998 997
f 914 897 980
f 910 908 989
f 989 908 909
f 989 909 993
f 993 909 915
f 990 989 993
f 915 982 993
f 1005 978 1006
f 987 918 919
f 919 905 987
f 999 918 987
f 1007 918 999
f 1007 1008 918
f 978 828 1006
f 1009 925 923
f 828 916 1006
f 916 1010 1006
f 1010 916 925
f 1010 1011 1006
f 1011 1010 925
f 925 1009 1011
f 1011 1009 1012
f 1012 1009 923
f 1011 1013 1006
f 1014 923 930
f 1008 837 918
f 1014 1012 923
f 1015 1012 1014
f 1014 930 927
f 1008 926 837
f 1016 927 926
f 1015 1014 927
f 1016 1015 927
f 1017 1016 926
f 1017 1015 1016
f 1012 1015 1017
f 930 931 927
f 933 939 1018
f 1019 933 1018
f 939 934 730
f 1020 1019 1018
f 1021 939 730
f 1021 730 1022
f 1022 730 945
f 1021 1023 939
f 1024 1018 939
f 1020 1018 1024
f 1023 1024 939
f 1024 1025 1020
f 1025 1026 1027
f 1025 1027 1020
f 1023 1028 1024
f 1028 1025 1024
f 1021 1029 1023
f 1028 1030 1025
f 1031 1032 1026
f 1030 1031 1026
f 1030 1026 1025
f 1023 1029 1028
f 1033 1034 1030
f 1033 1030 1028
f 1030 1034 1031
f 1021 1022 1029
f 1035 1036 1031
f 1035 1031 1034
f 1022 1037 1029
f 1038 1036 1035
f 937 933 1019
f 938 937 1019
f 1027 941 938
f 943 941 1027
f 943 1039 942
f 942 1039 944
f 1020 938 1019
f 943 1027 1032
f 943 1032 1039
f 1040 944 1039
f 1027 938 1020
f 1027 1026 1032
f 1041 1039 1032
f 1036 1041 1032
f 1031 1036 1032
f 946 873 1042
f 945 1043 1022
f 1043 945 946
f 1043 946 1042
f 1044 1045 1046
f 1044 1036 1038
f 1047 1045 1048
f 1044 1048 1045
f 950 947 1040
f 1040 947 944
f 1039 1049 1040
f 1049 950 1040
f 1045 950 1046
f 1041 1049 1039
f 1049 1046 950
f 1041 1044 1049
f 1044 1046 1049
f 1041 1036 1044
f 1042 873 755
f 949 954 876
f 1050 954 949
f 1045 1050 950
f 1050 1045 1051
f 1052 1050 1051
f 1045 1047 1051
f 1053 1052 1051
f 1050 949 948
f 950 1050 948
f 1050 1054 953
f 1050 953 954
f 955 953 1054
f 955 951 953
f 1055 956 955
f 1052 1054 1050
f 955 1052 1055
f 1052 955 1054
f 1056 1057 1052
f 1055 1052 1057
f 1057 1058 1055
f 1058 1057 1059
f 1058 1059 1060
f 1056 1059 1057
f 1061 1059 1056
f 1062 755 758
f 956 1055 963
f 963 962 961
f 1060 962 963
f 1060 972 962
f 1058 963 1055
f 1063 972 1060
f 1063 970 972
f 1060 963 1058
f 1059 1063 1060
f 1059 1064 1063
f 1063 1064 1065
f 1066 758 967
f 970 969 972
f 1065 973 970
f 1065 1067 973
f 1067 1068 973
f 1068 971 973
f 1063 1065 970
f 1068 1067 1069
f 1068 1069 1070
f 1067 1065 1071
f 974 971 1070
f 979 983 894
f 1070 971 1068
f 974 1072 979
f 1072 1073 979
f 1073 983 979
f 974 1070 1072
f 1074 1073 1072
f 1075 1074 1072
f 1070 1075 1072
f 1076 1077 1078
f 1079 1076 1080
f 1079 1081 1076
f 914 981 1077
f 1077 981 983
f 1076 982 914
f 1073 1077 983
f 1076 914 1077
f 1082 1077 1073
f 1082 1078 1077
f 1000 992 1083
f 1003 1002 1083
f 1003 1083 992
f 1084 996 1001
f 1084 1004 996
f 1004 1085 1086
f 1004 1086 998
f 1087 1002 982
f 1001 1088 1089
f 1000 1088 1001
f 1088 1000 1083
f 1089 1084 1001
f 999 998 1086
f 982 1076 1087
f 1088 1083 1002
f 1085 1084 1089
f 1085 1004 1084
f 1086 1090 999
f 1088 1091 1089
f 1002 1087 1091
f 1002 1091 1088
f 1092 1086 1085
f 1090 1086 1092
f 1076 1081 1087
f 1089 1091 1093
f 1093 1085 1089
f 1093 1092 1085
f 1087 1081 1091
f 1091 1094 1093
f 1091 1081 1094
f 1092 1093 1094
f 1095 1005 1006
f 1090 1007 999
f 1008 1007 1096
f 1097 1007 1090
f 1097 1096 1007
f 1098 1008 1096
f 1098 926 1008
f 1096 1097 1099
f 1099 1098 1096
f 1095 1006 1013
f 1095 1013 1100
f 1011 1100 1013
f 1101 1102 1012
f 1101 1012 1017
f 1011 1012 1102
f 1098 1017 926
f 1103 1017 1098
f 1102 1101 1103
f 1103 1101 1017
f 1104 1103 1105
f 1105 1103 1098
f 1102 1100 1011
f 1100 1102 1106
f 1104 1106 1102
f 1104 1102 1103
f 1104 1107 1106
f 1107 1104 1105
f 1033 1028 1029
f 1029 1108 1033
f 1033 1108 1109
f 1035 1034 1033
f 1035 1033 1109
f 1029 1037 1110
f 1029 1110 1111
f 1029 1111 1108
f 1108 1111 1109
f 1035 1109 1038
f 1037 1022 1043
f 1043 1112 1037
f 1037 1112 1113
f 1110 1037 1113
f 1112 1043 1113
f 1110 1113 1114
f 1110 1114 1115
f 1116 1115 1114
f 1116 1114 1117
f 1110 1118 1111
f 1038 1109 1111
f 1038 1119 1044
f 1119 1048 1044
f 1120 1047 1048
f 1115 1118 1110
f 1038 1111 1119
f 1115 1121 1118
f 1119 1118 1121
f 1119 1111 1118
f 1119 1120 1048
f 1119 1121 1120
f 1115 1116 1121
f 1122 1042 1123
f 1123 1042 1062
f 1124 1122 1123
f 1125 1126 1124
f 1043 1042 1127
f 1128 1056 1053
f 1113 1043 1127
f 1122 1127 1042
f 1129 1128 1053
f 1124 1127 1122
f 1114 1113 1117
f 1113 1130 1117
f 1113 1127 1130
f 1127 1124 1130
f 1130 1124 1126
f 1131 1129 1132
f 1133 1128 1129
f 1117 1134 1116
f 1116 1134 1131
f 1121 1116 1131
f 1117 1130 1134
f 1130 1135 1134
f 1134 1135 1136
f 1136 1131 1134
f 1126 1137 1130
f 1135 1130 1137
f 1138 1136 1135
f 1129 1136 1138
f 1131 1136 1129
f 1126 1125 1139
f 1126 1139 1137
f 1140 1129 1138
f 1133 1129 1140
f 1137 1138 1135
f 1137 1139 1141
f 1137 1141 1138
f 1138 1141 1140
f 1132 1047 1120
f 1132 1051 1047
f 1132 1053 1051
f 1056 1052 1053
f 1129 1053 1132
f 1121 1132 1120
f 1121 1131 1132
f 1062 1042 755
f 1142 1062 758
f 1123 1062 1143
f 1066 1144 1142
f 1144 1143 1142
f 1143 1062 1142
f 1142 758 1066
f 1144 1145 1143
f 1143 1146 1123
f 1146 1143 1145
f 1124 1123 1147
f 1147 1125 1124
f 1146 1148 1149
f 1123 1146 1149
f 1147 1123 1149
f 1148 1145 1150
f 1148 1146 1145
f 1147 1151 1125
f 1149 1152 1147
f 1152 1151 1147
f 1149 1148 1152
f 1153 1151 1152
f 1056 1128 1061
f 1154 1061 1128
f 1155 1061 1154
f 1156 1155 1154
f 1157 1158 1156
f 1158 1159 1156
f 1133 1154 1128
f 1160 1154 1133
f 1154 1160 1156
f 1160 1157 1156
f 1139 1125 1161
f 1161 1151 1162
f 1161 1125 1151
f 1140 1162 1160
f 1133 1140 1160
f 1160 1162 1157
f 1139 1161 1141
f 1162 1140 1141
f 1161 1162 1141
f 1162 1151 1153
f 1162 1153 1157
f 1163 1157 1153
f 1157 1164 1158
f 1158 1164 1165
f 1166 1059 1061
f 1061 1155 1166
f 1155 1156 1166
f 1145 1144 1167
f 1150 1145 1167
f 1167 1144 1066
f 1167 1066 1168
f 1169 1156 1159
f 1170 1171 1159
f 1172 1173 1174
f 1158 1165 1159
f 1170 1173 1171
f 1159 1175 1170
f 1175 1174 1170
f 1174 1173 1170
f 1172 1174 1176
f 1166 1169 1064
f 1059 1166 1064
f 1169 1177 1065
f 1064 1169 1065
f 1169 1166 1156
f 1177 1171 1065
f 1169 1159 1177
f 1159 1171 1177
f 1178 1066 967
f 1168 1066 1178
f 1071 1065 1171
f 1067 1071 1069
f 1071 1171 1173
f 1179 1069 1071
f 1173 1180 1071
f 1180 1179 1071
f 1069 1179 1181
f 1182 1181 1179
f 1181 1182 1183
f 1182 1179 1180
f 1183 1184 1181
f 1173 1172 1180
f 1182 1180 1172
f 1185 1184 1183
f 1186 1184 1185
f 1178 967 978
f 1187 1178 978
f 1069 1181 1075
f 1184 1075 1181
f 1188 1082 1073
f 1189 1074 1184
f 1190 1082 1188
f 1189 1188 1074
f 1191 1192 1190
f 1184 1186 1189
f 1188 1191 1190
f 1186 1191 1189
f 1191 1188 1189
f 1193 1192 1191
f 1069 1075 1070
f 1184 1074 1075
f 1188 1073 1074
f 1194 1192 1195
f 1078 1080 1076
f 1190 1078 1082
f 1078 1192 1194
f 1190 1192 1078
f 1079 1196 1081
f 1197 1196 1080
f 1080 1196 1079
f 1078 1194 1080
f 1198 1197 1080
f 978 1005 1199
f 1200 1090 1092
f 1200 1097 1090
f 1097 1200 1201
f 1081 1202 1094
f 1202 1092 1094
f 1203 1201 1200
f 1196 1204 1081
f 1204 1202 1081
f 1204 1092 1202
f 1203 1200 1092
f 1205 1196 1197
f 1204 1196 1205
f 1204 1205 1203
f 1204 1203 1092
f 1203 1205 1197
f 1206 1201 1203
f 1207 1201 1206
f 1005 1095 1208
f 1208 1095 1100
f 1208 1100 1209
f 1199 1005 1208
f 1098 1107 1105
f 1201 1099 1097
f 1207 1098 1099
f 1210 1106 1211
f 1211 1106 1107
f 1207 1099 1201
f 1212 1098 1207
f 1212 1107 1098
f 1210 1209 1100
f 1210 1211 1209
f 1211 1107 1213
f 1209 1211 1213
f 1212 1213 1107
f 1106 1210 1100
f 1148 1214 1215
f 1148 1215 1152
f 1148 1150 1214
f 1216 1215 1214
f 1152 1215 1217
f 1163 1153 1152
f 1164 1157 1163
f 1217 1163 1152
f 1218 1163 1217
f 1150 1167 1214
f 1167 1168 1219
f 1216 1214 1220
f 1220 1167 1219
f 1220 1214 1167
f 1216 1220 1221
f 1216 1221 1215
f 1222 1220 1219
f 1220 1222 1221
f 1222 1219 1223
f 1223 1219 1224
f 1224 1219 1168
f 1215 1221 1225
f 1217 1215 1225
f 1217 1225 1218
f 1225 1221 1226
f 1221 1222 1223
f 1221 1223 1226
f 1227 1223 1224
f 1227 1224 1228
f 1228 1224 1168
f 1229 1226 1223
f 1223 1227 1230
f 1230 1227 1228
f 1230 1229 1223
f 1175 1159 1165
f 1164 1231 1165
f 1165 1231 1175
f 1176 1174 1175
f 1232 1172 1176
f 1163 1233 1164
f 1164 1233 1231
f 1231 1176 1175
f 1218 1233 1163
f 1231 1233 1226
f 1226 1234 1231
f 1234 1232 1176
f 1172 1232 1235
f 1218 1225 1226
f 1233 1218 1226
f 1234 1176 1231
f 1226 1236 1234
f 1236 1232 1234
f 1226 1229 1236
f 1236 1237 1232
f 1236 1229 1238
f 1236 1238 1237
f 1187 1239 1178
f 1239 1168 1178
f 1228 1168 1239
f 1240 1230 1228
f 1240 1228 1239
f 1182 1172 1183
f 1183 1172 1241
f 1242 1186 1185
f 1185 1183 1241
f 1243 1191 1242
f 1235 1241 1172
f 1185 1241 1244
f 1242 1185 1244
f 1241 1235 1237
f 1241 1237 1244
f 1243 1242 1244
f 1237 1245 1244
f 1243 1244 1245
f 1232 1237 1235
f 1193 1243 1245
f 1229 1246 1238
f 1238 1246 1237
f 1237 1246 1247
f 1245 1237 1247
f 1192 1193 1195
f 1187 978 1248
f 1249 1250 1195
f 1249 1195 1193
f 1251 1239 1187
f 1191 1186 1242
f 1243 1193 1191
f 1198 1080 1194
f 1252 1194 1195
f 1252 1198 1194
f 1199 1253 978
f 1252 1250 1254
f 1250 1252 1195
f 1252 1255 1198
f 1255 1197 1198
f 1255 1256 1197
f 1257 1256 1255
f 1252 1258 1255
f 1258 1252 1254
f 978 1253 1248
f 1255 1258 1259
f 1259 1257 1255
f 1259 1260 1257
f 1260 1261 1257
f 1257 1261 1256
f 1199 1262 1253
f 1208 1262 1199
f 1253 1262 1263
f 1263 1262 1208
f 1263 1208 1209
f 1264 1253 1263
f 1264 1263 1265
f 1265 1209 1266
f 1265 1263 1209
f 1265 1266 1267
f 1197 1256 1203
f 1203 1256 1261
f 1203 1261 1206
f 1268 1206 1261
f 1268 1207 1206
f 1269 1213 1268
f 1209 1269 1266
f 1269 1209 1213
f 1207 1270 1212
f 1207 1268 1270
f 1268 1212 1270
f 1268 1213 1212
f 1271 1229 1230
f 1240 1272 1230
f 1271 1230 1272
f 1273 1274 1193
f 1240 1239 1275
f 1271 1276 1273
f 1273 1276 1274
f 1275 1277 1240
f 1272 1240 1277
f 1278 1271 1272
f 1271 1278 1276
f 1246 1229 1271
f 1273 1246 1271
f 1246 1273 1247
f 1247 1273 1245
f 1245 1273 1193
f 1239 1251 1275
f 1251 1187 1248
f 1275 1251 1279
f 1274 1249 1193
f 1274 1250 1249
f 1280 1254 1250
f 1279 1277 1275
f 1281 1280 1250
f 1280 1282 1254
f 1276 1283 1274
f 1283 1250 1274
f 1279 1284 1277
f 1283 1281 1250
f 1285 1284 1279
f 1286 1279 1251
f 1272 1277 1287
f 1272 1287 1278
f 1278 1287 1284
f 1278 1284 1283
f 1276 1278 1283
f 1277 1284 1287
f 1283 1284 1281
f 1284 1285 1288
f 1280 1281 1288
f 1288 1281 1284
f 1288 1285 1289
f 1288 1289 1280
f 1289 1285 1279
f 1290 1279 1286
f 1279 1290 1289
f 1280 1289 1282
f 1248 1253 1291
f 1251 1248 1292
f 1293 1258 1254
f 1292 1291 1286
f 1248 1291 1292
f 1251 1292 1286
f 1282 1293 1254
f 1259 1258 1293
f 1282 1294 1293
f 1295 1259 1293
f 1295 1260 1259
f 1294 1295 1293
f 1290 1286 1296
f 1294 1282 1289
f 1294 1289 1290
f 1294 1290 1297
f 1295 1294 1297
f 1290 1296 1297
f 1297 1296 1298
f 1299 1261 1260
f 1295 1297 1260
f 1260 1300 1299
f 1300 1301 1299
f 1301 1300 1302
f 1260 1297 1303
f 1300 1260 1303
f 1302 1300 1303
f 1304 1302 1303
f 1304 1303 1305
f 1302 1304 1306
f 1291 1253 1264
f 1265 1307 1298
f 1298 1264 1265
f 1307 1265 1267
f 1296 1286 1291
f 1296 1291 1264
f 1296 1264 1298
f 1298 1307 1308
f 1269 1267 1266
f 1268 1261 1299
f 1269 1309 1267
f 1309 1269 1268
f 1299 1310 1311
f 1312 1313 1299
f 1312 1299 1311
f 1299 1313 1268
f 1312 1307 1267
f 1309 1312 1267
f 1313 1312 1309
f 1313 1309 1268
f 1301 1310 1299
f 1312 1311 1307
f 1298 1308 1314
f 1298 1314 1297
f 1314 1308 1305
f 1301 1302 1310
f 1310 1302 1306
f 1310 1306 1315
f 1308 1307 1311
f 1315 1311 1310
f 1303 1297 1314
f 1305 1303 1314
f 1305 1308 1304
f 1304 1308 1315
f 1304 1315 1306
f 1308 1311 1315
